<?xml version="1.0" encoding="utf-8"?>
<!-- Generator: Adobe Illustrator 27.0.0, SVG Export Plug-In . SVG Version: 6.00 Build 0)  -->
<svg version="1.1" id="Layer_1" xmlns="http://www.w3.org/2000/svg" xmlns:xlink="http://www.w3.org/1999/xlink" x="0px" y="0px"
	 viewBox="0 0 411 396.3" style="enable-background:new 0 0 411 396.3;" xml:space="preserve">
<style type="text/css">
	.st0{clip-path:url(#SVGID_00000026130674391829545010000014429692489330434479_);fill:#8E8E8D;}
	.st1{clip-path:url(#SVGID_00000026130674391829545010000014429692489330434479_);}
	.st2{fill:#E5E6E7;}
	.st3{fill:#CDCCCD;}
	.st4{fill:#D5D5D5;}
	.st5{fill:#D7D7D7;}
	.st6{fill:#E4E5E6;}
	.st7{fill:#DBDBDB;}
	.st8{fill:#DBDCDC;}
	.st9{fill:#6E6B6C;}
	.st10{fill:#7F797B;}
	.st11{fill:#D2D2D3;}
	.st12{fill:#BCBBBC;}
	.st13{fill:#BFBFC0;}
	.st14{fill:#949494;}
	.st15{fill:#979796;}
	.st16{fill:#484646;}
	.st17{fill:#AAAAA9;}
	.st18{fill:#828282;}
	.st19{fill:#BDBCBC;}
	.st20{fill:#6E6D6D;}
	.st21{fill:#5D5C5C;}
	.st22{fill:#8E8D8D;}
	.st23{fill:#747474;}
	.st24{fill:#9B9B9B;}
	.st25{fill:#969696;}
	.st26{fill:#AEAEAE;}
	.st27{fill:#7F7F80;}
	.st28{fill:#BEBDBE;}
	.st29{fill:#979697;}
	.st30{fill:#ACACAD;}
	.st31{fill:#C1C1C1;}
	.st32{fill:#F0F1F2;}
	.st33{fill:#818182;}
	.st34{fill:#6F6F6F;}
	.st35{fill:#595858;}
	.st36{fill:#828283;}
	.st37{fill:#999998;}
	.st38{fill:#B0AFB0;}
	.st39{fill:#BFBFBF;}
	.st40{fill:#989797;}
	.st41{fill:#ECEDEE;}
	.st42{fill:#CDCDCE;}
	.st43{fill:#C8C7C8;}
	.st44{fill:#D2D2D4;}
	.st45{fill:#E3E3E6;}
	.st46{fill:#E8E9EB;}
	.st47{fill:#868586;}
	.st48{fill:#A9A9A9;}
	.st49{fill:#5A4A4A;}
	.st50{fill:#833233;}
	.st51{fill:#48393A;}
	.st52{fill:#CAC8CA;}
	.st53{fill:#5F5757;}
	.st54{fill:#4E4646;}
	.st55{fill:#6B6667;}
	.st56{fill:#8E8E8D;}
	.st57{fill:#B5B4B4;}
	.st58{fill:#BABABA;}
	.st59{fill:#9F9F9F;}
	.st60{fill:#A1A1A0;}
	.st61{fill:#D2D2D2;}
	.st62{fill:#878787;}
	.st63{fill:#BDBCBD;}
	.st64{fill:#AEAEAF;}
	.st65{fill:#B7B7B7;}
	.st66{fill:#2C2B2B;}
	.st67{fill:#807D7E;}
	.st68{fill:#C9C9C9;}
	.st69{fill:#B9B9BA;}
	.st70{fill:#BDBCBE;}
	.st71{fill:#D3D3D3;}
	.st72{fill:#686767;}
	.st73{fill:#707070;}
	.st74{fill:#767677;}
	.st75{fill:#808080;}
	.st76{fill:#E1E1E2;}
	.st77{fill:#C9C9CA;}
	.st78{fill:#F2F2F3;}
	.st79{fill:#E4E5E5;}
	.st80{fill:#D9DADB;}
	.st81{fill:#E6E7E8;}
	.st82{fill:#D9D9DB;}
	.st83{fill:#DCDCDE;}
	.st84{fill:#706F6F;}
	.st85{fill:#1A1819;}
	.st86{fill:#7F7F7F;}
	.st87{fill:#973031;}
	.st88{fill:#871619;}
	.st89{fill:#791214;}
	.st90{fill:#670C0F;}
	.st91{fill:#510F10;}
	.st92{fill:#2D2B2B;}
	.st93{fill:#2C2828;}
	.st94{fill:#9E9A9A;}
	.st95{fill:#C6C6C6;}
	.st96{fill:#BBBABB;}
	.st97{fill:#B2B2B3;}
	.st98{fill:#BCBCBC;}
	.st99{fill:#D1D1D2;}
	.st100{fill:#D1D0D1;}
	.st101{fill:#E0E1E1;}
	.st102{fill:#AFAFB0;}
	.st103{fill:#A4A4A4;}
	.st104{fill:#D9DADA;}
	.st105{fill:#A8A8A8;}
	.st106{fill:#727172;}
	.st107{fill:#565555;}
	.st108{fill:#F9FAFB;}
	.st109{fill:#DADADB;}
	.st110{fill:#CECDCE;}
	.st111{fill:#908D8D;}
	.st112{fill:#9E1C1F;}
	.st113{fill:#A53031;}
	.st114{fill:#A94040;}
	.st115{fill:#3A1112;}
	.st116{fill:#B8B7B8;}
	.st117{fill:#AD1E23;}
	.st118{fill:#D14A4B;}
	.st119{fill:#BC2025;}
	.st120{fill:#CF3B3C;}
	.st121{fill:#EE4C4E;}
	.st122{fill:#D12027;}
	.st123{fill:#EC1C24;}
	.st124{fill:#DA1F26;}
</style>
<g>
	<g>
		<defs>
			<polygon id="SVGID_1_" points="386.7,154 201.5,10.9 21.9,60.1 21.9,248.7 204.5,388.5 387.6,338.7 			"/>
		</defs>
		<clipPath id="SVGID_00000182502766146088517580000006965409929730492330_">
			<use xlink:href="#SVGID_1_"  style="overflow:visible;"/>
		</clipPath>
		
			<rect x="-13.2" y="1.4" style="clip-path:url(#SVGID_00000182502766146088517580000006965409929730492330_);fill:#8E8E8D;" width="442.1" height="398.2"/>
		<g style="clip-path:url(#SVGID_00000182502766146088517580000006965409929730492330_);">
			<path class="st2" d="M20.5,255.6c-1.1-5.7-3-11.3-3.1-17c-1.4-48.4-1.1-96.8-0.8-145.2c0.1-10.1-0.2-20.4,3.3-30.2
				c0.7-1.9,1-4.2,3.8-3.8c5.3,0.9,6.2,2.7,3.7,7c-0.4,0.5-0.9,0.8-1.6,0.9c-2-0.2-4.8-2.6-5,2c-0.1,1.7,0.3,2.9,2.3,3
				c1.3,0.1,3,0,3.3,1.8c0.3,1.8-1,3.5-2.5,3.8c-3.8,0.9-3.3,3.6-3.3,6.3c-0.1,7.5,0.3,15-0.3,22.8c1-0.2,2-1,3.1-0.6
				c1.5,0.4,2,2.1,3.5,3c2.9-4.3,2.2-9.7,4.1-14.2c2-4.1,5.3-5,9.7-5.1c15.6-0.2,31.2,0.7,46.8,1c1.7,0.3,4.6-0.7,4.7,1.7
				c0,2-2.9,2-4.7,2.2c-5.7,0.6-10.7,2.7-14.6,7.1c3.2-3.1,6.9-5.2,11.3-6c14.6-2.8,29.1-6,43.8-7.8c0.4,0,0.8-0.2,1.2-0.2
				c1.3-0.1,3-0.4,3.6,1.2c0.6,1.8-1.2,2.1-2.3,2.8c-2.4,1-4.9,1.6-7.5,2c-3.1,0.2-6.2,0.8-8.9,2.5c-7.4,3.2-15.5,4.1-23.2,6.5
				c-2,0.2-3.6,1.3-5.4,1.9c-4.3,1.5-6.4,4.7-6.5,9c-0.3,12.7-0.6,25.4,0.1,38.1c0.4,7-0.4,13.9-0.8,20.8
				c-0.4,7.1-0.8,14.1,0.1,21.2c0.4,2.9-0.6,5.7-0.6,8.5c0.1,7.4,0.1,14.7,0,22.1c0,1.7,0.4,3.6-1.6,4.7c-1.9-1.2-1.5-3.1-1.5-4.8
				c-0.1-18.2-0.3-36.4,0.1-54.5c0.2-7.2,0.6-14.5,0.7-21.7c0-3.1-0.4-6-1.8-8.7c-1.8-3.7-2.8-7.7-3.6-11.7
				c-0.5-2.5-1.4-2.9-3.4-0.9c-3.9,3.8-5.8,4-10.5,1.3c-3.1-1.8-6.3-3.3-9.7-4.4c-3.9-1.3-6.2-0.4-8.3,3c-1.9,3.1-3,6.5-3,10.1
				c0,3.6-0.7,7.1-1,10.6c-0.1,1.8-0.6,3.6-2.6,4.2c-1.9,0.6-3.5-0.1-4.9-1.3c-0.5-0.4-1-1-1.4-1.5c-1.9-2.2-2.6-1-3.1,1
				c-0.2,0.9-0.2,1.9-0.2,2.9c-1.3,28.6-0.7,57.1-0.9,85.7c0,4.4,2.4,8.5,1.1,13C22.2,253,21.7,254.5,20.5,255.6z"/>
			<path class="st3" d="M209.2,11.8c1.1,1.1,2.2,2.2,3.3,3.3c-4.1,6.8-10.8,9.4-18,11.4c-1.9,0.6-3.9,1-5.9,1.5
				c-6.6,1.7-13.1,3.7-19.7,5.5c-0.4,0.2-0.8,0.3-1.2,0.4c-3.3,0.3-6.4,1.7-9.7,2.4c-7.6,1.7-15,4.2-22.7,5.9
				c-9.7,1.7-19.1,4.9-28.7,7.3c-2.2,0.5-4.4,1.2-6.7,1.8c-1.4,0.2-2.8,0.3-4-0.7c-0.2-2.8,2.2-2.4,3.6-2.8
				c11.4-3.2,22.6-6.9,34.3-8.8c3.3-0.6,6.4-1.6,7.6-5.3c2.2-2.1,5.3-2.1,8-2.8c11.3-3.1,22.5-6.3,33.8-9.5
				c5.5-1.6,11.2-2.3,16.8-3.4c0.8-0.2,1.6-0.3,2.4-0.1c2.7,0.6,4.2,0.1,3.5-3.2C205.5,12.4,206.7,11.2,209.2,11.8z"/>
			<path class="st4" d="M142,34c0.5,4.2-2.5,5.1-5.5,5.7c-13.1,2.4-25.9,6.4-38.7,9.9c-0.7,0.2-1.3,0.3-1.7,0.9
				c-0.6,1.6-2,1.7-3.4,1.9c-8.9,1.7-17.7,4.2-26.5,6.3c-8.6,2.1-17,4.7-25.6,6.9c-1.6,0.4-3.2,0.7-4.8,0.7c-2.9,0-5.8-0.7-8.7-0.4
				c2.7-4.1-0.9-5-3.3-6.5c2.8-1.1,5.5-2.2,8.3-3.2c7.2-0.4,13.8-3.4,20.8-4.9c4.6-1,9-2.9,13.7-3.3c0.8,0.5,2.3-0.3,2.6,1.2
				c-0.7,1.5-2.2,1.5-3.5,1.7c-9.3,1.5-18,5.4-27.3,7.3c-1.2,0.2-2.4,0.6-3.4,1.3c-1,0.7-3.3,0.7-2.4,2.5c0.7,1.4,2.4,0.6,3.7,0.2
				c28.1-7.8,56.2-15.7,84.5-23.1c5.3-1.4,10.4-3.4,15.7-4.7C138.2,34,140,33.1,142,34z"/>
			<path class="st5" d="M265.1,54.5c5.4,5.3,12.2,8.9,17.9,13.9c2.2,2,4.5,3.9,6.7,5.9c-2.2,1.7-3.9-0.1-5.7-0.8
				c-2.8-1.7-5.5-3.7-8.4-5.2c-6.4-2.9-10.6-8.7-16.5-12.4c-6.1-4.6-11.7-9.8-18.1-14c-6-5-12.8-8.9-19-13.5
				c-3.3-2.4-6.5-1.3-9.6,0.5c-2.1,0.8-3.9,2.2-6,3.1c-0.4,0.1-0.8,0.2-1.2,0.3c-2.6-0.3-2.6-1.8-1.7-3.7c0.6-1.2,1.7-2.1,2.5-3.1
				c3.1-2.6,5.5-6.5,10.5-5.9c-0.2-0.3-0.7-0.5-1-0.9c-0.4-0.6-0.7-1.1-0.5-1.9c5.1,1.6,8.4,5.7,12.5,8.8
				C240.1,35,252.5,44.8,265.1,54.5z"/>
			<path class="st6" d="M381.5,144c2.7,0.2,3.7,2.6,5.4,4.1c1.2,1,2.4,1.8,3.7,2.4c0.8,0.8,1.7,1.6,2.5,2.3
				c-0.1,0.1-0.2,0.2-0.3,0.3c-4.1,2.7-4.4,7.1-5.4,11.3c-0.4,0.2-0.8,0.2-1.2,0.1c-1.6-2.5-0.7-5.3-0.9-8c-0.3-3.9-0.7-4.3-3.9-2.3
				c-1.8,1.1-3.1,0.7-4.3-0.7c-1.5-1.8-3.1-3.5-5-4.8c-2.5-2.1-5.3-3.6-7.7-5.8c-1-0.9-2.6-1.6-1.7-3.5c3.3-1.6,6,0.5,8.7,1.7
				c3.8,1.7,6.6,5.2,10.6,6.9C383,146.2,380.8,145.4,381.5,144z"/>
			<path class="st7" d="M209.2,11.8c-1.5,0.3-3.5,1.1-2.3,2.6c1.9,2.3,0.2,2.9-0.8,4.3c-1.6,2-2.8,0.4-4.2-0.2
				c-0.2-0.1-0.5-0.1-0.8-0.1c0.7-3.9,0.6-4.1-3.3-3.3c-2.2,0.5-4.3,1.6-6.6,1.4c-1.2-0.3-2.4-0.4-3.3-1.4c3.9-2.1,8.7-1.4,12.3-4.1
				C203.2,11.4,206.3,10,209.2,11.8z"/>
			<path class="st2" d="M27,251.3c-1.5,1.1-3.2,1-4.9,0.9c0-4.8-1.8-9.3-1.7-14.2c0.2-20.8,0-41.6,0.1-62.3c0-8.5,0.5-17,0.8-25.5
				c0-1.3,0.6-2.4,1.1-3.5c0.9-1.8,1.8-2.4,3.1-0.3c0.7,1.2,1.4,2.4,2.3,3.3c1.2,1.2,2.7,2,4.5,1.3c1.6-0.6,1.2-2.2,1.4-3.5
				c0.7-5.2,0.4-10.6,1.6-15.8c0.5-2.5,1.7-4.7,3.1-6.6c2-2.7,4.6-4.2,8.2-2.7c3.5,1.5,7.1,2.6,10.4,4.7c4.9,3.2,6.9,2.8,10.3-1.8
				c0.7-1,1.2-2.5,2.6-2.3c1.6,0.3,1.5,2,1.7,3.4c1.1,5.3,2.4,10.6,5,15.5c0.9,1.7,0.6,3.5,0.6,5.2c-0.7,27.4-1.1,54.9-0.7,82.3
				c1.3,1.3,1,3,0.9,4.6c-1.6,4.9-3.2,6.2-8.3,6.2c-11.2,0-22.3,0.2-33.5-0.1c-0.2,1.4,0.9,1.7,1.5,2.2c7.8,5,14.5,11.5,21.8,17.2
				c1.8,1.4,4.7,3.2,1.7,6.2c-1.8,0.5-3.2-0.6-4.8-1.1c-0.4-0.2-0.7-0.3-1.1-0.6c-6-5.1-12.5-9.5-19.4-13.2
				C32.4,249.4,29.7,249,27,251.3z"/>
			<path class="st8" d="M130.5,91.4c0.4-0.9,1.9-0.5,2.1-2c-2.8-1.2-5.6,0.2-8.2,0.6c-13.6,2.2-27.2,4.7-40.7,7.4
				c-5.2,1-9.3,4.2-12.8,8.1c0.8-4.8,4.4-7.2,8.3-9.4c4-2.3,8.7-1.5,13.1-3.2c-1.3-1.2-2.5-0.5-3.6-0.7c-0.1-0.2-0.1-0.4-0.2-0.6
				c0.2-0.4,0.6-0.7,1-0.9c2.8-0.8,5.8,0.1,8.6-1c12.1-1.2,23.9-4.1,35.7-6.5c17.1-3.5,34-8.1,51.2-11.7c3.8-0.5,7.5-1.3,11.3-0.9
				c1.2,0.1,2.9,0,3.2,1.3c0.4,1.5-1.6,1.5-2.5,2.2c-6.8,3.3-14.3,4.6-21.5,6.6c-13.3,3.5-26.6,7.2-39.8,10.9
				C133.8,92.1,132.1,92.9,130.5,91.4z"/>
			<path class="st9" d="M130.5,91.4c8.4-1.3,16.3-4.3,24.4-6.5c13.8-3.7,27.7-6.9,41.3-11.5c0.8-0.6,1.6-0.4,2.4-0.2
				c-0.2,2.7-2.4,3.7-4.2,5c-14.1,4.3-28.1,8.7-42.2,12.8c-17.9,5.2-35.9,9.8-53.9,14.5c-3.2,0.8-6.1,2.4-9.1,3.5
				c-0.6,0.2-1.3,0.2-1.9-0.1c-1-4,1.7-5.6,4.7-6.9c6-1.6,12.1-3.2,18.1-4.9c1.4-0.4,3-0.3,4.1-1.5c2.9-1.3,6.1-1.6,9.2-2.5
				C125.7,92.6,128.1,92,130.5,91.4z"/>
			<path class="st10" d="M91.9,102.1c-2.4,1.6-3.9,4-4.9,6.6c-2.3,3.6-2.1,7.7-2.2,11.8c-0.1,10.9,0.3,21.8-0.2,32.7
				c0,5.8-4.1,10.5-4.4,16.2c-0.1,1.7-0.3,3.5-0.3,5.2c-1,4.8-0.9,9.6-0.8,14.4c1.6,5.1,0.4,10.2,0.1,15.3c-0.5,8-0.1,16.1-0.1,24.2
				c0,1.6,0.2,3.3-0.4,4.9c-0.2,0.5-0.5,0.8-1,1.1c-0.5,0.1-1,0-1.3-0.4c0-1.6,0-3.1,0-4.7c1.3-1.2,0.8-2.8,0.8-4.2
				c-0.3-13.2,0.6-26.4,0-39.6c-0.4-9,1.1-18,1.3-26.9c0.2-8.9-0.3-17.7-0.4-26.6c-0.1-4.6,0-9.3-0.1-13.9
				C77.7,107.1,80.8,103.6,91.9,102.1z"/>
			<path class="st11" d="M23.8,107c-2.5,0.6-2.5,0.6-4.6,3.2c0.9-11.2,0.2-22,0.6-33c1.6,0.5,3.2,1.3,4.3-0.5c0.6-0.9,2-1.4,1.7-2.6
				c-0.4-1.4-1.9-0.8-2.9-0.7c-2.9,0.3-3.6-1.3-3.2-3.7c0.1-0.9,0.6-1.8,0.6-2.8c0.1-4.3,1.7-3.5,3.8-1.1c0.6,0.7,1.3,0.9,2.2,1
				c0.3,3.1-3.1,1.9-4.2,3.9c1.6,1.4,3.5,0,5.2,0.4c2,0.4,4.1,0.3,6.1,0.4c1.3,0.3,3.2,0.1,2.7,2.4c-2.3,2.7-1.4,5,0.9,7.1
				c0.9,2.3-0.3,3-2.3,2.8c-1.7-0.2-3.4-0.5-5.1,0.2c-1.8,0.6-3.6,1-5.4,1.1c-1.8,0.1-2.6,1.1-2.5,2.8c0.1,2.6,0.1,5.2,0,7.8
				C21.5,99.7,21.6,103.5,23.8,107z"/>
			<path class="st12" d="M23.8,107c-2.7-1.1-3.5-3-3.4-6c0.3-4.6,0.1-9.2,0.1-13.7c5.2-1.2,5.3-1.2,7.9,3.6c0.8,1.5,2.3,1.8,3.5,2.7
				c0.8,1.2-0.4,1.9-0.7,2.8c0.4,4.6-1.3,8.7-2.5,13c-0.2,0.9-0.3,2-1.4,2.2c-1.3,0.2-1.3-1.2-1.8-1.9
				C24.9,108.8,24.4,107.9,23.8,107z"/>
			<path class="st13" d="M31.2,96.4c0.3-0.8,0.5-1.7,0.8-2.5c0-4,1.2-5.8,4.9-6c12-0.4,24.1-1,36,0.3c5.2,0.6,10.7,1.3,15.7,3.2
				c0,0.3,0,0.5,0,0.8c-14.7,0.2-29.4-1.3-44.2-0.9C39.3,91.5,34.2,90.9,31.2,96.4z"/>
			<path class="st14" d="M27,71.8c-1.6,0.2-3.1,0.5-4.7,0.6c-1.1,0.1-1.7-0.6-1.7-1.7c0-1.2,0.1-2.1,1.6-2.3
				c1.5-0.2,3.3,0.4,4.1-1.6c0.3-0.3,0.5-0.6,0.8-0.9c2.5-2.4,5.4-0.4,8.1-0.6c1.5,1,3.1,0.6,4.7,0.1c13.3-3.7,26.6-7.6,40.1-10.7
				c4.3-1,8.6-2.2,12.9-3.3C94,51.4,95,51,96,50.4c1.4,0,2.7-0.1,4.1-0.1c0.3,0.4,0.3,0.8,0,1.2c-5.9,3.2-12.4,4.1-18.8,5.4
				c-12.5,3.2-24.9,6.9-37.3,10.2c-3.3,0.9-6.5,2-9.9,0.7c-1.4-0.6-2.6,0-3.6,1.1C29.3,70,28.4,71.3,27,71.8z"/>
			<path class="st8" d="M123.3,93.1c-2.9,1.3-6,2.3-9.2,2.5C116.8,93.6,120,93.2,123.3,93.1z"/>
			<path class="st15" d="M270.8,373c-3.2,1.2-6.4,2.3-9.8,2.4c-5.4-0.5-10.3,1.9-15.5,2.4c-4.5,0.4-8.8,1.4-13.4,1.2
				c-2.9-0.2-5.2-1.2-7.1-3.5c-3.9-4.7-12.9-5.8-17.9-2.6c-1.8,1.2-1.4,4-3.7,4.6c-4.7-1.9-7.5-6.1-11.1-9.3
				c-7.9-7-16-13.8-24.3-20.4c-1.3-1.1-3.1-1.9-2.4-4.2c1.9-1.8,3.9-0.7,5.7-0.1c4.4,1.4,8.8,2.8,13.6,3c3.2,0.1,6-0.2,7.7-3.4
				c0.5-1,1.5-1.6,2.6-1.9c4.2,0.5,8.4,1.6,12.7,1c1.6,2,3.6,2.4,6.1,2c7.3-1.2,14.1-3.9,20.9-6.4c1.5-0.6,0.9-1.2,0.4-2
				c0.6-1.5,2-1.8,3.3-2.2c7.3-1.8,14.2-5.3,21.7-6.7c2.4-0.6,4.7-1.7,7.2-2.2c0.6-0.1,1.2-0.2,1.9-0.1c0.9,0.1,2.1,0.2,2.3,1.3
				c0.3,1.4-0.8,2.3-1.9,2.9c-3.6,2-7.4,3.5-11.1,5.1c-7.9,3.4-15.9,6.6-23.4,10.7c-1,0.6-2.6,0.9-2.7,2.2c-0.1,1.6,1.7,1.4,2.8,1.9
				c6.8,2.7,6.8,2.7,11.8-2.5c4.9-5.2,10.5-4.9,14.9,0.8c0.6,0.8,1.1,1.6,1.6,2.4c5.3,8.6,8.8,10.1,18.7,8.5
				c2.4-0.4,4.8-1.3,6.9,0.8c-0.7,2-2.6,1.7-4.1,2.1c-6.5,1.7-13.2,2.1-19.8,2.8c-1.7,0.2-3.2,0.4-3.7,2.5c-0.5,1.9-2.2,2.6-3.8,3.4
				c-1.3,0.7-2.9,0.9-3.9,2.4c1.4,1.4,3,0.7,4.5,0.4c7-1.2,13.9-2.9,20.8-4.3c1.5-0.3,3.8-1.4,3.3,2l0,0
				C278.5,370.7,274.6,371.8,270.8,373z"/>
			<path class="st16" d="M393,295c0,2.7,0,5.5,0,8.2c-1.3-0.7-2.3-2.3-4-1.4c-1.6,0.9-1.3,2.9-1.1,4.1c1.7,9.4,1,19,3.3,28.3
				c1.2,4.7-1.7,8.8-7.4,11.1c-7.6,3.1-15.7,4.3-23.6,6.3c-16.2,4.3-32.4,9-49,11.9c-4.7,0.8-9.2,3.4-14.2,2.8
				c0.7-2.5,3.2-1.9,4.8-2.7c14.2-3.3,27.9-8.1,42-11.9c7.4-2.5,15.2-3.3,22.6-5.7c2.9-1.2,6-1.5,8.9-2.5c0.6-0.3,1.2-0.6,1.8-0.8
				c0.9-0.3,1.8-0.4,2.7-0.4c5.9-0.3,5.7-0.3,6.6-6.3c1.4-9-0.1-17.9-0.8-26.8c-0.3-4,0.6-7.8,0.7-11.8c0.1-1,0.2-2,0.7-2.9
				c2.2-6.2,1.9-12.6,2-18.9c0.3-14.7,0-29.4-0.3-44.2c0-1.3-0.1-2.7,0-4.1c0.1,15.9,0.6,31.9,0.3,47.8c0,1.4,1.2,3.8-1.8,4.1
				c-1-1.1-0.9-2.5-0.9-3.9c0-18.5,0-37,0-55.6c0-1,0-1.9,0.4-2.8c0.2-0.5,0.6-0.9,1-1.1c2.2-0.1,2.3,1.6,2.5,3
				c0.3,3.1,0.9,6.2,1,9.4c0.9,20.9,0.8,41.8,0.7,62.7C391.8,292.4,391.3,294,393,295z"/>
			<path class="st17" d="M202.7,377c0.4-0.1,1.1-0.2,1.1-0.4c0.8-6.3,6.2-6.8,10.3-6.7c4.2,0.1,9.1-0.1,12,5.1
				c2.7,4.8,8.2,3,12.4,2.6c6.8-0.7,13.6-2.4,20.4-3.6c0.9-0.2,2.8-1.3,2,1.4c-4.1,1.1-8.2,2.2-12.3,3.3c-11.5,2.7-23.2,4.7-35,6.3
				c-0.7,0.1-1.3,0.1-2,0c-0.9-2.7-0.9-2.7-4.8-2.6C203.2,382.5,202.1,381.1,202.7,377z"/>
			<path class="st18" d="M302,364.7c-1.7,0.5-3.3,1.1-5,1.6c-1.2-0.1-2.2,0.2-3.1,0.9c-2.5,0.6-5.1,0.7-7.5,1.7
				c-1.2,0.9-2.7,0.8-4.1,0.8c-0.3-2.1-1.5-1.3-2.7-1c-7.3,1.5-14.6,3-21.8,4.5c-0.7,0.1-1.3,0.4-2,0.4c-1.6,0.1-3.8,0.3-4.2-1.5
				c-0.5-1.9,1.8-2.3,3.2-3.1c2.3-1.4,6.7-0.7,5.6-5.7c-0.3-1.1,1.3-1.1,2.2-1.1c8.4-0.5,16.7-1.7,24.9-3.4c0.5-0.1,0.9-0.5,1.4-0.7
				c4.5-3.3,10-2.8,15-4.2c3.5-1,7.1-2.8,11-1.9c0.4,0.3,0.5,0.7,0.5,1.1c-3.4,4-8.6,3.7-13.1,5c-7.8,2.2-15.3,4.8-22.8,8
				c4.8,0,9.4-0.9,13.9-2.4c1.7-0.6,3.4-1.2,5.1-1.3C300.3,362.2,302,362.3,302,364.7z"/>
			<path class="st19" d="M202.7,377c0.3,3.6,1.9,5.2,5.8,4.2c1.8-0.4,4-0.5,6.5,0.5c-1.6,1-2.8,1.8-4.1,2.6c-3.3,3.7-7,2.1-10.7,0.9
				c-0.3-0.2-0.6-0.5-0.9-0.7c-0.3-0.6-1.1-0.9-1.2-1.6c-0.4-7.5-6-11.3-10.9-15.7c-2.1-1.9-3.9-4.1-6.3-5.7
				c-0.3-0.2-0.6-0.4-0.9-0.6c-1.6-1.4-2.9-3.2-5.1-3.9c-5.3-4.5-10.9-8.6-16.2-13.1c-1.4-1.5-3.8-2-4-4.6c0.4-0.9,1.1-1.6,2-2
				c3.7,1.4,6.4,4,8.9,6.8c4.8,5,10.8,8.5,15.8,13.2C188.7,363.9,196.4,369.6,202.7,377z"/>
			<path class="st18" d="M155,339.3c1.4,1.4,2.8,2.7,4.1,4.1c-5.2,1.9-9.9,0.3-14.2-2.5c-2.7-1.8-5.1-4-8-5.7
				c-1.3-0.6-2.6-1.2-3.9-1.9c-6.7-6.4-14.6-11.2-21.9-16.8c-3.2-2.5-6.3-5-9.5-7.6c0.4-0.5,1-0.7,1.6-0.7c3.5,1.1,5.8,4.2,8.9,6
				c4.7,3.7,9.8,6.9,14.8,10.2c3.3,2.2,7.2,1.1,10.8,1.6C144.4,329.2,150,333.8,155,339.3z"/>
			<path class="st20" d="M136.9,335.2c3.6,0.9,5.9,3.7,8.9,5.5c4.1,2.4,8.7,2.4,13.3,2.7c5.8,4,11.2,8.5,16.5,13.1
				c0.3,0.4,0.3,0.8,0.1,1.2c-2.6,2.4-5.2,1.3-7.9,0.1c-3.5-1.5-6-4.6-9.4-6.3C151,346.3,143.4,341.5,136.9,335.2z"/>
			<path class="st21" d="M158.3,351.6c4,0.8,6.5,4.2,10.2,5.6c2.4,0.9,4.6,1.4,7,0.2c2.4-0.1,3.1,2.5,5,3.3l0,0
				c4,3.3,7.6,7,11.3,10.6c3.4,3.3,4.7,7.7,5.1,12.4c-2.9-0.7-4.6-2-5.1-5.4c-0.6-3.2-4.2-4.3-6.6-6.2
				C176.3,365.1,166.7,359.2,158.3,351.6z"/>
			<path class="st19" d="M200.2,385.3c3.7,1.3,7.2,0.5,10.7-0.9c12.6-1.9,25.2-3.8,37.8-5.7c-7.1,2.8-14.8,3.4-22,5.7
				c-3.6,1.1-7.5,1.7-11,3.1C210,389.6,205,388.2,200.2,385.3z"/>
			<path class="st22" d="M196.9,383.6c-0.3-0.5-0.7-0.9-0.8-1.4c-1.4-9.3-8.9-14.2-14.7-20.3c-0.4-0.4-0.6-0.9-0.9-1.3
				c5,2.8,8.8,7.1,12.8,11c3.7,3.6,6.3,7.6,5.9,13C198.5,384.3,197.7,383.9,196.9,383.6z"/>
			<path class="st18" d="M270.8,373c3.6-2,7.5-3,11.6-3.3C278.7,371.6,274.8,372.5,270.8,373z"/>
			<path class="st23" d="M286.4,368.9c2.3-1.6,4.8-2,7.5-1.7C291.5,368.3,289,368.8,286.4,368.9z"/>
			<path class="st24" d="M93.3,302.4c-13.9-10-27.8-20-40.9-31c0-0.2,0-0.4,0.1-0.5c2-0.8,3.2,0.9,4.7,1.7c2.9,1.7,5.3,4.1,8,6
				c4.4,3.7,9.1,6.9,13.9,10.1c4.1,3.9,9.4,6.3,13.5,10.2c1,1,3.1,1.4,2.4,3.6C94.4,302.8,93.9,302.7,93.3,302.4z"/>
			<path class="st25" d="M93.3,302.4c0.6,0,1.3-0.1,1.9-0.1c0.3-0.2,0.7-0.3,1.1-0.2c2.3,2.3,6,3.2,7.1,6.7c-0.6,0-1.2,0-1.8,0.1
				C98.9,306.8,96.1,304.6,93.3,302.4z"/>
			<path class="st26" d="M308.6,88.9c4.2,2.8,8.8,5.2,12.1,9.2c3.6,5.1,7.5,9.8,12.8,13.3c4.7,3.1,9.6,6.2,13,10.9
				c-0.1,0.4-0.4,0.7-0.8,0.9c-1.3,0.4-2.4-0.2-3.4-1c-5.8-4.6-13-6.6-19.3-10.3c-1.9-1.1-4.1-1.3-6.3-1.5
				c-6.5-2.3-11.8-6.7-17.7-10c-0.8-0.5-1.5-1.2-1.4-2.3c2.2-2.4,4.8-2,7.4-0.8c2.2,1,4.2,2.4,6.3,3.6c1.2,0.7,2.3,1.5,3.7,0.8
				c0.9-0.3,1.9-0.3,2.9,0.1c-4.5-2.9-7.7-7.1-10.7-11.4C307.3,89.5,307.4,88.7,308.6,88.9z"/>
			<path class="st27" d="M346.4,122.6c-6-5.1-12.3-9.8-18.7-14.3c-3.5-2.5-4.8-6.9-8-9.7c0.3-0.2,0.6-0.4,0.9-0.5
				c10.4,7,19.9,15.1,30,22.6c6.1,4.5,11.9,9.4,17.8,14.2c0.8,0.7,1.6,1.4,0,2c-1,0.3-1.9-0.2-2.7-0.8
				C359.5,131.4,352.5,127.6,346.4,122.6z"/>
			<path class="st28" d="M308.6,88.9c-0.7,0.4-0.8,1-0.9,1.7c-1.9,0.7-3.1-0.6-4.3-1.7c-2.4-2.3-5.2-4-7.8-6
				c-4.3-3.4-8.9-4.6-14.1-2.5c-1.7-0.3-3.1-1.1-3.8-2.7c-0.1-0.4,0-0.8,0.1-1.2c1.8-1.7,4.2-2.4,6-4.1c2,0.2,3.5,2.3,5.7,1.7
				c4.6,3.4,9.2,6.9,13.9,10.1C305.5,85.7,307.2,87,308.6,88.9z"/>
			<path class="st29" d="M346.4,122.6c1.7-0.3,2.8,0.8,4,1.7c5.2,3.6,10.3,7.3,15.6,10.8c0.3,0.2,2,3.3,2.5-0.2
				c4.9,1.9,8.1,6.2,12.3,9c-0.3,2.9-0.5,3.1-2.7,1.9c-2.5-1.3-4.4-3.7-7.2-4.5c-6.6-3.5-12.2-8.3-18.3-12.4
				c-1.7-2.5-5.4-3.1-6.3-6.3L346.4,122.6z"/>
			<path class="st30" d="M370.9,140.6c2.8,0.7,4.6,3,7,4.4c1.8,1.1,2.6,1,2.8-1.2c0.2,0,0.5,0.1,0.7,0.1c0.6,0.7,1.3,1.4,1.9,2.1
				c0.5,0.6,1.7,1.2,0.2,2.2c-1.1,0.8-2,1.7-3.5,0.4c-2.7-2.3-5.6-4.3-8.4-6.4C371.3,141.8,370.4,141.6,370.9,140.6z"/>
			<path class="st31" d="M187.9,15.1c1.1,0.2,2.5-0.4,3.3,0.9c-0.6,1.5-2,1.8-3.3,2.2c-12.1,4.1-24.3,7.4-36.7,10.1
				c-6.2,1.4-12.1,3.2-18.1,5.1c-19.1,5.8-38.7,9.5-57.8,15.4c-2,0.6-4.2,1.6-6.3,0.1c-0.9-0.1-1.9,0.1-2.5-0.8
				c11.8-3.3,23.5-6.5,35.3-9.8c19.7-5.4,39.5-10.8,59.3-16.2C170,19.6,178.9,17.4,187.9,15.1z"/>
			<path class="st32" d="M68.9,48.8c14.5-3.7,28.9-7.4,43.4-11.1c19.2-4.9,38.1-10.8,57.5-15.3c7.3-1.7,14.3-4.3,21.5-6.5
				c2.5-0.7,5-1.4,7.4-2.1c1.6-0.4,3.4-1,4.4,0.7c1.3,2.1-1.2,2.6-2,3.8c-0.7,0.9-1.7,1.4-2.8,1.5c-13.4,1-25.8,6.2-38.6,9.5
				c-5.9,1.5-11.8,3.1-17.7,4.6c-20.6,6.1-41.4,11.3-62,17.3c-14.7,4.3-29.8,7.3-44.3,12.5c-1.3,0.5-2.3,0.3-3.5-0.1
				c-0.9-0.3-2-0.4-2.2-1.5c-0.2-1.3,0.8-2,1.8-2.5c3.1-1.6,6.5-2.7,9.9-3.6C50.7,53.7,59.8,51.2,68.9,48.8z"/>
			<path class="st33" d="M100.1,51.1c0-0.3,0-0.6,0-0.8c11.7-3.2,23.3-6.9,35.3-9c0.3,0.2,0.4,0.4,0.3,0.6c-0.1,0.2-0.2,0.3-0.3,0.3
				c-0.8,0.3-1.6,0.7-2.4,1c-9.2,3.5-18.9,5.8-28.5,8.1C103,51.4,101.5,52.3,100.1,51.1z"/>
			<path class="st34" d="M135.4,42.1c0-0.3,0-0.6,0-0.8c7.7-1.8,15.1-4.6,23-5.8c0.3,0.2,0.4,0.4,0.3,0.6c-0.1,0.2-0.2,0.3-0.3,0.3
				C150.7,38.3,143,40.2,135.4,42.1z"/>
			<path class="st35" d="M188.7,27.3c-6.5,3.1-13.4,4.9-20.6,5.8C174.9,30.7,181.7,28.7,188.7,27.3z"/>
			<path class="st35" d="M158.3,36.4c0-0.3,0-0.6,0-0.9c3.2-1.1,6.4-2.4,9.9-2.4C165.2,34.9,161.5,35,158.3,36.4z"/>
			<path class="st3" d="M92.8,51.3c-5,3-10.9,3.1-16.4,4.6c-12.3,3.5-24.7,6.8-37,10.2c-1.7,0.5-3.2,1.1-4.2-0.9
				c7-0.4,13.4-3.3,20.1-5c11.4-2.9,22.8-6,34.3-8.9C90.6,51.1,91.7,51.3,92.8,51.3z"/>
			<path class="st36" d="M241.3,41.3c6.7,3.7,12.3,8.9,18,13.9c2.1,3.3,5.2,5.9,7.6,9c0.8,1.1,1.7,2.3,0.9,3.7
				c-0.8,1.6-2.5,1.7-3.9,1.4c-9.5-2.4-19.3-1-28.9-1.4c-5.6-0.2-10.6-2.5-15.5-4.7c-2.5-1.1-5.1-2-7.8-2.1
				c-0.5-0.1-0.9-0.2-1.4-0.3c-9.1-1.2-17.9,0.1-26.6,2.4c-4.1,1.1-8.2,1.8-12.4,2.7c-1.5,0.3-3,0.4-4.4-0.3c-1.1-1.2,0-1.5,0.7-2.1
				c1.1-0.4,2.1-0.7,3.3-1c6.8-2.3,13.9-3.8,21-4.6c8.9-1.1,17.9-1.5,26.7,0.6c4.1,1,8.3,1.3,12.5,1.4c7.9,0.3,15.7-1.8,24.1,0.6
				c-1.2-3.1-3.1-4.4-4.8-5.8c-5.2-4.5-10.5-8.8-16.2-12.7c-3.5-2.5-7.2-4.7-10-8c0-0.4,0.2-0.8,0.5-1.1c3.1-0.6,5.5,1.1,7.7,2.7
				C235.4,37.6,238.3,39.5,241.3,41.3z"/>
			<path class="st37" d="M210.9,60.2c4.9-0.7,8.9,2.1,13.1,3.8c4.6,1.9,9.3,2.8,14.2,2.8c8.7,0.1,17.4-1.2,25.9,1.5
				c0.9,0.3,2.3,0.5,3-0.7c0.7-1.2-0.5-1.9-1.1-2.8c-2.3-3.2-6.4-5.1-6.7-9.7c2.3,0.9,4.3,2.4,5.9,4.1c3.1,3.3,6.9,5.6,10.5,8.3
				c2.4,1.7,2.3,4,1.3,6.2c-1.1,2.3-3.2,1.4-5,1c-8-1.5-16-1.2-24.1-1.1c-7.4,0.1-14.3-1.6-20.8-5.1c-4.2-2.3-8.6-4.1-13-5.8
				C212.8,62.3,211,62.3,210.9,60.2z"/>
			<path class="st38" d="M210.9,60.2c10,3.3,18.7,9.8,29.3,11.8c4.1,0.8,8.2,0.3,12.2,0.4c7.2,0.1,14.4-0.4,21.5,1.7
				c1.8,0.6,2.6-0.1,2.6-1.9c0.1-1.6,0.1-3.3-0.8-4.8c3.1,1,5.6,3.1,8.2,4.9c-0.6,3.1-3.5,3.2-5.7,4.1c-7.5,0.5-14.9,0.8-22.4-0.3
				c-3.1-0.4-6.3-0.3-9.4-0.2c-3.4,0.1-6.8-0.5-10.1-0.8c-0.9,0-1.8-0.1-2.7-0.5c-2-1.7-4.1-3.3-6.6-4.2c-6.5-3-12.4-7.5-19.8-8.7
				c-0.7-0.1-1.6-0.6-1.4-1.7C207.5,59.5,209.2,59.7,210.9,60.2L210.9,60.2z"/>
			<path class="st39" d="M164.1,37.2c14.2-3.9,28.8-6.5,42.7-11.4c-0.8,1-1.7,2-2.5,3c-1.5,2.2-0.4,2.8,1.7,2.8
				c0.2,0.5,0.2,0.9-0.2,1.2c-0.4,0.3-0.8,0.4-1.2,0.5c-5.1,0.1-9.8,2.1-14.8,2.8c-1.4,0.2-2.7,0.6-4-0.1c-1.3-1.9-3.1-1.3-4.8-0.8
				c-11.1,3.2-22.3,6.2-33.5,8.9c-7,1.7-14,3.4-21,5.2c-1.5,0.4-3,0.6-4.3-0.5c2.5-3.7,6.5-3.3,10.2-4c0.7-0.1,1.6,0.4,2.3-0.2
				c4.1-1.1,8.1-2.2,12.2-3.3c2.5-0.6,5-1.2,7.6-1.6c1.2,0.2,2.2-0.1,3.1-0.9C159.7,38.3,161.8,37.6,164.1,37.2z"/>
			<path class="st40" d="M205.9,32.3c0-0.3,0-0.5,0.1-0.8c0,0,0,0,0,0c2.2-0.6,4-1.9,5.7-3.3c5-3.3,7.6-3.3,12.2,0.3
				c5.7,4.4,12.4,7.4,17.4,12.7c-2.6-0.4-5.1-1.5-6.9-3.3c-2.8-2.7-6.2-3.7-9.6-4.9c-5-3.6-10-4.3-15.3-0.4
				C208.6,33.5,207,33.5,205.9,32.3z"/>
			<path class="st39" d="M211.7,28.2c-1.3,2.2-3.2,3.2-5.7,3.3C207.7,30.2,209.5,28.8,211.7,28.2z"/>
			<path class="st2" d="M393,158.8c0,7.9,0,15.8,0.1,23.7c-3.3-1.2-2.9-4.4-3.8-6.7c0.2,3.6,0.2,7.4,0,11.2c-0.2,3,0.6,4.9,3.8,5.3
				c0,0.5,0,1.1,0,1.6c-2.3,1.9-4.4,2.5-6.4-0.4c-0.8-9-0.5-18-0.2-27c1.1-1.8,1.7-3.9,3.1-5.5C390.4,159.9,391.1,158.4,393,158.8z"
				/>
			<path class="st35" d="M164.1,37.2c-2,1.1-4.2,1.9-6.5,1.8C159.6,37.8,161.5,36.3,164.1,37.2z"/>
			<path class="st35" d="M154.5,39.8c-2.4,1-4.9,1.9-7.6,1.6C149.2,39.9,151.8,39.5,154.5,39.8z"/>
			<path class="st2" d="M372.6,148c1.2,0.8,2.8,1.4,3.6,2.5c1.9,2.5,3.2,5.3,6.7,1.2c1.4-1.6,3.6-0.1,3.6,2.5c0,3.4,0,6.8,0,10.2
				c-0.2,8.2,0.1,16.4,0,24.6c0.1,3.2-0.3,6.4,0.4,9.5c0.2,12.4-0.5,24.9-0.5,37.3c-2.9,2.4-5.6,4.9-7.4,8.4c-0.9,1.9-6,2.1-8.2-0.3
				c-5.2-5.6-10.8-2.6-15.8-0.9c-4,1.3-7.8,2.3-11.9,2.1c-2.7-0.1-4.6,0.8-6.1,3.2c-2.4,3.8-3.7,3.6-5.8-0.5c-0.5-1-1.2-1.9-1.4-3
				c-0.5-8.5-0.1-17-0.3-25.4c0.2-14.3-0.3-28.6,0.2-43c1.3-3.2,3.9-3.4,6.7-3.1c1.4,0.2,2.8,1.1,4.5,0c-2.8-5.1,0.8-8,4-11
				c3.2-3,6.7-2.4,10.2-0.3c3.1,1.9,6.7,2.3,10,3.5c1,0.4,2.1,0.4,3.2-0.1c3.4-1.7,6.2-9.4,4.7-12.9
				C372.5,151.1,371.2,149.7,372.6,148z"/>
			<path class="st41" d="M372.6,148c0,0.5-0.1,1.3,0.2,1.6c5,6.2,0.7,10.9-2.5,15.8c-1,1.6-2.6,2.4-4.6,1.5c-3.8-1.7-8-2.2-11.8-4.3
				c-4.7-2.6-12.4,1.5-13.2,6.8c-0.1,0.9,0.3,1.6,0.8,2.2c0.7,0.8,1.9,1.6,1.1,2.8c-0.9,1.4-2.7,1.1-3.7,0.7
				c-2.9-1.2-5.5-0.9-8.2,0.1c-0.6-2,1.5-2.9,1.8-4.6c0.7-3.4,1.7-6.5,5.4-8.1c2.2-0.9,1.6-2.9,0.9-4.6c-1.2-3.2-3.7-5.4-6.3-7.4
				c-5.6-4.6-10.4-10-15.6-15.1c-1.2-1.1-2.6-2.6-1.9-4.2c0.8-1.7,2.8-1.2,4.4-1.2c2-0.1,3.7,0.7,5.4,1.6
				c11.5,6,22.7,12.5,33.8,19.2c2.1,1.3,4.3,2.3,6.7,2.9c0.8,0.2,1.7,0.5,2.2-0.4c0.4-0.7-0.1-1.3-0.5-1.9c-1.5-2.1-3.5-3.8-5.6-5.4
				c-8.8-6.7-17.7-13.3-26.3-20.1c-1.3-1-4.9-2.1-0.8-4.4c1.5,0.4,2.7,1.5,4.2,2.2c7.9,5.6,16.4,10.3,24.1,16.4
				C365.2,143.5,369.7,144.7,372.6,148z"/>
			<path class="st42" d="M362.7,139.8c-6.6-2.7-11.9-7.6-18-11.1c-2.3-1.3-4.5-3.1-6.7-4.6c0.1-3.6,2.7-2.7,4.5-2
				c3.8,1.5,7.2,3.6,10.4,6.2c6,4.1,12,8.2,18,12.3c0.3,0.5,0.6,1.1,0.8,1.6C368.8,141.3,366.1,139.2,362.7,139.8z"/>
			<path class="st43" d="M385.7,236.7c0.3-12.9,0.5-25.7,0.8-38.6c-1-3,0.3-6.1-0.7-9.1c-0.4-6.5,0.5-13-0.5-19.5
				c-0.2-1.6,0.8-3.4,1.3-5c0.2,0,0.4,0,0.6-0.1c0.1,0.3,0.2,0.6,0.3,1c-0.4,9.5-0.7,19.1,0,28.6c0,0.8,0,1.7,0,2.5
				c0,6.6-0.1,13.1-0.1,19.7c0,0,0,0,0,0c-0.8,1.4-0.4,2.9-0.4,4.4c-0.1,15.6,0.1,31.3-0.1,46.9c-0.3,0.6-0.7,0.7-1.3,0.5
				c-2-3.5-0.8-7.2-1.1-10.9c-0.2-5.3-0.1-10.5-0.1-15.8C384.4,239.6,384.5,238,385.7,236.7z"/>
			<path class="st44" d="M64.8,279.4c-4.2-2.7-7.6-6.5-12.3-8.5c-1.3-3.3-4.7-4.3-7-6.5c-1.2-1.1-3-1.5-3.7-3.1
				c4.4,0.8,9.5-2.2,13.2,2.4c0.3,0,0.5,0,0.8,0.1c2,1.3,4.1,2.5,6.2,3.6c7.6,4.6,15,9.6,22.4,14.4c1.4,0.9,2.8,1.7,3.6,3.3
				c0.1,0.4,0,0.8-0.3,1.1c-3,1.3-4.9-1-6.9-2.3c-3.3-2.1-6.1-4.8-10.6-3.2C68.5,281.3,66.7,279.5,64.8,279.4z"/>
			<path class="st45" d="M55,263.7c-2.3-1.1-4.2-2.9-7.2-1c-1.9,1.2-3.9-1.3-6-1.5c-3.9-2.2-7.3-5.2-10.9-7.8
				c-1.2-0.8-2.3-2-3.9-2.2c1.1-3.1,3.1-3.7,6.1-2.4C41.2,252.7,48.8,257.1,55,263.7z"/>
			<path class="st32" d="M87.8,285.1c-8.8-5.7-17.5-11.5-26.3-17.2c-0.6-0.8-2.2-0.9-1.6-2.5c3-2.4,0.1-3.8-1.2-4.7
				c-7.7-6-14.8-12.8-23.1-18.1c-0.7-0.4-1.4-0.9-2-1.4c-0.6-0.6-1-1.3-0.6-2.2c0.4-0.7,1.1-0.7,1.8-0.6c11.4,1.7,22.9,0.2,34.3,0.8
				c3.9,0.2,6.2-1.4,7.2-5.1c0.2,0.1,0.5,0.2,0.7,0.3c1.4,3.7,4.2,5.8,7.7,7.3c1.7,0.7,3.7,1.3,4.2,3.6c-0.3,1.4-1.4,1.8-2.6,2.2
				c-9.6,3.1-19.3,5.4-29.5,4.3c-0.7-0.1-1.4,0-2,0.2c-0.3,0.1-0.5,0.2-0.9,0.7c4.9,5.7,11.6,9.1,17.5,13.5
				c7,4.2,14.1,8.3,21.7,11.6c0.8,0.5,1.7,0.9,2.6,1.1c3.3,0.7,5.4-1.3,4.7-4.6c-0.5-2.6-1.9-4.8-3.2-7c-0.6-1-1.3-2.3-0.3-3.4
				c1.2-1.2,2.5-0.5,3.7,0.2c2.9,1.8,5.3,4.3,8.6,5.4c4.4,2.1,7.9,5.6,12.3,7.7c0.5,0.3,0.9,0.7,1.3,1.2c4.4,5,10.4,7.5,16.3,10.3
				c2.6,1.8,6.6,1.6,7.9,5.3c-1.8,2-3.8,1.1-5.6,0.3c-5.6-2.6-11.4-2.5-17.3-1.8c-10.1,1.2-19.9,0.7-28.7-5.4
				C93.1,285.4,90.6,284.6,87.8,285.1z"/>
			<path class="st46" d="M59.9,265.4c0.5,0.8,1.1,1.7,1.6,2.5c-2.4-0.7-4.1-2.4-5.8-4.1C57.3,263.8,58.5,264.8,59.9,265.4z"/>
			<path class="st12" d="M88.6,91.4c-4.8-0.2-9.7,0.9-14.2-2c-1-0.7-2.6-0.4-4-0.4c-10.3,0-20.7,0.2-31-0.1c-4-0.1-6.5,1-7.4,5
				c-2.6,0.2-4.7-0.4-4.9-3.4c-0.2-2.8-1.4-3.6-4-2.5c-1,0.4-1.8-0.3-2.7-0.6c-0.4-2.4,0.4-3.7,3-3.3c2.1,0.4,3.9-0.8,6-0.8
				c6.6,0.1,13.1-0.7,19.7-0.4c18,0.7,35.9-1.3,53.9-0.7c1.9,0.1,3.8-0.3,5.6,0.7c-0.3,2.2-0.4,2.4-3.5,2.5
				c-6.4,0.2-12.8,0-19.2,0.1c-2.3,0-4.6-0.5-7.2,0.8c2.1,1.7,4.5,1.4,6.7,1.6c14,0.9,27.7-1.2,41.3-4.1c2.3-0.5,4.8-1.5,7,0.5
				c-11.9,2.9-23.9,5.7-36.2,6.6C94.7,91.6,91.5,90.3,88.6,91.4L88.6,91.4z"/>
			<path class="st47" d="M133.8,84.1c-9.2,0.6-18.1,3.5-27.2,4.4c-9,0.9-18.2,1.2-27.3-0.2c-1.4-0.2-3-0.4-2.8-2.2
				c0.1-2.1,1.9-2,3.4-2c8.3,0,16.6,0,25,0c1.4,0,3,0.5,4.3-0.8c2.4-2.1,5.5-1.3,8.2-1.6c9.4-1.3,18.9-2.3,28.1-4.8
				c0.8-0.2,1.6-0.1,2.4,0.1c0.9,2,2.4,1.5,4,1.1c9.3-2.2,18.5-4.5,27.9-6.4c1.6-0.3,3.2-1.1,4.8-0.1c0.3,0.3,0.4,0.7,0.1,1.1
				C167.7,76.3,150.9,81,133.8,84.1z"/>
			<path class="st48" d="M184.7,72.6c0-0.3,0-0.5,0-0.8c2.9-2.7,6.7-2.3,10.3-2.8c2.6-0.1,5.3,0.8,7.9-0.7c1.5-0.8,3.2-1.2,4.5,0
				c1.4,1.3,1,2.9,0.3,4.4c-0.3,0.3-0.7,0.5-1.2,0.7c-2.6,0-5.3,1.5-7.9,0.1c-0.8,0-1.7,0-2.5-0.1c0.4-1.1,1.7-0.6,2.4-1.4
				C193.8,71,189.2,72.3,184.7,72.6z"/>
			<path class="st13" d="M88.6,91.4c2.9-1.6,6-0.4,9.1-0.8C94.8,92.2,91.6,91.1,88.6,91.4z"/>
			<path class="st49" d="M88.5,108.6c5.3-3.7,11.7-4.8,17.7-6.5c12.3-3.4,24.5-6.9,36.8-10c17.3-4.3,33.8-11.2,51.3-14.7
				c0.5,1.2,1.5,2.2,0.7,3.7c-5.1,3-10.9,3.3-16.4,4.9C161.4,91,144,95.6,126.5,100c-11,2.8-21.8,6.3-32.8,8.9
				C92,108.8,90.2,110.1,88.5,108.6z"/>
			<path class="st50" d="M88.5,108.6c1.7-0.3,3.3-0.5,5-0.8c-1.2,3.5-4.7,5.5-6.3,8.8c-0.8,1.6-1.5,3.1-1.5,4.9
				c-0.1,12.8-0.4,25.7,0.2,38.5c0.7,14.9,0.7,29.9,2.9,44.7c0.7,4.6,0.1,9.3,0.2,13.9c0,3.7,0.6,7.3,1.5,10.9
				c0.2,0.7,0.2,1.4-0.2,2.1c-0.4,0.6-0.9,1.1-1.4,1.5c-0.8,0.5-1.6,0.9-2.6,1c-1,0-1.9-0.2-2.4-1.2c-1.3-7.1-0.1-14.4-0.9-21.5
				c0.8-5.8,0-11.6,0.4-17.4c-0.1-5.4-0.1-10.7,0-16.1c-0.2-4,0.6-8-0.5-11.9c-0.6-4.1,0.7-8.1,0.9-12.1c0-13.1,0-26.1-0.1-39.2
				c0-2.9,0.5-5,3.4-5.9C87.5,108.7,88,108.6,88.5,108.6z"/>
			<path class="st51" d="M195.4,80c-2.1-0.2-1.3-1.4-0.9-2.6c1.5-1.3,2.2-3.3,4.2-4c2.7-0.7,5.4-0.9,8.2-0.9c1,2.1,1.6,4.2-0.2,6.2
				C202.9,79.5,199.4,82,195.4,80z"/>
			<path class="st52" d="M146.8,293.3c-2.7-1.4-5.5-2.8-8.2-4.1c-5.6-3.3-11.8-5.8-16.4-10.7c-0.3-0.3-0.6-0.5-0.8-0.8
				c0.4-2.1,0.4-2.1,3.6-2.5c0.2-1.2-0.9-1.6-1.6-2.1c-6.5-5.1-13.2-10-19.2-15.7c-1-0.9-2.3-1.4-3.5-2.1c-4-3.5-8.7-6.2-12.1-10.4
				c-2.2-1.2-4.5-2.3-6.7-3.5c-2.8-1.5-5.5-3.1-4.8-7.1c0.3,0,0.6-0.1,0.8-0.1c2.7,3.5,6.1,5.7,10.7,5.9
				c13.9,8.1,26.4,18.1,38.6,28.6c3.1,2,3.8,5.9,6.2,8.2c3.4,3.1,7.1,5.9,10.9,8.6c4.3,3.1,8,7,12.4,10c1.1,0.7,2.6,1.8,1.6,3.7
				C153.5,299.1,150.5,295.5,146.8,293.3z"/>
			<path class="st53" d="M88.6,240.9c-4.8-0.3-9.3-0.9-10.7-6.6c0-10-0.4-19.9,0.3-29.9c0.3-5.2,1-10.3,0-15.4
				c0.4-0.1,0.7-0.1,1.1,0.1c1.3,2.1,3.9,2.8,5.3,4.8c-0.3,5.7,0.9,11.6-0.7,17.3c-2.3-1.3-2.3-3.9-3.9-6.4
				c0.1,9.5-0.1,18.4,0.1,27.3c0.1,3.9,2.8,4.9,6,5.4C87.3,238.3,89,238.7,88.6,240.9z"/>
			<path class="st54" d="M78.8,189.1c-0.2,0-0.4,0-0.6-0.1c-0.5-4.9-0.1-9.8,0.6-14.7c0.3-3.6,3.2-5.6,4.9-8.2
				c1.5,3.7,0.5,7.7,0.7,11.5c-3.9,0.6-4.9,3-4.6,6.6C79.9,185.8,80.2,187.7,78.8,189.1z"/>
			<path class="st55" d="M83.7,166.1c0.3,2-0.6,3.4-2.3,4.3c-1.5,0.9-1.6,2.8-2.7,3.9c0.6-4.9-0.2-10.2,3.5-14.4
				c1.5-1.7-0.3-4.3,1.5-6.1C83.7,157.9,83.7,162,83.7,166.1z"/>
			<path class="st56" d="M36.1,80.7c-3.5-1.8-3.8-4-0.8-6.6c4.2-3.6,9.6-4.6,14.6-5.9c8.7-2.3,17.5-4.1,26.1-6.8
				c1.7-0.5,3.4-1,5.1,0.1c0.7,1.3-0.7,1.5-1.2,2.3c11.1,0.2,21.3,4,31.6,7.3c3.7,1.2,7.3,2.9,11.4,2.8c1.1,0,2.6-0.1,2.6,1.7
				c-2.3,2-5.3,1.6-7.8,1.8c-9.1,0.4-18.1,1.5-27.2,2c-14.1,0.8-28.2,1.5-42.3,2.9C44.1,82.9,39.9,83.4,36.1,80.7z"/>
			<path class="st57" d="M36.1,80.7c12.6,1.6,25.1-0.9,37.7-1.6c9.9-0.6,19.8-0.9,29.7-1.8c7.4-0.6,14.9-0.3,22.1-2.4
				c5.1-2.7,11-2.3,16.4-3.6c1.5,0.1,3-0.1,4.1,1.3c-0.6,2.1-2.5,2-4,2.2c-12,2.2-24,3.6-36.1,4.6c-14.3,1.1-28.6,1.7-42.9,2.4
				c-1.2,0.1-2.4,0.3-2.9,0.4c6.7-1,14.1-1.2,21.6-1.2c15.8,0,31.7,0,47.4-2.6c11.3-1.8,22.5-4.6,33.7-6.9c1.9-0.4,3.7-1.2,5.6-0.6
				c0.5,0.2,0.8,0.5,0.8,1.1c-0.3,1.2-1.2,1.8-2.3,2c-5.4,1.4-10.9,2.3-16.2,3.9c-0.8,0.2-1.6,0-2.2-0.6c-6.5,0.6-12.7,2.8-19.2,3.5
				c-6.7,0.7-13.4,2.1-20.2,2.1c-10,0-20-0.6-29.9,0.2c-12.1,1-24.2,0.2-36.4,0.7c-4.5,0.2-8.9-0.5-13.4-0.9
				c1.7-1.4,3.4-0.7,5.2-0.3C37.2,83.5,36.7,82.1,36.1,80.7z"/>
			<path class="st33" d="M27,71.8c2.8-5.6,3.1-5.8,9.3-4.4c1,0.2,2.2,0,3.2-0.3c12.6-3.4,25.2-6.9,37.7-10.4c1.3-0.4,2.6-0.7,4-0.7
				c1.1,0.5,2.3,0.7,2.7,2.1c-1,1.7-2.8,1.6-4.4,2.1c-15.3,3.9-30.6,8-45.8,12.2C31.4,72.3,29.1,73.4,27,71.8z"/>
			<path class="st58" d="M33.7,72.6c0.6-1.4,1.9-2,3.2-2.3c13.3-3.1,26.4-6.8,39.5-10.4c1-0.3,2.1-0.3,3.2-0.4c-0.1,1.2,1,1,1.6,1.4
				c0.2,0.3,0.2,0.6,0,0.9c-8.5,1.2-16.5,4.6-24.9,6.1c-7.3,1.2-14,4.2-21,6.4C36.2,72.2,34.7,72.6,33.7,72.6z"/>
			<path class="st34" d="M83.7,57.8c-1.2,0-2.4,0-2.5-1.7c6.3-1.6,12.6-3.3,18.9-4.9c1.4-0.2,2.8-0.5,4.2-0.7
				c-1,2.1,0.8,1.4,1.7,1.7c0,1.5-1.2,2.1-2.4,2.4c-5.4,1.5-10.8,3.3-16.5,4.1C85.9,58.8,84.7,58.8,83.7,57.8z"/>
			<path class="st59" d="M315.1,352.4c-4.9,1.1-9.7,2.2-14.6,3.3c-3.9,0.9-7.8,1.6-11.6,2.4c-4.1-0.6-8.1,0.6-12.2,0.9
				c-6,0.5-9.5-2.5-12.5-6.8c-1.4-2-2.5-4.2-4.1-6c-3.8-4.2-8.8-4-12.5,0.4c-4.8,5.8-4.8,5.8-12.1,2.9c-1.8-0.7-4.9-0.2-5-2.6
				c-0.2-2.6,3-2.8,4.8-3.8c10-5.4,20.6-9.4,30.9-13.9c1.5-0.7,3.2-1.3,4.2-2.4c1.9-2.1-0.7-1.1-1.3-1.4c2.5-4,6.9-5.2,10.9-6.7
				c2.2-0.9,4.7-1,7.1-1.5c1.9-0.3,3.8-0.3,5.7,0c0.8,0.1,1.7,0.4,2,1.3c0.4,1-0.2,1.9-0.9,2.5c-1.7,1.4-3.7,2.3-5.8,3
				c-6.6,2.4-12.6,5.8-18,10.3c-2.6,2.2-3.4,4.4-2.3,7.5c1.1,3.2,2.6,6.3,4.4,9.2c3.6,5.6,9,6.2,14.8,5.3c3.1-0.5,6.1-1.2,9.2-1.9
				c2.1-0.6,4.1-1.1,6.2-1.7c12.4-1.7,24.3-5.3,36.5-8.2c9.3-2.5,18.8-4.2,28.1-7c1.3-0.4,2.7-0.6,3.9,0.4c-0.1,2.8-2.6,2.8-4.3,3.3
				c-9.1,2.5-18.3,4.5-27.4,6.8c-6.1,1.5-12.2,3-18.3,4.4C318.9,352.5,317,353.1,315.1,352.4z"/>
			<path class="st60" d="M165.7,344.2c-3.6-1.3-5.8-4.6-9-6.5c-2.3,0.2-3.7-0.5-3.5-3.1c1.5-1.8,3.5-1.2,5.3-0.7
				c6.6,1.9,13.3,2.4,20.1,1.8c5.1-0.4,10,0.7,14.7,2.7c1.2,0.8,2.3,1.6,2.1,3.3c-0.2,0.1-0.6,0.2-0.7,0.4
				c-4.5,8.6-11.7,5.2-18.3,4.1c-2.4-0.4-4.6-1.4-6.9-2.2C168.1,343.5,166.9,342.8,165.7,344.2z"/>
			<path class="st61" d="M260.9,327.7c-8.8,2-17.1,5.3-25.5,8.2c-1.1,2.5-3.6,1.8-5.5,2.6c-2.8,0.2-5.4,1.7-8.3,1.8
				c-3.3,0.1-4.2-0.8-3.5-3.9c0.6-2.7-2.7-0.4-2.6-2.2c0.2-1.1,1.1-1.6,2-1.8c7.4-1.6,14.4-4.6,21.9-5.9c0.8-0.1,1.6-0.2,2.4,0
				c3.6,1.4,6.9-0.5,10.3-0.9c2.4-0.3,4.8-1,7.2-1C261.8,324.4,262.7,325.5,260.9,327.7z"/>
			<path class="st60" d="M195.4,341.7c-0.6-0.8-1.1-1.6-1.7-2.4c-1.4-1-2.7-2.2-4.2-3c-1.7-1.3-5.2-1.5-4.5-4.2
				c0.6-2.2,3.8-1.1,5.8-1.3c0.5-0.1-0.1,0,0.4,0c2.8-0.1,5.1,0.5,5.4,4c0.2,1.8,1.4,2.8,3,3.5c2.8,1.1,5.5,1.4,7.9-0.9
				c-0.1-1.2-0.9-1.1-1.5-1.1c-1.4-0.2-3-0.4-3.2-2c-0.2-1.7,1.1-2.8,2.5-3.4c1.7-0.8,3.5-1.6,5.5-0.8c1.5,1-2,3.3,1,3.8
				c0.9,0.3,1.8,0.6,2.5,1.2c0.6,1.5-0.6,2.5-1.1,3.7c-1.2,1.7-1.9,4-4.7,3.9C204,344,199.6,343.4,195.4,341.7z"/>
			<path class="st62" d="M208.4,342.6c1.7-1,2.8-2.7,4-4.2c0.7-0.5,1.1-1.2,1.7-1.8c1.4-1.4,2.9-1.5,3.2,0.7c0.4,2.6,2,2.4,3.9,2.4
				c3.1,0.1,5.7-1.5,8.6-2.1c1.6-1.3,4-0.3,5.6-1.7c0.9,0.1,1.8,0.2,3.7,0.3c-4.4,3.2-9,4.1-13.2,5.7c-4.5,1.8-9.3,2.9-14.1,3.3
				C210.3,345.4,207.2,346.4,208.4,342.6z"/>
			<path class="st63" d="M260.9,327.7c0.9-2.7-0.7-2.6-2.5-2.2c-4.5,0.9-9.1,1.7-13.6,2.6c-1.3,0.3-2.4,0.9-2.7-1.1
				c0.4-0.7,1.2-1.2,1.9-1.4c7.5-1.7,14.9-4.3,22.4-5.9c0.8-0.2,1.6-0.1,2.4,0.3c0.8,2.1-0.4,3.6-1.4,5.2
				C265.3,326.1,263.1,326.9,260.9,327.7z"/>
			<path class="st64" d="M267.5,325.3c0-1.8-0.2-3.7,1.7-4.9c2.4-1.8,5.2-2.2,8.1-2.7c3.3,0.3,6.4-1.6,9.7-0.9
				c0.4,0.3,0.5,0.7,0.2,1.1c-6.6,1.1-12.5,3.7-18.1,7.4C268.6,325.3,268,325.3,267.5,325.3z"/>
			<path class="st65" d="M387.3,297.4c-1.5,9,0.1,17.9,0.6,26.8c0.3,5.2-0.4,10.3-0.5,15.5c0,1.9-1.1,2.6-2.7,3
				c-1.9,0.4-3.7,1.1-5.6,0.6c0.8-2.6,3.8-1.8,5.2-3.5c2.2-2.7,0.6-5.8,1.1-8.7c-0.2-6.3,0.8-12.6-1.3-19c-2,0.6-2.4,2.6-3.7,3.6
				c-3,2-3.5-0.5-4.1-2.4c-1-3.1-0.8-6.6-3.8-8.8c-3.9-2-8-1-12-0.9c-4.4,0.1-8.9,0.3-13.3,0.2c-0.8,0.3-1.6,0.5-2.3,0.9
				c-2.9,0.9-5.5,2.6-8.6,3.3c-2.7-0.3-5.2-2-5.4-4.2c-0.2-2.7,2.1-5.1,4.4-6.8c2-0.9,4-0.8,6.1-0.6c12.1,1.4,24.3,0.3,36.4,0.7
				c2.1-0.5,4.2-0.7,6,0.8c1.2,1,1.9,0.3,2.6-0.6C386.7,297.1,387,297.1,387.3,297.4z"/>
			<path class="st23" d="M302,364.7c-1.9-3.3-4.6-1.3-6.5-0.6c-5,1.9-10.2,2.6-15.4,3.4c-1.2,0.2-2.5,0.3-2.8-0.8
				c-0.3-1.2,1-1.6,2.1-2c10-4.1,20.3-7.2,30.9-9.7c1.8-0.4,3.3-1.1,4.9-1.8c3.3-1.7,7-2,10.6-2.8c5.7-1.2,11.4-2.9,17.1-4.2
				c0.7-0.2,1.3-0.4,2-0.4c1.4,0,3.4-0.8,3.9,1c0.4,1.8-1.6,2.3-2.9,2.9c-3.4,1.4-7,2.2-10.5,3.3c2.9-0.1,5.6-2.7,8.7-0.6
				c-1.7,1.3-3.8,1.4-5.7,1.9C326.1,357.8,314.2,361.8,302,364.7z"/>
			<path class="st18" d="M343.9,352.5c-4.1-0.4-7.7,2.2-12,1.8c4.7-3.9,11.2-3.5,16.1-6.8c-2-1.2-2.5-1.2-6.1-0.3
				c-9,2.1-17.9,4.1-26.9,6.1c0-0.3,0-0.5,0-0.8c14.5-3.6,29.1-7,43.5-10.7c4.2-1.1,8.7-1.2,12.2-4.1c0.1-0.2,0.3-0.4,0.4-0.6
				c2.3-1.2,4.6-2.6,5.9,1.2c-0.1,0.7-0.4,1.2-0.9,1.7c-5.1,4-11.5,4.6-17.4,6.7c-2,0.7-4,1.4-6,2.2c-0.5,0.3,0.4,0.7,0,0.3
				c-0.1-0.1-0.1-0.3,0.2-0.4c3.4-1.3,7-2.1,10.6-2.9c1.1-0.1,2.2-0.1,3.1,0.8C359.4,349.6,351.5,350.4,343.9,352.5z"/>
			<path class="st66" d="M387.4,279.4c1.1-1.3,0.7-2.9,0.7-4.3c0-15.3,0-30.6,0-45.9c0-1.3,0-2.6,0.5-3.9c0.1,0.4,0.3,0.8,0.3,1.1
				c0.7,19.5,1.3,39,0.7,58.5c-0.1,3.3,0.8,7.3-2.3,10.1C385.5,289.7,385.4,284.6,387.4,279.4z"/>
			<path class="st67" d="M387.4,279.4c0,5.2-0.1,10.4-0.1,15.5c0,0.8,0,1.6,0,2.5c-0.3,0-0.5,0-0.8-0.1c-0.4-0.3-0.7-0.8-0.9-1.3
				c-0.7-8.5-0.2-17-0.2-25.6c0-1,0.4-1.9,1-2.6c0.1-15.8,0.2-31.6,0.3-47.4c0-1.5-0.5-3,0.6-4.3c0,18.6,0,37.3,0,55.9
				C387.3,274.5,387.4,276.9,387.4,279.4z"/>
			<path class="st18" d="M363.5,346.6c-3.8,1.1-7.6,2.5-11.6,2c7.5-4.4,16.6-4.8,24-9.3c1.2,1.2,1,2.6,0.9,4.1
				c-0.3,0.3-0.5,0.5-0.8,0.8C371.8,344.7,367.7,346,363.5,346.6z"/>
			<path class="st18" d="M376.8,343.4c-1.5-1.1-0.8-2.7-0.9-4.1c0.3-0.3,0.5-0.6,0.8-0.9c0.7-0.8,1.4-1.7,2.4-2.3
				c1.4-0.7,2.3-2.1,4-2.4c3.5,1.8,3.8,3,1.8,7c-1.9,0.8-3.8,1.6-5.7,2.4C378.3,343.3,377.5,343.4,376.8,343.4z"/>
			<path class="st65" d="M363.5,346.6c4-1.4,8.1-2.7,12.4-2.4c-3.1,0.8-6.1,1.6-9.2,2.4C365.7,346.6,364.6,346.6,363.5,346.6z"/>
			<path class="st68" d="M153.4,335.1c0.6,1.5,2.1,1.7,3.3,2.5c0,1.1-0.7,1.6-1.7,1.6c-6.1-3.6-10.8-9.2-17.1-12.4
				c-4.3-3.1-8.9-5.8-12.6-9.7c-0.1-0.4,0-0.7,0.1-1.1c2.1-1,0.4-2.8,0.9-4.1c1.6-0.4,3.2-1.4,4.9-0.2c1.7,3.4,4.6,4.8,8.2,5.2
				c2.6,0.3,5.2,0.7,7.7,0.5c6.7-0.4,13.3,0.5,19.8,1.5c2.8-0.6,4.3,1.8,6.4,2.9c1.8,1,3.2,2.4,5,3.4c1.4,0.9,3,1.6,3.4,3.5
				c-0.2,2.1-1.6,1.9-3,1.5c-1.7-0.5-3.3-1.3-4.8-2.2c-4.5-2.4-9.4-3.5-14.5-3.5c-6.2-0.1-12.6,0.7-19.5-1.8c1.3,2,2.8,2.7,3.9,3.7
				C146.9,329.5,150.8,331.6,153.4,335.1z"/>
			<path class="st22" d="M180.5,360.6c-2.3-0.1-3.1-2.6-5-3.3c0-0.3,0-0.6,0-0.8C178,356.9,179.3,358.8,180.5,360.6z"/>
			<path class="st24" d="M125.5,316.3c0,0.3,0,0.5,0,0.8c-5.2,2.1-9.6,0.2-13.9-2.5c-3.3-1.1-5.3-4.1-8.2-5.8
				c-2.2-2.4-5.7-3.5-7.4-6.5c4.9-0.1,9.9,0,14.5,2.1c2.4,1.1,4,3.2,6.2,4.5c1.9,1.5,3.7,3,5.8,4.2
				C123.7,314.1,125.2,314.6,125.5,316.3z"/>
			<path class="st25" d="M111.6,314.6c4.6,1.4,9.1,2.5,13.9,2.5c4.3,3,9.1,5.5,12.4,9.8C126.4,328.6,119.5,320.6,111.6,314.6z"/>
			<path class="st69" d="M110.7,305.6c-4.6-2.6-10.1-1-14.8-3.3c-0.3,0-0.5,0-0.8,0c-5.2-4.8-11.7-7.8-16.5-13.1
				c6.2-0.4,12.3-0.7,17.7,3.2c3.3,2.3,7.1,2.5,10.9,2.1c11.1,0.3,22.3-0.8,33.4,0.7c1.7,0.2,3.6,0.3,4.6,2.2c0.3,1-0.4,1.2-1.1,1.5
				c-0.4,0.1-0.9,0.1-1.3,0.1c-10.7-2.1-21.6-0.7-32.4-1.3c0.1,1.7,1.3,1.5,1.9,2c0.4,0.1,0.8,0.3,1.1,0.5c2.8,1.7,5.8,3.1,5.7,7.2
				c-2,1.2-3.3-0.5-4.6-1.3c-1.7-1.1-3.6-1.8-5.2-3c-0.4-0.4-0.6,0.7-0.3,0.2c0.1-0.2,0.2-0.2,0.4,0
				C110.1,303.8,111.4,304.2,110.7,305.6z"/>
			<path class="st70" d="M106.7,295.7c-5.8,0.7-10.6-1.6-15.1-4.8c-1.1-0.8-2.3-1.3-3.4-0.9c-3.4,1.4-6.4-0.1-9.5-0.9
				c-5.2-2.5-9.6-6.1-13.9-9.8c5.5,0.5,11.4-1.9,16.2,3.2c1.6,1.8,3.9,3.5,6.8,3.3c0.5-0.2,1.1-0.3,1.6,0c5.4,3.5,10.6,7.2,17,8.7
				C106.7,294.7,106.8,295.3,106.7,295.7z"/>
			<path class="st6" d="M334.7,121.8c-2.5,0.7-1.1,1.6-0.1,2.3c9.1,6.9,18.2,13.8,27.3,20.7c2.4,1.8,4.6,3.8,6.5,6.2
				c0.7,0.9,1.8,1.9,0.7,3.2c-0.9,1.3-2,0.8-3.3,0.5c-6.3-1.7-11.6-5.4-17-8.8c-8.1-5.1-16.8-9.1-25-13.9c-0.6-0.3-1.2-0.7-1.9-0.8
				c-2.1-0.3-5-1.3-6.1,0.4c-1,1.6,1.7,3.1,3,4.4c5.8,5.8,11.4,11.7,17.7,17c1.9,1.5,3.1,3.6,3.6,5.8c0.5,2,0.9,4.3-2.4,5
				c-3.8,0.8-3.3,4.8-4.7,7.4c-0.1-0.1-0.3-0.3-0.4-0.4c-0.5-4.1-3.1-6.6-6.2-8.9c-2.1-1.6-4.7-2.7-5.7-5.5c-0.7-2.6-1.7-5.1,2.3-6
				c2.2-0.5,1.3-2,0.4-3.1c-2.1-2.5-4.9-4.4-7.4-6.5c-13.9-11.6-27.8-23.3-41.7-34.9c-3.7-3.1-7.9-5.4-11.8-8.1
				c-1.2-0.9-2.5-1.6-3.6-2.7c-0.8-0.8-1.5-1.7-1-2.9c0.5-1.1,1.6-1,2.5-0.8c8.6,1.8,17.1-0.8,25.7,0c4.8,0.7,8.2,3.7,11.5,6.8
				c5.9,4.4,12.3,8.1,18.9,11.5c6.1,2.8,11.6,6.5,17.1,10.3C334.4,120.2,335.2,120.8,334.7,121.8z"/>
			<path class="st40" d="M297.9,98c-4.2-1.1-6.8-5.5-11.4-5.8c-5-1.6-10-0.6-14.9-0.2c-6,0.5-11.8-0.5-17.7-1.2
				c-1.1-0.4-1.8-1.5-3.1-1.6c0.3,0.6,1,0.6,1.5,1c2.1,1.6,4.5,3,6.2,5.2c1.7,2.4,2.5,4.6-1.2,6c-2.7,1.1,0,3.5-1.1,5
				c-1.6,0.8-2.6-0.3-3.6-1.1c-6.1-5-12.3-9.9-18.6-14.8c-0.4-0.3,0.1,0.1-0.3-0.2c-1.9-1.7-4.5-3.7-3.2-6.4c1.4-2.9,4.3-1,6.6-0.5
				c0.9,0.2,1.8,0.6,3.1,0.9c-0.2-1-1.2-2.4,0.6-2.6c13.2,1.9,26.6,1.1,39.8,1.3c0.7,0,1.4,0.1,2,0.3c8.8,3.4,17.4,7.2,24.7,13.3
				c2.5,2.1,6.1,2.5,7.8,5.6c-0.3,2.3-1.6,1.2-2.6,0.7c-1.9-1.1-3.7-2.2-5.5-3.4C304.2,97.4,301.2,96.5,297.9,98z"/>
			<path class="st71" d="M315.1,102.1c-5.3-2.3-9.5-6.2-14.3-9.1c-5.7-3.4-11.8-6-17.8-8.9c-0.5-0.6,1.9-0.2,0.4-1.1
				c-1.1-0.7-2.3-1.4-1.9-3c4.3-2.7,8.3-2,12.6,0.6c4.9,2.9,8.8,7.1,13.7,10.1c4.4,3.3,6.8,8.8,12.1,11.1c0.6,0.3,1.1,1,0.5,1.6
				c-0.3,0.3-1.1,0.3-1.4,0.1C317.6,102.7,316.6,101.8,315.1,102.1z"/>
			<path class="st12" d="M334.7,121.8c-5.4-5-12.6-7.3-18-12.3c6.3-0.5,10.7,4.1,16,6.1c3.9,1.4,7.6,3.4,10.8,6.3
				c0.8,0.7,1.7,0.8,2.6,0.7c2.1,2.1,5.2,2.9,6.7,5.7c-3.1-1.7-6.1-3.5-9.3-5c-1.9-0.9-4.1-2.2-5.5,0.8
				C336.8,123.5,335.4,123.1,334.7,121.8z"/>
			<path class="st32" d="M281.4,80c0.6,1.8,2.8,2,3.7,3.8c-0.8,0.1-1.5,0.2-2.1,0.4c-0.5,0-1-0.1-1.5-0.1c-1.8-1-3.7-0.8-5.6-0.8
				c-7.8,0-15.6,0.3-23.3-0.1c-7.2-0.3-14.3-1.8-20.4-6.1c-0.4-0.2-0.7-0.6-1-0.9c-0.5-0.8-0.5-1.7-0.1-2.5c1-1,1.5,0,2.1,0.5
				c0.8,0,1.6,0.1,2.4,0.1c9.1,2.2,18.4,1.4,27.6,2c3.8,0.2,7.6,0,11.5,0c1.3,0,2.8-0.3,3.6,1.2C279.2,78.3,280.3,79.1,281.4,80z"/>
			<path class="st71" d="M278.2,77.5c-1.1-0.6-2.2-0.9-3.5-0.8c-11,0-22,0.2-33-0.8c-2.2-0.2-4.3-0.2-6.1-1.6
				c13.5,1,27,1.7,40.5,1.6c0.8,0,1.6,0.1,2.2,0.8C278.2,76.9,278.2,77.2,278.2,77.5z"/>
			<path class="st72" d="M168.2,64.3c-0.7,0-1.3,0.2-1.6,0.8c-0.9,1.9-2.5,1.8-4.1,1.6c-0.7-0.1-1.3-0.4-2-0.4
				c-12.5,1-22.2-6.5-32.9-11c-1.6-0.7-3-2-2.3-4.2c3.1-2.7,7.2-2.3,10.9-3.3c3.8,0.2,7.2-2.5,11.1-1.2c0.4,1.7,0.9,3.1,2.9,4
				c3.7,1.6,7.1,4,11,5.4c3,1.1,5.9,1.1,8.7-0.2c5.3-2.5,9.4-6.4,13.2-10.7c1.5-1.7,0.6-2.4-1.2-2.5c-3.4-0.3-6.8,0.5-10.1,1.2
				c-2.8,0.6-5.6,1.2-8.4,1.6c-1.5,0.2-3.3,0.9-4.4-1c0.7-1.7,2.4-1.8,3.8-2.1c13-2.7,25.9-6.4,38.9-9.1c4.1,0.1,8.2,0,12-1.8
				c4.6-2.1,8.1-0.9,11.2,2.6c3.3,2.5,6.6,4.9,9.8,7.4c2.7,2.1,5.4,4.1,7.9,6.5c0.9,0.9,1.9,1.7,1.4,3.1c-0.5,1.5-1.9,2.2-3.3,2
				c-9.6-1.3-19,1.8-28.6,1.2c-7.7-0.5-15.6-0.8-23.3,0.6c-1.2,0.2-2.5,0.3-3.6,0.9C179.6,58.6,174.1,61.8,168.2,64.3z"/>
			<path class="st73" d="M168.2,64.3c0.1-0.9,0.6-1.5,1.4-1.9c10.6-5.6,20.9-11,33.8-9.9c9.6,0.9,19.6,1.4,29.3-1.3
				c2.5-0.7,5.1,0.4,7.7,0.7c1.1,0.1,2.3,0.2,2.9-0.9c0.8-1.3-0.5-1.9-1.1-2.7c-2-2.8-5.7-3.9-7.4-7c5.8,3.4,11,7.4,15.6,12.3
				c1.7,3.2,1.2,4.4-2.1,4.2c-14.3-0.8-28.5,0.9-42.8-0.3c-10.7-0.8-21.5,0.2-31.6,5c-1,0.5-2.2,0.2-3.1,0.9
				C169.9,63.8,169,64,168.2,64.3z"/>
			<path class="st74" d="M170.7,63.5c8.2-4.2,16.7-7,26.1-6.6c10.4,0.5,20.9-0.3,31.4,0.7c1.8,0.2,3.8-0.3,5.6-0.8
				c4.5-1,8.9-1,13.3,0c2.5,0.6,4.5,0.3,3.2-3.1c3.2,0.8,4.6,3.7,6.8,5.7c0.5,0.5,0.7,1.2,0.3,1.9c-0.4,0.7-1.1,0.5-1.8,0.4
				c-5.5-1.1-10.9-1.4-16.5-0.6c-10,1.4-19.7-1.5-29.6-2.5c-7.5-0.8-14.8,0.4-22.2,1.2C181.6,60.4,176.3,62.5,170.7,63.5z"/>
			<path class="st37" d="M162.5,66c1.4,0.1,2.8,0,4.1-0.9c8.2-0.2,15.9-3.2,23.9-4.5c6.8-1.2,13.6-2.3,20.4-0.4
				c-1.7,0.3-3.4-0.6-5,0.6c-0.6,0.9-1.5,0.9-2.4,0.9c-4-0.9-7.9,0.1-11.7,1c-15,3.5-30.1,6.4-45,9.9c-0.2,0-0.4-0.1-0.7-0.1
				c-1.4,0-2.7,0-4.1,0c0.7-2.6,3.4-1.9,5-3.1C152.1,68.2,157.2,66.5,162.5,66z"/>
			<path class="st75" d="M224.8,34c-5.3-5.4-11.1-0.7-16.6-0.5c-2.1,0.1-4.2,0.4-6.4,0.5c0.3-2.3,2.5-0.5,3.3-1.6
				c0.2,0,0.5-0.1,0.7-0.1c2.3,0.2,4.5-0.2,6.1-1.6c3.7-3.4,7-2.7,10.4,0.4c0.8,0.7,2,1,2.4,2.1C224.8,33.4,224.8,33.7,224.8,34z"/>
			<path class="st76" d="M203.5,60.9c0.8,0,1.6,0,2.4,0c8.1,0.8,14.6,5.3,21.4,9.2c1,1.5,3.7,1,4.1,3.3c0,0.8,0,1.7,0,2.5
				c-1.8,1-3.2-0.1-4.4-1.2c-3-2.9-6.7-4.7-10.5-6.3c-4.4-2.3-9.4-1.6-14-2.8C200.8,63.6,200.1,61.8,203.5,60.9z"/>
			<path class="st71" d="M231.4,73.3c-1-1.5-3.4-1.3-4.1-3.3c2.2,0.9,5,1,5.8,4.1C232.5,73.8,232,73.6,231.4,73.3z"/>
			<path class="st77" d="M136.2,48.7c-3.6,0.8-7.1,1.6-10.7,2.5c-3.6,2.3-7.9,2.4-11.9,3.5c-2.5,0-5,0.3-7.3,1.4
				c-0.6,0.3-1.2,0.6-1.8,0.8c-6.3,1.8-12.7,3.1-19.1,4.7c-1.5,0.4-3,0.5-4.3-0.6c-1-0.1-2.6,0.4-1.7-1.7c1.1-1.1,3-0.3,4.1-1.6
				c7.7-0.6,15-2.9,22.2-5.7c0,0,0,0,0,0c2.4-0.9,4.9-0.9,7.3-1.7c3-0.6,5.9-1.1,8.9-1.7c3.9,0.5,7.5-1.3,11.1-2.2
				c16.7-4.2,33.3-8.6,50-13c1.2-0.3,2.5-0.9,3.4,0.2c0.6,0.8-0.9,1.1-1.1,1.9c-1,2.1-3,2.1-4.8,2.5c-10,2.4-19.8,5.4-29.8,7.7
				C146,46.9,141,47.6,136.2,48.7z"/>
			<path class="st40" d="M136.2,48.7c3.8-1.8,8-2.3,12-3.3c12.5-3,25-5.8,37.2-9.8c3.6-0.2,7.1-1.2,10.6-2.1c3-0.8,6-1.5,9.1-1.2
				c-1.1,0.5-2.2,1.1-3.3,1.6c-14.2,3.5-28.5,7.1-42.7,10.6c-3.6,1.9-7.2,3.5-11.4,2.5C143.7,46.7,140.2,49.1,136.2,48.7z"/>
			<path class="st34" d="M113.2,50.4c-2.3,1.1-4.7,2-7.3,1.7C108.1,50.5,110.6,50.2,113.2,50.4z"/>
			<path class="st78" d="M385.7,236.7c0,6.8,0,13.7,0,20.5c-2.6,3.2-3.8,6.9-3.7,11c0.1,5.6-0.5,11.2,0.7,16.7c0.5,4-0.2,7.4-3.6,10
				c-1.1,0.9-2,1.5-3.2,0.8c-2.8-1.7-5.8-1.3-8.8-1.3c-5.7,0-11.5-0.1-17.2,0.1c-1.8,0.1-3.5,0.3-5.2,1c-0.5,0.1-1.2,0.3-1.6,0
				c-3.7-3.7-8.4-3-13-3.2c-0.3-0.3-0.6-0.6-0.8-1c-0.2-0.9-0.2-1.6,0.5-2.3c2.4-0.1,4.8,0.5,7.2-0.5c1.8-0.7,3.4,0.4,4.8,1.7
				c1.6,1.5,2.8,1,4-0.6c3.6-4.6,4.1-8.2,1.1-13.2c-2.1-3.4-3.5-7.1-4.8-10.9c-0.3-0.9-0.5-2-1.7-2.1c-1.1-0.1-1.6,1-2,1.8
				c-2.2,4.2-4.4,8.5-5.1,13.3c-0.3,2.2-0.8,4.3-1.9,6.2c-0.7,1.2-1.5,1.7-2.3,0c-0.7-3.8-0.2-7.6-0.4-11.4c0.1-2.8-0.2-5.5,0.3-8.3
				c1.1-4.7,0.3-9.5,0.5-14.2c0.1-1.9-0.4-3.9,1.2-5.4c2.2,0.7,1.1,4.6,3.4,4.4c2-0.2,1.9-3.2,3.2-4.8c1.2-1.4,2.6-1.3,4.1-1.3
				c4.6,0.1,9.1,0.3,13.3-2.4c2.9-1.8,6.6-0.8,9.8-2.4c1.8-0.9,3.7,0.6,4.9,2.2c1.1,1.5,2.6,2.1,4.3,2.6c3.6,1.2,5.2-0.3,6.1-3.5
				C380.7,237.8,382.7,236.4,385.7,236.7z"/>
			<path class="st6" d="M333.2,171.1c0,1.9-1.9,2.5-2.5,4.1c0,14.8,0,29.5-0.1,44.3c-0.6,0.2-1,0.1-1.3-0.5c-0.3-0.5-0.5-1-0.5-1.6
				c-0.2-13.8-0.2-27.6,0-41.4c0-2.6,1-4.9,4.2-5L333.2,171.1z"/>
			<path class="st79" d="M329.9,219.4c0.2,0,0.5,0,0.7,0c0,8.7,0,17.5,0.1,26.2c0,5.3,0,10.6-0.1,15.9c0,1.3,0.4,2.8-0.8,3.8
				c-1.5-1.4-1.2-3.3-1.2-5c0-12,0-24,0-36C328.7,222.7,328.4,220.8,329.9,219.4z"/>
			<path class="st6" d="M385.7,189c1.4,2.9,0.5,6,0.7,9.1C384.9,195.2,386,192.1,385.7,189z"/>
			<path class="st80" d="M381.6,285.1c-1.1-7.7-1.4-15.3,0-23c0.4-2.3,1.3-4.5,4.1-5c0,3.6,0,7.2,0.1,10.7c0.8,2.7,0.2,5.5,0.4,8.2
				c-1.4,2.9-2.7,5.7-3.4,8.8C382.4,285.3,382,285.4,381.6,285.1z"/>
			<path class="st65" d="M385.7,276.9c0-3,0-6,0.1-9c0.2,0,0.5,0,0.7-0.1c0,9.6,0,19.2,0,28.7c-1.7,0.1-2.1-1.3-2.8-2.4
				c-0.1-0.4-0.2-0.9-0.1-1.3c1.1-3.1,1.1-6.4,1-9.7C384.5,281,384.4,278.8,385.7,276.9z"/>
			<path class="st81" d="M106.7,295.7c-7.2-1.5-13.1-5.6-18.9-9.8c0-0.3,0-0.5,0-0.8c1-2,2.1-2.4,4.3-1.3c5,2.6,9.6,6.1,15.4,7.2
				c5.3,1,10.6,0.9,15.8,0.3c6.6-0.8,12.9-1.1,19,2.1c1.5,0.8,3,1.3,4.5-0.1c4.5,0.5,7.3,4.6,11.5,5.7c1.6-0.1,3,0.6,4.4,1.2
				c5.7,3.4,11.2,7.1,16.7,10.9c0.7,1,1.1,2,0,2.9c-1.4,1-2.9,0.6-4.2-0.2c-4.3-2.5-8.9-4.8-13.1-7.5c-3.5-2.3-7.1-4.6-11.3-5.6
				c-1.9-0.8-4.1-0.8-5.6-2.6c-3-2.6-6.9-2.2-10.4-2.3C125.5,295.6,116.1,295.7,106.7,295.7z"/>
			<path class="st46" d="M88.6,244.9c4.7,2.6,8.5,6.2,12.3,9.8c0.3,0.3,0.6,0.5,1,0.7c1.8,1,4.1,2.1,3.3,4.4
				c-0.9,2.5-3.3,0.1-5.4,0.7c2.6,2,4.6,4.1,6.9,6c1.2,0.9,2.9,1.8,2.4,3.8c-3.7-0.6-5.9-3.7-9-5.4c-0.9-0.5-1.8-1.8-2.8-0.6
				c-0.8,0.8,0.3,1.8,0.7,2.5c0.8,1.6,1.9,3,2.6,4.6c0.9,2.5,2.3,5.1-0.5,7.5c-2.7,2.3-5,1-7.4-0.4c0.2-0.2,0.4-0.4,0.6-0.5
				c6.4-2.5,6.6-3.1,2.5-8.6c-1.3-1.7-2.7-3.4-4.3-4.9c-1.6-1.5-3.5-2.2-5.6-1.3c-3.8,1.5-7.6,1.9-11.6,1.5c-1.9-0.2-2.7,0.6-3,2.3
				c-6.6-3.7-12.7-8.2-18.4-13.2c-0.7-0.6-1.5-1.4-0.9-2.5c0.5-1.1,1.7-0.8,2.6-0.8c5,0,10.1-0.1,15.1,0c3.1,0.1,6.1-0.7,8.6-2.1
				c2.5-1.4,4.9-2.3,7.7-2.1C87.2,246.6,88.1,246,88.6,244.9z"/>
			<path class="st82" d="M71.4,267c-0.2-1.1-2.2-1.7-1.1-3.2c0.9-1.1,2-0.1,3.1-0.1c4.2,0,8.5,0.2,12.4-1.7c2.2-1.1,4.3-0.3,6,1.2
				c2.7,2.3,4.9,5.1,6.8,8.1c2.4,3.9,1.2,6.4-3.4,7.1c-0.8,0.1-1.6,0-2.5,0C85.1,275.6,78.1,271.6,71.4,267z"/>
			<path class="st83" d="M109.1,270.3c-2.7-3.3-6.2-5.6-9.3-8.4c-0.8-0.7-2.2-1.2-1.7-2.5c0.6-1.2,1.9-0.5,2.9-0.2
				c1.1,0.3,2.3,0.7,3.5,1c0.7-3.3-2.7-3.6-3.6-5.6c1.1,0.5,2.5,0.7,3.3,1.4c6.7,6.2,14,11.7,21.3,17.2c0.8,0.6,1.9,1.4,1.3,2.7
				c-0.6,1.3-1.8,0.9-2.8,0.5c-1.4-0.5-2.4-0.6-2.7,1.2C116.6,276.5,113.5,272.4,109.1,270.3z"/>
			<path class="st81" d="M122.3,278.5c5.5,3.6,10.9,7.1,16.4,10.7c-5.8-1.9-10.9-5.1-15.6-8.9C122.6,280,122.5,279.1,122.3,278.5z"
				/>
			<path class="st84" d="M148.5,77.6c6.8-1.7,13.7-3.3,20.5-5c4.7-2.3,10.1-2.5,14.9-4.6c0.4-0.2,0.8-0.3,1.2-0.4
				c4.3-0.7,8.6-1.8,13-2.2c0.4-0.1,0.9-0.1,1.3,0c0.4,0.1,0.8,0.3,1.1,0.7c0.5,4.3-3.2,3-5.2,4c-3.6-0.1-7,1.3-10.6,1.7
				c-11.4,2.5-22.7,5-34.1,7.6c-1.4,0.3-2.8,0.9-4.2,0.1C146.6,78,148.1,78.5,148.5,77.6z"/>
			<path class="st85" d="M206.7,78.3c0.4-1.9-0.7-3.8,0-5.7c0.2-0.1,0.4-0.2,0.6-0.3c0.5-0.4,1.1-0.4,1.7-0.3
				c4.1,1.9,7.2,5.2,10.7,7.8c1.4,1.1,2.8,2.1,4.5,2.7c7,4.9,13.2,10.8,20.2,15.9c4.5,3.2,8.2,7.6,13.5,9.7c9,6.9,17.7,14,26.8,20.8
				c8,6,15.6,12.4,23.6,18.3c7.5,5.5,14.6,11.4,21.7,17.3c3,2.4,2.8,4.1-0.1,7.1c-2,0.8-3.4-0.4-4.8-1.5c-11.4-9-23-17.9-34.7-26.5
				c-9.7-7.2-18.8-15.2-29.1-21.7c-9.3-8.1-19.6-15-29.2-22.8c-4.1-3.3-8.4-6.4-12.8-9.4c-3.1-3.4-7-5.6-10.6-8.2
				C207.9,80.5,206.3,80.1,206.7,78.3z"/>
			<path class="st86" d="M209.3,72.5c-0.6-0.1-1.2-0.2-1.8-0.3c-1.1-1.1,1.2-2.8-0.6-3.6c-1.5-0.6-2.9-0.1-4.1,1
				c-2.3,2-4.9-0.2-7.4,0.4c1.7-1.3,4.8-0.8,4.9-4c3.4-1.2,6.8-0.4,10.2,0.1c2.3,0.3,4.7,0.9,7,1.5c3.8,1.4,7.3,3.3,10.1,6.3
				c1.1,1.1,2.3,1.8,3.8,2c0,0,0,0.1,0,0.1c2.5,2.5,6.6,2.8,8.3,6.3c0.4,0.3,0.8,0.7,1.3,0.9c0.9,0.4,2,0.7,1.4,1.9
				c-0.4,0.8-1.5,0.5-2.2,0.3c-1.9-0.6-3.8-1.3-5.8-1.9c-1.2-0.4-2.6-0.8-3.4,0.4c-0.8,1.2,0.1,2.5,0.9,3.3c3.1,2.8,6.2,5.7,9.6,8.1
				c5,3.5,9.2,8,14.5,11c1.2,0.4,2.2,1,1.6,2.5c-6.3-3.1-11-8.2-16.6-12.2c-5.8-4.2-11.4-8.8-17-13.2c-4.2-2.7-7.8-6.2-11.9-9.2
				C211.2,73.4,210.2,73.1,209.3,72.5z"/>
			<path class="st87" d="M206.7,78.3c2.9,2.9,6.8,4.6,9.9,7.2c1.2,1,2.3,2.3,3.4,3.4c-1.7,1.2-2.8,0-4-0.9c-6-4.6-12.5-5.9-20-4.6
				c-9.3,1.6-18.1,5-27.3,7c-14.5,3.2-28.5,8-43.1,11.3c-9.4,2.1-18.5,5.4-27.9,7.8c-7.3,1.8-10.3,7.9-10.4,15.3
				c-0.3,14.7,0.5,29.4,1.4,44.1c0.4,7,0.1,13.9,0.2,20.9c0,2-0.1,4.1,0.6,6.1c0.6,8.6,0.2,17.1,1.1,25.7c0.3,2.6,0.6,5.1,2.2,7.3
				c0.2,2-0.5,2.7-2.5,2.1c-2.4-3.3-2.5-7.3-2.3-10.9c0.6-18.4-2.8-36.6-2.9-55c-0.1-14.9-0.4-29.7-0.3-44.6c0-5.5,4.7-9.2,8.8-12.6
				c17.6-4.8,35.1-10,52.8-14.3c14.3-3.4,28.2-8.2,42.6-11.2c2.2-0.5,4.5-1,6.5-2.4C199.3,80.2,202.8,77.9,206.7,78.3z"/>
			<path class="st88" d="M90.3,230.9c1.2,0,2-0.6,2.5-1.6c0.3-0.4,0.7-0.6,1.2-0.8c1.9-0.4,3.6,0.3,5,1.4c9,6.8,19.6,8,30.2,8.8
				c13.6,1.1,27.2,2.1,40.8,3.5c12.7,1.4,25.6,2.1,38.3,3.1c13.1,1,26.1,1.8,39.2,2.9c12.1,1,24.2,1.7,36.3,2.8c6,0.5,12,0.7,18,1.4
				c9.2,1.1,12.7-1.3,15-10.4c3.4-13,5.9-26.1,7.8-39.3c0.3-1.8,0.2-4.6,2.5-4.4c2,0.2,1.3,2.9,1.4,4.6c0.1,1.5,0.1,3,0.5,4.5
				c0.1,4.3,0,8.6,0.1,12.9c-0.4,6.7,0.7,13.5-0.6,20.2c-2.7,0.2-2-1.9-2.2-3.2c-0.3-2.5,0-5.1-0.1-7.6c0-4.6-0.3-9.2,0.6-12.6
				c-0.5,4.2-1.5,9.5-2.3,14.8c-1.5,10-2.8,20-5.3,29.8c-2.4,9.8-6.6,12.3-16.5,11.6c-9.8-0.7-19.6-1.3-29.4-2
				c-11.3-0.8-22.6-1.6-33.9-2.6c-12.1-1.2-24.2-1.9-36.3-3c-18.1-1.7-36.2-2.6-54.3-4.3c-12.4-1.2-23.2-6.7-33.8-12.8
				c-8.9-5.1-17.2-11.1-25.6-16.9C89.7,231.5,90,231.2,90.3,230.9z"/>
			<path class="st89" d="M89.4,231.7c4.8-0.1,7.2,4,10.6,6.2c14.7,9.2,29.1,19.3,46.8,22.1c4.1,0.7,8.4,0.9,12.5,1.3
				c16.2,1.3,32.5,2.1,48.7,4c8.4,1,16.8,1.1,25.2,1.8c12,1,24,2.1,36.1,3.1c4.3,0.4,8.7,0.4,13,0.8c8,0.6,16,0.9,24,1.8
				c5,0.5,9.9-3.1,11.2-8.4c2.6-10.8,4.4-21.8,5.9-32.8c0.7-5.4,2-10.8,3-16.2c0.4,0,0.7,0.1,1.1,0.1c0,4.6,0,9.3,0,13.9
				c-2,6.6-2.1,13.4-2.8,20.2c-1.1,9.8-3,19.4-4.9,29.1c-1.6,8.2-4.3,10.4-12.6,11.6c-10.6,1.5-21.2,1.2-31.9,0.4
				c-9.3-0.6-18.5-1.2-27.8-1.8c-10.6-0.8-21.2-1.5-31.8-2.6c-11.3-1.2-22.6-2.3-33.8-2.9c-12-0.6-22.7-4.6-32.9-10.3
				c-18.4-10.4-36.4-21.6-53.6-34c-2.5-1.8-5.1-3.7-6.7-6.5C88.9,232.3,89.2,232,89.4,231.7z"/>
			<path class="st90" d="M88.6,232.5c3.9,1.5,6.2,5.2,9.6,7.3c8.5,5.4,16.8,11,25.3,16.5c11.1,7.2,22.4,14,34.3,19.8
				c7.2,3.5,14.8,5,22.7,5.8c13.2,1.3,26.5,1.9,39.7,3.7c7.1,0.9,14.3,1.4,21.5,1.8c18.6,0.9,37.2,3.2,55.8,2.6
				c3.5-0.1,7.1-0.4,10.5-1.1c7.8-1.5,9.6-3.7,11.1-12.4c2.4-13.6,4.5-27.3,5.9-41c0.2-2.2,0-4.7,2.4-6.2c0.4,3.8-0.7,7.7,0.7,11.5
				c2,2.7,0.7,5.7,1,8.6c0.2,2,0.1,4,0,6.1c-4.1,6.9-3.1,14.8-4.5,22.2c-0.4,2.1-0.6,4.3-1.1,6.5c-1.4,5.8-4.8,9.6-10.9,10.9
				c-17.1,3.6-34.1,7.6-51.3,11c-13.9,2.7-27.8,5.8-41.9,7.6c-6.8,0.9-13.1-0.1-19.1-3.1c-10.3-5.1-19.9-11.4-29.6-17.6
				c-24.3-15.5-48.3-31.5-72.1-47.8c-3.5-2.4-6.5-5.4-9.8-8.1c-1.1-0.9-2.4-1.9-1.9-3.8C87.3,232.7,87.9,232.6,88.6,232.5z"/>
			<path class="st91" d="M86.9,233.3c5.1,6.4,11.9,10.8,18.4,15.3c9.8,6.9,19.9,13.4,29.9,20c19.9,13.1,39.8,26.2,60.3,38.4
				c8.8,5.3,18,6.9,28.2,5.1c22.1-3.9,43.9-8.7,65.9-13.1c7.6-1.5,15.1-3.3,22.7-5c7.8-1.7,9.9-6.8,11-16.1
				c0.7-6.1,1.6-12.1,2.4-18.1c0.2-1.5,0.5-3,2.3-3.5c1.6,1.2,0.8,2.9,1,4.4c0,0.5-0.1,0.9-0.2,1.3c-0.5,3.2-0.1,6.4-0.2,9.6
				c0,4.9,0.1,9.7-0.1,14.5c0,0.7-0.2,1.4-0.5,2c-4.9,7.6-12.5,10.4-20.9,12.2c-28.4,6.1-56.8,12.7-85,19.5
				c-9.9,2.4-18.3,1.1-26.7-4.8c-16.7-11.8-33.9-23-50.7-34.7c-2-1.4-4.1-2.7-6.7-2.9c-2.4-0.3-4.4-1.5-5.8-3.3
				c-1.7-2-3.7-3.4-5.8-4.8c-10-8.5-20.3-16.6-31.2-24c-2.2-1.5-4.4-3-6.7-4.6c-0.2-1.5-1.7-1.5-2.5-2.4c-1.6-1.3-3.5-2.6-1.5-5.1
				C85.4,233.4,86.1,233.3,86.9,233.3z"/>
			<path class="st92" d="M84.6,233.4c-0.5,2,0.7,3.5,1.5,5.1c-6-0.2-7.3-1.6-7.4-7.6c0-9.6,0-19.2,0-29.7c3.1,3.5,3.7,7,5,10.1
				C85.3,218.6,84.1,226,84.6,233.4z"/>
			<path class="st93" d="M78.8,189.1c0-2.5-0.1-5.1,0-7.6c0.1-3.9,1.7-5,5.7-3.9c0,5.5,0,11,0,16.4C82,192.9,79.2,192.3,78.8,189.1z
				"/>
			<path class="st94" d="M126.4,269.4c4.5,1.4,7.1,5.8,11.3,7.7c2.5,0.7,4.4,2.3,5.9,4.3c3.9,4.5,8.8,8,13.4,11.8
				c2.4,2,5.1,4,5.4,7.6c-1.6-0.1-3-0.6-4.1-1.8c-4-5.1-9.7-8.2-14.4-12.5c-4.1-3.6-9.5-6-12.6-10.2
				C129.8,274.2,128.2,271.7,126.4,269.4z"/>
			<path class="st75" d="M81.2,61.1c6.9-0.6,13.4-3,20.2-4.3c1.2-0.2,2.4-0.4,3.6-0.6c7.3,1.3,14,4,20.7,7.1
				c6.7,3.2,13.7,5.8,21.1,6.8c-1.2,1.8-3.6,1-5,2.4c-5.4,1-10.8,2.2-16.4,2.5c-4.7,0.4-9-0.9-13.4-2.4c-10.9-3.6-21.7-7.9-33.5-7.5
				c-0.7,0-1.3-0.2-1.7-0.9c0.7-2.1,3.3-0.8,4.3-2.4C81.2,61.5,81.2,61.3,81.2,61.1z"/>
			<path class="st5" d="M169,71.7c-11.4,2.4-22.8,5-34.2,7.3c-5.8,1.2-11.8,1.9-17.7,2.5c-12.9,1.3-25.9,1-38.8,0.8
				c-6-0.1-11.9,1-17.9,0.8c-0.5,0-1.1,0.2-1.5-0.8c1.3-1.1,3-1.5,4.7-1.6c5.6-0.1,11.1-0.5,16.7-0.8c21.6-1.3,43.1-2.6,64.3-6.7
				c0.5-0.1,0.9-0.5,1.4-0.8c0,0,0,0,0,0c15.1-3.7,30.4-6.6,45.6-10.2c0.5-0.1-0.1,0,0.4-0.1c2.3-0.5,5.1-0.5,5.5,2
				c0.5,2.9-2.9,1.2-4.2,2.1c-2.7,1.4-5.8,1.2-8.7,2.2l0,0C179.4,69.6,174.4,71.6,169,71.7z"/>
			<path class="st37" d="M169,71.7c5.1-1.6,10.3-2.8,15.6-3.3c-4.9,2.6-10.1,3.6-15.6,4.1C169,72.3,169,72,169,71.7z"/>
			<path class="st95" d="M382.4,334.3c-0.7,1.3-1.6,2.3-3.3,2.5c-0.8-4-1.5-4.4-4.7-1.8c-1.2,0.9-2.4,1.7-3.6,2.6c0,0,0,0,0,0
				c-6.6,0.8-12.8,3.5-19.3,4.7c-4.2,0.8-8.5,1.8-12.7,2.7c-9.3,1.8-18.4,4.4-27.8,5.6c-13.6,1.7-18.1,0-25.7-12.8
				c-2.7-4.6-1.6-7.4,3-10.2c5.2-3.1,10.9-5,16.2-7.7c1-0.5,2-0.9,3.1-1.1c0.9-0.1,1.7,0,2.4,0.5c0.7,2.3-1.2,2.7-2.5,3.5
				c-2,1.1-4.1,2.1-6,3.5c-3,2.3-3.1,5,0,6.9c3.9,2.3,7.9,3.7,12.8,1.8c5.6-2.3,10.3-5.5,14.5-9.7c5.2-5.1,11.8-8.3,17.4-12.9
				c1.6-1.3,3.1-2.7,4.5-4.2c1.5-1.7,1.5-2.9-1.1-3.2c-1.4-0.2-2.7-0.4-3.5-1.7c0.6-0.3,1.2-0.8,1.8-0.8c7.3,0.9,14.6-0.6,21.9-0.1
				c1.4,0.1,2.7,0.2,3.4,1.6c-0.6,1.2-1.6,2.4-1.3,3.8c1.1,5.4,0.1,10.9,1.6,16.4c2.1-2.8,4-2.2,5.9,0.1c1.6,1.9,2.7,4.1,3.8,6.3
				C384.1,332,384.1,333.4,382.4,334.3z"/>
			<path class="st96" d="M305.3,320.4c-5.2,3.6-11.4,5-16.7,8.2c-3.4,2-4.5,4.3-2.7,7.6c2.8,5.2,5.9,10.2,11.4,12.9
				c3.9,1.9,8.4,1.2,12.5,0.6c8.7-1.2,17.4-2.4,26-4.6c1-0.3,2.2-0.1,3.3-0.2c-12.2,3.3-24.3,7.1-36.9,8.2
				c-3.5,0.4-6.8,1.6-10.4,1.7c-4.8,0-8.8-1.5-11.4-5.8c-1.7-2.8-3.6-5.5-4.9-8.5c-2-4.6-1.3-6.9,2.7-9.8c1.2-0.9,2.5-1.6,3.7-2.6
				c1.4-1.1,3.1-1.6,4.7-2.1c4.3-1.3,8.4-2.9,12.5-4.8C300.8,320.4,302.9,318.8,305.3,320.4z"/>
			<path class="st26" d="M286.4,326.9c-1.4,0.5-2.7,1.1-4.1,1.6c-2.8,1.7-5.6,3.4-8.1,5.5c-2.4,2-2.7,4.3-1.6,7
				c1.4,3.6,3.4,6.8,5.6,10c2,2.9,5.3,3.1,8.4,3.5c3.2,0.4,6.5-0.8,9.7,0.3c-5.3,1.6-10.7,2.9-16.3,2.4c-4.1-0.3-6.8-3-8.7-6.1
				c-2.1-3.3-3.8-6.8-4.9-10.7c-0.9-3.3,0.3-4.9,2.6-6.9c6.4-5.6,13.9-8.8,21.6-12c1.4-0.6,3.9-0.9,3.5-2.7
				c-0.4-1.8-2.8-0.6-4.4-0.9c-0.8-0.1-1.6,0-2.5,0c0-0.3,0-0.5,0-0.8c3.6-2.5,7.9-2.5,11.9-3.4c0.5,0-0.1-0.1,0.4,0
				c2.1,0,5-0.4,5.6,2.1c0.6,2.5-2.3,3.3-4.1,4.3C296.3,322.6,291.3,324.8,286.4,326.9z"/>
			<path class="st64" d="M296.3,354.8c-4.7-0.7-9.3,1.8-14.1,0.1c-1.8-0.6-3.3-1.2-4.3-2.6c-2.8-3.7-5.1-7.7-6.7-12
				c-1-2.8-0.6-5.5,2.7-7.2c2.8-1.5,5.2-3.9,8.5-4.6c-0.5,1.3-1.8,1.6-2.7,2.3c-5.2,3.6-5.6,5.1-2.6,10.7c1.1,2.2,2.6,4.2,3.7,6.3
				c3,5.6,8.1,6.5,13.6,5.9c2.6-0.3,5.1-0.6,7.7-0.6C300.2,354.3,298.3,354.7,296.3,354.8z"/>
			<path class="st97" d="M153.4,335.1c-3.8-1.8-6.5-5-9.8-7.4c0.1-2.5,1.8-2.1,3.2-1.6c7.4,2.6,15,1.9,22.6,2.2
				c5.8,0.2,11.1,1.8,15.9,5.3c1.5,1.1,3.4,1.7,5.1,2.4c1.9,0.3,2.3,2.1,3.3,3.3c-6.3-1.8-12.5-2.7-19.2-2.1
				c-5.3,0.5-11.1,0-16.4-2.2C156.5,334.3,154.9,333.7,153.4,335.1z"/>
			<path class="st79" d="M329.8,291.7c5.1-0.6,10-0.8,14,3.2c0.1,0.2,0.2,0.4,0.3,0.5c-0.2,0.4-0.4,0.7-0.8,0.8
				c-2.1,0.5-3.4-0.2-3.8-2.4c-0.1,1.2-0.4,2.2-1.5,2.9c-1,0.2-2,0-3,0.5c-3.2,6-9.1,7.7-15.1,9.4c-3.7,1.1-7.1,3.3-10.8,4.6
				c-10.5,2.8-21.2,5.1-31.8,7.3c-2.9-0.1-5.3,2.1-8.2,1.7c-9,2.2-18,4.4-27,6.6c-8,1.1-15.5,4.6-23.5,6c-1,0.2-2.2,0.3-2.8,1.4
				c-0.1,1.2-0.8,1.2-1.6,0.8c-0.9-0.2-1.9,0.1-2.6-0.9c-1.3-2.6,0.9-4,2-5.7c6.2-2.8,13-4.1,19.5-5.9c4.4-1.2,8.7-2.4,12.9-4
				c22.5-6.3,45.1-12.5,67.8-18.3c1.3-0.3,2.6-0.7,4-0.8C323.5,299.4,328.4,298.1,329.8,291.7z"/>
			<path class="st15" d="M214.3,335.2c0.5-0.3,1.1-0.5,1.6-0.8c1.6-0.2,3.2-0.5,4.8-0.7c0.1,0.3,0.2,0.5,0.2,0.7
				c-0.7,1.4-3.2,2.2-2.2,3.9c1.1,1.9,3.4,0.9,5.2,0.6c2-0.4,3.8-1.5,5.9-1.3c-3.1,2-6.5,2.7-10.1,2.5c-1-0.1-2.3,0-2.5-1
				c-1-5-3.1-1.3-4.8-0.7C212.5,337,213.6,336.3,214.3,335.2z"/>
			<path class="st40" d="M181.3,328.6c-1.1-0.8-2.2-1.6-3.3-2.4c1.1-4.7-2.1-6.6-5.5-8.3c-3.4-1.6-6-4.7-9.7-5.8c-2-1-4.5-1.5-5-4.3
				c0.3-2,1.7-2.3,3.3-2.1c5.9,3.4,12,6.5,17.9,9.8c4.9,2.7,9.7,5.5,13.8,9.5c0.7,0.7,1.9,1.9,2.8,1c1.3-1.3-0.5-2-1.2-2.8
				c-1-1.1-3-1.7-2.2-3.8c3.7-0.1,5.7,2.2,7.2,5.1c0.2,0.9,0.5,2,0.1,2.8c-2,4.1-2,8,0,12.1c-2.4-0.5-4.1-1.9-4-4.3
				c0.1-3.4-1.9-3.2-4.2-3.1c-1.1-0.7-2.4-0.5-3.6-0.3C184.9,331.8,182.8,330.9,181.3,328.6z"/>
			<path class="st19" d="M181.3,328.6c2.9,2.2,6.6,2.3,9.9,3.2c-2,0-3.9,0-6.4,0c1.6,2.5,4.3,2.4,5.5,4.1c-3.8,0-6.3-2.9-9.7-4.1
				c-4-1.4-8-2.6-12.3-2.5c-7.7,0.2-15.6,0.7-22.9-2.7c-1-0.5-1.5,0.3-1.9,1c-1.8-1.8-4.8-2.5-5.7-5.2c0.3-1.1,0.9-0.9,1.4-0.7
				c7,2.4,14.2,1.8,21.4,1.8c6.5,0,12,2.7,17.6,5.4C179.3,329.5,180.8,331.3,181.3,328.6z"/>
			<path class="st47" d="M199.4,339.2c-3.7-3.2-3.9-6.8-1.3-10.9c0.6-1,0.4-2.6,0.5-3.9c1.6-0.4,2.6,0.6,3.6,1.4
				c2.7,2.4,5.7,2.6,9.1,1.7c9.8-2.7,19.6-5.6,29.4-8.2c1.8-0.5,3.7-1.4,5.4,0.2c-6.7,3.4-14.1,4.3-21.2,6.5
				c-3.6,1.1-7.2,2.2-10.8,3.2c-0.9,0.9-2,1.1-3.3,0.8c-1.9,0.5-3.9,0.9-5.8,1.6c-0.9,0.3-2.1,1.2-1.8,2.4c0.3,1.1,1.5,0.8,2.4,1
				c1.3,0.3,3.6-0.9,3.8,0.9c0.2,1.7-1.9,2.8-3.5,3.5C203.8,340.4,201.6,340.4,199.4,339.2z"/>
			<path class="st61" d="M210.9,330.1c0.9-0.9,2.1-0.7,3.3-0.8c-0.8,1.7-2.4,3-2.4,5c-1.1-0.2-2.7,0.6-3.1-1.1
				C208.2,331.5,210.3,331.3,210.9,330.1z"/>
			<path class="st98" d="M277.3,318.7c10.7-2.7,21.4-5.5,32-8.2c4.4-1.3,8.8-2.8,13.4-3.3c2.5-0.3,4.9,0,5.8,2.6
				c1,2.9-1.1,4.4-3.3,5.3c-4.9,2-9.6,4.6-15.1,4.4c-0.8,0-1.6,0-2.5,0c-0.2-3,3.5-3.1,4.4-6.1c-4.4,0-8.5,0.5-12.6,1.2
				c-4.1,0.8-8.2,1.6-12.3,2.5C283.9,317.7,280.7,318.9,277.3,318.7z"/>
			<path class="st99" d="M310.2,319.6c4.8-1.7,9.7-3.4,14.5-5.2c1.7-0.7,4-1.6,3.3-3.9c-0.8-2.6-3.1-2.3-5.4-2
				c-4.4,0.7-8.7,2.1-13.2,2.1c5.4-3,11-5.7,17.2-6.9c2.8-0.6,4.8-1.7,5.8-4.5c0.4-1.2,1.3-2.1,2.5-2.6c0.5,0.5,0.5,1.1,0,1.6
				c-0.4,0.7-0.7,1.4-1.1,2.1c-2.4,4-2,4.9,2.7,7c-0.1,2.9,1.5,3.8,3.8,2.5c2.2-1.2,6-1.6,4.4-5.8c0.3-0.7,1-0.8,1.6-0.8
				c0.8,0.2,1.6,0.4,2.4,0.7c1.6,0.5,3.9-0.6,4.7,1.5c0.8,2.3-1.6,3.3-2.8,4.5c-2.9,2.9-6.1,5.4-9.6,7.5
				c-5.8,3.4-10.9,7.8-15.6,12.4c-3.4,3.3-7.6,4.7-11.7,6.4c-4.4,1.9-11.6-0.3-14.3-3.8c-2.2-2.7-1.5-4.8,1-6.5
				c2-1.4,4.2-2.5,6.3-3.7C307.9,321.4,309.5,321.1,310.2,319.6z"/>
			<path class="st100" d="M382.4,334.3c0.7-2.7-3.1-10.7-5.5-11.3c-2-0.5-1.8,1-1.9,2.2c-0.1,0.8-0.2,1.8-1.2,1.9
				c-1,0-1.1-1-1.2-1.8c-0.6-6.1-1.1-12.2-1.7-18.2c-0.2-1.8,0.1-3.4,2.5-3.2c3.7,2.1,2.8,6.1,4,9.3c0.5,1.3,0,3.4,2.5,2.2
				c1.6,4.6,2.3,9.6,5.3,13.7c0.5,0.6,0.8,1.4,1.4,2c-0.7,3.2,1.6,7-1.7,9.8C385.7,338.1,386.7,335.2,382.4,334.3z"/>
			<path class="st65" d="M386.5,331c-4.5-2.6-5.4-7.2-6.5-11.7c-0.3-1.3-0.1-2.7-0.1-4c0.9-2.2,2.1-5.4,4.1-5.2
				c3,0.2,1.9,3.9,2.1,5.8C386.7,320.9,386.4,326,386.5,331z"/>
			<path class="st43" d="M334.8,298.2c0-0.5,0-1.1,0-1.6c1.1,0,2.2-0.1,3.2-0.1c1.7-1.6,4,0.6,5.8-0.8l0,0c2.9-1.7,6.1-1,9.2-1.2
				c4.7-0.2,9.5,0.1,14.3-0.1c4-0.1,7.9,0.1,11.3,2.4c0.2,0.2,0.4,0.4,0.6,0.5c-0.9,1.1-2.2,0.8-3.4,0.8c-9.5,0-19,0-28.5,0
				C343.1,298.2,338.9,296.2,334.8,298.2z"/>
			<path class="st101" d="M344.7,304c2.4,1.2,2.5,2.6,0.3,4.1c-2.2,1.5-4.1,3.6-7.2,3.3c-1.1-0.1-2.2-0.4-2.7-1.5
				c-0.8-1.4,0.9-1.7,1.3-2.6C339.1,306,341.7,304.5,344.7,304z"/>
			<path class="st43" d="M384,294.1c1.3,0.3,1.4,1.8,2.4,2.5c0.1,0.2,0.1,0.5,0.1,0.7c-0.1,2.9-1,4.1-3.3,1.4
				c-1.1-1.3-2.6-1.3-4.1-1.2c0,0,0,0,0,0c-0.2-1.6,1.2-1.6,2.1-1.6C382.5,295.8,383.3,295.1,384,294.1z"/>
			<path class="st59" d="M370.9,337.6c1.4-1.5,2.7-2.9,4.1-4.4c1.6-1.8,2.9-1.1,4.5,0c2.3,1.6-0.2,2.4-0.3,3.6
				c-0.5,1-1.3,1.6-2.5,1.7C375.3,334.8,372.8,337.8,370.9,337.6z"/>
			<path class="st102" d="M158.4,308.1c1.1,2,3.3,2.2,4.9,3.3c1.3,2.3-0.1,4.1-1,6.1c-1.4,0.5-2.7,0-3.8-0.8
				c-5.2-3.6-11.1-4.6-17.1-5.3c-3.4-0.9-6.9-0.6-10.3,0.1c-0.2,0-0.4,0-0.6,0c-1,2-2.6,1.1-4.1,0.8c-3-0.8-6.2-1.4-7.4-4.9
				c-0.8-3.1-3.4-4.7-5.7-6.6c0.9-0.9,2-0.8,3.1-0.5c7.4,1.5,14.9,1,22.4,0.4C146.2,300,152.8,302.9,158.4,308.1z"/>
			<path class="st8" d="M141.1,310.5c6.2,0,12,1.3,17.3,4.9c1.2,0.8,2.7,1.2,4.1,1.7c2,0.1,3.7,0.8,4.9,2.5c-0.1,1.4-0.9,1.5-2,1
				c-5.4-2.5-11.2-1.9-16.9-1.9c-3.7,0-7.3-0.2-11-0.8c-3.9-0.6-6.6-2.4-7-6.6c0,0,0,0,0,0C133.9,309.6,137.5,309.9,141.1,310.5z"/>
			<path class="st103" d="M167.4,319.6c-1.8-0.4-3.5-1.2-4.9-2.5c-1.1-2.1,1.2-3.8,0.8-5.8c5.5,2.4,10.1,6.1,15.2,9.2
				c3,1.8-0.5,3.7-0.4,5.7C174,324.7,171.5,320.9,167.4,319.6z"/>
			<path class="st104" d="M119,307.3c2.5,1.6,4.9,3.3,7.4,4.9c0.3,1.4,2.6,1.9,2,3.5c-0.4,1.1-1.9,0.4-2.8,0.6
				c-1.1-0.8-2.2-1.6-3.3-2.4c-1.7-1.7-3.6-3.1-5.7-4.2c-2.4-0.7-3.7-2.9-5.8-4.1c-0.5-1.8-2.6-2.1-3.8-3.8
				C111.7,302.5,115,305.6,119,307.3z"/>
			<path class="st68" d="M116.5,309.7c2.6,0.5,4.5,1.8,5.7,4.2C120,313,118.1,311.5,116.5,309.7z"/>
			<path class="st103" d="M158.4,308.1c-3.4-1.6-6.7-3.5-10.2-4.9c-4.2-1.7-8.5-1.6-13.1-1.1c-7.2,0.8-14.6,0.7-21.8-1.4
				c-0.8-2.7,1.4-2.8,2.8-2.7c8.9,0.2,17.8-0.7,26.7,0.3c0.3,0,0.5,0,0.8,0c2.5,0.6,5.1,1,7.4,2.2c3.5,1.1,6.7,2.8,9.8,4.5
				c0.6,0.3,1.2,0.7,0.8,1.5C160.3,306.6,158.6,305.9,158.4,308.1z"/>
			<path class="st102" d="M142.8,298.2c-8.9,1.1-17.9,0.8-26.8,0.8c-1.2,0-2.5-0.1-2.7,1.6c-0.1,0-0.3,0-0.4,0
				c-2.1-0.4-5.2-0.7-4.9-3.1c0.2-2,3.3-1,5.1-0.9c9.1,0.3,18.1-0.7,27.2,0.7C141.1,297.5,142.1,297.3,142.8,298.2z"/>
			<path class="st102" d="M150.9,300.7c-2.4-0.8-4.9-1.6-7.3-2.5c0.6,0,1.1,0,1.7,0c2,0.1,3.8,0.9,5.7,1.7c0.2,0.2,0.3,0.4,0.2,0.6
				C151.1,300.6,151,300.7,150.9,300.7z"/>
			<path class="st105" d="M329.8,291.7c0,6.3-3.2,8.8-11.5,8.9c0.2-2.1,2.1-2.1,3.5-2.6c1.8-0.6,3.6-1,4.7-2.7
				c0.8-3,0.8-6.1,1.3-9.1c0-5,0-10,0-15c0.2-3.3-0.4-6.6,0.3-9.9l0.2-0.1c0.5-13.6,0.6-27.3-0.1-40.9c0-4.4,0-8.7-0.1-13.1
				c-0.2-5.5-1.5-11-0.6-16.6c0.5-3.4,0.2-6.8-0.3-10.2c-0.4-3.3-0.6-6.6,2.3-9.1c2.8-2.7,2-4.8-0.8-7
				c-21.9-16.9-43.7-33.8-65.6-50.8c-1.9-1.5-3.7-3.2-5.6-4.7c-0.5-0.8-1.1-1.7-1.6-2.5c-0.8-2.4-4-5.1,1.8-6.2
				c3.3-0.6-0.6-2.9-0.1-4.5c3.5,0.2,5.6,2.9,8.2,4.8c4.2,3,8.2,6.2,12,9.7c1.5,2.6,1.2,4.5-2,5.2c-2.9,0.6-2.1,1.7-0.8,3.2
				c3.8,4.4,8.8,7.3,13.1,11.1c3,2.6,6.2,5,9.4,7.3c6.6,5.3,13.5,10.2,20.1,15.5c1.5,1.2,2.9,2.5,4.1,4c2.3,2.9,5.7,4.5,8.4,6.9
				c2.4,2.2,3.8,4.5,3.1,7.7c-2.5,1.6-3.3,3.9-3.3,6.9c0.2,13.9,0.1,27.7,0.1,41.6c0,15.3,0,30.6,0,46c0,2.7-0.1,5.4-0.1,8.1
				C328.9,279.6,329.7,285.6,329.8,291.7L329.8,291.7z"/>
			<path class="st11" d="M321.6,156.3c-5.6-4.2-11.4-8.1-16.8-12.6c-2.6-2.1-5.9-3.4-7.8-6.3c-2.9-4.3-2.8-4.5,3.4-6.7
				c-6.7-8.1-16.2-12.8-23.1-20.3c-6.6-4.9-13.1-9.8-19.7-14.7c-1.8-1.8-4.4-2.7-5.8-5c-0.1-0.7,0.1-1.1,0.9-0.8
				c8.6,1.8,17.2,2.4,25.9,1c2.6-0.4,5.5-0.4,7.8,1.5c-9.2-0.8-18.4,2.1-28.2-0.6c2.2,4.4,6.1,5.8,9.2,7.7
				c9.1,5.6,16.6,13.2,24.8,19.7c9.7,7.7,18.9,15.9,28.4,23.9c1.1,1,2.4,1.8,3.4,2.9c3.4,3.5,3.2,4.3-1.4,5.4
				C319,152.3,322.6,154.8,321.6,156.3z"/>
			<path class="st39" d="M239.7,82.3c-2.7-2.2-6.3-3.2-8.3-6.3c5.1,2.1,10,4.7,15.6,5.7c9.5,1.7,19,0.2,28.5,0.7
				c2.1,0.1,4.4-0.4,6.1,1.6C267.5,83.7,253.5,85,239.7,82.3z"/>
			<path class="st105" d="M252.7,89.8c-0.3,0.3-0.6,0.6-0.9,0.8c-1.6,0.1-2.9-0.4-3.5-2c-0.1-0.2,0.5-0.8,0.6-0.8
				C250.3,88.3,252.4,87.4,252.7,89.8z"/>
			<path class="st106" d="M146.9,70.1c-8.7,1.3-15.7-3.7-23.2-6.5c-4.8-1.8-9.2-4.6-14.5-5.1c-1.6-0.2-3.1-0.9-4.2-2.3
				c0.3-0.3,0.5-0.5,0.8-0.8c2.4-0.7,5-1,7.4-1.7c4.1-0.6,8-2.5,12.3-2.5c0.6,4.2,4.8,4,7.4,5.6c3.4,2.1,7.3,3.4,11,5.1
				c5.1,2.4,10.3,4,16,3.3c0.9-0.1,1.9-0.1,2.6,0.8C157.6,68.6,152.2,69.2,146.9,70.1z"/>
			<path class="st107" d="M147.7,47.1c3.8-0.8,7.6-1.6,11.4-2.5c5.6-0.1,10.9-1.9,16.4-2.9c2.9-0.5,5.7-0.4,8.5-0.3
				c1.9,0.1,2.8,1.3,1.2,3c-3.9,4-7.6,8.1-12.4,11.1c-4.9,3.1-9.8,2.9-14.7,0.4c-3.6-1.8-7.2-3.8-10.8-5.7
				C144.9,48.9,146.2,48,147.7,47.1z"/>
			<path class="st57" d="M192.8,66c1.1-1.5,2.9-0.3,4.4-1.3c-1.5-2-3.4-2.3-5.6-1.8c-13.7,3-27.5,6-41.2,9.1
				c-1.5,0.3-2.9,0.5-4.4,0.5c5.3-3,11.4-3.3,17.1-4.7c11.3-2.7,22.7-4.9,34.1-7.3c2.1-0.4,4.3-0.9,6.3,0.3c-2,1.1-1.9,2.6-0.9,4.3
				c-1,0.8-2.3,0-3.3,0.7c-0.3,0-0.5,0.1-0.8,0.1C196.7,66.6,194.8,66.6,192.8,66z"/>
			<path class="st37" d="M199.4,65.9c0.9-1.1,2.1-0.6,3.3-0.7c5.1-0.2,10.1,0,14.7,2.5c-5.8,0-11.3-2.3-17.2-1.6
				C199.9,66,199.6,65.9,199.4,65.9z"/>
			<path class="st58" d="M113.3,53.7c-2.4,1.1-4.8,1.9-7.4,1.7C108.1,53.9,110.6,53.5,113.3,53.7z"/>
			<path class="st108" d="M330,285.9c1.3-2.5,2-5.2,2.5-8.1c0.8-5.3,3.4-10,6-14.6c1.3-2.3,3.1-2.5,4,0.3c1.7,5.3,4.1,10.3,6.7,15.2
				c2.1,4.1-0.4,11.1-4.2,13.8c-1.8,1.2-2.6-0.2-3.3-1.1c-1.9-2.2-3.9-2.9-6.4-1.2c-2.1,1.3-3.6-0.3-5.2-1
				C329.2,288.1,329.2,287,330,285.9z"/>
			<path class="st109" d="M384,294.1c0.1,1.4,1.8,4-1.9,2.6c-1-0.4-2.2-0.3-3,0.7c-11.6-3.4-23.5-0.8-35.3-1.6c0-0.3,0-0.5,0-0.8
				c2.7-2,5.9-1.5,9-1.6c6-0.2,12,0,18-0.1c1.4,0,2.8-0.1,3.9,0.7c2.2,1.6,3.9,2.3,3.7-1.6c0-0.2,0.2-0.7,0.2-0.7
				c6,0.1,1.6-4.6,3-6.6c0.3,0,0.5,0,0.8,0C384.5,287.8,383.1,291.2,384,294.1L384,294.1z"/>
			<path class="st79" d="M330,285.9c0,1.1,0,2.1,0,3.2c0,0.8-0.1,1.7-0.1,2.5c-1.1-6.1-1-12.1,0-18.2
				C329.9,277.7,329.9,281.8,330,285.9z"/>
			<path class="st43" d="M384,294.1c-2.2-2.7-1.5-5.9-1.6-9c-0.2-3.2-0.3-6.5,3.3-8.2c0,3.1-0.2,6.2,0.1,9.2
				C385.9,289,385.2,291.6,384,294.1z"/>
			<path class="st110" d="M150.9,300.7c0-0.3,0-0.5,0-0.8c6.1,1,10.6,5.2,15.7,8c3.2,1.7,6.3,3.7,9.6,5.4c1.4,0.7,4,1.9,2.6-1.8
				c1.6-1.2,2.7,0.2,3.9,0.9c1.3,0.7,2.3,1.8,3.7,2.4c1.9,1.6,5,1.7,5.6,4.8c0.5,2.2,2.7,2.5,4,3.8c1.1,1.1,2.4,2.2,1,3.8
				c-1.2,1.3-2.8,1-4-0.2c-5.4-5.8-12.5-8.9-19-13.1c-4-2.6-9-3.7-12.6-7.2C158.7,303.3,154.2,303.1,150.9,300.7z"/>
			<path class="st111" d="M186.3,315.4c-3-0.3-4.4-3.8-7.5-4c-5.7-3.1-11.2-6.7-16.4-10.6c-3.4-6.1-9.7-9.3-14.5-13.9
				c-1.8-1.7-3.8-3.1-5.1-5.1c1.3-1.1,2.3-0.1,3.2,0.7c10.1,8,20,16.3,30.5,23.9c2.3,1.7,4.7,3.2,7,4.9
				C184.8,312.4,186.6,313.2,186.3,315.4z"/>
			<path class="st37" d="M192.8,66c1.9,0,3.8,0,5.8,0c-4.6,1.1-9.2,2.2-14,2.4C187.1,66.6,190.2,67.3,192.8,66z"/>
			<path class="st112" d="M329.6,171.3c-1.1,3.3-1.1,6.6-1,10.1c0.1,8.6-0.2,17.2-0.4,25.8c-1.9-2.5,0-5.6-1.5-9.2
				c-1,4.8-2.3,8.6-2.4,12.6c-0.4,11.8-4.5,22.9-6.9,34.3c-1.6,7.6-6.6,10.4-15.3,9c-5.1-0.9-10.3-0.6-15.4-1.3
				c-9-1.2-18.2-1.2-27.2-1.9c-12-0.9-24-2.2-36.1-3.2c-3.9-0.3-7.9-0.5-11.8-0.8c-16.1-1.2-32.2-1.9-48.3-4.1
				c-8.2-1.1-16.5-1-24.8-1.8c-8.2-0.9-16.5-0.8-24.6-2.8c-5.3-1.3-10.4-3.1-14.8-6.5c-1.6-1.2-3.3-2.5-5.6-2.1
				c0.3-2.5,2.8-2.7,4.3-3.9c1.2-0.9,2.6-1.6,3.7-2.5c2.2-1.6,4.5-3.2,7.3-3.8c6.8-2.6,13.8-0.9,20.7-0.5c13.5,0.9,26.9,2,40.4,3
				c11.7,0.9,23.4,1.9,35.1,2.8c11.4,0.9,22.8,1.9,34.3,2.9c12.1,1,24.2,2,36.3,2.9c10.3,0.7,20.7,1.3,31,1.9
				c5.7,0.3,8.6-1.8,10.4-7.3c2.4-7.4,4.3-15,5.2-22.7c0.8-6.3,1.4-12.7,2.2-19.1c0.7-5.6-1.2-10.4-4.9-14.7
				c-3.6-4.2-8.2-7.2-12.6-10.4c-10.8-8.1-21.7-16.1-32.3-24.4c-3.5-2.8-7.2-5.4-10.7-8.2c-1.1-0.9-2.2-1.6-2.6-3.1
				c-0.1-0.5,0.1-0.9,0.4-1.3c5.9,2.6,10.4,7.2,15.5,11c16.4,12.3,32.6,24.9,48.8,37.4C327.2,170.3,328.3,171,329.6,171.3z"/>
			<path class="st113" d="M261.8,121c0,0.3,0,0.5,0,0.8c-0.3,0.6-0.6,1.1-1.3,1.4c-0.7,0.2-1.3,0.1-1.9-0.1
				c-5.1-2.8-9.3-6.7-13.8-10.2c-9.6-7.7-19.8-14.6-29.3-22.4c-6.8-5.6-14.2-7.4-22.6-4.6c-12.9,4.2-26.2,6.7-39.1,10.7
				c-9.7,3-19.8,4.4-29.3,7.9c-8,2.9-16.5,3.8-24.5,6.7c-7.1,2.6-10.6,6.4-10.5,15c0.3,15.8,0.2,31.7,0.2,47.5
				c0,5.7,0,11.4,0.1,17.1c0,1.7,0.2,3.6-1.2,5c-1.1-0.9-0.8-2.3-0.8-3.4c-0.3-9.1-0.2-18.3-0.6-27.4c-0.4-11.8-1.4-23.7-1.1-35.6
				c0.1-3.6,0.6-7.1,1.1-10.5c0.6-4.4,6.7-10.1,11.5-10.8c8.2-1.3,16-4.2,23.9-6.7c3.9-1.2,7.9-2,11.9-2.7c7.8-1.3,15-5,22.7-6.5
				c10.6-1.9,20.7-5.9,31.2-8.2c7-1.5,13.9-3.7,21.2-0.8c2.6,1,4.9,2.3,7,3.9c1.1,0.8,1.8,2.1,3.4,1.9c8.4,5.1,15.6,11.6,23.4,17.5
				c4.9,3.6,9.7,7.4,14.6,11C259.6,118.4,260.6,119.7,261.8,121z"/>
			<path class="st51" d="M209.3,72.5c3-0.2,4.5,2.3,6.5,3.7c2.9,2.1,5.5,4.6,8.3,7C218.2,80.9,214.3,76,209.3,72.5z"/>
			<path class="st114" d="M88.6,195.6c0-7.7,0-15.3,0-23c2.3,0.4,1.8,2.4,2,3.9c1.3,9.1,2,18.4,3.6,27.4c1.4,7,2.6,14,7.6,19.6
				c-2.2,2.7-5.7,3.4-8.2,5.7c-0.3,0-0.5,0-0.8,0c-2.8-0.5-3.1-2.6-3.3-4.9C88.8,214.8,88.4,205.2,88.6,195.6z"/>
			<path class="st112" d="M328.3,220.2c1.1,2.8,0.5,5.6,0.5,8.4c0.1,9.5,0.1,19,0,28.5c0,1.3,0.4,2.7-0.5,4
				c-0.1-1.6-0.2-3.2-0.3-4.8c0-5.2,0-10.4,0-15.5C328.1,233.9,328.2,227.1,328.3,220.2z"/>
			<path class="st115" d="M186.3,315.4c-3.7-4.5-9-6.9-13.4-10.4c-9.4-7.5-19.2-14.5-28.3-22.3c-0.5-0.4-1.2-0.6-1.8-0.9
				c-1-2.3-4-2.5-5-4.8c2.1-1.5,3.9-0.1,5.5,1c10,6.8,19.9,13.8,29.9,20.6c9.4,6.4,18.8,12.9,28.5,19.1c5.5,3.5,11.7,3,17.8,1.6
				c25.1-5.8,50.3-11.7,75.4-17.5c6.5-1.5,13.1-2.5,19.4-4.5c4.6-1.4,8.5-3.6,11-7.9c0.5-0.8,1.2-1,2.1-1.1c0.8,2.7,0.6,5.4,0.1,8.1
				c-2.4,2.8-6.6,1.6-9.2,4.1c-19.5,4.7-38.9,10.2-58.3,15.5c-4.6,1.3-9.2,2.3-13.8,3.4c-8.8,1.1-17,4.6-25.6,6.5
				c-2.4,0.5-4.9,1-7.1,2c-6.1,2.8-10.7,0.5-14.9-3.7c-1.7-2.2-3.9-3.9-6.5-5C190.2,318.1,188.3,316.7,186.3,315.4z"/>
			<path class="st112" d="M328.1,271.2c0.4,5.2,0.4,10.3,0,15.5c-0.2,0-0.3,0-0.5,0c0-5.2,0-10.3,0-15.5
				C327.7,271.2,327.9,271.2,328.1,271.2z"/>
			<path class="st90" d="M328.1,271.2l-0.3,0c0,0-0.3,0-0.3,0c0.2-3.3-0.9-6.7,0.7-9.9C328.6,264.6,328.4,267.9,328.1,271.2z"/>
			<path class="st90" d="M327.6,286.7c0.2,0,0.3,0,0.5,0c-0.1,3.3,1.3,6.6-0.5,9.8c0-2.7-0.1-5.4-0.1-8.1
				C327.4,287.8,327.5,287.2,327.6,286.7z"/>
			<path class="st116" d="M371.7,326.1c0.1,5.1-2.2,8.1-6.4,8.8c-5.9,1-11.8,1.8-17.6,2.6c-1.5,0.2-3.2,0.1-4.1-1.2
				c-1.1-1.5,0.3-2.8,1.1-4c5.3-7.9,12.5-13.8,19.8-19.7c2.7-2.2,4.1,0.2,4.7,2.3C370.3,318.9,371,323.1,371.7,326.1z"/>
			<path class="st64" d="M299.5,314.6c3.7-1.9,7.8-2,11.8-2.4c1.1-0.1,2.3,0,2.6,1.4c0.3,1.2-0.9,1.5-1.6,2.1
				c-1.6,1.3-3.1,2.6-4.6,3.9c-0.8,0.3-1.6,0.5-2.5,0.8c-5.6,0.6-10.1,4.3-15.4,5.7c-1.2,0.3-2.2,1-3.5,0.9
				c4.8-2.7,9.7-5.3,14.5-8.1c1.4-0.8,4.1-1.1,3.5-3.1C303.8,314.1,301.3,314.7,299.5,314.6z"/>
			<path class="st109" d="M343.8,295.8c-1.7,1.6-3.8,0.5-5.8,0.8c0.5-1.9,0.8-4,3.1-1.2C341.6,295.9,342.9,295.6,343.8,295.8z"/>
			<path class="st68" d="M141.1,310.5c-3.6-0.1-7.2,0-10.7,0.8C133.8,308.8,137.5,309.3,141.1,310.5z"/>
			<path class="st12" d="M277.3,110.3c5.8,3.4,10.6,8,15.8,12.1c2.8,2.2,5.3,4.6,7.9,7.1c1.3,1.3,1.6,3.1-0.9,2.9
				c-5-0.4-4.1,2.1-3,5c-8.3-5.6-16.1-12-23.3-18.9c-0.9-0.8-1.9-1.8-1.4-3.1c0.4-1.2,1.8-1,2.9-1
				C278.5,114.5,278,112.4,277.3,110.3z"/>
			<path class="st117" d="M260.9,122.6c0.3-0.3,0.5-0.5,0.8-0.8c2.9,3.5,6.7,5.9,10.2,8.7c12.7,9.8,25.5,19.4,38.5,28.8
				c3.7,2.7,7.2,5.4,10.2,8.8c4,4.6,5.7,9.9,4.7,16.2c-1.3,7.8-1.9,15.6-2.9,23.4c-0.8,6.1-2.4,12-4.4,17.8
				c-2.3,6.9-6.9,9.3-15.4,7.7c-5.7-1.1-11.4-0.9-17.1-1.2c-10.3-0.6-20.6-1.4-30.9-2c-13.9-0.8-27.8-2.6-41.7-3.9
				c-8-0.7-16-1.1-24-1.8c-12.9-1-25.7-2.2-38.6-3.2c-8.9-0.7-17.9-1-26.9-1.8c-5.2-0.5-10.2-0.7-15.3,0.9c-0.3-1.3,0.4-2.2,1.4-2.7
				c4.7-2.7,8.9-6.3,14.1-8.1c9-2.2,18-0.4,26.9,0.2c12.8,1,25.6,1.9,38.4,3c13.5,1.1,27,1.8,40.4,2.9c15.2,1.2,30.5,2.6,45.7,3.7
				c8.7,0.6,17.4,1.3,26.1,2.1c1.9,0.2,3.8,0.2,5.7,0.3c5.1,0.3,8.4-2.3,9.9-6.9c2.5-7.5,4.4-15.2,5.3-23.1c0.3-3,0.3-6,0.8-9
				c1-6.2-1.7-11.3-6.3-15.2c-10.3-8.5-21.2-16.3-31.9-24.3c-7.3-5.5-14.5-11.2-21.7-16.8C261.8,125.4,260.5,124.4,260.9,122.6z"/>
			<path class="st118" d="M123.1,210.4c-4.9,3.3-10.6,5.5-14.8,9.8c-2.6,0.3-4.2,2.5-6.5,3.3c-3.4-1-4.2-4.1-5.3-6.7
				c-1.6-3.9-2.7-7.9-2.9-12.2c-1.4-13.4-2-26.9-0.7-40.3c2.6-2,2.3,0.8,2.5,1.8c0.8,3.6,1.7,7.1,2.6,10.7c0.7,3,2.2,5.5,4.2,7.9
				c1.2,1.4,2.7,2.2,4.6,2.3c11.5,1,23,2,34.6,2.5c3.3,0.1,6.5,0.6,9.7,1.2c2.5,2.1-0.2,2.8-1.2,3.4c-3.4,2.4-7.1,4.4-10.5,6.8
				C133.9,204.2,129,208.2,123.1,210.4z"/>
			<path class="st119" d="M123.1,210.4c5-3.7,10.2-6.9,15.6-9.9c3.9-2.2,8.1-3,12.6-2.5c11.8,1.3,23.6,2,35.5,3
				c14.5,1.2,29.1,2.4,43.6,3.7c8.7,0.8,17.4,1.4,26.1,2c11.2,0.8,22.3,2,33.4,2.9c5.4,0.4,10.9,1.1,16.3,1.2
				c5.2,0.1,8.6-2.3,10.2-7.2c2.3-7,4-14.3,4.7-21.6c0.6-6.6-2.8-11.7-8-15.7c-11.1-8.6-22.5-16.9-33.6-25.4
				c-5.8-4.5-11.7-8.9-17.6-13.3c-1.3-1-2.6-2-3.1-3.7c0-0.5,0.1-0.9,0.4-1.3c0.5,0,1.1,0,1.6,0c3.6,4.5,8.6,7.4,13.1,10.9
				c14.3,11.1,28.9,21.8,43.1,32.9c5.5,4.3,7.5,10.3,6.8,17.7c-0.9,9.2-2.5,18.3-4.7,27.2c-0.7,2.8-1.7,5.4-3.4,7.8
				c-3.6,4.9-8.9,4-13.6,3.3c-5.1-0.8-10.3-0.6-15.4-1.2c-12.1-1.4-24.4-1.6-36.6-2.7c-15-1.3-30-2.5-45.1-3.4
				c-11.2-0.6-22.5-1.5-33.7-2.4c-13.3-1-26.5-2.6-39.8-3.2C128.7,209.4,125.9,210.5,123.1,210.4z"/>
			<path class="st120" d="M259.3,122.6c0,0.3,0,0.6,0,0.8c-0.4,0.9-0.8,1.7-1.7,2.2c-0.7,0.4-1.4,0.7-2.3,0.6
				c-0.4-0.1-0.8-0.4-1.1-0.7c-6.7-5.8-14-10.9-21-16.3c-6.1-4.6-12.2-9.3-18.1-14.1c-6.9-5.5-14.1-7.5-22.9-5
				c-18.9,5.5-38,10.2-57,15.4c-10.8,3-21.8,5.2-32.4,8.9c-7.4,2.6-9.1,4.6-9,12.6c0.1,10.1-0.7,20.2,0.7,30.3
				c0.3,2.1,0.6,4.4-1,6.3c0,13.7,0,27.3,0,41c-1.9-4.7-1.6-9.7-2.4-14.6c-1-5.8-0.9-11.7-2.5-17.4c0-16.1,0-32.1,0-48.2
				c0-7.1,3-11.3,9.5-14c4.4-1.8,9.2-2.5,13.7-3.7c8.8-2.3,17.5-4.9,26.3-7.3c18.4-5,36.8-9.8,55.1-14.9c8.6-2.4,15.8-0.6,22.8,4.8
				c11.9,9.4,24.2,18.4,36.3,27.7C254.6,118.9,256.7,121.2,259.3,122.6z"/>
			<path class="st121" d="M93.5,163.6c-1.1-12.4-0.8-24.8-0.8-37.2c0-8,1.6-10.4,9.2-12.8c19.1-6,38.5-10.6,57.8-15.7
				c11.3-3,22.7-5.8,33.8-9.3c8.7-2.7,15.6,0.4,22.2,5.4c9.8,7.5,19.8,14.9,29.4,22.7c3.5,2.8,8.1,4.5,10.1,9
				c-0.6,2.4-2.6,3.4-4.4,4.6c-13.3,8.3-26.3,17-39.6,25.2c-10.7,6.6-21.1,13.6-31.9,19.8c-2.6,1.5-4.9,3.4-7.4,5
				c-5.7,2.9-10.7,6.8-16.2,10c-1.2,0.6-2.2,1.7-3.8,1c-13.5-1.2-27.1-2.2-40.6-2.9c-10.1-0.4-13.1-5.7-14.9-13.7
				C95.5,171.2,94.5,167.4,93.5,163.6z"/>
			<path class="st122" d="M151.8,191.5c1.1-0.5,2.2-1.1,3.3-1.6c6.2-2.2,12.5-0.3,18.7,0c9.1,0.5,18.2,1.3,27.4,2
				c8.3,0.7,16.6,1.2,24.9,1.9c9.8,0.8,19.6,1.1,29.4,2.2c11,1.3,22,2.2,33,2.9c6.4,0.4,12.8,1.3,19.2,1.2c3.3,0,6-1.3,7.4-4.3
				c2.6-5.6,4.1-11.6,3.7-17.9c-0.4-5.4-4.3-8.7-8.2-11.7c-12.4-9.9-25.3-19.1-37.7-28.9c-5.1-4-10.9-7.3-15.1-12.4
				c0.6-0.5,1.1-1.1,1.7-1.6c4.6,5.3,10.8,8.7,16.2,12.9c12.9,10,26.1,19.6,38.9,29.7c6.1,4.8,9.2,11.2,7.3,19.4
				c-1.2,5-1.9,10.1-3.2,15.1c-2.6,9.8-7,13.1-16.9,11.3c-4.9-0.9-9.8-0.9-14.6-1.3c-15.2-1.1-30.3-2.8-45.5-3.6
				c-12.9-0.7-25.7-2.1-38.5-3.3c-13.1-1.2-26.3-2.1-39.4-3.2c-8.4-0.7-16.7-2.5-25,0.1C142.5,196.8,147.8,195.1,151.8,191.5z"/>
			<path class="st123" d="M171.4,180c6-5.7,13.6-9,20.4-13.4c14.5-9.4,29.3-18.3,43.7-27.8c6.6-4.3,13.7-7.8,19.7-13
				c0.3,0,0.5,0,0.8,0c4.5,0.3,7.1,4,10.1,6.4c14.6,11.4,29.7,22.1,44.1,33.8c2.2,1.8,4.3,3.8,5.9,6.2c3.8,5.7,2.2,14-3.3,18
				c-2,1.4-4,2-6.5,1.8c-18.1-1.1-36.2-2.9-54.3-4.1c-16.5-1.1-32.9-2.7-49.4-3.5c-9.1-0.5-18.1-2.2-27.3-2.6
				C173.9,181.7,172.4,181.3,171.4,180z"/>
			<path class="st124" d="M171.4,180c12.2,1.1,24.2,2.9,36.4,3.4c12.2,0.5,24.3,2.4,36.5,3c8.7,0.5,17.3,1.3,26,1.8
				c12.1,0.7,24.1,2,36.1,2.6c4.5,0.2,7.1-1.7,8.8-4.9c3.4-6.4,2.5-11-2.7-16.1c-6.5-6.4-13.9-11.7-21.2-17.2
				c-11.8-8.9-23.6-17.9-35.4-26.8c0.3-0.7,1-0.8,1.6-0.8c4.7,2.3,8.4,5.9,12.5,9c12.5,9.2,24.7,18.7,37,28.1
				c2.3,1.7,4.4,3.7,6.6,5.5c5.9,4.7,7.5,10.7,5.5,17.9c-0.7,2.6-1.1,5.3-1.8,8c-1.4,5.4-4.8,8.1-10.3,7.9
				c-10.4-0.4-20.8-1.7-31.3-2.2c-10.9-0.5-21.6-2.4-32.5-2.8c-12.5-0.5-24.9-2.2-37.3-3c-7.9-0.5-15.7-1.1-23.6-1.7
				c-9.2-0.7-18.4-1.1-27.6-1.7C160.5,186.5,165.4,182.3,171.4,180z"/>
		</g>
	</g>
</g>
</svg>
