<?xml version="1.0" encoding="utf-8"?>
<!-- Generator: Adobe Illustrator 27.0.0, SVG Export Plug-In . SVG Version: 6.00 Build 0)  -->
<svg version="1.1" id="Layer_1" xmlns="http://www.w3.org/2000/svg" xmlns:xlink="http://www.w3.org/1999/xlink" x="0px" y="0px"
	 viewBox="0 0 200 200" style="enable-background:new 0 0 200 200;" xml:space="preserve">
<style type="text/css">
	.st0{fill:#D8C05C;}
	.st1{fill:#FFBA17;}
</style>
<g>
	<g>
		<path class="st0" d="M101.4,136.5c-3.8-2.3-7.6-4.8-11.5-7.5c-43-29.8-69.7-67.7-59.5-84.5c3.5-5.8,10.9-8.4,20.9-8
			c-17.3-3.4-30.4-1.1-35.7,7.6c-11.5,19.1,18.7,62.1,67.6,95.9c8.6,6,17.2,11.2,25.6,15.8c-1.3-4.3-2.2-7-2.2-7
			C105.2,144.5,103.6,140.3,101.4,136.5z M125.2,149.3l5.4,17c2.4,1,4.7,1.9,7,2.7c-1.9-5.7-3.8-11.4-5.7-16.8
			C129.6,151.2,127.4,150.3,125.2,149.3z M184.4,128.7c4.4,9.6,5.3,17.9,1.8,23.8c-6.1,10.2-24.2,10.4-47,2.4
			c1.7,5.1,3.5,10.6,5.5,16.4c23.3,7.1,41.5,6.2,47.9-4.5C197.8,158,194.4,144.3,184.4,128.7z"/>
		<path class="st0" d="M126.7,68c-0.8-0.6-1.7-1.2-2.5-1.7l-3.9,9.7c0.4,0.3,0.8,0.5,1.2,0.8c34,23.6,55.1,53.5,47,66.8
			c-2.8,4.6-8.6,6.6-16.6,6.3c13.7,2.7,24,0.9,28.2-6C189.2,128.8,165.3,94.8,126.7,68z M40.2,47c-4.2,6.9-1.4,17.8,6.4,30
			c-3.5-7.6-4.2-14.2-1.4-18.8c5.9-9.7,25.7-7.9,49.2,3l4-9.8C70.7,38.1,47.1,35.6,40.2,47z"/>
	</g>
	<g>
		<path class="st1" d="M75.9,98.7c0.4-3,1.1-6,2.6-9.7c1.4-3.5,2.8-6.2,4-8.3c0.9-1.6-0.8-3.4-2.2-2.4c-9.4,6.2-9.1,14.9-7.5,20.7
			C73.2,100.8,75.6,100.6,75.9,98.7z"/>
		<path class="st1" d="M129.6,122.6c0.4-3.1-0.5-8.9-2.2-12.1c-0.2-0.5-0.9-0.4-1.1,0.1c-0.8,2.7-2.7,5.2-4.5,7.3
			c-0.8,0.9-1.4,1.8-1.9,2.9c-0.3,0.6-0.1,1.3,0.3,1.8c0.5,0.7,1,1.4,1.3,2.1c6.2,14.8,15.9,43.8,23.2,66.2c0.2,0.7,1,1.1,1.7,0.7
			c1.1-0.6,2.2-1.2,3.4-1.9c0.5-0.3,0.8-1,0.6-1.6c-10-28.8-18.2-54.5-20.5-61.8C129.5,125,129.4,123.8,129.6,122.6z"/>
		<path class="st1" d="M120.5,116.5c3.5-3.9,7.2-9.8,3.4-15c-4.1-5.6-7.9,4.6-20.7,3.6c-4.4-0.4-10.9-4.3-15.4-7.5
			c-4.9-3.5-9.7-1.1-10.9,2c-1.7,4.5,0.1,11.4,2.6,15.2c4.1,6.3,11.6,9.8,16.8,15c5.2,5.2,8,11.8,10.3,19c0,0,9.7,31,15.7,50.1
			c0.2,0.7,0.9,1.1,1.6,1c5-1.1,9.9-2.7,14.5-4.6c0.7-0.3,1-1.1,0.8-1.8l-21-66.1C117,123.6,117.8,119.4,120.5,116.5z"/>
		<path class="st1" d="M97.2,97.8c14,6.4,19.8,0.6,21.2-2.5c2.4-5.3-5.8-13.5-3.4-20.1l26.7-65.8c0.5-1.3,0-2.9-1.3-3.4
			c-4.5-2-9.1-3.6-13.9-4.9c-1.1-0.3-2.3,0.3-2.8,1.5l-25,61c-1.2,3-3.4,5.5-6.2,6.9c-5.4,2.8-11,6.2-8.6,13.5
			C86.1,90.6,91.4,95.2,97.2,97.8z"/>
	</g>
</g>
</svg>
