<?xml version="1.0" encoding="UTF-8"?>
<svg id="Layer_1" data-name="Layer 1" xmlns="http://www.w3.org/2000/svg" viewBox="0 0 200 200">
  <defs>
    <style>
      .cls-1 {
        fill: #00a79d;
      }

      .cls-2 {
        fill: #00665f;
      }

      .cls-3 {
        fill: none;
      }

      .cls-4 {
        opacity: .14;
      }

      .cls-5 {
        fill: #00ccc0;
      }
    </style>
  </defs>
  <g>
    <path class="cls-1" d="M196.6,98.61s10.88,23.32-17.19,32.24c-.04,.01-.08,.03-.13,.04,0,0,.01,.11,.04,.3,.32,3.17,2.09,30.04-30.14,25.39l3.41,10.8c.14,.45,.21,.9,.21,1.34,0,2.14-1.58,4.12-4.04,4.78-2.6,.7-5.4-.3-6.7-2.4l-8.51-13.72-.12-.19-.04-.07c-22.2,8.12-36.51-10.09-36.51-10.09-12.79,5.93-20.32-5.93-20.32-5.93-35.37,15.15-48.17-11.2-48.17-11.2,0,0-.11-.01-.33-.05-3.7-.54-37.03-6.22-23.18-33.45,.39-.78,.83-1.59,1.31-2.41,0,0-8.99-23.6,15.63-29.6,.06-.02,.12-.03,.17-.04,0,0,1.87-31.13,39.58-25.09,.1,.02,.21,.03,.31,.05,0,0,16.18-20.1,41.39-5.93,0,0,33.49-22.07,51.93,10.54,0,0,31.24-2.96,31.61,26.35,0,0,18.5,6.48,10.01,27.78-.07,.18-.15,.37-.22,.55Z"/>
    <path class="cls-4" d="M149.19,156.59l3.41,10.8c.14,.45,.21,.9,.21,1.34,0,2.14-1.58,4.12-4.04,4.78-2.6,.7-5.4-.3-6.7-2.4l-8.51-13.72-.12-.19,4.24-1.56,4.48,9.09c1.09,2.22,3.7,3.2,5.96,2.25l3.47-1.46-3.75-10.09s30.57,4.26,30.61-27.12l.89,2.89c.32,3.17,2.09,30.04-30.14,25.39Z"/>
    <path class="cls-5" d="M179.42,130.85l-2.11-6.22s18-2.01,17.07-17.28c-.93-15.28-19.11-15.37-19.11-15.37l2.73-1.21,9.19,.96,6.02,3.43,3.62,2.9c-.07,.18-.15,.37-.22,.55,0,0,10.88,23.32-17.19,32.24Z"/>
    <path class="cls-5" d="M173.16,70.86s23.2,.07,19.24,22.45l4.33,5.56,1.89-6.52,.44-9.46-3.85-6.43-4.27-4.29-8.67-3.03-8.48,.56-.63,1.14Z"/>
    <path class="cls-5" d="M156.65,50.43s20.07-1.96,25.61,18.72c0,0,5.22,1.49,5.07,1.31-.15-.18-1.46-10.04-1.46-10.04l-4.94-8.43-11.87-6.94-13.64-1.15,1.22,6.52Z"/>
    <path class="cls-5" d="M111.24,38.54s20.76-11.98,35.23,2.95c14.47,14.93,3.18,26.47,3.18,26.47l4.42-3.35,2.57-9.55-.7-9.37s-3.12-5.04-3.12-5.68-7.5-8.83-7.5-8.83l-11.25-4.41-12.49-.63-9.37,2.52-8.75,4.41,5,3.78,2.77,1.67Z"/>
    <path class="cls-5" d="M54.16,60.78s6.9-24.38,30.29-25.41c23.39-1.03,33.33,20.26,33.33,20.26v-4.54l-4.22-8.28-8.22-8.48-9.88-4.49s-7.38-1.51-7.5-1.35c-.11,.16-8.86,.79-8.86,.79l-10.4,4.08-8.34,7.27-4.72,9.07-2.21,8.06,.73,3Z"/>
    <path class="cls-5" d="M61.57,39.27l-2.47,3.72c-27.51,.44-27.26,20-27.26,20l-2.66,.37-7.37,1.05c.06-.02,.12-.03,.17-.04,0,0,1.87-31.13,39.58-25.09Z"/>
    <path class="cls-5" d="M7.09,93.76c-.45-.14-3.22-18.29,13.29-23.48,0,0,13.85-2.69,17.49,3.78,0,0,15.62-5.68,21.22,8.66,0,0-.02-3.74,0-3.68,.02,.06-3.73-6.24-3.73-6.24l-5.31-3.51-5.93-.91h-5l-4.62-3.53-7.25-1.51-11.87,2.52-6.87,5.68-3.24,7.01-.69,6.82,.69,5.66,.59,2.48,1.23,.25Z"/>
    <path class="cls-4" d="M28.39,129.9s-38.16-4.69-23.51-33.5l.85,.39c-.28,.75-3.45,21.42,25.28,20.78-3.73,2.66-4.03,7.06-2.62,12.32Z"/>
    <path class="cls-4" d="M148.21,142.89l-2.81,5.45-11.84,9.04-.16-.26c-22.2,8.12-36.51-10.09-36.51-10.09-12.79,5.93-20.32-5.93-20.32-5.93-35.37,15.15-48.17-11.2-48.17-11.2,0,0-.11-.01-.33-.05l.04-.32c-.6-4.92,.25-8.98,2.9-11.95,0,0,15.37,27,44.36,15.77-.67-.04,10.87,12.54,19.99,6.31,0,0,28.11,27.12,52.85,3.23Z"/>
    <path class="cls-2" d="M147.11,174.66c-2.37,0-4.65-1.14-5.84-3.06l-8.28-13.34c-19.93,6.84-33.68-7.07-36.37-10.09-11.2,4.75-18.53-3.47-20.39-5.91-18.26,7.61-30.46,4.07-37.52-.27-6.69-4.12-10.05-9.61-10.93-11.22-3.17-.47-19.98-3.45-25.49-14.69-3.01-6.15-2.05-13.61,2.86-22.18-.72-2.13-3.44-11.43,.81-19.55,2.75-5.26,7.85-8.88,15.16-10.76,.31-2.74,2.01-12.72,10.49-19.56,7.19-5.8,17.25-7.72,29.91-5.73,2.57-2.84,18.47-18.73,41.73-6.01,2.81-1.73,17.01-9.83,31.63-6.26,8.53,2.08,15.55,7.77,20.85,16.91,2.93-.17,15.49-.39,24.06,7.38,5.05,4.58,7.73,11.07,7.96,19.3,1.93,.82,7.8,3.77,10.67,10.26,2.35,5.3,2.08,11.6-.79,18.7,.81,1.93,3.93,10.46,.24,18.94-2.77,6.36-8.67,11.07-17.56,14.02,.24,2.95,.53,13.33-6.38,20.26-5.14,5.15-13,7.13-23.4,5.9l2.96,9.38c.44,1.41,.3,2.91-.42,4.22-.81,1.49-2.29,2.62-4.07,3.1-.63,.17-1.27,.25-1.9,.25Zm-13.33-18.69l9.08,14.63c1.08,1.74,3.47,2.58,5.67,1.98,1.28-.35,2.34-1.14,2.91-2.18,.46-.86,.56-1.83,.27-2.74l-3.86-12.23,1.48,.21c10.51,1.52,18.34-.22,23.28-5.16,7.3-7.31,5.79-19.34,5.77-19.47l-.11-.79,.75-.24c8.76-2.76,14.52-7.2,17.14-13.21,3.77-8.65-.35-17.68-.39-17.77l-.18-.38,.16-.39c2.81-6.75,3.13-12.66,.98-17.56-3.05-6.92-10.13-9.49-10.2-9.51l-.62-.22v-.66c-.11-7.98-2.58-14.22-7.35-18.55-8.93-8.11-23.1-6.89-23.25-6.87l-.6,.06-.3-.53c-5.07-8.97-11.79-14.53-19.95-16.53-15.18-3.71-30.5,6.21-30.66,6.31l-.47,.31-.49-.28c-10.16-5.71-20-6.49-29.24-2.34-6.93,3.11-10.93,7.99-10.97,8.04l-.34,.42-.54-.09c-12.35-2.03-22.08-.27-28.93,5.25-9.05,7.29-9.87,18.8-9.87,18.91l-.04,.7-.68,.16c-7.11,1.7-12.02,5.05-14.59,9.96-4.33,8.28-.6,18.32-.56,18.42l.16,.43-.23,.39c-4.75,8.15-5.77,15.14-3.02,20.76,5.5,11.25,24.34,13.7,24.53,13.72l.5,.06,.22,.46c.03,.06,3.21,6.46,10.55,10.94,9.69,5.93,22.28,5.86,36.42-.19l.73-.31,.43,.67c.29,.45,7.26,11.09,19.14,5.58l.67-.31,.46,.58c.57,.72,14.17,17.57,35.45,9.79l.71-.26Z"/>
    <path class="cls-2" d="M117.79,55.64c-2.89-15.18-14.81-21.34-14.93-21.4l.84-1.69c.52,.26,12.87,6.65,15.93,22.74l-1.84,.36Z"/>
    <path class="cls-2" d="M54.16,60.78l-1.87-.11c.76-13.37,8.59-21.67,8.92-22.02l1.35,1.32c-.08,.08-7.67,8.16-8.39,20.81Z"/>
    <path class="cls-2" d="M150.98,69.3l-1.32-1.34c9.98-9.98,4.74-23.54,4.68-23.68l1.74-.71c.06,.15,5.75,14.87-5.1,25.73Z"/>
    <path class="cls-2" d="M75.82,141.68c-.06-.08-5.71-7.58,1.1-13.77l1.25,1.41c-5.51,5-1.07,10.95-.88,11.2l-1.48,1.16Z"/>
    <path class="cls-2" d="M59.1,82.73c-1.65-5.78-4.45-9.79-8.33-11.92-5.31-2.92-10.84-1.28-10.9-1.27l-.58,.18-.4-.46c-6.35-7.32-16.5-4.04-16.6-4.01l-.59-1.79c.45-.15,11.03-3.6,18.22,4.12,1.7-.38,6.76-1.18,11.75,1.57,4.34,2.38,7.44,6.78,9.24,13.06l-1.8,.52Z"/>
    <path class="cls-2" d="M195.8,99.09c-.22-.37-5.57-8.99-20.53-7.12l-.23-1.88c16.23-2.03,22.13,7.62,22.37,8.03l-1.61,.97Z"/>
    <g>
      <path class="cls-1" d="M186.82,70.28s-7.15-2.31-13.92-.33"/>
      <path class="cls-2" d="M186.54,71.18c-.07-.02-6.97-2.19-13.38-.32l-.52-1.82c6.97-2.03,14.17,.24,14.47,.34l-.57,1.8Z"/>
    </g>
    <path class="cls-2" d="M27.51,130.29c-.12-.27-2.88-6.68,.91-11.93,3.84-5.33,12.84-7.29,26.74-5.81l-.2,1.88c-13.01-1.38-21.66,.36-25.03,5.04-3.15,4.38-.73,9.99-.71,10.05l-1.71,.77Z"/>
    <path class="cls-2" d="M133.82,157.96l-.86-1.68c.1-.05,10.37-5.51,15.25-13.4l1.59,1c-5.16,8.34-15.54,13.84-15.98,14.08Z"/>
    <g>
      <path class="cls-1" d="M6.19,94s1.88,7.58,13.17,15.48"/>
      <path class="cls-2" d="M18.82,110.26c-11.45-8.02-13.47-15.71-13.55-16.03l1.82-.46c.02,.07,1.99,7.37,12.8,14.94l-1.07,1.55Z"/>
    </g>
    <path class="cls-2" d="M96.3,147.78c-.06-.04-5.64-4.56-.75-10.91l1.48,1.16c-3.67,4.76,0,7.92,.43,8.26l-1.16,1.49Z"/>
    <path class="cls-5" d="M96.9,124.09s-4.67-19.75,16.57-26.06c-.06,.28,13.62-4.49,34.89,10.01v-1.27l-12.49-8.65-9.91-4.5-10-1.89-9.37,1.89-8.12,6.31-3.86,8.49-.98,9.35,1.95,6.33h1.31Z"/>
    <path class="cls-2" d="M95.36,125.17c-4.72-6.89-1.76-16.86-1.63-17.29l1.79,.56c-.03,.09-2.82,9.53,1.38,15.65l-1.54,1.08Z"/>
    <path class="cls-5" d="M137.49,97.98s1.84-13.09,17.02-9.35l-1.06-.68-6.25-1.89-6.87,1.26-4.37,3.78-2.42,5.86,3.96,1.02Z"/>
    <path class="cls-2" d="M95.53,108.41l-1.81-.5c.12-.45,3.08-10.95,12.92-15.31,7.22-3.2,16.13-2.19,26.51,2.99,.64-2.05,2.4-6.23,6.59-8.64,4.04-2.32,9.23-2.36,15.41-.1l-.64,1.78c-5.64-2.06-10.3-2.07-13.84-.03-4.84,2.78-5.98,8.49-5.99,8.54l-.24,1.24-1.11-.58c-10.28-5.36-19-6.53-25.92-3.48-9.02,3.98-11.86,13.99-11.89,14.09Z"/>
    <g>
      <path class="cls-1" d="M133.76,96.96s9.41,4.96,15.24,10.39"/>
      <path class="cls-2" d="M148.37,108.04c-5.67-5.28-14.95-10.19-15.04-10.24l.87-1.68c.39,.2,9.59,5.08,15.44,10.53l-1.27,1.39Z"/>
    </g>
    <path class="cls-5" d="M84.45,94.3l-1.95,.72c-3.12-2.94-6.32-4.25-9.5-3.91-4.69,.5-8.23,4.46-9.62,6.27-.42,.54-.65,.9-.66,.91l-.6,.94-.82-.75c-.29-.26-.57-.52-.86-.75-4.19-3.55-8.33-5.06-12.33-4.48-5.57,.79-9.41,5.47-10.66,7.2-.28,.39-.44,.63-.44,.64l-.79-.49h0l-.71-.44c.04-.13,.08-.26,.13-.39,0,0,0,0,0,0,1.93-5.22,11-16.86,24.74-8.66,0,0,13.74-10.72,24.08,3.2Z"/>
    <g>
      <path class="cls-1" d="M61.71,97.58l-1.27,.15c-4.19-3.55-8.33-5.06-12.33-4.48-5.57,.79-9.41,5.47-10.66,7.2l-1.24,.15s10.18-16.72,25.5-3.01Z"/>
      <path class="cls-1" d="M61.71,97.58l.39-.04c-.11,.16-.17,.25-.17,.25-.08-.07-.15-.14-.22-.2Z"/>
      <path class="cls-1" d="M83.78,94.97l-1.19,.14-.49,.06,.4-.15c-3.12-2.94-6.32-4.25-9.5-3.91-4.69,.5-8.23,4.46-9.62,6.27l-1.28,.15c1.31-1.89,10.24-13.78,21.38-2.88,.1,.09,.21,.2,.31,.31Z"/>
      <path class="cls-2" d="M84.45,94.3l-.67,.67-.66,.66c-.17-.18-.36-.35-.53-.52-.03-.03-.06-.06-.09-.09-3.12-2.94-6.32-4.25-9.5-3.91-4.69,.5-8.23,4.46-9.62,6.27-.42,.54-.65,.9-.66,.91l-.6,.94-.82-.75c-.29-.26-.57-.52-.86-.75-4.19-3.55-8.33-5.06-12.33-4.48-5.57,.79-9.41,5.47-10.66,7.2-.28,.39-.44,.63-.44,.64l-.79-.49h0l-.71-.44-.09-.06s.09-.15,.21-.33c0,0,0,0,0,0,.21-.3,.54-.79,1.01-1.37,1.85-2.31,5.72-6.22,11.19-7.01,4.59-.66,9.28,1.02,13.94,5.01,1.48-1.97,5.48-6.55,11.03-7.15,3.99-.44,7.91,1.27,11.65,5.07Z"/>
    </g>
    <path class="cls-5" d="M131.59,80.26s12.07-16.98,30.09-3.07l-1.77-3.55-7.24-4.48-4.83-1.39-6.87,1.26-6.87,5.68-3.12,4.41,.62,1.14Z"/>
    <path class="cls-2" d="M131.59,80.26l-1.68-.84c.22-.44,5.47-10.87,14.87-12.25,5.93-.87,12.07,2.06,18.26,8.74l-1.37,1.29c-5.74-6.19-11.33-8.93-16.62-8.16-8.43,1.24-13.42,11.13-13.47,11.23Z"/>
    <path class="cls-5" d="M87.73,79.12s-6.74-6.31-1.74-14.5c6.36,1.45,13.51,6.11,21.45,11.86l-.84-3.03-11.87-9.46-10.91-4.62-3.58,7.49,.75,6.59,4.33,5.68h2.41Z"/>
    <path class="cls-5" d="M123.38,128.39s14.46-19,29.45,1.81c0,0,18.74-15.13,25.54,.87l.69-2.76-3.75-6.94-4.59-2.34-4.78,.44s-8.83,3.18-8.79,3.16c.04-.01-3.4,2.2-3.4,2.2l-6.56-7.25-5.73-2.84-5.81,.21-6,3.35-6.2,6.85-.09,3.24Z"/>
    <path class="cls-2" d="M178.37,131.07c-1.09-5.86-3.38-9.48-6.81-10.78-7.13-2.69-17.11,5.21-17.21,5.29l-.77,.61-.57-.8c-5.12-7.13-10.25-10.5-15.26-10.01-8.65,.84-14.32,12.89-14.37,13.01l-1.7-.8c.25-.54,6.19-13.16,15.89-14.09,5.52-.53,11.03,2.84,16.39,10.01,2.63-1.91,11.3-7.61,18.25-4.99,4.09,1.54,6.79,5.65,8,12.2l-1.84,.35Z"/>
    <path class="cls-5" d="M90.54,43.86s3,8.04-2.03,16.29l-4.7-.79,4.67-6.1,2.06-9.4Z"/>
    <path class="cls-2" d="M86.72,80.71c-4.37-2.82-6.83-6.27-7.32-10.25-.82-6.65,4.17-12.37,4.72-12.97,4.95-6.84,4.56-13.43,4.56-13.5l1.87-.14c.02,.3,.46,7.35-4.95,14.79l-.07,.09c-.05,.05-5.02,5.5-4.27,11.5,.42,3.39,2.6,6.38,6.47,8.88l-1.01,1.59Z"/>
    <path class="cls-2" d="M107.44,76.47c-9.11-11.59-23.74-16.16-23.89-16.2l.54-1.81c.62,.19,15.34,4.77,24.82,16.84l-1.47,1.18Z"/>
  </g>
  <ellipse class="cls-3" cx="99.48" cy="98.83" rx="92.21" ry="95.53"/>
</svg>