<?xml version="1.0" encoding="UTF-8"?>
<svg id="Layer_1" data-name="Layer 1" xmlns="http://www.w3.org/2000/svg" xmlns:xlink="http://www.w3.org/1999/xlink" viewBox="0 0 200 200">
  <defs>
    <style>
      .cls-1 {
        fill: url(#linear-gradient-2);
      }

      .cls-2 {
        fill: url(#linear-gradient-5);
      }

      .cls-3 {
        fill: url(#linear-gradient-3);
      }

      .cls-4 {
        fill: url(#linear-gradient);
      }

      .cls-5 {
        fill: url(#linear-gradient-4);
      }
    </style>
    <linearGradient id="linear-gradient" x1="61.14" y1="148.12" x2="123.82" y2="148.12" gradientUnits="userSpaceOnUse">
      <stop offset="0" stop-color="#046838"/>
      <stop offset="1" stop-color="#73c701"/>
    </linearGradient>
    <linearGradient id="linear-gradient-2" x1="12.38" y1="150.59" x2="56.28" y2="150.59" xlink:href="#linear-gradient"/>
    <linearGradient id="linear-gradient-3" x1="120.68" y1="148" x2="168.19" y2="148" xlink:href="#linear-gradient"/>
    <linearGradient id="linear-gradient-4" x1="52.01" y1="100" x2="182.65" y2="100" xlink:href="#linear-gradient"/>
    <linearGradient id="linear-gradient-5" x1="52.02" y1="149.61" x2="72.99" y2="149.61" xlink:href="#linear-gradient"/>
  </defs>
  <path class="cls-4" d="M63.99,152.71c1.76,6.35,4.87,12.19,8.99,17.29,2.13,.43,4.32,.85,6.56,1.24,15.95,2.79,26.71,4.67,39.61,2.7,1.59-.24,3.14-.53,4.66-.87-.48-1.25-.93-2.53-1.36-3.84-5.73-17.64-4.23-33.8-1.01-46.05-22.74-4.28-44.06,.14-60.28,6.03-.18,7.79,.66,15.7,2.83,23.5Z"/>
  <path class="cls-1" d="M49.9,136.43c-7.59,3.35-12.72,6.71-14.16,7.67-1.51-2.17-3.76-4.87-7.01-7.47-5.7-4.56-11.63-6.53-15.19-7.42,2.48,2.46,5.48,5.94,8.08,10.54,1.92,3.4,3.14,6.57,3.94,9.21-.12,2.49-.61,5.87-2.19,9.61-3.02,7.11-8.27,11.37-11,13.29,1.49,.16,2.85,.14,4.09,0,12.51-1.41,19.23-15.49,20.3-17.83,4.95,1.92,11.53,4.21,19.51,6.23-1.93-3.09-3.43-6.43-4.41-9.96-1.28-4.62-1.91-9.25-1.97-13.87Z"/>
  <path class="cls-3" d="M123.3,163.84c.76,3.05,1.65,5.96,2.65,8.74,19.45-4.88,33.6-16.87,42.24-26.2-7.77-6.95-19.54-15.36-35.74-20.44-3.27-1.03-6.53-1.85-9.76-2.51-2.33,10.99-3.24,24.93,.61,40.41Zm18-26.88c2.05,0,3.71,1.52,3.71,3.39s-1.66,3.39-3.71,3.39-3.71-1.52-3.71-3.39,1.66-3.39,3.71-3.39Z"/>
  <path class="cls-5" d="M181.24,127.63C194.82,66.33,105.65-12.43,119.1,4.83c4.24,5.44-13.27,21.71-16.56,25.3-25.46,27.85-51.03,64.91-50.52,102.76,2.82-1.25,5.88-2.49,9.15-3.68,.5-21.96,9.05-43.02,18.65-58.27,7.25-11.5,13.92-22.01,24.98-23.35,11.76-1.42,21.39,8.34,35.21,22.34,8.61,8.72,28.6,29.55,32.16,61.11,.33,2.98,.45,4.46,.45,6.63-.05,27.36-23.31,53.21-54.82,53.21-17.89,0-34.52-8.14-44.81-20.89-4.12-.83-8.04-1.74-11.75-2.68,3.39,4.24,25.92,31.6,56.48,30.21,37.41-1.71,58.05-45.18,63.52-69.91Z"/>
  <path class="cls-2" d="M63.99,152.71c-2.17-7.8-3-15.71-2.83-23.5-3.26,1.19-6.32,2.43-9.15,3.68,.09,6.67,.99,13.37,2.84,20.04,1.42,5.11,3.59,9.94,6.37,14.4,3.71,.94,7.63,1.84,11.75,2.68-4.12-5.1-7.23-10.94-8.99-17.29Z"/>
</svg>