<?xml version="1.0" encoding="UTF-8"?>
<svg id="Layer_1" data-name="Layer 1" xmlns="http://www.w3.org/2000/svg" xmlns:xlink="http://www.w3.org/1999/xlink" viewBox="0 0 200 200">
  <defs>
    <style>
      .cls-1 {
        fill: #4b7e37;
      }

      .cls-2 {
        clip-path: url(#clippath-1);
      }

      .cls-3 {
        fill: #8ac050;
      }

      .cls-4 {
        clip-path: url(#clippath);
      }

      .cls-5 {
        fill: none;
      }

      .cls-6 {
        fill: #d12b2b;
      }

      .cls-7 {
        fill: #ac1f22;
      }

      .cls-8 {
        fill: #e33e3b;
      }
    </style>
    <clipPath id="clippath">
      <rect class="cls-5" x="-.11" y="17.6" width="200" height="168.05"/>
    </clipPath>
    <clipPath id="clippath-1">
      <rect class="cls-5" x="-.11" y="17.6" width="200" height="168.05"/>
    </clipPath>
  </defs>
  <g class="cls-4">
    <path class="cls-7" d="M184.67,69.09v5.7c0,.08-.01,.16-.03,.24-.2,.92-.1,1.61,.28,2.09-.09-.08-.15,0-.18,.27-.78,8.59-2.66,16.86-5.64,24.82-.25,.52-.6,.96-1.03,1.32-2.59,2.14-5.44,4.18-8.55,6.12,.38-1.47,.83-2.89,1.37-4.24,.86-2.17,1.37-3.55,1.55-4.15,1.09-3.74,2.26-7.52,3.51-11.33,1.06-3.25,1.45-8.5,1.87-10.36,.24-1.05,.4-2.73,.49-5.05,.18-4.82-.61-9.37-1.49-14.38-.55-3.12-1.37-5.94-2.47-8.46-2.21-5.05-4.57-9.69-8.14-13.17-2.88-2.81-5.71-5.27-8.5-7.41-1.29-.98-2.83-1.79-4.62-2.41-1.05-.64-2.38-1.22-3.99-1.73-8.99-2.85-17.66-2.37-26.02,1.43-5.43,2.47-10.4,6.37-14.91,11.72-1.32,1.57-3.26,4.71-4.13,6.22-1.22,2.12-2.42,2.94-4.48,2.32-.6-.18-1.19-.8-1.77-1.86-6.79-12.41-18.66-20.52-31.38-21.49-12.7-.97-24.92,4.88-33.26,15.85-9.05,11.91-11.95,28.85-8.62,44.06,1.72,7.88,3.35,13.91,6.44,20.17,1.59,3.22,3.21,6.49,4.87,9.83l-7.88-.06-1.69-4.08s-.03-.05-.05-.07c-.02-.02-.05-.03-.08-.03s-.06,0-.08,.02c-.02,.02-.04,.04-.06,.07l-.1,.2c.04-.3,.03-.52-.03-.66-4.32-9.15-7.2-18.71-8.63-28.68-1.24-8.66-.85-17.15,1.16-25.49,.99-4.11,2.62-8.42,4.89-12.92,1.05-2.09,2.78-4.71,5.18-7.88,1.99-2.63,4.08-4.88,6.26-6.77,20.72-17.91,49.6-14.07,65.9,9.28,.03,.06,.09,.1,.14,.11,.06,.02,.12,.02,.17,0,.06-.02,.11-.06,.14-.12,8.64-13.15,22.46-20.41,36.73-20.5,15.05-.1,29.64,8.28,38.3,22.49,5.22,8.58,8.07,18.22,8.55,28.95h0Zm0,0"/>
  </g>
  <path class="cls-8" d="M153.09,28.69c1.05,2.16,2.39,4.42,3.28,6.31,4.17,8.77,6.27,18.18,6.33,28.24,.02,3.52,0,6.76-.41,10.09-1.85,15.26-7.44,29.25-15.54,41.87-.97,1.52-3.2,4.72-6.66,9.63-.68,.32-1.82,.8-3.43,1.43-24,9.47-48.56,15.03-73.7,16.69-2.12,.14-4.59,.19-7.41,.13-1.35-2.44-3.12-4.2-5.17-6.42-1.31-1.42-2.47-2.86-3.47-4.32-2.12-3.08-4.2-6.2-6.26-9.38,1.61-.18,2.81-1.31,3.59-3.38,2.43-6.39,4.61-12.91,6.58-19.58,.02-.06,.05-.12,.1-.16,.04-.04,.1-.06,.16-.06s.12,.02,.17,.06c.05,.04,.08,.1,.1,.16,1.85,6.53,3.77,13.94,5.75,22.25,.84,3.52,2.39,8.81,3.36,12.7,.53,2.12,1.73,3.63,3.77,3.41,1.59-.18,2.89-2.23,3.5-3.88,1.44-3.93,2.77-7.69,3.97-11.32,.04-.11,.11-.21,.2-.28,.09-.07,.19-.11,.3-.11,4.51,.03,7.52,0,9.05-.09,1.14-.07,1.93-.33,2.37-.8,2.02-2.17,.89-6.5-2.12-6.64-4.14-.18-7.9-.19-11.28-.03-1.78,.09-3.03,1.02-3.75,2.78-.48,1.18-1.08,2.8-1.8,4.85-.02,.06-.05,.11-.1,.14-.04,.03-.1,.05-.15,.05-.05,0-.1-.03-.14-.06-.04-.04-.07-.09-.09-.15-1.61-6.68-3.44-12.76-5.29-20.53-1.24-5.25-2.67-10.76-4.27-16.53-.77-2.76-3.8-3.64-5.61-1.6-.43,.49-.86,1.47-1.31,2.95-2.57,8.57-5.52,17.7-8.84,27.39-.05,.15-.13,.27-.23,.37-.1,.1-.22,.17-.35,.2-.87,.23-1.69,.27-2.45,.12-1.66-3.34-3.29-6.61-4.87-9.83-3.09-6.27-4.72-12.3-6.44-20.17-3.33-15.21-.43-32.15,8.62-44.06,8.34-10.98,20.56-16.82,33.26-15.85,12.72,.97,24.59,9.07,31.38,21.49,.58,1.06,1.17,1.67,1.77,1.86,2.06,.62,3.26-.2,4.48-2.32,.87-1.51,2.81-4.65,4.13-6.22,4.51-5.35,9.48-9.25,14.91-11.72,8.36-3.8,17.04-4.27,26.02-1.43,1.62,.51,2.94,1.09,3.99,1.73h0Zm-53.3,64.9c-1.45-1.09-3.18-3.32-5.79-6.22-3.98-4.42-6.79-6.78-11.73-5.22-3.38,1.07-6.44,5.07-7.09,8.93-1.23,7.23,3.34,10.69,7.28,14.85,3.16,3.34,6.64,7.82,9.67,11.17,1.81,2,3.34,3.25,4.56,3.73,2.46,.97,4.8,.92,7.04-.17,.85-.41,2.64-2.18,5.39-5.3,21.02-23.95,33.57-38.25,37.62-42.91,1.66-1.91,2.56-4.18,2.7-6.81,.4-7.86-5.41-13.97-12.37-12.39-1.87,.42-3.3,1.68-4.53,3.08-5.61,6.34-10.42,11.91-14.46,16.72-5.47,6.52-11.29,13.05-17.54,20.45-.06,.07-.14,.13-.22,.16-.08,.03-.17,.05-.26,.03-.09-.01-.17-.05-.25-.11h0Zm0,0"/>
  <path class="cls-6" d="M169.52,109.64c-9.25,5.99-19.06,11.04-29.43,15.17,3.46-4.91,5.69-8.11,6.66-9.63,8.11-12.61,13.69-26.61,15.54-41.87,.4-3.33,.42-6.57,.41-10.09-.05-10.05-2.16-19.47-6.33-28.24-.89-1.89-2.23-4.15-3.28-6.31,1.79,.62,3.34,1.43,4.62,2.41,2.79,2.13,5.63,4.6,8.5,7.41,3.57,3.48,5.93,8.11,8.14,13.17,1.1,2.52,1.93,5.34,2.48,8.46,.88,5.01,1.67,9.56,1.49,14.38-.09,2.32-.26,4-.49,5.05-.43,1.87-.81,7.11-1.87,10.36-1.25,3.81-2.42,7.59-3.51,11.33-.17,.59-.69,1.97-1.55,4.15-.54,1.36-.99,2.77-1.37,4.24h0Zm0,0"/>
  <path class="cls-1" d="M99.79,93.59c.07,.06,.16,.1,.25,.11,.09,.01,.18,0,.26-.03,.08-.03,.16-.09,.22-.16,6.25-7.41,12.07-13.93,17.54-20.45,4.04-4.81,8.85-10.38,14.46-16.72,1.24-1.4,2.66-2.65,4.53-3.08,6.96-1.58,12.76,4.53,12.37,12.39-.13,2.62-1.03,4.89-2.7,6.81-4.06,4.66-16.6,18.96-37.62,42.91-2.74,3.12-4.54,4.89-5.39,5.3-2.24,1.09-4.58,1.14-7.04,.17-1.22-.48-2.74-1.73-4.56-3.73-3.03-3.35-6.51-7.82-9.67-11.17-3.93-4.16-8.5-7.62-7.28-14.85,.66-3.86,3.72-7.86,7.09-8.93,4.95-1.57,7.76,.79,11.73,5.22,2.61,2.91,4.34,5.13,5.79,6.22h0Zm2.35,7.03c-1.64,1.88-2.75,1.87-4.37-.09-2.14-2.58-5.46-6.27-9.98-11.06-4.03-4.27-9.62,2.13-5.8,6.97,2.61,3.31,5.13,6.17,7.56,8.57,2.82,2.78,5.56,6.17,7.34,8.31,1.5,1.8,3.93,1.63,5.71,.27,.62-.47,1.3-1.15,2.06-2.04,6.69-7.89,12.89-15,18.57-21.32,3.44-3.83,5.11-5.89,9.01-10.56,2.86-3.43,6.15-6.52,9.16-10.07,.85-1.01,1.45-1.96,1.79-2.88,.98-2.61,.13-5.13-2.01-6.49-2.27-1.45-4.22,.13-6.05,1.85-1.75,1.65-3.2,3.77-5.99,7.34-1.43,1.83-3.98,4.75-7.64,8.78-2.28,2.51-5.89,6.75-10.83,12.72-2.81,3.39-6.13,6.92-8.53,9.69h0Zm0,0"/>
  <g class="cls-2">
    <path class="cls-1" d="M172.5,116.94c-.76-.27-1.99,.93-3.23,1.86-1.57,1.17-5.46,3.29-11.67,6.35-1.31,.68-2.62,1.35-3.93,2-8.73,4.33-17.69,7.9-26.87,10.7-18.97,6.69-38.35,10.85-58.15,12.46-1.27,.1-2.94-.06-4.5,.16l-9.75,.18c-2.41-.14-4.84-.27-7.3-.4-3.11-.15-5.53-.39-7.28-.69-7.52-1.31-17.03-3.15-22.34-9.96-3.57-4.58-3.97-10.17-1.2-16.76l7.44-.02s.04,0,.06,.02c.02,.01,.04,.03,.05,.05,.01,.02,.03,.04,.03,.07,.01,.06,.04,.1,.08,.12-2.8,3.8-4.29,9.26-.48,12.66,1.55,1.38,2.99,2.33,4.33,2.85,5.6,2.16,11.68,3.41,18.26,3.77l9.5,.71c2.82,.06,5.29,.01,7.41-.13,25.14-1.66,49.7-7.22,73.7-16.69,1.61-.63,2.75-1.11,3.43-1.43,10.37-4.13,20.18-9.19,29.43-15.17,3.11-1.94,5.96-3.98,8.55-6.12,.43-.36,.78-.8,1.03-1.32-.08,.07-.09,.14-.04,.21,.11,.15,.23,.16,.36,.05,3.22-2.86,6.12-5.06,8.75-8.21,2.3-2.76,4.6-5.37,4.88-9.13,.39-5.11-4.84-7.06-8.12-8.02-.38-.48-.48-1.17-.28-2.09,.02-.07,.03-.15,.03-.24v-5.7c4.21,.67,7.68,2.27,10.38,4.82,9.39,8.83,3.22,20.71-3.93,28.03-5.28,5.42-11.25,10.18-17.92,14.28-.11,.07-.23,.19-.35,.35-.1,.14-.22,.26-.35,.37h0Zm0,0"/>
    <path class="cls-3" d="M40.65,122.96l-8.23-.02-8.47,.15s-.06-.06-.08-.12c0-.02-.02-.05-.03-.07-.01-.02-.03-.03-.05-.05-.02-.01-.04-.02-.06-.02l-7.44,.02c-3.81-.08-7.6-.13-11.38-.13-2.42,0-4.15-.11-4.81-2.84-.58-2.38,1.2-4.72,3.22-4.75,5.77-.07,11.82-.03,18.16,.09,.24,0,.47-.01,.68-.05l5.83-.03,7.88,.06c.77,.15,1.58,.11,2.46-.12,.13-.03,.25-.1,.35-.2,.1-.1,.18-.23,.23-.37,3.32-9.69,6.27-18.82,8.84-27.39,.45-1.48,.88-2.47,1.31-2.95,1.81-2.05,4.85-1.16,5.61,1.6,1.61,5.76,3.03,11.28,4.27,16.53,1.85,7.77,3.68,13.85,5.29,20.53,.02,.06,.04,.11,.09,.15,.04,.03,.09,.06,.14,.06,.05,0,.11-.02,.15-.05,.04-.03,.08-.08,.1-.14,.73-2.05,1.32-3.67,1.8-4.85,.72-1.77,1.96-2.69,3.75-2.78,3.38-.16,7.14-.15,11.28,.03,3,.14,4.14,4.47,2.11,6.64-.43,.47-1.23,.74-2.37,.8-1.53,.09-4.54,.12-9.05,.09-.11,0-.21,.04-.3,.11-.09,.07-.16,.17-.2,.28-1.21,3.62-2.53,7.39-3.97,11.32-.61,1.65-1.92,3.71-3.5,3.88-2.04,.22-3.24-1.29-3.77-3.41-.97-3.89-2.53-9.18-3.36-12.7-1.98-8.3-3.9-15.72-5.75-22.24-.02-.06-.05-.12-.1-.16-.05-.04-.11-.06-.17-.06s-.12,.02-.16,.06c-.05,.04-.08,.1-.1,.16-1.96,6.66-4.15,13.19-6.58,19.58-.79,2.07-1.98,3.2-3.59,3.38h0Zm0,0"/>
    <path class="cls-1" d="M27.96,115.15l-5.83,.03,3.75-3.92,.1-.2s.03-.05,.06-.07c.02-.02,.05-.02,.08-.02s.06,.01,.08,.03c.02,.02,.04,.04,.05,.07l1.69,4.09Zm0,0"/>
    <path class="cls-7" d="M172.5,116.94c-.12,.41-.29,.79-.49,1.15-7.1,12.48-15.66,23.85-25.68,34.11-6,6.15-12.86,12.3-20.56,18.45-7.15,5.71-14.17,10.35-21.06,13.92-4.29,2.23-7.92,.46-11.89-1.96-13.05-7.95-25.33-18.04-36.1-29.09-.8-.82-1.58-1.78-2.34-2.86l9.75-.18c.64,.88,1.37,1.67,2.18,2.37,.14,.13,.28,.27,.4,.42,1.26,1.62,2.54,2.93,3.82,3.94,3.91,3.09,7.85,6.27,11.82,9.53,.92,.76,1.9,1.47,2.94,2.13,3.03,1.93,5.85,4,8.82,6.15,.93,.68,2.15,1.37,3.64,2.08,3.55,1.7,6.12-.24,9.52-2.29,3.41-2.06,7.07-4.88,9.8-6.75,2.3-1.57,4.27-3.01,5.92-4.34,7.65-6.13,14.86-12.84,21.63-20.14,2.63-2.83,4.7-5.24,6.21-7.24,1.32-1.75,2.84-3.57,4.54-5.46,1.37-1.52,2.82-3.49,4.35-5.91,.03-.04,.05-.1,.05-.16,0-.06,0-.12-.03-.17-.02-.05-.06-.09-.11-.12-.04-.03-.1-.04-.15-.04-.57,.06-1.2,.27-1.88,.64,6.22-3.07,10.11-5.19,11.67-6.35,1.24-.92,2.47-2.13,3.23-1.86h0Zm0,0"/>
  </g>
  <path class="cls-7" d="M40.65,122.96c2.05,3.18,4.14,6.3,6.26,9.38,1,1.46,2.16,2.9,3.47,4.32,2.05,2.21,3.82,3.97,5.17,6.41l-9.5-.71c-.01-.23-.06-.4-.14-.5-4.81-5.83-9.31-12.14-13.5-18.92l8.23,.02Zm0,0"/>
  <path class="cls-6" d="M82.36,166.75c6.86-2.3,14.2-5.86,22.03-10.68,5.93-3.64,10.5-6.9,13.72-9.75,4.1-3.64,6.95-6.21,8.54-7.71,.26-.24,.31-.49,.15-.76,9.18-2.81,18.14-6.38,26.87-10.7,1.31-.64,2.62-1.31,3.93-2,.69-.37,1.31-.58,1.88-.64,.05,0,.1,.01,.15,.04,.04,.03,.08,.07,.11,.12,.02,.05,.04,.11,.03,.17,0,.06-.02,.11-.05,.16-1.53,2.42-2.97,4.39-4.35,5.91-1.7,1.89-3.22,3.71-4.54,5.46-1.51,1.99-3.58,4.41-6.21,7.24-6.77,7.3-13.98,14.01-21.63,20.14-1.65,1.32-3.62,2.77-5.92,4.34-2.74,1.87-6.39,4.69-9.8,6.75-3.39,2.05-5.97,3.99-9.52,2.29-1.49-.71-2.7-1.4-3.64-2.08-2.98-2.16-5.79-4.23-8.82-6.15-1.04-.66-2.02-1.37-2.94-2.13h0Zm0,0"/>
  <path class="cls-8" d="M126.8,137.85c.15,.27,.1,.52-.15,.76-1.6,1.5-4.44,4.07-8.54,7.71-3.22,2.85-7.79,6.1-13.72,9.75-7.83,4.82-15.17,8.38-22.03,10.68-3.97-3.26-7.91-6.44-11.82-9.53-1.28-1.01-2.55-2.32-3.82-3.94-.12-.15-.26-.29-.4-.42-.81-.7-1.54-1.49-2.18-2.37,1.56-.22,3.23-.06,4.5-.16,19.8-1.62,39.18-5.77,58.15-12.46h0Zm0,0"/>
</svg>