<?xml version="1.0" encoding="UTF-8"?>
<svg id="Layer_1" data-name="Layer 1" xmlns="http://www.w3.org/2000/svg" viewBox="0 0 200 200">
  <defs>
    <style>
      .cls-1 {
        fill: #a846cc;
      }

      .cls-2 {
        fill: #af76ce;
      }
    </style>
  </defs>
  <g>
    <path class="cls-1" d="M181.23,58.9c2.27-.17,4.64-.82,6.93-.52,5.97,1.1,5.92,6.55,.31,7.93-2.9,.77-6.06,.12-8.67,1.19-5.04,1.62-2.34,10.3-8.19,10.48-1.42-.1-2.46-1.32-2.81-2.66-1.05-4.09,4.66-7.98,.57-10.09-19.23-12.31-18.53-11.76-19.37-12.97-1.26-3.27,6.05-2.87,7.92-1.7,7.82,3.67,14.51,8.94,23.32,8.34Z"/>
    <path class="cls-2" d="M171.61,78.76s-.04,0-.06,0c-1.91-.14-3.16-1.73-3.55-3.26-.52-2.03,.36-3.92,1.14-5.58,1.1-2.34,1.35-3.22-.17-4-.02-.01-.05-.03-.07-.04-2.48-1.59-4.64-2.97-6.5-4.16q-12.29-7.86-13.03-8.93l-.07-.1c-.04-.05-.06-.1-.09-.16-.42-1.08-.16-2.04,.72-2.7,1.91-1.42,6.65-1,8.4,.05,1.88,.88,3.71,1.87,5.48,2.81,5.62,3.02,10.92,5.86,17.36,5.43,.72-.05,1.44-.16,2.21-.27,1.59-.23,3.24-.46,4.89-.25,.01,0,.03,0,.04,0,3.72,.68,5.11,2.8,5.17,4.56,.07,2.23-1.81,4.15-4.8,4.89-1.4,.37-2.82,.43-4.19,.49-1.58,.07-3.08,.13-4.37,.66-.02,0-.04,.02-.06,.02-1.95,.63-2.53,2.66-3.13,4.81-.74,2.62-1.58,5.59-5.3,5.71,0,0-.02,0-.03,0Zm-1.81-14.2c2.94,1.54,1.78,4.01,.85,5.99-.71,1.5-1.44,3.06-1.05,4.58,.24,.93,.97,1.96,2.02,2.06,2.33-.09,2.93-1.79,3.7-4.54,.66-2.33,1.41-4.97,4.17-5.88,1.56-.63,3.27-.71,4.92-.78,1.28-.06,2.61-.11,3.82-.44,0,0,.01,0,.02,0,2.22-.55,3.62-1.85,3.57-3.33-.05-1.47-1.51-2.64-3.8-3.07-1.41-.18-2.86,.03-4.4,.25-.76,.11-1.55,.22-2.33,.28,0,0,0,0,0,0-6.94,.47-12.46-2.49-18.31-5.63-1.76-.95-3.58-1.92-5.44-2.79-.03-.01-.06-.03-.09-.05-1.17-.73-5.24-1.09-6.5-.15-.2,.15-.39,.34-.21,.86l.02,.02c.55,.81,.67,.88,12.57,8.49,1.86,1.19,4,2.56,6.47,4.14Zm11.43-5.66h0Z"/>
  </g>
  <g>
    <path class="cls-1" d="M136.36,100.95c4.1,3.09,6.01,4.14,8.25,8.55,4.57,9.45,4.45,16.79,6.4,17.32,4.62,1.55,5.51-7.19,4.61-9.56-.58-2.78-2.79-4.97-2.78-7.91,.35-3.71,4.6-1.76,7.03-2.34,2.32-.54,3.85-2.95,3.1-5.09-2.86-6.12-9.09-2.28-12.05-.77-6.74,3.44-2.36-2.18-23.47-8.81-8.55-2.69,1.71-16.25,6.2-18.98,3.58-2.84,7.81-4.33,12.29-5.59,3.87-1.71,.52-5.81-2.88-5.11-2.13,.34-3.8,1.61-5.78,2.46-6.84,2.67-6.51-2.51-9.98-5.64-5.64-5.64-11.09-1.75-11.6,1.34-.78,8.16,20.98,1.82,2.23,22.85-7.97,8.86-13.25,6.9-16.95,8.46-5.04,2.64-3.4,7.92,5.09,5.78,3.17-.62,6.59-1.67,8.91-1.92,6.41-.18,15.74,.85,21.38,4.99Z"/>
    <path class="cls-2" d="M152.07,127.79c-.42,0-.86-.07-1.31-.22-1.37-.39-1.83-2.2-2.66-5.46-.79-3.12-1.88-7.4-4.23-12.27-1.89-3.71-3.48-4.89-6.64-7.24-.43-.32-.89-.66-1.37-1.02-5.22-3.83-14.16-5-20.8-4.83-1.32,.14-3.04,.56-4.87,1.01-1.29,.31-2.62,.64-3.92,.89-1.45,.36-2.71,.52-3.78,.52-2.83,0-4.39-1.09-4.93-2.37-.79-1.85,.43-4.02,3.04-5.38,.02-.01,.04-.02,.06-.03,1.08-.46,2.26-.63,3.51-.82,3.34-.51,7.49-1.14,13.15-7.43,5.55-6.23,7.95-10.49,7.35-13.03-.43-1.79-2.42-2.65-4.52-3.56-2.62-1.13-5.58-2.41-5.26-5.82,0-.02,0-.03,0-.05,.32-1.98,2.22-3.91,4.51-4.59,1.63-.48,4.91-.75,8.5,2.82,1.1,1,1.84,2.18,2.5,3.22,1.52,2.41,2.43,3.87,6.57,2.26,.62-.27,1.23-.59,1.82-.9,1.27-.67,2.58-1.36,4.13-1.61,2.47-.5,4.8,1.04,5.43,2.79,.43,1.21,.13,2.85-2.03,3.81-.04,.02-.08,.03-.12,.04-4.14,1.16-8.45,2.63-12,5.44-.03,.02-.06,.04-.09,.06-3.36,2.04-9.69,10.12-9.08,14.68,.19,1.45,1.07,2.4,2.69,2.9,10.94,3.44,15.07,6.57,17.54,8.44,2.18,1.65,2.46,1.86,5.27,.43,.2-.1,.42-.22,.65-.34,2.3-1.21,5.78-3.03,8.85-2.06,1.59,.5,2.83,1.7,3.7,3.54,.01,.02,.02,.05,.03,.07,.42,1.19,.27,2.54-.41,3.7-.71,1.21-1.91,2.09-3.28,2.4-.87,.21-1.88,.14-2.86,.08-2.43-.16-3.37-.07-3.54,1.54,0,1.5,.67,2.81,1.37,4.21,.55,1.08,1.11,2.2,1.38,3.46,.72,2.01,.39,7.54-1.95,9.75-.7,.66-1.51,.99-2.41,.99Zm-35.79-32.63c4.42,0,14.32,.56,20.6,5.18,0,0,0,0,0,0,.48,.37,.94,.7,1.37,1.02,3.26,2.42,5.06,3.75,7.12,7.8,0,0,0,0,0,.01,2.42,5.01,3.53,9.37,4.34,12.56,.36,1.4,.64,2.51,.94,3.31,.35,.94,.59,1.03,.6,1.03,.02,0,.03,0,.05,.02,.8,.27,1.44,.15,2.01-.39,1.8-1.7,2.14-6.59,1.54-8.17-.01-.04-.02-.07-.03-.11-.23-1.09-.73-2.09-1.27-3.15-.76-1.5-1.54-3.05-1.53-4.92,0-.02,0-.04,0-.07,.31-3.33,3.32-3.13,5.31-2.99,.85,.06,1.72,.12,2.34-.03,.93-.22,1.74-.81,2.23-1.64,.46-.78,.56-1.63,.3-2.41-.68-1.43-1.56-2.3-2.69-2.66-2.38-.75-5.47,.87-7.52,1.94-.24,.12-.46,.24-.67,.35-3.61,1.84-4.58,1.32-7.1-.59-2.38-1.8-6.37-4.82-17.03-8.17-2.22-.7-3.54-2.15-3.81-4.19-.71-5.35,6.07-13.87,9.78-16.16,3.75-2.96,8.22-4.49,12.49-5.69,.71-.33,1.46-.91,1.11-1.86-.39-1.09-1.98-2.07-3.52-1.75-.01,0-.03,0-.04,0-1.28,.2-2.42,.8-3.62,1.44-.62,.33-1.27,.67-1.96,.96,0,0-.02,0-.03,.01-1.44,.56-2.61,.8-3.58,.8-2.74,0-3.91-1.87-5.06-3.7-.63-1.01-1.28-2.04-2.23-2.9-.01,0-.02-.02-.03-.03-2.2-2.2-4.62-3.06-6.81-2.41-1.91,.56-3.15,2.12-3.36,3.31-.19,2.18,1.51,3.03,4.3,4.23,2.27,.98,4.84,2.09,5.45,4.64,.74,3.09-1.71,7.66-7.7,14.39-6.06,6.73-10.74,7.44-14.16,7.96-1.17,.18-2.19,.33-3.06,.69-1.79,.95-2.73,2.35-2.27,3.41,.5,1.18,2.79,1.92,6.78,.91,.01,0,.03,0,.05-.01,1.27-.25,2.59-.57,3.86-.88,1.9-.46,3.69-.9,5.13-1.05,.02,0,.05,0,.07,0,.35,0,.8-.02,1.31-.02Z"/>
  </g>
  <g>
    <path class="cls-1" d="M97.58,164.42c4.26-1.35,8.29-4.12,10.62-7.67,3.77-5.49,.83-10.38,3.34-13.23,2.51-2.58,6.1-.03,6.76,3.18,.6,3.83-2.28,7.16-2.03,10.97,.67,4.57,9.25,5.82,10.08,10.7,.38,1.73-.06,3.62-1.24,4.68-6.44,4.12-6.62-8.88-14.43-7.1-14.05,4.37-18.89,6.21-32.53,7.07-9.12,.85-10-6.04-6.31-7.52,1.88-.75,4.49-.06,6.45,.1,6.38,.46,13.1,.78,19.29-1.19Z"/>
    <path class="cls-2" d="M122.76,174.65c-.69,0-1.36-.19-1.99-.57-1.19-.71-2.11-1.98-3.09-3.32-1.79-2.46-3.48-4.78-6.77-4.05-1.18,.37-2.3,.72-3.36,1.05-11.5,3.6-16.76,5.25-29.33,6.05-.56,.05-1.09,.08-1.59,.08-4.65,0-6.92-2.11-7.5-4.24-.55-2.04,.46-4.08,2.4-4.85,1.63-.65,3.59-.38,5.32-.14,.54,.07,1.06,.15,1.52,.18,6.58,.48,12.98,.75,18.95-1.15,0,0,0,0,0,0,4.25-1.35,8.05-4.09,10.18-7.34,0,0,0,0,0-.01,1.94-2.83,1.98-5.5,2.02-7.86,.03-2.03,.06-3.95,1.38-5.45,0,0,.02-.02,.03-.03,1.12-1.15,2.54-1.56,4.02-1.17,1.99,.53,3.7,2.48,4.17,4.73,0,.01,0,.02,0,.03,.34,2.19-.35,4.19-1.01,6.13-.57,1.66-1.12,3.23-1.02,4.88,.3,1.89,2.35,3.21,4.53,4.61,2.48,1.59,5.05,3.24,5.54,6.03,.45,2.06-.14,4.18-1.49,5.39-.03,.03-.07,.06-.11,.08-.98,.63-1.92,.94-2.82,.94Zm-10.64-9.65c3.39,0,5.33,2.67,6.93,4.87,2.03,2.8,3.13,4.08,5.54,2.57,.9-.85,1.28-2.41,.95-3.91,0-.01,0-.02,0-.03-.37-2.14-2.54-3.53-4.84-5.01-2.39-1.53-4.87-3.12-5.25-5.72,0-.02,0-.04,0-.06-.13-1.95,.49-3.75,1.09-5.49,.63-1.84,1.23-3.57,.95-5.4-.35-1.66-1.6-3.14-2.99-3.51-.86-.23-1.64,0-2.33,.71-.93,1.07-.95,2.56-.98,4.45-.04,2.44-.08,5.47-2.28,8.68-2.32,3.55-6.46,6.53-11.05,7.99h0c-6.26,1.99-12.85,1.72-19.62,1.22-.52-.04-1.06-.12-1.63-.19-1.52-.21-3.24-.44-4.44,.03-1.18,.47-1.78,1.74-1.44,3.02,.47,1.74,2.64,3.43,7.34,3,0,0,.02,0,.03,0,12.37-.79,17.56-2.41,28.93-5.98,1.07-.34,2.2-.69,3.4-1.06,.02,0,.04-.01,.07-.02,.58-.13,1.12-.19,1.63-.19Z"/>
  </g>
  <g>
    <path class="cls-1" d="M181.12,116.66c3.46,2.05,.99,5.33,.98,8.16-.01,2.85,1.89,5.71,2.33,8.45,.59,3.72-2.11,5.96-5.3,2.66-2.57-2.65-3.62-7.94-3.68-11.44-.04-2.21,1.31-9.26,5.67-7.83Z"/>
    <path class="cls-2" d="M182.1,138.31c-.9,0-2.16-.38-3.58-1.85-2.97-3.07-3.84-8.96-3.89-11.96-.03-1.84,.75-6.43,3.26-8.15,1.03-.7,2.24-.85,3.51-.43,.06,.02,.12,.04,.17,.08,2.94,1.74,2.3,4.34,1.78,6.43-.21,.85-.41,1.65-.41,2.4,0,1.49,.6,3.08,1.18,4.61,.46,1.21,.94,2.47,1.14,3.71,.36,2.29-.39,4.22-1.93,4.91-.26,.12-.68,.25-1.22,.25Zm-2.09-21.06c-.41,0-.79,.12-1.15,.37-1.77,1.21-2.6,5.05-2.57,6.86,.06,3.6,1.17,8.56,3.46,10.93,1.07,1.1,2.14,1.57,2.87,1.24,.83-.37,1.25-1.72,1-3.26-.17-1.09-.6-2.22-1.06-3.42-.63-1.66-1.29-3.38-1.28-5.15,0-.92,.23-1.85,.46-2.75,.54-2.2,.79-3.61-.97-4.7-.27-.08-.52-.12-.75-.12Z"/>
  </g>
  <g>
    <path class="cls-1" d="M41.87,176.54c-3.59,1.21-7.98-1.73-11.12,1.28-3.73,3.56-.23,5.75,3.23,5.23,4.01-.61,7.37-2.11,7.94,1.99,.47,3.41,3.86,10.4,6.49,6.45,2.47-3.71-3.06-9.36,.84-13.39,2.48-2.57,4.66-4.94,7.22-7.52,4.01-4.05,3.83-7.52,3.43-9.72-.88-4.87,.07-8.52,3.19-12.65,1.47-1.95,11.81-8.25,10.32-11.07-3.94-7.49-17.24,12.09-17.99,13.89-1.97,4.71,.82,10.64-3.65,15.59-1.5,1.66-7.1,8.98-9.89,9.92Z"/>
    <path class="cls-2" d="M46.69,193.45c-.18,0-.35-.02-.5-.05-2.67-.55-4.74-5.67-5.1-8.26-.13-.91-.4-1.5-.83-1.79-.79-.53-2.35-.23-4.15,.12-.64,.12-1.3,.25-2,.36-2.41,.36-4.66-.42-5.47-1.9-.43-.78-.8-2.43,1.52-4.65,2.14-2.05,4.79-1.71,7.13-1.42,1.55,.2,3.02,.38,4.3-.05,2.02-.68,6.21-5.72,8.22-8.14,.57-.68,1.01-1.22,1.32-1.55,2.5-2.77,2.55-5.97,2.6-9.05,.03-2.12,.07-4.32,.91-6.32,.6-1.43,10.09-15.84,16.09-16.08,1.03-.04,2.45,.3,3.41,2.13,1.22,2.32-2.39,5.4-7.24,9.2-1.42,1.11-2.76,2.16-3.15,2.68-3,3.97-3.88,7.46-3.05,12.06,.44,2.43,.54,6.16-3.64,10.38-1.56,1.57-3.01,3.1-4.41,4.58-.9,.95-1.83,1.93-2.8,2.94-1.83,1.89-1.23,4.26-.6,6.76,.57,2.24,1.16,4.56-.15,6.53-.81,1.22-1.7,1.54-2.41,1.54Zm-7.68-11.96c.83,0,1.57,.15,2.2,.58,.83,.56,1.32,1.49,1.51,2.86,.37,2.65,2.36,6.63,3.81,6.93,.36,.08,.75-.19,1.15-.79,.94-1.41,.46-3.31-.06-5.33-.67-2.66-1.44-5.67,.98-8.17,.96-1,1.89-1.98,2.79-2.92,1.41-1.49,2.86-3.02,4.43-4.61,3.64-3.68,3.63-6.77,3.22-9.05-.92-5.06,.05-8.89,3.33-13.23,.52-.69,1.81-1.7,3.44-2.97,1.73-1.35,3.69-2.89,5.11-4.33,1.92-1.95,1.83-2.72,1.71-2.96-.62-1.18-1.36-1.28-1.86-1.26-1.97,.08-5.11,2.57-8.84,7.01-3.14,3.74-5.52,7.47-5.78,8.08-.73,1.74-.76,3.69-.79,5.77-.05,3.21-.11,6.84-3,10.04-.28,.31-.72,.84-1.27,1.51-3.29,3.95-6.68,7.87-8.96,8.64h0c-1.67,.56-3.4,.34-5.08,.13-2.24-.28-4.17-.53-5.73,.97-1.17,1.12-1.61,2.13-1.22,2.83,.47,.86,2.08,1.33,3.73,1.08,.66-.1,1.3-.22,1.93-.35,1.18-.23,2.27-.44,3.25-.44Zm2.85-4.96h0Z"/>
  </g>
  <g>
    <path class="cls-1" d="M44.89,122.79c4.88-6.75,9.14,2.7,4.92,7.91-7.17,8.97-16.39,9.62-18.41,13.82-1.17,2.14-1.63,6.19-3.43,8.46-2.61,3.29-8.87,1.54-6.9-4.59,1.56-6.41,7.56-8.23-1.13-11.75-8.27-3.35-3.22-17.82,2.43-12.18,2.32,2.32,1.53,5.53,1.53,5.53-.32,.89,.19,1.76,1.06,2.55,2.71,2.49,7,2.57,9.89,.27,3.09-2.47,7.22-6.15,10.03-10.04Z"/>
    <path class="cls-2" d="M24.59,155.41c-.73,0-1.46-.16-2.14-.48-1.81-.87-3.33-3.09-2.17-6.73,.52-2.11,1.49-3.74,2.27-5.05,.8-1.36,1.39-2.33,1.11-3.11-.29-.82-1.61-1.69-4.02-2.67-3.11-1.26-4.92-4.18-4.86-7.81,.06-3.25,1.65-6.17,3.79-6.95,.85-.31,2.56-.55,4.43,1.32,2.6,2.59,1.77,6.1,1.74,6.25,0,.03-.01,.05-.02,.08-.17,.48,.11,1.06,.85,1.74,2.41,2.21,6.18,2.3,8.77,.23,2.96-2.37,7.07-6,9.88-9.88h0c1.72-2.37,3.3-2.76,4.34-2.67,1.28,.11,2.41,1.04,3.11,2.53,1.07,2.3,1.15,6.09-1.18,8.97-4.15,5.19-8.88,7.62-12.69,9.58-2.71,1.4-4.86,2.5-5.62,4.09,0,.01-.01,.02-.02,.04-.44,.8-.78,1.95-1.15,3.16-.56,1.85-1.19,3.94-2.35,5.4-1,1.26-2.52,1.95-4.05,1.95Zm-4.82-31.44c-.21,0-.41,.04-.61,.11-1.48,.54-2.68,2.96-2.73,5.51-.03,1.43,.29,4.9,3.85,6.34,2.99,1.21,4.47,2.29,4.94,3.6,.52,1.43-.29,2.8-1.23,4.38-.77,1.29-1.64,2.76-2.1,4.66,0,.02,0,.03-.01,.05-.74,2.32-.25,4.15,1.33,4.9,1.19,.57,2.99,.41,4.12-1.01,.97-1.23,1.54-3.1,2.08-4.9,.39-1.28,.76-2.5,1.26-3.43,1-2.06,3.35-3.27,6.33-4.8,3.66-1.88,8.22-4.23,12.16-9.15,1.84-2.28,1.89-5.44,.98-7.4-.44-.96-1.08-1.54-1.74-1.6-.83-.07-1.83,.64-2.81,2h0c-2.91,4.03-7.14,7.77-10.18,10.19-3.25,2.6-7.98,2.47-11-.3-1.22-1.12-1.65-2.23-1.28-3.32,.06-.29,.54-2.92-1.33-4.79-.7-.7-1.37-1.05-2.01-1.05Z"/>
  </g>
  <g>
    <path class="cls-1" d="M171.6,155.91c.82,.7,1.6,1.43,2.32,2.21,4.51,4.93,13.65-4.24,18.07-4.04,6.72-.16,7.85,7.18,2.07,8.93-3.09,1.08-7.48,1-10.65,.86-7.19-.24-10.45-1.32-16.62,3.18-2.7,1.84-5.75,3.43-7.47,6.03-1.12,1.44-3.81,1.4-4.88,.26-1.09-1.05-1.36-2.87-.96-4.46,1.65-6.21,13.13-7.38,11.4-10.48-3.13-5.55-9.61-8.57-13.54-11.32-4.42-3.23-8.25-6.73-13.13-9.28-7.45-4.81-13.5-2.67-15.96-6.29-1.45-3.1,1.9-4.29,4.99-4.47,8.37-.52,17.88,8.45,23.89,12.42,18.54,13.19,17.16,13.63,20.49,16.47Z"/>
    <path class="cls-2" d="M156.71,174.96c-1.17,0-2.24-.4-2.9-1.09-1.2-1.17-1.66-3.19-1.16-5.17,.98-3.69,4.88-5.66,8.02-7.24,1.21-.61,2.35-1.19,3.01-1.73,.68-.56,.54-.8,.44-.97-2.33-4.14-6.59-6.8-10.34-9.14-1.07-.67-2.08-1.3-2.97-1.92,0,0,0,0-.01-.01-1.31-.95-2.57-1.94-3.79-2.89-3.01-2.34-5.85-4.56-9.23-6.33-.02-.01-.04-.02-.07-.04-3.66-2.36-7.01-2.99-9.7-3.5-2.73-.51-5.09-.96-6.48-3.01-.02-.03-.04-.07-.06-.11-.72-1.53-.38-2.62,.03-3.25,1.15-1.79,4.04-2.22,5.66-2.32,6.87-.43,14.2,5.04,20.09,9.44,1.56,1.17,3.04,2.27,4.32,3.12,0,0,.02,.01,.02,.02,14.16,10.07,16.77,12.76,18.68,14.72,.59,.61,1.1,1.13,1.87,1.79h0c.92,.79,1.7,1.53,2.39,2.28,.77,.84,1.69,1.19,2.78,1.19,2.06,0,4.69-1.28,7.86-2.96,2.65-1.41,4.93-2.62,6.81-2.55,3.95-.09,6.14,2.18,6.54,4.47,.38,2.15-.77,4.93-4.22,5.98-3.12,1.08-7.29,1.06-10.96,.9-1.12-.04-2.12-.09-3.1-.15-5.16-.29-8.01-.45-12.97,3.16,0,0-.01,0-.02,.01-.57,.39-1.15,.77-1.72,1.13-2.19,1.42-4.26,2.75-5.54,4.68-.01,.02-.02,.03-.04,.05-.66,.85-1.77,1.36-3.04,1.41-.07,0-.14,0-.21,0Zm-4.9-28.51c.85,.6,1.84,1.21,2.89,1.87,3.72,2.32,8.35,5.21,10.89,9.71,.39,.69,.56,1.76-.82,2.89-.8,.65-1.96,1.24-3.32,1.92-2.85,1.44-6.39,3.23-7.19,6.23-.36,1.44-.06,2.95,.75,3.72,.01,.01,.02,.02,.03,.03,.35,.38,1.06,.6,1.81,.57,.76-.03,1.4-.31,1.76-.76,1.46-2.19,3.76-3.67,5.99-5.11,.55-.36,1.13-.73,1.67-1.1,5.45-3.97,8.88-3.77,14.08-3.48,.96,.05,1.96,.11,3.07,.15,3.32,.15,7.48,.18,10.34-.81,.01,0,.02,0,.04-.01,2.53-.76,3.38-2.67,3.1-4.23-.27-1.51-1.72-3.25-4.9-3.17-.02,0-.04,0-.06,0-1.4-.06-3.71,1.16-5.94,2.35-2.74,1.46-5.92,3.15-8.71,3.15-1.48,0-2.86-.48-3.99-1.72-.64-.7-1.38-1.4-2.25-2.15h0c-.83-.71-1.39-1.28-1.98-1.89-1.86-1.92-4.42-4.55-18.44-14.52-1.32-.87-2.81-1.99-4.39-3.16-5.67-4.23-12.72-9.5-18.96-9.11-2.15,.13-3.81,.73-4.35,1.57-.3,.46-.28,1.04,.04,1.75,1.02,1.45,2.85,1.8,5.38,2.27,2.83,.53,6.36,1.2,10.28,3.72,3.5,1.84,6.53,4.19,9.45,6.47,1.21,.94,2.46,1.92,3.75,2.86Z"/>
  </g>
  <g>
    <path class="cls-1" d="M36.14,70.98c-21.05,.08-13.79-15.69-21.04-23.77-1.61-1.66-3.06-2.18-3.97-1.14-1.49,1.83-1.28,6.43-.78,8.61,2.29,12.67,17.29,17.61,3.42,27.2-2.09,1.45-4.71,3.32-5.71,5.3-1.87,3.5,3.45,7.04,6.59,4.63,5.51-3.88,5.31-10.34,9.46-13.18,4.14-3.29,10.45-4.06,16.06-3.1,16.97,2.64,6.14,21,2.93,31.1-1.24,5.12,1.84,7.38,5.6,6.28,11.53-4.44,10.8-21.83,8.75-30.4-.92-6.71,.13-12.5,3.1-18.86,3.36-7.84,7.71-7.42,14.46-10.37,4.92-2.76,1.57-7.21-3.22-7.95-6.45-1.59-8.32,7.59-13.67,3.22-2.14-2.12-2.87-6.7-4.63-9.39-3.79-5.44-14.29-1.55-9.45,5.42,4.45,5.67,14.4,7.02,9.22,18.77-1.13,2.47-1.57,5.47-3.9,7.18-1.33,.98-9.35,.43-13.21,.46Z"/>
    <path class="cls-2" d="M46.9,113.96c-1.28,0-2.42-.39-3.29-1.15-1.52-1.33-1.99-3.59-1.32-6.36,0-.02,0-.03,.01-.05,.55-1.73,1.31-3.68,2.12-5.74,2.69-6.87,6.04-15.42,3.01-20.33-1.32-2.14-3.74-3.46-7.4-4.03-6.03-1.03-11.78,.07-15.39,2.93-.02,.01-.03,.02-.05,.03-1.75,1.2-2.66,3.14-3.72,5.39-1.23,2.62-2.62,5.59-5.72,7.78-2.08,1.59-4.78,.98-6.4-.25-1.86-1.41-2.42-3.51-1.44-5.34,1.12-2.22,4.03-4.25,5.96-5.59,8.24-5.7,5.7-9.35,1.86-14.88-2.22-3.2-4.74-6.83-5.6-11.55-.47-2.08-.86-7.04,.94-9.23,0,0,.01-.02,.02-.02,.46-.52,1.05-.8,1.71-.81,1.05-.02,2.23,.62,3.5,1.93,0,0,.02,.02,.02,.02,2.58,2.88,3.41,6.63,4.21,10.25,.77,3.49,1.5,6.79,3.68,9.24,2.44,2.73,6.37,4.01,12.37,4.01,.05,0,.1,0,.15,0,1.01,0,2.3,.02,3.66,.06,1.91,.05,4.07,.1,5.82,.05,2.63-.07,3.15-.35,3.22-.4,1.5-1.1,2.13-2.86,2.8-4.72,.26-.72,.53-1.46,.85-2.16,3.49-7.91-.17-10.63-4.4-13.78-1.68-1.25-3.42-2.54-4.73-4.21,0-.01-.02-.02-.03-.04-2.66-3.83-1.06-6.77,1.12-8.12,1.43-.89,3.26-1.25,5.03-.99,1.95,.28,3.61,1.29,4.69,2.83,0,0,0,.01,.01,.02,.8,1.22,1.39,2.79,1.96,4.3,.71,1.89,1.45,3.84,2.54,4.94,2.18,1.77,3.39,.96,5.67-.89,1.86-1.5,4.17-3.36,7.6-2.53,3.16,.5,5.77,2.49,6.22,4.74,.21,1.04,.13,3.02-2.75,4.64-.02,.01-.05,.03-.08,.04-1.56,.68-3.02,1.2-4.3,1.65-4.38,1.54-7.28,2.56-9.73,8.3,0,0,0,.01-.01,.02-2.97,6.37-3.91,12.05-3.04,18.41,2.09,8.8,2.85,26.6-9.25,31.26-.02,0-.04,.02-.07,.02-.7,.21-1.39,.31-2.04,.31Zm-3-7.14c-.53,2.19-.23,3.91,.84,4.84,.85,.75,2.19,.93,3.68,.5,4.78-1.86,7.79-6.24,8.93-13.03,1.24-7.36-.23-14.46-.71-16.46,0-.02-.01-.05-.01-.07-.92-6.67,.06-12.61,3.16-19.27,2.73-6.37,6.24-7.61,10.69-9.17,1.31-.46,2.66-.94,4.15-1.59,1.05-.6,2.22-1.59,1.94-2.99-.33-1.62-2.43-3.12-4.9-3.5-.03,0-.05,0-.08-.02-2.61-.64-4.33,.74-6.14,2.2-1.34,1.08-2.78,2.24-4.53,2.24-1,0-2.1-.38-3.33-1.39-.02-.02-.04-.03-.06-.05-1.35-1.33-2.15-3.46-2.92-5.52-.54-1.43-1.1-2.91-1.8-3.99-1.75-2.49-5.24-2.73-7.41-1.38-2.09,1.29-2.33,3.51-.66,5.93,1.18,1.49,2.82,2.72,4.41,3.9,2.15,1.6,4.38,3.26,5.56,5.65,1.33,2.69,1.11,5.95-.66,9.97-.3,.66-.54,1.33-.8,2.05-.72,1.99-1.46,4.06-3.35,5.45-1.14,.84-4.74,.81-10.11,.68-1.35-.03-2.62-.06-3.61-.06h0c-.05,0-.1,0-.15,0-6.44,0-10.9-1.49-13.64-4.56-2.45-2.75-3.26-6.4-4.03-9.93-.76-3.43-1.54-6.97-3.84-9.55-1.26-1.29-1.98-1.41-2.23-1.41-.12,0-.28,.03-.47,.24-1.17,1.46-1.15,5.61-.61,7.95,0,.01,0,.02,0,.03,.8,4.4,3.22,7.89,5.36,10.97,3.89,5.59,7.25,10.43-2.26,17-1.79,1.25-4.51,3.14-5.45,5,0,0,0,.01,0,.02-.75,1.4,.03,2.69,1,3.43,1.12,.85,2.96,1.29,4.33,.24,0,0,.02-.01,.03-.02,2.77-1.95,4.01-4.6,5.21-7.16,1.1-2.34,2.13-4.56,4.23-6.01,3.98-3.15,10.23-4.36,16.71-3.26,4.11,.64,6.99,2.25,8.56,4.79,3.41,5.54-.08,14.48-2.89,21.66-.79,2.03-1.55,3.95-2.08,5.62Zm-7.76-35.84h0Z"/>
  </g>
  <g>
    <path class="cls-1" d="M101.67,119.07c.33,.07,.65,.16,.97,.25,2.28,.64,4.01,.53,6.15,1.58,5.26,2.75,2.57,8.56-5.51,4.97-.23-.1-.47-.2-.71-.3-12.93-5.07-28.03-15.28-29-29.43-.2-3.27,.75-8.79,4.3-8.71,3.63,.14,6.07,4.98,6.35,8.03,.73,8.6,1.74,14.25,8.89,18.81,2.68,1.53,7.6,4.59,8.56,4.8Z"/>
    <path class="cls-2" d="M107.87,127.78c-1.37,0-3.03-.36-4.94-1.21-.22-.1-.44-.19-.68-.28-7.42-2.91-14.25-6.98-19.24-11.47-6.36-5.72-9.82-11.99-10.27-18.64-.13-2.16,.21-6.36,2.3-8.4,.8-.78,1.76-1.16,2.85-1.14,4.11,.16,6.84,5.27,7.16,8.74,.71,8.41,1.64,13.83,8.51,18.22,.76,.43,1.67,.98,2.65,1.55,2.02,1.19,5.06,3,5.65,3.14,.38,.08,.74,.18,1.02,.26,.82,.23,1.58,.36,2.31,.49,1.25,.22,2.54,.44,3.99,1.15,0,0,.01,0,.02,.01,2.97,1.55,3.65,3.99,2.78,5.6-.63,1.15-2.03,1.97-4.1,1.97Zm-30.08-39.57c-.58,0-1.09,.22-1.55,.66-1.41,1.38-1.99,4.67-1.84,7.22,1.15,16.75,22.1,26.24,28.49,28.75,.26,.1,.51,.21,.75,.31,3.78,1.68,6.21,1.15,6.86-.06,.51-.94-.05-2.45-2.09-3.52-1.22-.59-2.28-.78-3.51-.99-.78-.13-1.58-.27-2.49-.53-.25-.07-.59-.16-.92-.24h0c-.77-.17-2.84-1.37-6.16-3.34-.97-.58-1.89-1.12-2.64-1.55-.01,0-.02-.01-.03-.02-7.49-4.78-8.52-10.78-9.25-19.4-.27-2.9-2.57-7.19-5.56-7.31-.02,0-.04,0-.05,0Z"/>
  </g>
  <g>
    <path class="cls-1" d="M91.14,57.46c-.02,2.68-.25,4.11,1.91,7.18,1.46,2.08,4.22,3.42,5.43,5.63,1.11,2.16,1.16,4.99-.64,4.78-2.69-.2-8.14-5.21-8.87-7.44-10.82-20.86,19.28-33.7,11.3-43.2-2.72-3.18-7.63-5.2-6.7-9.53,1.34-4.98,7.56-3.58,9.39-.15,2.07,3.72,1.26,10.73,5.6,11.53,5.49,.77,11.11-7.05,16.18,.18,1.21,2.16,.83,4.88-.76,6.91-3.53,4.3-9.08,2.98-13.63,3.86-5.74,.76-13.24,7.87-15.73,11.31-1.87,2.58-3.47,7.61-3.48,8.92Z"/>
    <path class="cls-2" d="M98.02,75.85c-.09,0-.18,0-.27-.01-3.12-.25-8.69-5.5-9.56-7.92-6.34-12.29,.97-21.82,6.85-29.47,4.25-5.54,7.61-9.91,4.57-13.53-.75-.88-1.72-1.69-2.66-2.49-2.44-2.06-4.96-4.19-4.2-7.69,0-.01,0-.02,0-.04,.59-2.2,2.16-3.58,4.29-3.8,2.58-.27,5.44,1.24,6.64,3.5,.79,1.41,1.18,3.24,1.55,5,.62,2.92,1.21,5.68,3.44,6.11,1.76,.24,3.6-.55,5.56-1.39,3.55-1.52,7.57-3.24,11.17,1.91,.01,.02,.03,.04,.04,.07,1.33,2.36,1,5.4-.83,7.74,0,0,0,0-.01,.01-2.77,3.37-6.72,3.58-10.21,3.77-1.38,.07-2.68,.14-3.9,.38-.02,0-.03,0-.05,0-5.32,.7-12.58,7.41-15.16,10.98-1.81,2.5-3.33,7.42-3.34,8.49h0c0,.23,0,.45,0,.66-.03,2.24-.05,3.47,1.78,6.08,.61,.87,1.48,1.61,2.41,2.39,1.15,.98,2.34,1.98,3.07,3.32,0,0,0,.01,0,.02,.86,1.67,1.25,3.98,.35,5.16-.37,.49-.91,.75-1.55,.75Zm-3.65-60.79c-.55,2.61,1.41,4.27,3.69,6.19,.99,.83,2.01,1.69,2.85,2.67,3.83,4.55-.04,9.59-4.52,15.43-5.63,7.33-12.63,16.45-6.68,27.92,.02,.04,.03,.07,.05,.11,.67,2.05,5.9,6.72,8.14,6.89,.01,0,.02,0,.04,0,.2,.02,.24-.03,.29-.09,.38-.5,.27-2.08-.49-3.56-.59-1.07-1.61-1.94-2.7-2.86-.96-.81-1.96-1.66-2.68-2.69-2.11-3.01-2.09-4.67-2.05-6.97,0-.21,0-.43,0-.65,.01-1.48,1.66-6.64,3.63-9.36,2.56-3.54,10.19-10.82,16.27-11.64,1.33-.26,2.75-.33,4.12-.41,3.44-.19,6.69-.36,8.99-3.16,1.44-1.85,1.72-4.21,.71-6.04-2.82-3.99-5.58-2.81-9.08-1.31-2.09,.9-4.25,1.82-6.5,1.51-.01,0-.03,0-.04,0-3.34-.62-4.07-4.04-4.77-7.34-.35-1.66-.72-3.37-1.4-4.6-.9-1.69-3.09-2.85-4.99-2.66-1.44,.15-2.43,1.05-2.86,2.62Zm-3.24,42.4h0Z"/>
  </g>
</svg>