<?xml version="1.0" encoding="utf-8"?>
<!-- Generator: Adobe Illustrator 27.0.0, SVG Export Plug-In . SVG Version: 6.00 Build 0)  -->
<svg version="1.1" id="Layer_1" xmlns="http://www.w3.org/2000/svg" xmlns:xlink="http://www.w3.org/1999/xlink" x="0px" y="0px"
	 viewBox="0 0 40 40" style="enable-background:new 0 0 40 40;" xml:space="preserve">
<style type="text/css">
	.st0{fill:#EC1C24;}
	.st1{fill:#59BA65;}
	.st2{fill-rule:evenodd;clip-rule:evenodd;fill:#64BB47;}
	.st3{fill:#AFACC6;}
	.st4{fill:#686676;}
	.st5{fill:#BE1E2D;}
</style>
<g>
	<path class="st0" d="M30.6,27.3c-3.2-1.1-7-1.8-10.5-1.8c-3.6,0-7.4,0.7-10.5,1.8c-0.3-2-0.1-4.3,0.7-6.9c0.4-1.3,1.1-3,4.6-2.7
		c0.7,0.1,1.5,0.2,2.5,1c0.6,0.5,1.3,1.3,2.7,1.4c0,0,0,0,0,0c0.2,0,0.5-0.1,0.7-0.1c0.9-0.3,1.6-0.9,2-1.2c1-0.8,1.8-0.9,2.5-1
		c3.5-0.4,4.2,1.4,4.6,2.7C30.7,23,30.8,25.3,30.6,27.3z"/>
	<path class="st1" d="M20.7,19.7c-0.2,0.1-0.4,0.1-0.7,0.1c0,0,0,0,0,0c-1.2-3.1-3.9-4.3-5.3-5.8c-0.6-0.7,0.3-0.8,0.5-0.8
		C18.9,14.4,20.2,17.4,20.7,19.7z"/>
	<path class="st2" d="M25.1,12.5c-2.2,1.4-5.2,1-5,4c1.3-2.7,3.1-2.1,4.8-3.5c0,1.7-1.4,3.9-3.6,3.8c0.7-0.4,2-0.9,3-3.1
		c-1.4,2-3,2.8-4.3,3.2c0.9,0.5,1.8,0.7,2.5,0.5c0.1,0,0.1,0,0.2-0.1c0,0,0,0,0.1,0c0.9-0.3,1.6-1,2-2C25,14.6,25.2,13.6,25.1,12.5z
		"/>
	<g>
		<path class="st3" d="M33.3,28.6L32.7,30c-0.7-0.4-1.6-0.7-2.4-1.1c-3.1-1.1-6.8-1.8-10.2-1.8S12.8,27.9,9.8,29
			c-0.9,0.3-1.7,0.7-2.5,1.1l-0.6-1.4c0.8-0.4,1.8-0.8,2.8-1.2c3.2-1.1,7-1.8,10.5-1.8c3.6,0,7.4,0.7,10.5,1.8
			C31.5,27.8,32.5,28.2,33.3,28.6z"/>
	</g>
	<g>
		<path class="st4" d="M7.7,33.1c-0.1,0-0.2,0.1-0.3,0.1c-0.3,0-0.6-0.2-0.8-0.5l-2.2-5.2c-0.2-0.4,0-0.9,0.5-1.1
			c0.1,0,0.2-0.1,0.3-0.1c0.3,0,0.6,0.2,0.8,0.5l0.8,1.8L7.3,30l0.8,2C8.3,32.5,8.1,33,7.7,33.1z"/>
		<path class="st4" d="M5.7,31.9c0.2,0.4,0,0.9-0.5,1.1l0,0c-0.4,0.2-0.9,0-1.1-0.4l-1.4-3.3c-0.2-0.4,0-0.9,0.5-1.1l0,0
			c0.4-0.2,0.9,0,1.1,0.4L5.7,31.9z"/>
		<path class="st4" d="M3.5,32c0.2,0.4,0,0.9-0.5,1.1l0,0c-0.4,0.2-0.9,0-1.1-0.4l-0.8-1.9c-0.2-0.4,0-0.9,0.5-1.1l0,0
			c0.4-0.2,0.9,0,1.1,0.4L3.5,32z"/>
	</g>
	<g>
		<path class="st4" d="M35.6,27.4l-2.2,5.2c-0.1,0.3-0.5,0.5-0.8,0.5c-0.1,0-0.2,0-0.3-0.1c-0.4-0.2-0.6-0.7-0.5-1.1l0.9-2l0.6-1.4
			l0.8-1.8c0.1-0.3,0.5-0.5,0.8-0.5c0.1,0,0.2,0,0.3,0.1C35.6,26.5,35.8,27,35.6,27.4z"/>
		<path class="st4" d="M34.3,31.9c-0.2,0.4,0,0.9,0.5,1.1l0,0c0.4,0.2,0.9,0,1.1-0.4l1.4-3.3c0.2-0.4,0-0.9-0.5-1.1l0,0
			c-0.4-0.2-0.9,0-1.1,0.4L34.3,31.9z"/>
		<path class="st4" d="M36.5,32c-0.2,0.4,0,0.9,0.5,1.1l0,0c0.4,0.2,0.9,0,1.1-0.4l0.8-1.9c0.2-0.4,0-0.9-0.5-1.1l0,0
			c-0.4-0.2-0.9,0-1.1,0.4L36.5,32z"/>
	</g>
	<path class="st5" d="M20,27.4c-3.5,0-7.2,0.7-10.2,1.8c1.4,5.3,5.7,7.8,5.7,7.8c2.6,1.2,4.5-0.2,4.5-0.2s1.9,1.4,4.5,0.2
		c0,0,4.4-2.5,5.7-7.8C27.2,28.1,23.5,27.4,20,27.4z M22.6,31.9c-0.1,0-0.1,0-0.1-0.1c-0.2-0.9-0.4-1.7-0.7-2.6
		c0,0.1-0.1,0.2-0.1,0.2c-0.5,1.7-1.1,3.4-1.6,5.1c0,0.1-0.2,0.1-0.3,0c-0.1-0.2-0.1-0.4-0.2-0.5c-0.4-1.2-0.8-2.3-1.1-3.5
		c-0.2,0.5-0.5,0.9-0.7,1.4c0,0-0.1,0.1-0.1,0.1l-2.4-0.1l2.4-0.1c0.3-0.5,0.5-1.1,0.8-1.6c0.1-0.1,0.2-0.1,0.3,0
		c0.1,0.2,0.1,0.4,0.2,0.5c0.4,1.1,0.7,2.3,1.1,3.4c0-0.1,0.1-0.2,0.1-0.3c0.5-1.7,1.1-3.4,1.6-5.1c0-0.1,0.2-0.1,0.3,0
		c0.3,1,0.5,2,0.8,3c0.7,0,1.4,0.1,2.1,0.1C24.1,31.7,23.4,31.9,22.6,31.9z"/>
</g>
</svg>
