<?xml version="1.0" encoding="utf-8"?>
<!-- Generator: Adobe Illustrator 27.0.0, SVG Export Plug-In . SVG Version: 6.00 Build 0)  -->
<svg version="1.1" id="Layer_1" xmlns="http://www.w3.org/2000/svg" xmlns:xlink="http://www.w3.org/1999/xlink" x="0px" y="0px"
	 viewBox="0 0 25.5 25" style="enable-background:new 0 0 25.5 25;" xml:space="preserve">
<style type="text/css">
	.st0{clip-path:url(#SVGID_00000178194231824627668800000001286471398454857635_);fill:#8E8E8D;}
	.st1{clip-path:url(#SVGID_00000178194231824627668800000001286471398454857635_);}
	.st2{fill:#E5E6E7;}
	.st3{fill:#CDCCCD;}
	.st4{fill:#D5D5D5;}
	.st5{fill:#D7D7D7;}
	.st6{fill:#E4E5E6;}
	.st7{fill:#DBDBDB;}
	.st8{fill:#DBDCDC;}
	.st9{fill:#6E6B6C;}
	.st10{fill:#7F797B;}
	.st11{fill:#D2D2D3;}
	.st12{fill:#BCBBBC;}
	.st13{fill:#BFBFC0;}
	.st14{fill:#949494;}
	.st15{fill:#979796;}
	.st16{fill:#484646;}
	.st17{fill:#AAAAA9;}
	.st18{fill:#828282;}
	.st19{fill:#BDBCBC;}
	.st20{fill:#6E6D6D;}
	.st21{fill:#5D5C5C;}
	.st22{fill:#8E8D8D;}
	.st23{fill:#747474;}
	.st24{fill:#9B9B9B;}
	.st25{fill:#969696;}
	.st26{fill:#AEAEAE;}
	.st27{fill:#7F7F80;}
	.st28{fill:#BEBDBE;}
	.st29{fill:#979697;}
	.st30{fill:#ACACAD;}
	.st31{fill:#C1C1C1;}
	.st32{fill:#F0F1F2;}
	.st33{fill:#818182;}
	.st34{fill:#6F6F6F;}
	.st35{fill:#595858;}
	.st36{fill:#828283;}
	.st37{fill:#999998;}
	.st38{fill:#B0AFB0;}
	.st39{fill:#BFBFBF;}
	.st40{fill:#989797;}
	.st41{fill:#ECEDEE;}
	.st42{fill:#CDCDCE;}
	.st43{fill:#C8C7C8;}
	.st44{fill:#D2D2D4;}
	.st45{fill:#E3E3E6;}
	.st46{fill:#E8E9EB;}
	.st47{fill:#868586;}
	.st48{fill:#A9A9A9;}
	.st49{fill:#5A4A4A;}
	.st50{fill:#833233;}
	.st51{fill:#48393A;}
	.st52{fill:#CAC8CA;}
	.st53{fill:#5F5757;}
	.st54{fill:#4E4646;}
	.st55{fill:#6B6667;}
	.st56{fill:#8E8E8D;}
	.st57{fill:#B5B4B4;}
	.st58{fill:#BABABA;}
	.st59{fill:#9F9F9F;}
	.st60{fill:#A1A1A0;}
	.st61{fill:#D2D2D2;}
	.st62{fill:#878787;}
	.st63{fill:#BDBCBD;}
	.st64{fill:#AEAEAF;}
	.st65{fill:#B7B7B7;}
	.st66{fill:#2C2B2B;}
	.st67{fill:#807D7E;}
	.st68{fill:#C9C9C9;}
	.st69{fill:#B9B9BA;}
	.st70{fill:#BDBCBE;}
	.st71{fill:#D3D3D3;}
	.st72{fill:#686767;}
	.st73{fill:#707070;}
	.st74{fill:#767677;}
	.st75{fill:#808080;}
	.st76{fill:#E1E1E2;}
	.st77{fill:#C9C9CA;}
	.st78{fill:#F2F2F3;}
	.st79{fill:#E4E5E5;}
	.st80{fill:#D9DADB;}
	.st81{fill:#E6E7E8;}
	.st82{fill:#D9D9DB;}
	.st83{fill:#DCDCDE;}
	.st84{fill:#706F6F;}
	.st85{fill:#1A1819;}
	.st86{fill:#7F7F7F;}
	.st87{fill:#973031;}
	.st88{fill:#871619;}
	.st89{fill:#791214;}
	.st90{fill:#670C0F;}
	.st91{fill:#510F10;}
	.st92{fill:#2D2B2B;}
	.st93{fill:#2C2828;}
	.st94{fill:#9E9A9A;}
	.st95{fill:#C6C6C6;}
	.st96{fill:#BBBABB;}
	.st97{fill:#B2B2B3;}
	.st98{fill:#BCBCBC;}
	.st99{fill:#D1D1D2;}
	.st100{fill:#D1D0D1;}
	.st101{fill:#E0E1E1;}
	.st102{fill:#AFAFB0;}
	.st103{fill:#A4A4A4;}
	.st104{fill:#D9DADA;}
	.st105{fill:#A8A8A8;}
	.st106{fill:#727172;}
	.st107{fill:#565555;}
	.st108{fill:#F9FAFB;}
	.st109{fill:#DADADB;}
	.st110{fill:#CECDCE;}
	.st111{fill:#908D8D;}
	.st112{fill:#9E1C1F;}
	.st113{fill:#A53031;}
	.st114{fill:#A94040;}
	.st115{fill:#3A1112;}
	.st116{fill:#B8B7B8;}
	.st117{fill:#AD1E23;}
	.st118{fill:#D14A4B;}
	.st119{fill:#BC2025;}
	.st120{fill:#CF3B3C;}
	.st121{fill:#EE4C4E;}
	.st122{fill:#D12027;}
	.st123{fill:#EC1C24;}
	.st124{fill:#DA1F26;}
</style>
<g>
	<g>
		<defs>
			<polygon id="SVGID_1_" points="24.7,9.5 12.6,0.1 0.8,3.4 0.8,15.7 12.8,24.9 24.8,21.6 			"/>
		</defs>
		<clipPath id="SVGID_00000062150211851657157790000014977625827607701679_">
			<use xlink:href="#SVGID_1_"  style="overflow:visible;"/>
		</clipPath>
		
			<rect x="-1.5" y="-0.5" style="clip-path:url(#SVGID_00000062150211851657157790000014977625827607701679_);fill:#8E8E8D;" width="29" height="26.1"/>
		<g style="clip-path:url(#SVGID_00000062150211851657157790000014977625827607701679_);">
			<path class="st2" d="M0.7,16.2c-0.1-0.4-0.2-0.7-0.2-1.1c-0.1-3.2-0.1-6.3-0.1-9.5c0-0.7,0-1.3,0.2-2c0-0.1,0.1-0.3,0.3-0.3
				c0.3,0.1,0.4,0.2,0.2,0.5c0,0-0.1,0.1-0.1,0.1C1,3.8,0.8,3.6,0.8,4c0,0.1,0,0.2,0.2,0.2c0.1,0,0.2,0,0.2,0.1
				c0,0.1-0.1,0.2-0.2,0.3C0.7,4.6,0.8,4.8,0.8,4.9c0,0.5,0,1,0,1.5c0.1,0,0.1-0.1,0.2,0c0.1,0,0.1,0.1,0.2,0.2
				C1.4,6.3,1.3,6,1.4,5.7c0.1-0.3,0.3-0.3,0.6-0.3c1,0,2,0,3.1,0.1c0.1,0,0.3,0,0.3,0.1c0,0.1-0.2,0.1-0.3,0.1
				c-0.4,0-0.7,0.2-1,0.5c0.2-0.2,0.5-0.3,0.7-0.4c1-0.2,1.9-0.4,2.9-0.5c0,0,0.1,0,0.1,0c0.1,0,0.2,0,0.2,0.1C8.2,5.4,8,5.4,8,5.5
				C7.8,5.5,7.6,5.6,7.5,5.6c-0.2,0-0.4,0-0.6,0.2C6.4,6,5.9,6,5.4,6.2C5.2,6.2,5.1,6.3,5,6.3C4.7,6.4,4.6,6.6,4.6,6.9
				c0,0.8,0,1.7,0,2.5c0,0.5,0,0.9-0.1,1.4c0,0.5-0.1,0.9,0,1.4c0,0.2,0,0.4,0,0.6c0,0.5,0,1,0,1.4c0,0.1,0,0.2-0.1,0.3
				c-0.1-0.1-0.1-0.2-0.1-0.3c0-1.2,0-2.4,0-3.6c0-0.5,0-0.9,0-1.4c0-0.2,0-0.4-0.1-0.6C4.1,8.3,4.1,8.1,4,7.8
				c0-0.2-0.1-0.2-0.2-0.1C3.5,8,3.4,8,3.1,7.8C2.9,7.7,2.7,7.6,2.5,7.5c-0.3-0.1-0.4,0-0.5,0.2C1.8,7.9,1.7,8.2,1.7,8.4
				c0,0.2,0,0.5-0.1,0.7c0,0.1,0,0.2-0.2,0.3c-0.1,0-0.2,0-0.3-0.1c0,0-0.1-0.1-0.1-0.1C1,9,0.9,9.1,0.9,9.3c0,0.1,0,0.1,0,0.2
				c-0.1,1.9,0,3.7-0.1,5.6c0,0.3,0.2,0.6,0.1,0.8C0.9,16,0.8,16.1,0.7,16.2z"/>
			<path class="st3" d="M13.1,0.2c0.1,0.1,0.1,0.1,0.2,0.2c-0.3,0.4-0.7,0.6-1.2,0.7c-0.1,0-0.3,0.1-0.4,0.1
				c-0.4,0.1-0.9,0.2-1.3,0.4c0,0-0.1,0-0.1,0c-0.2,0-0.4,0.1-0.6,0.2c-0.5,0.1-1,0.3-1.5,0.4C7.6,2.3,7,2.5,6.4,2.7
				C6.2,2.7,6.1,2.7,6,2.8c-0.1,0-0.2,0-0.3,0c0-0.2,0.1-0.2,0.2-0.2C6.7,2.3,7.4,2.1,8.2,2c0.2,0,0.4-0.1,0.5-0.3
				C8.8,1.5,9,1.5,9.2,1.4c0.7-0.2,1.5-0.4,2.2-0.6c0.4-0.1,0.7-0.1,1.1-0.2c0.1,0,0.1,0,0.2,0c0.2,0,0.3,0,0.2-0.2
				C12.9,0.2,12.9,0.1,13.1,0.2z"/>
			<path class="st4" d="M8.7,1.6C8.7,1.9,8.5,2,8.3,2C7.5,2.2,6.6,2.4,5.8,2.7c0,0-0.1,0-0.1,0.1c0,0.1-0.1,0.1-0.2,0.1
				C4.9,2.9,4.3,3.1,3.7,3.3C3.2,3.4,2.6,3.6,2,3.7c-0.1,0-0.2,0-0.3,0c-0.2,0-0.4,0-0.6,0c0.2-0.3-0.1-0.3-0.2-0.4
				c0.2-0.1,0.4-0.1,0.5-0.2c0.5,0,0.9-0.2,1.4-0.3c0.3-0.1,0.6-0.2,0.9-0.2c0.1,0,0.1,0,0.2,0.1c0,0.1-0.1,0.1-0.2,0.1
				C3.1,2.8,2.5,3.1,1.9,3.2c-0.1,0-0.2,0-0.2,0.1c-0.1,0-0.2,0-0.2,0.2c0,0.1,0.2,0,0.2,0C3.6,3,5.5,2.5,7.3,2
				c0.3-0.1,0.7-0.2,1-0.3C8.5,1.6,8.6,1.6,8.7,1.6z"/>
			<path class="st5" d="M16.8,3c0.4,0.3,0.8,0.6,1.2,0.9c0.1,0.1,0.3,0.3,0.4,0.4c-0.1,0.1-0.3,0-0.4,0c-0.2-0.1-0.4-0.2-0.5-0.3
				c-0.4-0.2-0.7-0.6-1.1-0.8c-0.4-0.3-0.8-0.6-1.2-0.9c-0.4-0.3-0.8-0.6-1.2-0.9c-0.2-0.2-0.4-0.1-0.6,0c-0.1,0.1-0.3,0.1-0.4,0.2
				c0,0-0.1,0-0.1,0c-0.2,0-0.2-0.1-0.1-0.2c0-0.1,0.1-0.1,0.2-0.2c0.2-0.2,0.4-0.4,0.7-0.4c0,0,0,0-0.1-0.1c0,0,0-0.1,0-0.1
				c0.3,0.1,0.6,0.4,0.8,0.6C15.1,1.7,15.9,2.3,16.8,3z"/>
			<path class="st6" d="M24.4,8.8c0.2,0,0.2,0.2,0.4,0.3c0.1,0.1,0.2,0.1,0.2,0.2c0.1,0.1,0.1,0.1,0.2,0.2c0,0,0,0,0,0
				c-0.3,0.2-0.3,0.5-0.4,0.7c0,0,0,0-0.1,0c-0.1-0.2,0-0.3-0.1-0.5c0-0.3,0-0.3-0.3-0.2c-0.1,0.1-0.2,0-0.3,0
				c-0.1-0.1-0.2-0.2-0.3-0.3c-0.2-0.1-0.3-0.2-0.5-0.4c-0.1-0.1-0.2-0.1-0.1-0.2c0.2-0.1,0.4,0,0.6,0.1C24,8.8,24.2,9,24.4,9.1
				C24.5,9,24.4,8.9,24.4,8.8z"/>
			<path class="st7" d="M13.1,0.2c-0.1,0-0.2,0.1-0.2,0.2c0.1,0.1,0,0.2-0.1,0.3c-0.1,0.1-0.2,0-0.3,0c0,0,0,0-0.1,0
				c0-0.3,0-0.3-0.2-0.2c-0.1,0-0.3,0.1-0.4,0.1c-0.1,0-0.2,0-0.2-0.1c0.3-0.1,0.6-0.1,0.8-0.3C12.7,0.2,12.9,0.1,13.1,0.2z"/>
			<path class="st2" d="M1.2,15.9C1.1,16,1,15.9,0.8,15.9c0-0.3-0.1-0.6-0.1-0.9c0-1.4,0-2.7,0-4.1c0-0.6,0-1.1,0-1.7
				c0-0.1,0-0.2,0.1-0.2C0.9,8.9,1,8.9,1.1,9c0,0.1,0.1,0.2,0.2,0.2c0.1,0.1,0.2,0.1,0.3,0.1c0.1,0,0.1-0.1,0.1-0.2
				c0-0.3,0-0.7,0.1-1c0-0.2,0.1-0.3,0.2-0.4C2,7.4,2.2,7.3,2.4,7.4c0.2,0.1,0.5,0.2,0.7,0.3C3.4,8,3.6,7.9,3.8,7.6
				c0-0.1,0.1-0.2,0.2-0.1c0.1,0,0.1,0.1,0.1,0.2c0.1,0.4,0.2,0.7,0.3,1c0.1,0.1,0,0.2,0,0.3c0,1.8-0.1,3.6,0,5.4
				c0.1,0.1,0.1,0.2,0.1,0.3c-0.1,0.3-0.2,0.4-0.5,0.4c-0.7,0-1.5,0-2.2,0c0,0.1,0.1,0.1,0.1,0.1c0.5,0.3,1,0.8,1.4,1.1
				c0.1,0.1,0.3,0.2,0.1,0.4c-0.1,0-0.2,0-0.3-0.1c0,0,0,0-0.1,0c-0.4-0.3-0.8-0.6-1.3-0.9C1.5,15.8,1.3,15.7,1.2,15.9z"/>
			<path class="st8" d="M7.9,5.4c0-0.1,0.1,0,0.1-0.1c-0.2-0.1-0.4,0-0.5,0C6.7,5.5,5.8,5.6,4.9,5.8C4.5,5.9,4.3,6.1,4,6.3
				C4.1,6,4.3,5.9,4.6,5.7c0.3-0.1,0.6-0.1,0.9-0.2c-0.1-0.1-0.2,0-0.2,0c0,0,0,0,0,0c0,0,0,0,0.1-0.1c0.2-0.1,0.4,0,0.6-0.1
				C6.6,5.2,7.4,5,8.2,4.9c1.1-0.2,2.2-0.5,3.4-0.8C11.8,4.1,12,4,12.2,4c0.1,0,0.2,0,0.2,0.1c0,0.1-0.1,0.1-0.2,0.1
				c-0.4,0.2-0.9,0.3-1.4,0.4C10,4.9,9.1,5.2,8.3,5.4C8.2,5.4,8,5.5,7.9,5.4z"/>
			<path class="st9" d="M7.9,5.4C8.5,5.3,9,5.1,9.5,5c0.9-0.2,1.8-0.5,2.7-0.8c0,0,0.1,0,0.2,0c0,0.2-0.2,0.2-0.3,0.3
				c-0.9,0.3-1.8,0.6-2.8,0.8C8.2,5.7,7,6,5.8,6.3C5.6,6.4,5.4,6.5,5.2,6.6c0,0-0.1,0-0.1,0C5,6.3,5.2,6.2,5.4,6.1
				C5.8,6,6.2,5.9,6.6,5.8c0.1,0,0.2,0,0.3-0.1c0.2-0.1,0.4-0.1,0.6-0.2C7.6,5.5,7.8,5.4,7.9,5.4z"/>
			<path class="st10" d="M5.4,6.1C5.3,6.2,5.2,6.4,5.1,6.5C4.9,6.8,5,7,5,7.3c0,0.7,0,1.4,0,2.1c0,0.4-0.3,0.7-0.3,1.1
				c0,0.1,0,0.2,0,0.3c-0.1,0.3-0.1,0.6-0.1,0.9c0.1,0.3,0,0.7,0,1c0,0.5,0,1.1,0,1.6c0,0.1,0,0.2,0,0.3c0,0,0,0.1-0.1,0.1
				c0,0-0.1,0-0.1,0c0-0.1,0-0.2,0-0.3c0.1-0.1,0.1-0.2,0.1-0.3c0-0.9,0-1.7,0-2.6c0-0.6,0.1-1.2,0.1-1.8c0-0.6,0-1.2,0-1.7
				c0-0.3,0-0.6,0-0.9C4.5,6.4,4.7,6.2,5.4,6.1z"/>
			<path class="st11" d="M1,6.4c-0.2,0-0.2,0-0.3,0.2c0.1-0.7,0-1.4,0-2.2c0.1,0,0.2,0.1,0.3,0c0-0.1,0.1-0.1,0.1-0.2
				c0-0.1-0.1-0.1-0.2,0C0.7,4.2,0.7,4.1,0.7,4c0-0.1,0-0.1,0-0.2c0-0.3,0.1-0.2,0.2-0.1c0,0,0.1,0.1,0.1,0.1C1.1,4,0.9,3.9,0.8,4
				c0.1,0.1,0.2,0,0.3,0c0.1,0,0.3,0,0.4,0c0.1,0,0.2,0,0.2,0.2C1.6,4.4,1.7,4.6,1.8,4.7c0.1,0.1,0,0.2-0.2,0.2c-0.1,0-0.2,0-0.3,0
				C1.2,5,1.1,5,1,5C0.9,5,0.8,5.1,0.8,5.2c0,0.2,0,0.3,0,0.5C0.8,5.9,0.8,6.2,1,6.4z"/>
			<path class="st12" d="M1,6.4C0.8,6.4,0.7,6.2,0.7,6c0-0.3,0-0.6,0-0.9c0.3-0.1,0.3-0.1,0.5,0.2c0.1,0.1,0.2,0.1,0.2,0.2
				c0,0.1,0,0.1,0,0.2c0,0.3-0.1,0.6-0.2,0.9c0,0.1,0,0.1-0.1,0.1c-0.1,0-0.1-0.1-0.1-0.1C1,6.5,1,6.5,1,6.4z"/>
			<path class="st13" d="M1.4,5.7c0-0.1,0-0.1,0.1-0.2c0-0.3,0.1-0.4,0.3-0.4c0.8,0,1.6-0.1,2.4,0c0.3,0,0.7,0.1,1,0.2
				c0,0,0,0,0,0.1c-1,0-1.9-0.1-2.9-0.1C2,5.4,1.6,5.4,1.4,5.7z"/>
			<path class="st14" d="M1.2,4.1c-0.1,0-0.2,0-0.3,0c-0.1,0-0.1,0-0.1-0.1c0-0.1,0-0.1,0.1-0.2c0.1,0,0.2,0,0.3-0.1
				c0,0,0,0,0.1-0.1c0.2-0.2,0.4,0,0.5,0c0.1,0.1,0.2,0,0.3,0C2.9,3.5,3.7,3.2,4.6,3c0.3-0.1,0.6-0.1,0.8-0.2c0.1,0,0.1,0,0.2-0.1
				c0.1,0,0.2,0,0.3,0c0,0,0,0.1,0,0.1C5.6,3,5.1,3.1,4.7,3.1C3.9,3.3,3.1,3.6,2.3,3.8c-0.2,0.1-0.4,0.1-0.7,0c-0.1,0-0.2,0-0.2,0.1
				C1.3,4,1.3,4.1,1.2,4.1z"/>
			<path class="st8" d="M7.5,5.5C7.3,5.6,7.1,5.7,6.9,5.7C7.1,5.5,7.3,5.5,7.5,5.5z"/>
			<path class="st15" d="M17.1,23.9c-0.2,0.1-0.4,0.1-0.6,0.2c-0.4,0-0.7,0.1-1,0.2c-0.3,0-0.6,0.1-0.9,0.1c-0.2,0-0.3-0.1-0.5-0.2
				c-0.3-0.3-0.8-0.4-1.2-0.2c-0.1,0.1-0.1,0.3-0.2,0.3c-0.3-0.1-0.5-0.4-0.7-0.6c-0.5-0.5-1.1-0.9-1.6-1.3
				c-0.1-0.1-0.2-0.1-0.2-0.3c0.1-0.1,0.3,0,0.4,0c0.3,0.1,0.6,0.2,0.9,0.2c0.2,0,0.4,0,0.5-0.2c0-0.1,0.1-0.1,0.2-0.1
				c0.3,0,0.6,0.1,0.8,0.1c0.1,0.1,0.2,0.2,0.4,0.1c0.5-0.1,0.9-0.3,1.4-0.4c0.1,0,0.1-0.1,0-0.1c0-0.1,0.1-0.1,0.2-0.1
				c0.5-0.1,0.9-0.4,1.4-0.4c0.2,0,0.3-0.1,0.5-0.1c0,0,0.1,0,0.1,0c0.1,0,0.1,0,0.2,0.1c0,0.1-0.1,0.1-0.1,0.2
				c-0.2,0.1-0.5,0.2-0.7,0.3c-0.5,0.2-1,0.4-1.5,0.7c-0.1,0-0.2,0.1-0.2,0.1c0,0.1,0.1,0.1,0.2,0.1c0.4,0.2,0.4,0.2,0.8-0.2
				c0.3-0.3,0.7-0.3,1,0.1c0,0,0.1,0.1,0.1,0.2c0.4,0.6,0.6,0.7,1.2,0.6c0.2,0,0.3-0.1,0.5,0.1c0,0.1-0.2,0.1-0.3,0.1
				c-0.4,0.1-0.9,0.1-1.3,0.2c-0.1,0-0.2,0-0.2,0.2c0,0.1-0.1,0.2-0.2,0.2c-0.1,0-0.2,0.1-0.3,0.2c0.1,0.1,0.2,0,0.3,0
				c0.5-0.1,0.9-0.2,1.4-0.3c0.1,0,0.3-0.1,0.2,0.1l0,0C17.6,23.7,17.4,23.8,17.1,23.9z"/>
			<path class="st16" d="M25.2,18.7c0,0.2,0,0.4,0,0.5c-0.1,0-0.2-0.2-0.3-0.1c-0.1,0.1-0.1,0.2-0.1,0.3c0.1,0.6,0.1,1.2,0.2,1.9
				c0.1,0.3-0.1,0.6-0.5,0.7c-0.5,0.2-1,0.3-1.5,0.4c-1.1,0.3-2.1,0.6-3.2,0.8c-0.3,0.1-0.6,0.2-0.9,0.2c0-0.2,0.2-0.1,0.3-0.2
				c0.9-0.2,1.8-0.5,2.8-0.8c0.5-0.2,1-0.2,1.5-0.4c0.2-0.1,0.4-0.1,0.6-0.2c0,0,0.1,0,0.1-0.1c0.1,0,0.1,0,0.2,0
				c0.4,0,0.4,0,0.4-0.4c0.1-0.6,0-1.2-0.1-1.8c0-0.3,0-0.5,0-0.8c0-0.1,0-0.1,0-0.2c0.1-0.4,0.1-0.8,0.1-1.2c0-1,0-1.9,0-2.9
				c0-0.1,0-0.2,0-0.3c0,1,0,2.1,0,3.1c0,0.1,0.1,0.2-0.1,0.3c-0.1-0.1-0.1-0.2-0.1-0.3c0-1.2,0-2.4,0-3.6c0-0.1,0-0.1,0-0.2
				c0,0,0-0.1,0.1-0.1c0.1,0,0.2,0.1,0.2,0.2c0,0.2,0.1,0.4,0.1,0.6c0.1,1.4,0.1,2.7,0,4.1C25.1,18.6,25,18.7,25.2,18.7z"/>
			<path class="st17" d="M12.7,24.1C12.7,24.1,12.7,24.1,12.7,24.1c0.1-0.4,0.5-0.5,0.7-0.5c0.3,0,0.6,0,0.8,0.3
				c0.2,0.3,0.5,0.2,0.8,0.2c0.4,0,0.9-0.2,1.3-0.2c0.1,0,0.2-0.1,0.1,0.1c-0.3,0.1-0.5,0.1-0.8,0.2c-0.8,0.2-1.5,0.3-2.3,0.4
				c0,0-0.1,0-0.1,0c-0.1-0.2-0.1-0.2-0.3-0.2C12.7,24.5,12.6,24.4,12.7,24.1z"/>
			<path class="st18" d="M19.2,23.3c-0.1,0-0.2,0.1-0.3,0.1c-0.1,0-0.1,0-0.2,0.1c-0.2,0-0.3,0-0.5,0.1c-0.1,0.1-0.2,0.1-0.3,0.1
				c0-0.1-0.1-0.1-0.2-0.1c-0.5,0.1-1,0.2-1.4,0.3c0,0-0.1,0-0.1,0c-0.1,0-0.2,0-0.3-0.1c0-0.1,0.1-0.2,0.2-0.2
				c0.2-0.1,0.4,0,0.4-0.4c0-0.1,0.1-0.1,0.1-0.1c0.5,0,1.1-0.1,1.6-0.2c0,0,0.1,0,0.1,0c0.3-0.2,0.7-0.2,1-0.3
				c0.2-0.1,0.5-0.2,0.7-0.1c0,0,0,0,0,0.1c-0.2,0.3-0.6,0.2-0.9,0.3c-0.5,0.1-1,0.3-1.5,0.5c0.3,0,0.6-0.1,0.9-0.2
				c0.1,0,0.2-0.1,0.3-0.1C19.1,23.2,19.2,23.2,19.2,23.3z"/>
			<path class="st19" d="M12.7,24.1c0,0.2,0.1,0.3,0.4,0.3c0.1,0,0.3,0,0.4,0c-0.1,0.1-0.2,0.1-0.3,0.2c-0.2,0.2-0.5,0.1-0.7,0.1
				c0,0,0,0-0.1,0c0,0-0.1-0.1-0.1-0.1c0-0.5-0.4-0.7-0.7-1c-0.1-0.1-0.3-0.3-0.4-0.4c0,0,0,0-0.1,0c-0.1-0.1-0.2-0.2-0.3-0.3
				c-0.3-0.3-0.7-0.6-1.1-0.9c-0.1-0.1-0.3-0.1-0.3-0.3c0-0.1,0.1-0.1,0.1-0.1c0.2,0.1,0.4,0.3,0.6,0.4c0.3,0.3,0.7,0.6,1,0.9
				C11.8,23.3,12.3,23.6,12.7,24.1z"/>
			<path class="st18" d="M9.6,21.7c0.1,0.1,0.2,0.2,0.3,0.3c-0.3,0.1-0.6,0-0.9-0.2c-0.2-0.1-0.3-0.3-0.5-0.4
				c-0.1,0-0.2-0.1-0.3-0.1c-0.4-0.4-1-0.7-1.4-1.1c-0.2-0.2-0.4-0.3-0.6-0.5c0,0,0.1,0,0.1,0c0.2,0.1,0.4,0.3,0.6,0.4
				c0.3,0.2,0.6,0.5,1,0.7c0.2,0.1,0.5,0.1,0.7,0.1C8.9,21,9.2,21.3,9.6,21.7z"/>
			<path class="st20" d="M8.4,21.4c0.2,0.1,0.4,0.2,0.6,0.4c0.3,0.2,0.6,0.2,0.9,0.2c0.4,0.3,0.7,0.6,1.1,0.9c0,0,0,0.1,0,0.1
				c-0.2,0.2-0.3,0.1-0.5,0c-0.2-0.1-0.4-0.3-0.6-0.4C9.3,22.1,8.8,21.8,8.4,21.4z"/>
			<path class="st21" d="M9.8,22.5c0.3,0.1,0.4,0.3,0.7,0.4c0.2,0.1,0.3,0.1,0.5,0c0.2,0,0.2,0.2,0.3,0.2h0c0.3,0.2,0.5,0.5,0.7,0.7
				c0.2,0.2,0.3,0.5,0.3,0.8c-0.2,0-0.3-0.1-0.3-0.4c0-0.2-0.3-0.3-0.4-0.4C11,23.3,10.3,23,9.8,22.5z"/>
			<path class="st19" d="M12.5,24.7c0.2,0.1,0.5,0,0.7-0.1c0.8-0.1,1.7-0.2,2.5-0.4c-0.5,0.2-1,0.2-1.4,0.4
				c-0.2,0.1-0.5,0.1-0.7,0.2C13.2,24.9,12.8,24.9,12.5,24.7z"/>
			<path class="st22" d="M12.3,24.6C12.3,24.5,12.3,24.5,12.3,24.6c-0.1-0.7-0.6-1-1-1.4c0,0,0-0.1-0.1-0.1c0.3,0.2,0.6,0.5,0.8,0.7
				c0.2,0.2,0.4,0.5,0.4,0.9C12.4,24.6,12.4,24.6,12.3,24.6z"/>
			<path class="st18" d="M17.1,23.9c0.2-0.1,0.5-0.2,0.8-0.2C17.7,23.8,17.4,23.8,17.1,23.9z"/>
			<path class="st23" d="M18.2,23.6c0.1-0.1,0.3-0.1,0.5-0.1C18.5,23.6,18.3,23.6,18.2,23.6z"/>
			<path class="st24" d="M5.5,19.2c-0.9-0.7-1.8-1.3-2.7-2c0,0,0,0,0,0c0.1,0,0.2,0.1,0.3,0.1c0.2,0.1,0.3,0.3,0.5,0.4
				c0.3,0.2,0.6,0.5,0.9,0.7c0.3,0.3,0.6,0.4,0.9,0.7c0.1,0.1,0.2,0.1,0.2,0.2C5.6,19.3,5.5,19.3,5.5,19.2z"/>
			<path class="st25" d="M5.5,19.2c0,0,0.1,0,0.1,0c0,0,0,0,0.1,0c0.1,0.2,0.4,0.2,0.5,0.4c0,0-0.1,0-0.1,0
				C5.9,19.5,5.7,19.4,5.5,19.2z"/>
			<path class="st26" d="M19.6,5.2c0.3,0.2,0.6,0.3,0.8,0.6c0.2,0.3,0.5,0.6,0.8,0.9c0.3,0.2,0.6,0.4,0.9,0.7c0,0,0,0,0,0.1
				c-0.1,0-0.2,0-0.2-0.1C21.5,7.1,21,7,20.6,6.7c-0.1-0.1-0.3-0.1-0.4-0.1C19.7,6.5,19.4,6.2,19,6c-0.1,0-0.1-0.1-0.1-0.2
				c0.1-0.2,0.3-0.1,0.5-0.1c0.1,0.1,0.3,0.2,0.4,0.2c0.1,0,0.1,0.1,0.2,0.1c0.1,0,0.1,0,0.2,0C19.9,5.9,19.7,5.6,19.6,5.2
				C19.5,5.3,19.5,5.2,19.6,5.2z"/>
			<path class="st27" d="M22.1,7.4c-0.4-0.3-0.8-0.6-1.2-0.9c-0.2-0.2-0.3-0.5-0.5-0.6c0,0,0,0,0.1,0c0.7,0.5,1.3,1,2,1.5
				c0.4,0.3,0.8,0.6,1.2,0.9c0.1,0,0.1,0.1,0,0.1c-0.1,0-0.1,0-0.2,0C23,8,22.5,7.8,22.1,7.4z"/>
			<path class="st28" d="M19.6,5.2c0,0-0.1,0.1-0.1,0.1c-0.1,0-0.2,0-0.3-0.1c-0.2-0.2-0.3-0.3-0.5-0.4c-0.3-0.2-0.6-0.3-0.9-0.2
				c-0.1,0-0.2-0.1-0.3-0.2c0,0,0-0.1,0-0.1c0.1-0.1,0.3-0.2,0.4-0.3c0.1,0,0.2,0.1,0.4,0.1c0.3,0.2,0.6,0.5,0.9,0.7
				C19.4,5,19.5,5.1,19.6,5.2z"/>
			<path class="st29" d="M22.1,7.4c0.1,0,0.2,0.1,0.3,0.1c0.3,0.2,0.7,0.5,1,0.7c0,0,0.1,0.2,0.2,0c0.3,0.1,0.5,0.4,0.8,0.6
				c0,0.2,0,0.2-0.2,0.1c-0.2-0.1-0.3-0.2-0.5-0.3c-0.4-0.2-0.8-0.5-1.2-0.8C22.4,7.7,22.1,7.7,22.1,7.4L22.1,7.4z"/>
			<path class="st30" d="M23.7,8.6c0.2,0,0.3,0.2,0.5,0.3C24.3,9,24.3,9,24.4,8.8c0,0,0,0,0,0c0,0,0.1,0.1,0.1,0.1
				c0,0,0.1,0.1,0,0.1c-0.1,0-0.1,0.1-0.2,0c-0.2-0.1-0.4-0.3-0.5-0.4C23.7,8.7,23.7,8.7,23.7,8.6z"/>
			<path class="st31" d="M11.7,0.4c0.1,0,0.2,0,0.2,0.1c0,0.1-0.1,0.1-0.2,0.1c-0.8,0.3-1.6,0.5-2.4,0.7C8.9,1.3,8.5,1.5,8.1,1.6
				C6.9,2,5.6,2.2,4.3,2.6c-0.1,0-0.3,0.1-0.4,0c-0.1,0-0.1,0-0.2-0.1c0.8-0.2,1.5-0.4,2.3-0.6C7.4,1.6,8.7,1.2,10,0.9
				C10.5,0.7,11.1,0.6,11.7,0.4z"/>
			<path class="st32" d="M3.9,2.6c0.9-0.2,1.9-0.5,2.8-0.7c1.3-0.3,2.5-0.7,3.8-1c0.5-0.1,0.9-0.3,1.4-0.4c0.2,0,0.3-0.1,0.5-0.1
				c0.1,0,0.2-0.1,0.3,0c0.1,0.1-0.1,0.2-0.1,0.3c0,0.1-0.1,0.1-0.2,0.1c-0.9,0.1-1.7,0.4-2.5,0.6C9.5,1.4,9.1,1.5,8.7,1.6
				C7.4,2,6,2.4,4.6,2.8c-1,0.3-2,0.5-2.9,0.8c-0.1,0-0.2,0-0.2,0c-0.1,0-0.1,0-0.1-0.1c0-0.1,0.1-0.1,0.1-0.2
				c0.2-0.1,0.4-0.2,0.7-0.2C2.7,2.9,3.3,2.8,3.9,2.6z"/>
			<path class="st33" d="M6,2.8C6,2.7,6,2.7,6,2.8c0.8-0.3,1.5-0.5,2.3-0.6c0,0,0,0,0,0c0,0,0,0,0,0c-0.1,0-0.1,0-0.2,0.1
				C7.5,2.5,6.9,2.6,6.2,2.8C6.1,2.8,6,2.8,6,2.8z"/>
			<path class="st34" d="M8.3,2.2C8.3,2.2,8.3,2.1,8.3,2.2c0.5-0.2,1-0.4,1.5-0.4c0,0,0,0,0,0c0,0,0,0,0,0C9.3,1.9,8.8,2,8.3,2.2z"
				/>
			<path class="st35" d="M11.8,1.2c-0.4,0.2-0.9,0.3-1.3,0.4C10.9,1.4,11.3,1.3,11.8,1.2z"/>
			<path class="st35" d="M9.8,1.8C9.8,1.8,9.8,1.8,9.8,1.8c0.2-0.1,0.4-0.2,0.6-0.2C10.2,1.7,10,1.7,9.8,1.8z"/>
			<path class="st3" d="M5.5,2.8C5.1,3,4.8,3,4.4,3.1C3.6,3.3,2.8,3.5,2,3.7c-0.1,0-0.2,0.1-0.3-0.1c0.5,0,0.9-0.2,1.3-0.3
				C3.8,3.2,4.5,3,5.3,2.8C5.3,2.8,5.4,2.8,5.5,2.8z"/>
			<path class="st36" d="M15.2,2.1C15.7,2.4,16,2.7,16.4,3c0.1,0.2,0.3,0.4,0.5,0.6c0.1,0.1,0.1,0.2,0.1,0.2C16.9,4,16.8,4,16.7,4
				c-0.6-0.2-1.3-0.1-1.9-0.1c-0.4,0-0.7-0.2-1-0.3c-0.2-0.1-0.3-0.1-0.5-0.1c0,0-0.1,0-0.1,0c-0.6-0.1-1.2,0-1.7,0.2
				c-0.3,0.1-0.5,0.1-0.8,0.2c-0.1,0-0.2,0-0.3,0c-0.1-0.1,0-0.1,0-0.1c0.1,0,0.1,0,0.2-0.1C11,3.4,11.5,3.3,12,3.2
				c0.6-0.1,1.2-0.1,1.8,0c0.3,0.1,0.5,0.1,0.8,0.1c0.5,0,1-0.1,1.6,0c-0.1-0.2-0.2-0.3-0.3-0.4c-0.3-0.3-0.7-0.6-1.1-0.8
				c-0.2-0.2-0.5-0.3-0.7-0.5c0,0,0-0.1,0-0.1c0.2,0,0.4,0.1,0.5,0.2C14.8,1.9,15,2,15.2,2.1z"/>
			<path class="st37" d="M13.2,3.4c0.3,0,0.6,0.1,0.9,0.2c0.3,0.1,0.6,0.2,0.9,0.2c0.6,0,1.1-0.1,1.7,0.1c0.1,0,0.2,0,0.2,0
				c0-0.1,0-0.1-0.1-0.2c-0.2-0.2-0.4-0.3-0.4-0.6c0.2,0.1,0.3,0.2,0.4,0.3c0.2,0.2,0.5,0.4,0.7,0.5c0.2,0.1,0.2,0.3,0.1,0.4
				c-0.1,0.2-0.2,0.1-0.3,0.1c-0.5-0.1-1.1-0.1-1.6-0.1c-0.5,0-0.9-0.1-1.4-0.3c-0.3-0.1-0.6-0.3-0.9-0.4
				C13.3,3.5,13.2,3.5,13.2,3.4z"/>
			<path class="st38" d="M13.2,3.4c0.7,0.2,1.2,0.6,1.9,0.8c0.3,0.1,0.5,0,0.8,0c0.5,0,0.9,0,1.4,0.1c0.1,0,0.2,0,0.2-0.1
				c0-0.1,0-0.2-0.1-0.3C17.7,3.9,17.8,4,18,4.2c0,0.2-0.2,0.2-0.4,0.3c-0.5,0-1,0.1-1.5,0c-0.2,0-0.4,0-0.6,0c-0.2,0-0.4,0-0.7-0.1
				c-0.1,0-0.1,0-0.2,0c-0.1-0.1-0.3-0.2-0.4-0.3c-0.4-0.2-0.8-0.5-1.3-0.6c0,0-0.1,0-0.1-0.1C13,3.3,13.1,3.3,13.2,3.4L13.2,3.4z"
				/>
			<path class="st39" d="M10.1,1.8c0.9-0.3,1.9-0.4,2.8-0.7c-0.1,0.1-0.1,0.1-0.2,0.2c-0.1,0.1,0,0.2,0.1,0.2c0,0,0,0.1,0,0.1
				c0,0-0.1,0-0.1,0c-0.3,0-0.6,0.1-1,0.2c-0.1,0-0.2,0-0.3,0c-0.1-0.1-0.2-0.1-0.3-0.1c-0.7,0.2-1.5,0.4-2.2,0.6
				C8.6,2.4,8.1,2.5,7.7,2.6c-0.1,0-0.2,0-0.3,0c0.2-0.2,0.4-0.2,0.7-0.3c0,0,0.1,0,0.2,0C8.5,2.3,8.8,2.2,9,2.1
				C9.2,2.1,9.4,2,9.5,2C9.6,2,9.7,2,9.7,2C9.9,1.9,10,1.9,10.1,1.8z"/>
			<path class="st40" d="M12.9,1.5C12.9,1.5,12.9,1.5,12.9,1.5C12.9,1.5,12.9,1.5,12.9,1.5c0.1-0.1,0.3-0.2,0.4-0.3
				c0.3-0.2,0.5-0.2,0.8,0c0.4,0.3,0.8,0.5,1.1,0.8c-0.2,0-0.3-0.1-0.4-0.2c-0.2-0.2-0.4-0.2-0.6-0.3c-0.3-0.2-0.7-0.3-1,0
				C13.1,1.6,13,1.6,12.9,1.5z"/>
			<path class="st39" d="M13.3,1.3c-0.1,0.1-0.2,0.2-0.4,0.2C13,1.4,13.1,1.3,13.3,1.3z"/>
			<path class="st2" d="M25.1,9.8c0,0.5,0,1,0,1.6c-0.2-0.1-0.2-0.3-0.3-0.4c0,0.2,0,0.5,0,0.7c0,0.2,0,0.3,0.3,0.3c0,0,0,0.1,0,0.1
				c-0.1,0.1-0.3,0.2-0.4,0c-0.1-0.6,0-1.2,0-1.8c0.1-0.1,0.1-0.3,0.2-0.4C25,9.9,25,9.8,25.1,9.8z"/>
			<path class="st35" d="M10.1,1.8C10,1.9,9.9,2,9.7,2C9.9,1.9,10,1.8,10.1,1.8z"/>
			<path class="st35" d="M9.5,2C9.4,2.1,9.2,2.1,9,2.1C9.2,2,9.3,2,9.5,2z"/>
			<path class="st2" d="M23.8,9.1C23.9,9.2,24,9.2,24,9.3c0.1,0.2,0.2,0.3,0.4,0.1c0.1-0.1,0.2,0,0.2,0.2c0,0.2,0,0.4,0,0.7
				c0,0.5,0,1.1,0,1.6c0,0.2,0,0.4,0,0.6c0,0.8,0,1.6,0,2.4c-0.2,0.2-0.4,0.3-0.5,0.5c-0.1,0.1-0.4,0.1-0.5,0
				c-0.3-0.4-0.7-0.2-1-0.1c-0.3,0.1-0.5,0.2-0.8,0.1c-0.2,0-0.3,0-0.4,0.2c-0.2,0.2-0.2,0.2-0.4,0c0-0.1-0.1-0.1-0.1-0.2
				c0-0.6,0-1.1,0-1.7c0-0.9,0-1.9,0-2.8c0.1-0.2,0.3-0.2,0.4-0.2c0.1,0,0.2,0.1,0.3,0c-0.2-0.3,0.1-0.5,0.3-0.7
				c0.2-0.2,0.4-0.2,0.7,0c0.2,0.1,0.4,0.1,0.7,0.2c0.1,0,0.1,0,0.2,0c0.2-0.1,0.4-0.6,0.3-0.8C23.8,9.3,23.7,9.2,23.8,9.1z"/>
			<path class="st41" d="M23.8,9.1c0,0,0,0.1,0,0.1c0.3,0.4,0,0.7-0.2,1c-0.1,0.1-0.2,0.2-0.3,0.1c-0.3-0.1-0.5-0.1-0.8-0.3
				c-0.3-0.2-0.8,0.1-0.9,0.4c0,0.1,0,0.1,0.1,0.1c0,0.1,0.1,0.1,0.1,0.2c-0.1,0.1-0.2,0.1-0.2,0c-0.2-0.1-0.4-0.1-0.5,0
				c0-0.1,0.1-0.2,0.1-0.3c0-0.2,0.1-0.4,0.4-0.5c0.1-0.1,0.1-0.2,0.1-0.3c-0.1-0.2-0.2-0.4-0.4-0.5c-0.4-0.3-0.7-0.7-1-1
				C20.1,8.2,20,8.1,20,8c0.1-0.1,0.2-0.1,0.3-0.1c0.1,0,0.2,0,0.4,0.1c0.8,0.4,1.5,0.8,2.2,1.3c0.1,0.1,0.3,0.2,0.4,0.2
				c0.1,0,0.1,0,0.1,0c0,0,0-0.1,0-0.1c-0.1-0.1-0.2-0.2-0.4-0.4c-0.6-0.4-1.2-0.9-1.7-1.3c-0.1-0.1-0.3-0.1-0.1-0.3
				c0.1,0,0.2,0.1,0.3,0.1c0.5,0.4,1.1,0.7,1.6,1.1C23.3,8.8,23.6,8.9,23.8,9.1z"/>
			<path class="st42" d="M23.2,8.6c-0.4-0.2-0.8-0.5-1.2-0.7c-0.2-0.1-0.3-0.2-0.4-0.3c0-0.2,0.2-0.2,0.3-0.1
				c0.2,0.1,0.5,0.2,0.7,0.4c0.4,0.3,0.8,0.5,1.2,0.8c0,0,0,0.1,0.1,0.1C23.6,8.7,23.4,8.5,23.2,8.6z"/>
			<path class="st43" d="M24.7,14.9c0-0.8,0-1.7,0-2.5c-0.1-0.2,0-0.4,0-0.6c0-0.4,0-0.9,0-1.3c0-0.1,0.1-0.2,0.1-0.3c0,0,0,0,0,0
				c0,0,0,0,0,0.1c0,0.6,0,1.2,0,1.9c0,0.1,0,0.1,0,0.2c0,0.4,0,0.9,0,1.3c0,0,0,0,0,0c-0.1,0.1,0,0.2,0,0.3c0,1,0,2,0,3.1
				c0,0,0,0-0.1,0c-0.1-0.2-0.1-0.5-0.1-0.7c0-0.3,0-0.7,0-1C24.6,15.1,24.6,15,24.7,14.9z"/>
			<path class="st44" d="M3.6,17.7c-0.3-0.2-0.5-0.4-0.8-0.6c-0.1-0.2-0.3-0.3-0.5-0.4c-0.1-0.1-0.2-0.1-0.2-0.2
				c0.3,0.1,0.6-0.1,0.9,0.2c0,0,0,0,0.1,0c0.1,0.1,0.3,0.2,0.4,0.2c0.5,0.3,1,0.6,1.5,0.9C5,17.9,5.1,18,5.2,18.1c0,0,0,0.1,0,0.1
				C5,18.2,4.8,18.1,4.7,18c-0.2-0.1-0.4-0.3-0.7-0.2C3.9,17.8,3.8,17.7,3.6,17.7z"/>
			<path class="st45" d="M3,16.7c-0.1-0.1-0.3-0.2-0.5-0.1c-0.1,0.1-0.3-0.1-0.4-0.1c-0.3-0.1-0.5-0.3-0.7-0.5
				c-0.1-0.1-0.1-0.1-0.3-0.1c0.1-0.2,0.2-0.2,0.4-0.2C2.1,16,2.6,16.3,3,16.7z"/>
			<path class="st32" d="M5.1,18.1C4.6,17.7,4,17.3,3.4,17c0-0.1-0.1-0.1-0.1-0.2c0.2-0.2,0-0.2-0.1-0.3c-0.5-0.4-1-0.8-1.5-1.2
				c0,0-0.1-0.1-0.1-0.1c0,0-0.1-0.1,0-0.1c0,0,0.1,0,0.1,0c0.7,0.1,1.5,0,2.2,0.1c0.3,0,0.4-0.1,0.5-0.3c0,0,0,0,0,0
				c0.1,0.2,0.3,0.4,0.5,0.5c0.1,0,0.2,0.1,0.3,0.2c0,0.1-0.1,0.1-0.2,0.1c-0.6,0.2-1.3,0.4-1.9,0.3c0,0-0.1,0-0.1,0c0,0,0,0-0.1,0
				c0.3,0.4,0.8,0.6,1.1,0.9c0.5,0.3,0.9,0.5,1.4,0.8c0.1,0,0.1,0.1,0.2,0.1c0.2,0,0.4-0.1,0.3-0.3c0-0.2-0.1-0.3-0.2-0.5
				c0-0.1-0.1-0.2,0-0.2c0.1-0.1,0.2,0,0.2,0c0.2,0.1,0.3,0.3,0.6,0.4c0.3,0.1,0.5,0.4,0.8,0.5c0,0,0.1,0,0.1,0.1
				c0.3,0.3,0.7,0.5,1.1,0.7c0.2,0.1,0.4,0.1,0.5,0.3c-0.1,0.1-0.2,0.1-0.4,0c-0.4-0.2-0.7-0.2-1.1-0.1c-0.7,0.1-1.3,0-1.9-0.4
				C5.5,18.1,5.3,18.1,5.1,18.1z"/>
			<path class="st46" d="M3.3,16.8c0,0.1,0.1,0.1,0.1,0.2c-0.2,0-0.3-0.2-0.4-0.3C3.2,16.7,3.2,16.8,3.3,16.8z"/>
			<path class="st12" d="M5.2,5.4c-0.3,0-0.6,0.1-0.9-0.1c-0.1,0-0.2,0-0.3,0c-0.7,0-1.4,0-2,0c-0.3,0-0.4,0.1-0.5,0.3
				c-0.2,0-0.3,0-0.3-0.2c0-0.2-0.1-0.2-0.3-0.2c-0.1,0-0.1,0-0.2,0c0-0.2,0-0.2,0.2-0.2c0.1,0,0.3-0.1,0.4-0.1c0.4,0,0.9,0,1.3,0
				c1.2,0,2.4-0.1,3.5,0c0.1,0,0.3,0,0.4,0C6.5,5,6.5,5,6.3,5C5.9,5,5.4,5,5,5C4.9,5,4.7,5,4.6,5.1C4.7,5.2,4.9,5.2,5,5.2
				c0.9,0.1,1.8-0.1,2.7-0.3c0.2,0,0.3-0.1,0.5,0C7.4,5.1,6.6,5.3,5.8,5.4C5.6,5.4,5.4,5.3,5.2,5.4L5.2,5.4z"/>
			<path class="st47" d="M8.2,4.9C7.6,5,7,5.1,6.4,5.2c-0.6,0.1-1.2,0.1-1.8,0c-0.1,0-0.2,0-0.2-0.1c0-0.1,0.1-0.1,0.2-0.1
				c0.5,0,1.1,0,1.6,0c0.1,0,0.2,0,0.3-0.1c0.2-0.1,0.4-0.1,0.5-0.1c0.6-0.1,1.2-0.2,1.8-0.3c0.1,0,0.1,0,0.2,0
				c0.1,0.1,0.2,0.1,0.3,0.1c0.6-0.1,1.2-0.3,1.8-0.4c0.1,0,0.2-0.1,0.3,0c0,0,0,0,0,0.1C10.4,4.4,9.3,4.7,8.2,4.9z"/>
			<path class="st48" d="M11.5,4.2C11.5,4.2,11.5,4.1,11.5,4.2c0.2-0.2,0.4-0.2,0.7-0.2c0.2,0,0.3,0.1,0.5,0c0.1-0.1,0.2-0.1,0.3,0
				c0.1,0.1,0.1,0.2,0,0.3c0,0,0,0-0.1,0c-0.2,0-0.3,0.1-0.5,0c-0.1,0-0.1,0-0.2,0c0-0.1,0.1,0,0.2-0.1C12.1,4.1,11.8,4.2,11.5,4.2z
				"/>
			<path class="st13" d="M5.2,5.4c0.2-0.1,0.4,0,0.6-0.1C5.6,5.5,5.4,5.4,5.2,5.4z"/>
			<path class="st49" d="M5.2,6.5C5.5,6.3,6,6.2,6.4,6.1C7.2,5.9,8,5.6,8.8,5.4c1.1-0.3,2.2-0.7,3.4-1c0,0.1,0.1,0.1,0,0.2
				c-0.3,0.2-0.7,0.2-1.1,0.3C10,5.4,8.8,5.7,7.7,6C7,6.1,6.3,6.4,5.5,6.5C5.4,6.5,5.3,6.6,5.2,6.5z"/>
			<path class="st50" d="M5.2,6.5c0.1,0,0.2,0,0.3-0.1C5.4,6.7,5.2,6.8,5.1,7.1C5.1,7.2,5,7.3,5,7.4c0,0.8,0,1.7,0,2.5
				c0,1,0,2,0.2,2.9c0,0.3,0,0.6,0,0.9c0,0.2,0,0.5,0.1,0.7c0,0,0,0.1,0,0.1c0,0-0.1,0.1-0.1,0.1c-0.1,0-0.1,0.1-0.2,0.1
				c-0.1,0-0.1,0-0.2-0.1c-0.1-0.5,0-0.9-0.1-1.4c0.1-0.4,0-0.8,0-1.1c0-0.4,0-0.7,0-1.1c0-0.3,0-0.5,0-0.8c0-0.3,0-0.5,0.1-0.8
				c0-0.9,0-1.7,0-2.6c0-0.2,0-0.3,0.2-0.4C5.1,6.5,5.2,6.5,5.2,6.5z"/>
			<path class="st51" d="M12.2,4.7c-0.1,0-0.1-0.1-0.1-0.2c0.1-0.1,0.1-0.2,0.3-0.3c0.2,0,0.4-0.1,0.5-0.1c0.1,0.1,0.1,0.3,0,0.4
				C12.7,4.6,12.5,4.8,12.2,4.7z"/>
			<path class="st52" d="M9,18.6c-0.2-0.1-0.4-0.2-0.5-0.3c-0.4-0.2-0.8-0.4-1.1-0.7c0,0,0,0-0.1-0.1c0-0.1,0-0.1,0.2-0.2
				c0-0.1-0.1-0.1-0.1-0.1c-0.4-0.3-0.9-0.7-1.3-1c-0.1-0.1-0.2-0.1-0.2-0.1c-0.3-0.2-0.6-0.4-0.8-0.7c-0.1-0.1-0.3-0.1-0.4-0.2
				c-0.2-0.1-0.4-0.2-0.3-0.5c0,0,0,0,0.1,0c0.2,0.2,0.4,0.4,0.7,0.4c0.9,0.5,1.7,1.2,2.5,1.9c0.2,0.1,0.2,0.4,0.4,0.5
				c0.2,0.2,0.5,0.4,0.7,0.6c0.3,0.2,0.5,0.5,0.8,0.7c0.1,0,0.2,0.1,0.1,0.2C9.5,19,9.3,18.8,9,18.6z"/>
			<path class="st53" d="M5.2,15.2c-0.3,0-0.6-0.1-0.7-0.4c0-0.7,0-1.3,0-2c0-0.3,0.1-0.7,0-1c0,0,0,0,0.1,0
				c0.1,0.1,0.3,0.2,0.3,0.3c0,0.4,0.1,0.8,0,1.1c-0.1-0.1-0.2-0.3-0.3-0.4c0,0.6,0,1.2,0,1.8C4.6,14.9,4.8,15,5,15
				C5.1,15,5.2,15.1,5.2,15.2z"/>
			<path class="st54" d="M4.6,11.8C4.5,11.8,4.5,11.8,4.6,11.8c-0.1-0.3,0-0.6,0-1c0-0.2,0.2-0.4,0.3-0.5c0.1,0.2,0,0.5,0,0.8
				c-0.3,0-0.3,0.2-0.3,0.4C4.6,11.6,4.6,11.7,4.6,11.8z"/>
			<path class="st55" d="M4.9,10.3c0,0.1,0,0.2-0.1,0.3c-0.1,0.1-0.1,0.2-0.2,0.3c0-0.3,0-0.7,0.2-0.9c0.1-0.1,0-0.3,0.1-0.4
				C4.9,9.8,4.9,10,4.9,10.3z"/>
			<path class="st56" d="M1.8,4.7C1.5,4.6,1.5,4.4,1.7,4.3C2,4,2.3,4,2.7,3.9c0.6-0.1,1.1-0.3,1.7-0.4c0.1,0,0.2-0.1,0.3,0
				c0,0.1,0,0.1-0.1,0.2c0.7,0,1.4,0.3,2.1,0.5c0.2,0.1,0.5,0.2,0.7,0.2c0.1,0,0.2,0,0.2,0.1C7.5,4.5,7.3,4.5,7.1,4.5
				c-0.6,0-1.2,0.1-1.8,0.1C4.4,4.7,3.5,4.7,2.6,4.8C2.3,4.8,2,4.9,1.8,4.7z"/>
			<path class="st57" d="M1.8,4.7c0.8,0.1,1.6-0.1,2.5-0.1c0.6,0,1.3-0.1,1.9-0.1c0.5,0,1,0,1.4-0.2C8,4.1,8.3,4.2,8.7,4.1
				c0.1,0,0.2,0,0.3,0.1c0,0.1-0.2,0.1-0.3,0.1C7.9,4.5,7.1,4.6,6.3,4.6C5.4,4.7,4.5,4.7,3.5,4.8c-0.1,0-0.2,0-0.2,0
				c0.4-0.1,0.9-0.1,1.4-0.1c1,0,2.1,0,3.1-0.2c0.7-0.1,1.5-0.3,2.2-0.5c0.1,0,0.2-0.1,0.4,0c0,0,0,0,0.1,0.1c0,0.1-0.1,0.1-0.2,0.1
				C10,4.4,9.6,4.4,9.3,4.5c-0.1,0-0.1,0-0.1,0c-0.4,0-0.8,0.2-1.3,0.2C7.4,4.8,7,4.9,6.5,4.9c-0.7,0-1.3,0-2,0
				c-0.8,0.1-1.6,0-2.4,0c-0.3,0-0.6,0-0.9-0.1c0.1-0.1,0.2,0,0.3,0C1.8,4.9,1.8,4.8,1.8,4.7z"/>
			<path class="st33" d="M1.2,4.1c0.2-0.4,0.2-0.4,0.6-0.3c0.1,0,0.1,0,0.2,0c0.8-0.2,1.6-0.4,2.5-0.7c0.1,0,0.2,0,0.3,0
				c0.1,0,0.2,0,0.2,0.1C4.8,3.3,4.7,3.3,4.6,3.4c-1,0.3-2,0.5-3,0.8C1.5,4.1,1.3,4.2,1.2,4.1z"/>
			<path class="st58" d="M1.6,4.2C1.6,4.1,1.7,4,1.8,4c0.9-0.2,1.7-0.4,2.6-0.7c0.1,0,0.1,0,0.2,0c0,0.1,0.1,0.1,0.1,0.1
				c0,0,0,0,0,0.1C4.2,3.5,3.6,3.8,3.1,3.9C2.6,3.9,2.2,4.1,1.7,4.3C1.8,4.1,1.7,4.2,1.6,4.2z"/>
			<path class="st34" d="M4.9,3.2c-0.1,0-0.2,0-0.2-0.1C5.1,3,5.5,2.9,6,2.8c0.1,0,0.2,0,0.3,0C6.2,2.9,6.3,2.8,6.3,2.8
				C6.3,2.9,6.3,3,6.2,3C5.8,3.1,5.5,3.2,5.1,3.3C5,3.3,4.9,3.3,4.9,3.2z"/>
			<path class="st59" d="M20,22.5c-0.3,0.1-0.6,0.1-1,0.2c-0.3,0.1-0.5,0.1-0.8,0.2c-0.3,0-0.5,0-0.8,0.1c-0.4,0-0.6-0.2-0.8-0.4
				c-0.1-0.1-0.2-0.3-0.3-0.4c-0.2-0.3-0.6-0.3-0.8,0c-0.3,0.4-0.3,0.4-0.8,0.2c-0.1,0-0.3,0-0.3-0.2c0-0.2,0.2-0.2,0.3-0.2
				c0.7-0.4,1.3-0.6,2-0.9c0.1,0,0.2-0.1,0.3-0.2c0.1-0.1,0-0.1-0.1-0.1c0.2-0.3,0.5-0.3,0.7-0.4c0.1-0.1,0.3-0.1,0.5-0.1
				c0.1,0,0.2,0,0.4,0c0.1,0,0.1,0,0.1,0.1c0,0.1,0,0.1-0.1,0.2c-0.1,0.1-0.2,0.1-0.4,0.2c-0.4,0.2-0.8,0.4-1.2,0.7
				c-0.2,0.1-0.2,0.3-0.2,0.5c0.1,0.2,0.2,0.4,0.3,0.6c0.2,0.4,0.6,0.4,1,0.3c0.2,0,0.4-0.1,0.6-0.1c0.1,0,0.3-0.1,0.4-0.1
				c0.8-0.1,1.6-0.3,2.4-0.5c0.6-0.2,1.2-0.3,1.8-0.5c0.1,0,0.2,0,0.3,0c0,0.2-0.2,0.2-0.3,0.2c-0.6,0.2-1.2,0.3-1.8,0.4
				c-0.4,0.1-0.8,0.2-1.2,0.3C20.3,22.5,20.2,22.6,20,22.5z"/>
			<path class="st60" d="M10.3,22c-0.2-0.1-0.4-0.3-0.6-0.4c-0.1,0-0.2,0-0.2-0.2c0.1-0.1,0.2-0.1,0.3,0c0.4,0.1,0.9,0.2,1.3,0.1
				c0.3,0,0.7,0,1,0.2c0.1,0.1,0.2,0.1,0.1,0.2c0,0,0,0,0,0c-0.3,0.6-0.8,0.3-1.2,0.3c-0.2,0-0.3-0.1-0.5-0.1
				C10.4,21.9,10.3,21.9,10.3,22z"/>
			<path class="st61" d="M16.5,20.9c-0.6,0.1-1.1,0.3-1.7,0.5c-0.1,0.2-0.2,0.1-0.4,0.2c-0.2,0-0.4,0.1-0.5,0.1
				c-0.2,0-0.3-0.1-0.2-0.3c0-0.2-0.2,0-0.2-0.1c0-0.1,0.1-0.1,0.1-0.1c0.5-0.1,0.9-0.3,1.4-0.4c0.1,0,0.1,0,0.2,0
				c0.2,0.1,0.4,0,0.7-0.1c0.2,0,0.3-0.1,0.5-0.1C16.6,20.7,16.6,20.7,16.5,20.9z"/>
			<path class="st60" d="M12.2,21.8c0-0.1-0.1-0.1-0.1-0.2c-0.1-0.1-0.2-0.1-0.3-0.2c-0.1-0.1-0.3-0.1-0.3-0.3
				c0-0.1,0.2-0.1,0.4-0.1c0,0,0,0,0,0c0.2,0,0.3,0,0.4,0.3c0,0.1,0.1,0.2,0.2,0.2c0.2,0.1,0.4,0.1,0.5-0.1c0-0.1-0.1-0.1-0.1-0.1
				c-0.1,0-0.2,0-0.2-0.1c0-0.1,0.1-0.2,0.2-0.2C13,21,13.1,21,13.2,21c0.1,0.1-0.1,0.2,0.1,0.3c0.1,0,0.1,0,0.2,0.1
				c0,0.1,0,0.2-0.1,0.2c-0.1,0.1-0.1,0.3-0.3,0.3C12.8,22,12.5,21.9,12.2,21.8z"/>
			<path class="st62" d="M13.1,21.9c0.1-0.1,0.2-0.2,0.3-0.3c0,0,0.1-0.1,0.1-0.1c0.1-0.1,0.2-0.1,0.2,0c0,0.2,0.1,0.2,0.3,0.2
				c0.2,0,0.4-0.1,0.6-0.1c0.1-0.1,0.3,0,0.4-0.1c0.1,0,0.1,0,0.2,0c-0.3,0.2-0.6,0.3-0.9,0.4c-0.3,0.1-0.6,0.2-0.9,0.2
				C13.2,22.1,13,22.1,13.1,21.9z"/>
			<path class="st63" d="M16.5,20.9c0.1-0.2,0-0.2-0.2-0.1c-0.3,0.1-0.6,0.1-0.9,0.2c-0.1,0-0.2,0.1-0.2-0.1c0,0,0.1-0.1,0.1-0.1
				c0.5-0.1,1-0.3,1.5-0.4c0.1,0,0.1,0,0.2,0c0.1,0.1,0,0.2-0.1,0.3C16.8,20.8,16.6,20.8,16.5,20.9z"/>
			<path class="st64" d="M16.9,20.7c0-0.1,0-0.2,0.1-0.3c0.2-0.1,0.3-0.1,0.5-0.2c0.2,0,0.4-0.1,0.6-0.1c0,0,0,0,0,0.1
				c-0.4,0.1-0.8,0.2-1.2,0.5C17,20.7,17,20.7,16.9,20.7z"/>
			<path class="st65" d="M24.8,18.9c-0.1,0.6,0,1.2,0,1.8c0,0.3,0,0.7,0,1c0,0.1-0.1,0.2-0.2,0.2c-0.1,0-0.2,0.1-0.4,0
				c0.1-0.2,0.3-0.1,0.3-0.2c0.1-0.2,0-0.4,0.1-0.6c0-0.4,0.1-0.8-0.1-1.2c-0.1,0-0.2,0.2-0.2,0.2c-0.2,0.1-0.2,0-0.3-0.2
				c-0.1-0.2-0.1-0.4-0.2-0.6c-0.3-0.1-0.5-0.1-0.8-0.1c-0.3,0-0.6,0-0.9,0c-0.1,0-0.1,0-0.2,0.1c-0.2,0.1-0.4,0.2-0.6,0.2
				c-0.2,0-0.3-0.1-0.4-0.3c0-0.2,0.1-0.3,0.3-0.4c0.1-0.1,0.3-0.1,0.4,0c0.8,0.1,1.6,0,2.4,0c0.1,0,0.3,0,0.4,0.1
				C24.6,19,24.7,18.9,24.8,18.9C24.7,18.9,24.8,18.9,24.8,18.9z"/>
			<path class="st23" d="M19.2,23.3c-0.1-0.2-0.3-0.1-0.4,0c-0.3,0.1-0.7,0.2-1,0.2c-0.1,0-0.2,0-0.2-0.1c0-0.1,0.1-0.1,0.1-0.1
				c0.7-0.3,1.3-0.5,2-0.6c0.1,0,0.2-0.1,0.3-0.1c0.2-0.1,0.5-0.1,0.7-0.2c0.4-0.1,0.7-0.2,1.1-0.3c0,0,0.1,0,0.1,0
				c0.1,0,0.2-0.1,0.3,0.1c0,0.1-0.1,0.2-0.2,0.2c-0.2,0.1-0.5,0.1-0.7,0.2c0.2,0,0.4-0.2,0.6,0c-0.1,0.1-0.2,0.1-0.4,0.1
				C20.8,22.9,20,23.1,19.2,23.3z"/>
			<path class="st18" d="M21.9,22.5c-0.3,0-0.5,0.1-0.8,0.1c0.3-0.3,0.7-0.2,1.1-0.4c-0.1-0.1-0.2-0.1-0.4,0
				c-0.6,0.1-1.2,0.3-1.8,0.4c0,0,0,0,0-0.1c1-0.2,1.9-0.5,2.9-0.7c0.3-0.1,0.6-0.1,0.8-0.3c0,0,0,0,0,0c0.2-0.1,0.3-0.2,0.4,0.1
				c0,0,0,0.1-0.1,0.1c-0.3,0.3-0.8,0.3-1.1,0.4c-0.1,0-0.3,0.1-0.4,0.1c0,0,0,0,0,0c0,0,0,0,0,0c0.2-0.1,0.5-0.1,0.7-0.2
				c0.1,0,0.1,0,0.2,0.1C23,22.3,22.4,22.4,21.9,22.5z"/>
			<path class="st66" d="M24.8,17.7c0.1-0.1,0-0.2,0-0.3c0-1,0-2,0-3c0-0.1,0-0.2,0-0.3c0,0,0,0,0,0.1c0,1.3,0.1,2.6,0,3.8
				c0,0.2,0.1,0.5-0.1,0.7C24.7,18.4,24.7,18.1,24.8,17.7z"/>
			<path class="st67" d="M24.8,17.7c0,0.3,0,0.7,0,1c0,0.1,0,0.1,0,0.2c0,0,0,0,0,0c0,0,0-0.1-0.1-0.1c0-0.6,0-1.1,0-1.7
				c0-0.1,0-0.1,0.1-0.2c0-1,0-2.1,0-3.1c0-0.1,0-0.2,0-0.3c0,1.2,0,2.4,0,3.7C24.8,17.4,24.8,17.6,24.8,17.7z"/>
			<path class="st18" d="M23.2,22.1c-0.2,0.1-0.5,0.2-0.8,0.1C23,22,23.5,22,24,21.7c0.1,0.1,0.1,0.2,0.1,0.3c0,0,0,0-0.1,0.1
				C23.8,22,23.5,22.1,23.2,22.1z"/>
			<path class="st18" d="M24.1,21.9c-0.1-0.1,0-0.2-0.1-0.3c0,0,0,0,0.1-0.1c0-0.1,0.1-0.1,0.2-0.2c0.1,0,0.2-0.1,0.3-0.2
				c0.2,0.1,0.3,0.2,0.1,0.5c-0.1,0.1-0.3,0.1-0.4,0.2C24.2,21.9,24.1,21.9,24.1,21.9z"/>
			<path class="st65" d="M23.2,22.1C23.5,22,23.7,22,24,22c-0.2,0.1-0.4,0.1-0.6,0.2C23.4,22.1,23.3,22.1,23.2,22.1z"/>
			<path class="st68" d="M9.5,21.4c0,0.1,0.1,0.1,0.2,0.2c0,0.1,0,0.1-0.1,0.1c-0.4-0.2-0.7-0.6-1.1-0.8c-0.3-0.2-0.6-0.4-0.8-0.6
				c0,0,0,0,0-0.1c0.1-0.1,0-0.2,0.1-0.3c0.1,0,0.2-0.1,0.3,0c0.1,0.2,0.3,0.3,0.5,0.3c0.2,0,0.3,0,0.5,0c0.4,0,0.9,0,1.3,0.1
				c0.2,0,0.3,0.1,0.4,0.2c0.1,0.1,0.2,0.2,0.3,0.2c0.1,0.1,0.2,0.1,0.2,0.2c0,0.1-0.1,0.1-0.2,0.1c-0.1,0-0.2-0.1-0.3-0.1
				c-0.3-0.2-0.6-0.2-1-0.2c-0.4,0-0.8,0-1.3-0.1c0.1,0.1,0.2,0.2,0.3,0.2C9,21,9.3,21.1,9.5,21.4z"/>
			<path class="st22" d="M11.2,23c-0.2,0-0.2-0.2-0.3-0.2c0,0,0,0,0-0.1C11.1,22.8,11.1,22.9,11.2,23z"/>
			<path class="st24" d="M7.6,20.1C7.6,20.2,7.6,20.2,7.6,20.1C7.3,20.3,7,20.2,6.7,20c-0.2-0.1-0.3-0.3-0.5-0.4
				c-0.1-0.2-0.4-0.2-0.5-0.4c0.3,0,0.6,0,0.9,0.1c0.2,0.1,0.3,0.2,0.4,0.3c0.1,0.1,0.2,0.2,0.4,0.3C7.5,20,7.6,20,7.6,20.1z"/>
			<path class="st25" d="M6.7,20c0.3,0.1,0.6,0.2,0.9,0.2c0.3,0.2,0.6,0.4,0.8,0.6C7.7,20.9,7.2,20.4,6.7,20z"/>
			<path class="st69" d="M6.7,19.4c-0.3-0.2-0.7-0.1-1-0.2c0,0,0,0-0.1,0c-0.3-0.3-0.8-0.5-1.1-0.9c0.4,0,0.8,0,1.2,0.2
				c0.2,0.2,0.5,0.2,0.7,0.1c0.7,0,1.5-0.1,2.2,0c0.1,0,0.2,0,0.3,0.1c0,0.1,0,0.1-0.1,0.1c0,0-0.1,0-0.1,0c-0.7-0.1-1.4,0-2.1-0.1
				C6.6,19,6.7,19,6.8,19c0,0,0,0,0.1,0c0.2,0.1,0.4,0.2,0.4,0.5c-0.1,0.1-0.2,0-0.3-0.1c-0.1-0.1-0.2-0.1-0.3-0.2c0,0,0,0,0,0
				c0,0,0,0,0,0C6.6,19.3,6.7,19.3,6.7,19.4z"/>
			<path class="st70" d="M6.4,18.8c-0.4,0-0.7-0.1-1-0.3c-0.1-0.1-0.2-0.1-0.2-0.1c-0.2,0.1-0.4,0-0.6-0.1c-0.3-0.2-0.6-0.4-0.9-0.6
				c0.4,0,0.7-0.1,1.1,0.2C4.8,18,5,18.2,5.1,18.2c0,0,0.1,0,0.1,0C5.6,18.4,5.9,18.6,6.4,18.8C6.4,18.7,6.4,18.8,6.4,18.8z"/>
			<path class="st6" d="M21.3,7.4c-0.2,0-0.1,0.1,0,0.2c0.6,0.5,1.2,0.9,1.8,1.4c0.2,0.1,0.3,0.2,0.4,0.4c0,0.1,0.1,0.1,0,0.2
				c-0.1,0.1-0.1,0.1-0.2,0C23,9.4,22.6,9.2,22.3,9c-0.5-0.3-1.1-0.6-1.6-0.9c0,0-0.1,0-0.1-0.1c-0.1,0-0.3-0.1-0.4,0
				c-0.1,0.1,0.1,0.2,0.2,0.3c0.4,0.4,0.7,0.8,1.2,1.1c0.1,0.1,0.2,0.2,0.2,0.4c0,0.1,0.1,0.3-0.2,0.3c-0.3,0.1-0.2,0.3-0.3,0.5
				c0,0,0,0,0,0c0-0.3-0.2-0.4-0.4-0.6c-0.1-0.1-0.3-0.2-0.4-0.4c0-0.2-0.1-0.3,0.2-0.4c0.1,0,0.1-0.1,0-0.2
				c-0.1-0.2-0.3-0.3-0.5-0.4c-0.9-0.8-1.8-1.5-2.7-2.3c-0.2-0.2-0.5-0.4-0.8-0.5c-0.1-0.1-0.2-0.1-0.2-0.2
				c-0.1-0.1-0.1-0.1-0.1-0.2c0-0.1,0.1-0.1,0.2-0.1c0.6,0.1,1.1-0.1,1.7,0c0.3,0,0.5,0.2,0.8,0.4c0.4,0.3,0.8,0.5,1.2,0.8
				c0.4,0.2,0.8,0.4,1.1,0.7C21.3,7.3,21.4,7.3,21.3,7.4z"/>
			<path class="st40" d="M18.9,5.8c-0.3-0.1-0.4-0.4-0.8-0.4c-0.3-0.1-0.7,0-1,0c-0.4,0-0.8,0-1.2-0.1c-0.1,0-0.1-0.1-0.2-0.1
				c0,0,0.1,0,0.1,0.1c0.1,0.1,0.3,0.2,0.4,0.3c0.1,0.2,0.2,0.3-0.1,0.4c-0.2,0.1,0,0.2-0.1,0.3c-0.1,0.1-0.2,0-0.2-0.1
				c-0.4-0.3-0.8-0.6-1.2-1c0,0,0,0,0,0c-0.1-0.1-0.3-0.2-0.2-0.4c0.1-0.2,0.3-0.1,0.4,0c0.1,0,0.1,0,0.2,0.1c0-0.1-0.1-0.2,0-0.2
				c0.9,0.1,1.7,0.1,2.6,0.1c0,0,0.1,0,0.1,0c0.6,0.2,1.1,0.5,1.6,0.9c0.2,0.1,0.4,0.2,0.5,0.4c0,0.2-0.1,0.1-0.2,0
				c-0.1-0.1-0.2-0.1-0.4-0.2C19.3,5.8,19.1,5.7,18.9,5.8z"/>
			<path class="st71" d="M20,6.1c-0.3-0.1-0.6-0.4-0.9-0.6c-0.4-0.2-0.8-0.4-1.2-0.6c0,0,0.1,0,0-0.1c-0.1,0-0.2-0.1-0.1-0.2
				c0.3-0.2,0.5-0.1,0.8,0c0.3,0.2,0.6,0.5,0.9,0.7c0.3,0.2,0.4,0.6,0.8,0.7c0,0,0.1,0.1,0,0.1c0,0-0.1,0-0.1,0
				C20.2,6.1,20.1,6.1,20,6.1z"/>
			<path class="st12" d="M21.3,7.4c-0.4-0.3-0.8-0.5-1.2-0.8c0.4,0,0.7,0.3,1.1,0.4c0.3,0.1,0.5,0.2,0.7,0.4c0,0,0.1,0.1,0.2,0
				c0.1,0.1,0.3,0.2,0.4,0.4c-0.2-0.1-0.4-0.2-0.6-0.3c-0.1-0.1-0.3-0.1-0.4,0.1C21.5,7.5,21.4,7.5,21.3,7.4z"/>
			<path class="st32" d="M17.8,4.7c0,0.1,0.2,0.1,0.2,0.2c-0.1,0-0.1,0-0.1,0c0,0-0.1,0-0.1,0c-0.1-0.1-0.2-0.1-0.4-0.1
				c-0.5,0-1,0-1.5,0c-0.5,0-0.9-0.1-1.3-0.4c0,0,0,0-0.1-0.1c0-0.1,0-0.1,0-0.2c0.1-0.1,0.1,0,0.1,0c0.1,0,0.1,0,0.2,0
				c0.6,0.1,1.2,0.1,1.8,0.1c0.2,0,0.5,0,0.8,0c0.1,0,0.2,0,0.2,0.1C17.7,4.5,17.8,4.6,17.8,4.7z"/>
			<path class="st71" d="M17.6,4.5c-0.1,0-0.1-0.1-0.2-0.1c-0.7,0-1.4,0-2.2-0.1c-0.1,0-0.3,0-0.4-0.1c0.9,0.1,1.8,0.1,2.7,0.1
				C17.5,4.4,17.6,4.4,17.6,4.5C17.6,4.5,17.6,4.5,17.6,4.5z"/>
			<path class="st72" d="M10.4,3.6c0,0-0.1,0-0.1,0.1c-0.1,0.1-0.2,0.1-0.3,0.1c0,0-0.1,0-0.1,0C9.1,3.8,8.5,3.3,7.8,3
				C7.7,3,7.6,2.9,7.6,2.8c0.2-0.2,0.5-0.1,0.7-0.2c0.2,0,0.5-0.2,0.7-0.1c0,0.1,0.1,0.2,0.2,0.3C9.5,2.8,9.7,3,10,3.1
				c0.2,0.1,0.4,0.1,0.6,0c0.3-0.2,0.6-0.4,0.9-0.7c0.1-0.1,0-0.2-0.1-0.2c-0.2,0-0.4,0-0.7,0.1c-0.2,0-0.4,0.1-0.6,0.1
				c-0.1,0-0.2,0.1-0.3-0.1c0-0.1,0.2-0.1,0.2-0.1c0.9-0.2,1.7-0.4,2.5-0.6c0.3,0,0.5,0,0.8-0.1c0.3-0.1,0.5-0.1,0.7,0.2
				c0.2,0.2,0.4,0.3,0.6,0.5c0.2,0.1,0.4,0.3,0.5,0.4c0.1,0.1,0.1,0.1,0.1,0.2c0,0.1-0.1,0.1-0.2,0.1C14.5,2.8,13.9,3,13.3,3
				c-0.5,0-1-0.1-1.5,0c-0.1,0-0.2,0-0.2,0.1C11.2,3.3,10.8,3.5,10.4,3.6z"/>
			<path class="st73" d="M10.4,3.6c0-0.1,0-0.1,0.1-0.1c0.7-0.4,1.4-0.7,2.2-0.6C13.4,2.9,14,3,14.6,2.8c0.2,0,0.3,0,0.5,0
				c0.1,0,0.1,0,0.2-0.1c0.1-0.1,0-0.1-0.1-0.2c-0.1-0.2-0.4-0.3-0.5-0.5c0.4,0.2,0.7,0.5,1,0.8c0.1,0.2,0.1,0.3-0.1,0.3
				c-0.9-0.1-1.9,0.1-2.8,0c-0.7-0.1-1.4,0-2.1,0.3c-0.1,0-0.1,0-0.2,0.1C10.5,3.6,10.5,3.6,10.4,3.6z"/>
			<path class="st74" d="M10.6,3.6c0.5-0.3,1.1-0.5,1.7-0.4c0.7,0,1.4,0,2.1,0c0.1,0,0.2,0,0.4,0c0.3-0.1,0.6-0.1,0.9,0
				c0.2,0,0.3,0,0.2-0.2C16,3,16.1,3.2,16.2,3.3c0,0,0,0.1,0,0.1c0,0-0.1,0-0.1,0c-0.4-0.1-0.7-0.1-1.1,0c-0.7,0.1-1.3-0.1-1.9-0.2
				c-0.5-0.1-1,0-1.5,0.1C11.3,3.4,10.9,3.5,10.6,3.6z"/>
			<path class="st37" d="M10,3.7c0.1,0,0.2,0,0.3-0.1c0.5,0,1-0.2,1.6-0.3c0.4-0.1,0.9-0.1,1.3,0c-0.1,0-0.2,0-0.3,0
				c0,0.1-0.1,0.1-0.2,0.1c-0.3-0.1-0.5,0-0.8,0.1c-1,0.2-2,0.4-3,0.6c0,0,0,0,0,0c-0.1,0-0.2,0-0.3,0C8.7,4,8.9,4,9,4
				C9.4,3.9,9.7,3.8,10,3.7z"/>
			<path class="st75" d="M14.1,1.6c-0.4-0.4-0.7,0-1.1,0c-0.1,0-0.3,0-0.4,0c0-0.1,0.2,0,0.2-0.1c0,0,0,0,0,0c0.1,0,0.3,0,0.4-0.1
				c0.2-0.2,0.5-0.2,0.7,0C14,1.5,14.1,1.5,14.1,1.6C14.1,1.6,14.1,1.6,14.1,1.6z"/>
			<path class="st76" d="M12.7,3.4c0.1,0,0.1,0,0.2,0c0.5,0.1,1,0.3,1.4,0.6c0.1,0.1,0.2,0.1,0.3,0.2c0,0.1,0,0.1,0,0.2
				c-0.1,0.1-0.2,0-0.3-0.1c-0.2-0.2-0.4-0.3-0.7-0.4c-0.3-0.2-0.6-0.1-0.9-0.2C12.6,3.6,12.5,3.5,12.7,3.4z"/>
			<path class="st71" d="M14.6,4.2c-0.1-0.1-0.2-0.1-0.3-0.2c0.1,0.1,0.3,0.1,0.4,0.3C14.6,4.3,14.6,4.2,14.6,4.2z"/>
			<path class="st77" d="M8.3,2.6C8.1,2.7,7.9,2.7,7.6,2.8C7.4,2.9,7.1,2.9,6.8,3C6.7,3,6.5,3,6.4,3.1c0,0-0.1,0-0.1,0.1
				C5.8,3.3,5.4,3.3,5,3.5c-0.1,0-0.2,0-0.3,0c-0.1,0-0.2,0-0.1-0.1c0.1-0.1,0.2,0,0.3-0.1c0.5,0,1-0.2,1.5-0.4c0,0,0,0,0,0
				c0.2-0.1,0.3-0.1,0.5-0.1c0.2,0,0.4-0.1,0.6-0.1c0.3,0,0.5-0.1,0.7-0.1c1.1-0.3,2.2-0.6,3.3-0.9c0.1,0,0.2-0.1,0.2,0
				c0,0.1-0.1,0.1-0.1,0.1c-0.1,0.1-0.2,0.1-0.3,0.2c-0.7,0.2-1.3,0.4-2,0.5C9,2.5,8.6,2.5,8.3,2.6z"/>
			<path class="st40" d="M8.3,2.6c0.3-0.1,0.5-0.2,0.8-0.2c0.8-0.2,1.6-0.4,2.4-0.6c0.2,0,0.5-0.1,0.7-0.1c0.2-0.1,0.4-0.1,0.6-0.1
				c-0.1,0-0.1,0.1-0.2,0.1c-0.9,0.2-1.9,0.5-2.8,0.7C9.6,2.5,9.4,2.6,9.1,2.5C8.8,2.5,8.6,2.6,8.3,2.6z"/>
			<path class="st34" d="M6.8,2.7C6.7,2.8,6.5,2.8,6.3,2.8C6.5,2.7,6.6,2.7,6.8,2.7z"/>
			<path class="st78" d="M24.7,14.9c0,0.4,0,0.9,0,1.3c-0.2,0.2-0.2,0.5-0.2,0.7c0,0.4,0,0.7,0,1.1c0,0.3,0,0.5-0.2,0.7
				c-0.1,0.1-0.1,0.1-0.2,0.1c-0.2-0.1-0.4-0.1-0.6-0.1c-0.4,0-0.8,0-1.1,0c-0.1,0-0.2,0-0.3,0.1c0,0-0.1,0-0.1,0
				c-0.2-0.2-0.6-0.2-0.9-0.2c0,0,0,0,0-0.1c0-0.1,0-0.1,0-0.2c0.2,0,0.3,0,0.5,0c0.1,0,0.2,0,0.3,0.1c0.1,0.1,0.2,0.1,0.3,0
				c0.2-0.3,0.3-0.5,0.1-0.9c-0.1-0.2-0.2-0.5-0.3-0.7c0-0.1,0-0.1-0.1-0.1c-0.1,0-0.1,0.1-0.1,0.1c-0.1,0.3-0.3,0.6-0.3,0.9
				c0,0.1-0.1,0.3-0.1,0.4c0,0.1-0.1,0.1-0.2,0c0-0.2,0-0.5,0-0.7c0-0.2,0-0.4,0-0.5c0.1-0.3,0-0.6,0-0.9c0-0.1,0-0.3,0.1-0.4
				c0.1,0,0.1,0.3,0.2,0.3c0.1,0,0.1-0.2,0.2-0.3c0.1-0.1,0.2-0.1,0.3-0.1c0.3,0,0.6,0,0.9-0.2c0.2-0.1,0.4-0.1,0.6-0.2
				c0.1-0.1,0.2,0,0.3,0.1c0.1,0.1,0.2,0.1,0.3,0.2c0.2,0.1,0.3,0,0.4-0.2C24.3,15,24.5,14.9,24.7,14.9z"/>
			<path class="st6" d="M21.2,10.6c0,0.1-0.1,0.2-0.2,0.3c0,1,0,1.9,0,2.9c0,0-0.1,0-0.1,0c0,0,0-0.1,0-0.1c0-0.9,0-1.8,0-2.7
				C20.9,10.8,21,10.6,21.2,10.6L21.2,10.6z"/>
			<path class="st79" d="M21,13.8C21,13.8,21.1,13.8,21,13.8c0,0.6,0.1,1.1,0.1,1.7c0,0.3,0,0.7,0,1c0,0.1,0,0.2-0.1,0.3
				c-0.1-0.1-0.1-0.2-0.1-0.3c0-0.8,0-1.6,0-2.4C20.9,14,20.9,13.9,21,13.8z"/>
			<path class="st6" d="M24.7,11.8c0.1,0.2,0,0.4,0,0.6C24.6,12.2,24.7,12,24.7,11.8z"/>
			<path class="st80" d="M24.4,18.1c-0.1-0.5-0.1-1,0-1.5c0-0.2,0.1-0.3,0.3-0.3c0,0.2,0,0.5,0,0.7c0.1,0.2,0,0.4,0,0.5
				C24.6,17.7,24.5,17.9,24.4,18.1C24.5,18.1,24.4,18.1,24.4,18.1z"/>
			<path class="st65" d="M24.7,17.6c0-0.2,0-0.4,0-0.6c0,0,0,0,0,0c0,0.6,0,1.3,0,1.9c-0.1,0-0.1-0.1-0.2-0.2c0,0,0-0.1,0-0.1
				c0.1-0.2,0.1-0.4,0.1-0.6C24.6,17.8,24.6,17.7,24.7,17.6z"/>
			<path class="st81" d="M6.4,18.8c-0.5-0.1-0.9-0.4-1.2-0.6c0,0,0,0,0-0.1C5.2,18,5.3,17.9,5.4,18c0.3,0.2,0.6,0.4,1,0.5
				c0.3,0.1,0.7,0.1,1,0c0.4-0.1,0.8-0.1,1.2,0.1c0.1,0.1,0.2,0.1,0.3,0c0.3,0,0.5,0.3,0.8,0.4c0.1,0,0.2,0,0.3,0.1
				c0.4,0.2,0.7,0.5,1.1,0.7c0,0.1,0.1,0.1,0,0.2c-0.1,0.1-0.2,0-0.3,0c-0.3-0.2-0.6-0.3-0.9-0.5c-0.2-0.1-0.5-0.3-0.7-0.4
				C9.2,19.1,9,19.1,8.9,19c-0.2-0.2-0.4-0.1-0.7-0.2C7.6,18.8,7,18.8,6.4,18.8z"/>
			<path class="st46" d="M5.2,15.5c0.3,0.2,0.6,0.4,0.8,0.6c0,0,0,0,0.1,0c0.1,0.1,0.3,0.1,0.2,0.3c-0.1,0.2-0.2,0-0.4,0
				c0.2,0.1,0.3,0.3,0.5,0.4c0.1,0.1,0.2,0.1,0.2,0.3c-0.2,0-0.4-0.2-0.6-0.4c-0.1,0-0.1-0.1-0.2,0c0,0.1,0,0.1,0,0.2
				C5.9,17,5.9,17.1,6,17.2c0.1,0.2,0.2,0.3,0,0.5c-0.2,0.2-0.3,0.1-0.5,0c0,0,0,0,0,0c0.4-0.2,0.4-0.2,0.2-0.6
				c-0.1-0.1-0.2-0.2-0.3-0.3c-0.1-0.1-0.2-0.1-0.4-0.1c-0.2,0.1-0.5,0.1-0.8,0.1c-0.1,0-0.2,0-0.2,0.2c-0.4-0.2-0.8-0.5-1.2-0.9
				c0,0-0.1-0.1-0.1-0.2c0-0.1,0.1-0.1,0.2-0.1c0.3,0,0.7,0,1,0c0.2,0,0.4,0,0.6-0.1c0.2-0.1,0.3-0.2,0.5-0.1
				C5.1,15.6,5.2,15.5,5.2,15.5z"/>
			<path class="st82" d="M4.1,16.9c0-0.1-0.1-0.1-0.1-0.2c0.1-0.1,0.1,0,0.2,0c0.3,0,0.6,0,0.8-0.1c0.1-0.1,0.3,0,0.4,0.1
				c0.2,0.2,0.3,0.3,0.4,0.5c0.2,0.3,0.1,0.4-0.2,0.5c-0.1,0-0.1,0-0.2,0C5,17.5,4.5,17.2,4.1,16.9z"/>
			<path class="st83" d="M6.5,17.1c-0.2-0.2-0.4-0.4-0.6-0.5c-0.1,0-0.1-0.1-0.1-0.2c0-0.1,0.1,0,0.2,0c0.1,0,0.1,0,0.2,0.1
				c0-0.2-0.2-0.2-0.2-0.4c0.1,0,0.2,0,0.2,0.1c0.4,0.4,0.9,0.8,1.4,1.1c0.1,0,0.1,0.1,0.1,0.2c0,0.1-0.1,0.1-0.2,0
				c-0.1,0-0.2,0-0.2,0.1C7,17.5,6.8,17.3,6.5,17.1z"/>
			<path class="st81" d="M7.4,17.7c0.4,0.2,0.7,0.5,1.1,0.7c-0.4-0.1-0.7-0.3-1-0.6C7.4,17.8,7.4,17.7,7.4,17.7z"/>
			<path class="st84" d="M9.1,4.5c0.4-0.1,0.9-0.2,1.3-0.3c0.3-0.2,0.7-0.2,1-0.3c0,0,0.1,0,0.1,0c0.3,0,0.6-0.1,0.9-0.1
				c0,0,0.1,0,0.1,0c0,0,0.1,0,0.1,0c0,0.3-0.2,0.2-0.3,0.3c-0.2,0-0.5,0.1-0.7,0.1C10.8,4.3,10,4.4,9.3,4.6c-0.1,0-0.2,0.1-0.3,0
				C9,4.5,9.1,4.6,9.1,4.5z"/>
			<path class="st85" d="M12.9,4.5c0-0.1,0-0.3,0-0.4c0,0,0,0,0,0c0,0,0.1,0,0.1,0c0.3,0.1,0.5,0.3,0.7,0.5c0.1,0.1,0.2,0.1,0.3,0.2
				c0.5,0.3,0.9,0.7,1.3,1c0.3,0.2,0.5,0.5,0.9,0.6c0.6,0.5,1.2,0.9,1.8,1.4c0.5,0.4,1,0.8,1.5,1.2c0.5,0.4,1,0.7,1.4,1.1
				c0.2,0.2,0.2,0.3,0,0.5c-0.1,0.1-0.2,0-0.3-0.1C20,10,19.2,9.4,18.4,8.8c-0.6-0.5-1.2-1-1.9-1.4c-0.6-0.5-1.3-1-1.9-1.5
				c-0.3-0.2-0.6-0.4-0.8-0.6c-0.2-0.2-0.5-0.4-0.7-0.5C13,4.7,12.9,4.7,12.9,4.5z"/>
			<path class="st86" d="M13.1,4.2c0,0-0.1,0-0.1,0c-0.1-0.1,0.1-0.2,0-0.2c-0.1,0-0.2,0-0.3,0.1c-0.2,0.1-0.3,0-0.5,0
				c0.1-0.1,0.3-0.1,0.3-0.3c0.2-0.1,0.4,0,0.7,0c0.2,0,0.3,0.1,0.5,0.1c0.2,0.1,0.5,0.2,0.7,0.4c0.1,0.1,0.1,0.1,0.3,0.1
				c0,0,0,0,0,0c0.2,0.2,0.4,0.2,0.5,0.4c0,0,0.1,0,0.1,0.1c0.1,0,0.1,0,0.1,0.1c0,0.1-0.1,0-0.1,0c-0.1,0-0.3-0.1-0.4-0.1
				c-0.1,0-0.2-0.1-0.2,0c-0.1,0.1,0,0.2,0.1,0.2c0.2,0.2,0.4,0.4,0.6,0.5c0.3,0.2,0.6,0.5,0.9,0.7c0.1,0,0.1,0.1,0.1,0.2
				c-0.4-0.2-0.7-0.5-1.1-0.8c-0.4-0.3-0.7-0.6-1.1-0.9c-0.3-0.2-0.5-0.4-0.8-0.6C13.2,4.2,13.2,4.2,13.1,4.2z"/>
			<path class="st87" d="M12.9,4.5c0.2,0.2,0.4,0.3,0.7,0.5c0.1,0.1,0.1,0.1,0.2,0.2c-0.1,0.1-0.2,0-0.3-0.1
				c-0.4-0.3-0.8-0.4-1.3-0.3c-0.6,0.1-1.2,0.3-1.8,0.5c-1,0.2-1.9,0.5-2.8,0.7C7,6.2,6.4,6.4,5.8,6.6c-0.5,0.1-0.7,0.5-0.7,1
				c0,1,0,1.9,0.1,2.9c0,0.5,0,0.9,0,1.4c0,0.1,0,0.3,0,0.4c0,0.6,0,1.1,0.1,1.7c0,0.2,0,0.3,0.1,0.5c0,0.1,0,0.2-0.2,0.1
				c-0.2-0.2-0.2-0.5-0.2-0.7c0-1.2-0.2-2.4-0.2-3.6c0-1,0-1.9,0-2.9c0-0.4,0.3-0.6,0.6-0.8C6.7,6.2,7.8,5.8,9,5.5
				c0.9-0.2,1.8-0.5,2.8-0.7c0.1,0,0.3-0.1,0.4-0.2C12.5,4.7,12.7,4.5,12.9,4.5z"/>
			<path class="st88" d="M5.3,14.5c0.1,0,0.1,0,0.2-0.1c0,0,0,0,0.1-0.1c0.1,0,0.2,0,0.3,0.1c0.6,0.4,1.3,0.5,2,0.6
				c0.9,0.1,1.8,0.1,2.7,0.2c0.8,0.1,1.7,0.1,2.5,0.2c0.9,0.1,1.7,0.1,2.6,0.2c0.8,0.1,1.6,0.1,2.4,0.2c0.4,0,0.8,0,1.2,0.1
				c0.6,0.1,0.8-0.1,1-0.7c0.2-0.8,0.4-1.7,0.5-2.6c0-0.1,0-0.3,0.2-0.3c0.1,0,0.1,0.2,0.1,0.3c0,0.1,0,0.2,0,0.3c0,0.3,0,0.6,0,0.8
				c0,0.4,0,0.9,0,1.3c-0.2,0-0.1-0.1-0.1-0.2c0-0.2,0-0.3,0-0.5c0-0.3,0-0.6,0-0.8c0,0.3-0.1,0.6-0.2,1c-0.1,0.7-0.2,1.3-0.3,2
				c-0.2,0.6-0.4,0.8-1.1,0.8c-0.6,0-1.3-0.1-1.9-0.1c-0.7-0.1-1.5-0.1-2.2-0.2c-0.8-0.1-1.6-0.1-2.4-0.2c-1.2-0.1-2.4-0.2-3.6-0.3
				c-0.8-0.1-1.5-0.4-2.2-0.8C6.4,15.4,5.8,15,5.3,14.5C5.3,14.6,5.3,14.6,5.3,14.5z"/>
			<path class="st89" d="M5.3,14.6c0.3,0,0.5,0.3,0.7,0.4c1,0.6,1.9,1.3,3.1,1.4c0.3,0,0.5,0.1,0.8,0.1c1.1,0.1,2.1,0.1,3.2,0.3
				c0.5,0.1,1.1,0.1,1.7,0.1c0.8,0.1,1.6,0.1,2.4,0.2c0.3,0,0.6,0,0.9,0.1c0.5,0,1,0.1,1.6,0.1c0.3,0,0.6-0.2,0.7-0.5
				c0.2-0.7,0.3-1.4,0.4-2.2c0-0.4,0.1-0.7,0.2-1.1c0,0,0,0,0.1,0c0,0.3,0,0.6,0,0.9c-0.1,0.4-0.1,0.9-0.2,1.3
				c-0.1,0.6-0.2,1.3-0.3,1.9c-0.1,0.5-0.3,0.7-0.8,0.8c-0.7,0.1-1.4,0.1-2.1,0c-0.6,0-1.2-0.1-1.8-0.1c-0.7,0-1.4-0.1-2.1-0.2
				C12.8,18.1,12,18,11.3,18c-0.8,0-1.5-0.3-2.2-0.7c-1.2-0.7-2.4-1.4-3.5-2.2C5.5,15,5.3,14.8,5.3,14.6C5.2,14.6,5.2,14.6,5.3,14.6
				z"/>
			<path class="st90" d="M5.2,14.7c0.3,0.1,0.4,0.3,0.6,0.5c0.6,0.4,1.1,0.7,1.7,1.1c0.7,0.5,1.5,0.9,2.2,1.3c0.5,0.2,1,0.3,1.5,0.4
				c0.9,0.1,1.7,0.1,2.6,0.2c0.5,0.1,0.9,0.1,1.4,0.1c1.2,0.1,2.4,0.2,3.7,0.2c0.2,0,0.5,0,0.7-0.1c0.5-0.1,0.6-0.2,0.7-0.8
				c0.2-0.9,0.3-1.8,0.4-2.7c0-0.1,0-0.3,0.2-0.4c0,0.3,0,0.5,0,0.8c0.1,0.2,0,0.4,0.1,0.6c0,0.1,0,0.3,0,0.4
				c-0.3,0.4-0.2,1-0.3,1.5c0,0.1,0,0.3-0.1,0.4c-0.1,0.4-0.3,0.6-0.7,0.7c-1.1,0.2-2.2,0.5-3.4,0.7c-0.9,0.2-1.8,0.4-2.7,0.5
				c-0.4,0.1-0.9,0-1.2-0.2c-0.7-0.3-1.3-0.7-1.9-1.2c-1.6-1-3.2-2.1-4.7-3.1c-0.2-0.2-0.4-0.4-0.6-0.5c-0.1-0.1-0.2-0.1-0.1-0.2
				C5.1,14.7,5.2,14.7,5.2,14.7z"/>
			<path class="st91" d="M5.1,14.7c0.3,0.4,0.8,0.7,1.2,1c0.6,0.4,1.3,0.9,2,1.3c1.3,0.9,2.6,1.7,4,2.5c0.6,0.3,1.2,0.5,1.8,0.3
				c1.4-0.3,2.9-0.6,4.3-0.9c0.5-0.1,1-0.2,1.5-0.3c0.5-0.1,0.7-0.4,0.7-1.1c0-0.4,0.1-0.8,0.2-1.2c0-0.1,0-0.2,0.1-0.2
				c0.1,0.1,0.1,0.2,0.1,0.3c0,0,0,0.1,0,0.1c0,0.2,0,0.4,0,0.6c0,0.3,0,0.6,0,1c0,0,0,0.1,0,0.1c-0.3,0.5-0.8,0.7-1.4,0.8
				c-1.9,0.4-3.7,0.8-5.6,1.3c-0.6,0.2-1.2,0.1-1.7-0.3c-1.1-0.8-2.2-1.5-3.3-2.3c-0.1-0.1-0.3-0.2-0.4-0.2c-0.2,0-0.3-0.1-0.4-0.2
				c-0.1-0.1-0.2-0.2-0.4-0.3c-0.7-0.6-1.3-1.1-2-1.6c-0.1-0.1-0.3-0.2-0.4-0.3c0-0.1-0.1-0.1-0.2-0.2c-0.1-0.1-0.2-0.2-0.1-0.3
				C5,14.7,5,14.7,5.1,14.7z"/>
			<path class="st92" d="M4.9,14.7c0,0.1,0,0.2,0.1,0.3c-0.4,0-0.5-0.1-0.5-0.5c0-0.6,0-1.3,0-1.9c0.2,0.2,0.2,0.5,0.3,0.7
				C5,13.7,4.9,14.2,4.9,14.7z"/>
			<path class="st93" d="M4.6,11.8c0-0.2,0-0.3,0-0.5C4.6,11,4.7,11,4.9,11c0,0.4,0,0.7,0,1.1C4.8,12.1,4.6,12,4.6,11.8z"/>
			<path class="st94" d="M7.7,17.1c0.3,0.1,0.5,0.4,0.7,0.5c0.2,0,0.3,0.1,0.4,0.3c0.3,0.3,0.6,0.5,0.9,0.8c0.2,0.1,0.3,0.3,0.4,0.5
				c-0.1,0-0.2,0-0.3-0.1c-0.3-0.3-0.6-0.5-0.9-0.8C8.6,18,8.2,17.8,8,17.5C7.9,17.4,7.8,17.2,7.7,17.1z"/>
			<path class="st75" d="M4.7,3.4c0.5,0,0.9-0.2,1.3-0.3c0.1,0,0.2,0,0.2,0c0.5,0.1,0.9,0.3,1.4,0.5C8.1,3.8,8.5,3.9,9,4
				C8.9,4.1,8.8,4.1,8.7,4.2C8.3,4.2,8,4.3,7.6,4.3C7.3,4.4,7,4.3,6.7,4.2C6,3.9,5.3,3.7,4.5,3.7c0,0-0.1,0-0.1-0.1
				C4.5,3.5,4.7,3.6,4.7,3.4C4.7,3.4,4.7,3.4,4.7,3.4z"/>
			<path class="st5" d="M10.5,4.1C9.7,4.3,9,4.4,8.2,4.6C7.8,4.7,7.5,4.7,7.1,4.8C6.2,4.8,5.4,4.8,4.5,4.8c-0.4,0-0.8,0.1-1.2,0.1
				c0,0-0.1,0-0.1-0.1c0.1-0.1,0.2-0.1,0.3-0.1c0.4,0,0.7,0,1.1-0.1c1.4-0.1,2.8-0.2,4.2-0.4c0,0,0.1,0,0.1-0.1c0,0,0,0,0,0
				c1-0.2,2-0.4,3-0.7c0,0,0,0,0,0c0.1,0,0.3,0,0.4,0.1c0,0.2-0.2,0.1-0.3,0.1c-0.2,0.1-0.4,0.1-0.6,0.1l0,0
				C11.2,4,10.8,4.1,10.5,4.1z"/>
			<path class="st37" d="M10.5,4.1c0.3-0.1,0.7-0.2,1-0.2C11.2,4.1,10.8,4.1,10.5,4.1C10.5,4.1,10.5,4.1,10.5,4.1z"/>
			<path class="st95" d="M24.5,21.3c0,0.1-0.1,0.2-0.2,0.2c0-0.3-0.1-0.3-0.3-0.1c-0.1,0.1-0.2,0.1-0.2,0.2c0,0,0,0,0,0
				c-0.4,0.1-0.8,0.2-1.3,0.3c-0.3,0.1-0.6,0.1-0.8,0.2c-0.6,0.1-1.2,0.3-1.8,0.4c-0.9,0.1-1.2,0-1.7-0.8c-0.2-0.3-0.1-0.5,0.2-0.7
				c0.3-0.2,0.7-0.3,1.1-0.5c0.1,0,0.1-0.1,0.2-0.1c0.1,0,0.1,0,0.2,0c0,0.1-0.1,0.2-0.2,0.2c-0.1,0.1-0.3,0.1-0.4,0.2
				c-0.2,0.2-0.2,0.3,0,0.5c0.3,0.2,0.5,0.2,0.8,0.1c0.4-0.1,0.7-0.4,1-0.6c0.3-0.3,0.8-0.5,1.1-0.8c0.1-0.1,0.2-0.2,0.3-0.3
				c0.1-0.1,0.1-0.2-0.1-0.2c-0.1,0-0.2,0-0.2-0.1c0,0,0.1-0.1,0.1-0.1c0.5,0.1,1,0,1.4,0c0.1,0,0.2,0,0.2,0.1
				c0,0.1-0.1,0.2-0.1,0.2c0.1,0.4,0,0.7,0.1,1.1c0.1-0.2,0.3-0.1,0.4,0c0.1,0.1,0.2,0.3,0.3,0.4C24.6,21.2,24.6,21.3,24.5,21.3z"/>
			<path class="st96" d="M19.4,20.4c-0.3,0.2-0.7,0.3-1.1,0.5c-0.2,0.1-0.3,0.3-0.2,0.5c0.2,0.3,0.4,0.7,0.7,0.8
				c0.3,0.1,0.6,0.1,0.8,0c0.6-0.1,1.1-0.2,1.7-0.3c0.1,0,0.1,0,0.2,0c-0.8,0.2-1.6,0.5-2.4,0.5c-0.2,0-0.4,0.1-0.7,0.1
				c-0.3,0-0.6-0.1-0.8-0.4c-0.1-0.2-0.2-0.4-0.3-0.6c-0.1-0.3-0.1-0.5,0.2-0.6c0.1-0.1,0.2-0.1,0.2-0.2c0.1-0.1,0.2-0.1,0.3-0.1
				c0.3-0.1,0.6-0.2,0.8-0.3C19.1,20.4,19.2,20.3,19.4,20.4z"/>
			<path class="st26" d="M18.2,20.8c-0.1,0-0.2,0.1-0.3,0.1c-0.2,0.1-0.4,0.2-0.5,0.4c-0.2,0.1-0.2,0.3-0.1,0.5
				c0.1,0.2,0.2,0.4,0.4,0.7c0.1,0.2,0.3,0.2,0.6,0.2c0.2,0,0.4-0.1,0.6,0c-0.3,0.1-0.7,0.2-1.1,0.2c-0.3,0-0.4-0.2-0.6-0.4
				c-0.1-0.2-0.3-0.4-0.3-0.7c-0.1-0.2,0-0.3,0.2-0.5c0.4-0.4,0.9-0.6,1.4-0.8c0.1,0,0.3-0.1,0.2-0.2c0-0.1-0.2,0-0.3-0.1
				c-0.1,0-0.1,0-0.2,0c0,0,0,0,0-0.1C18.5,20,18.7,20,19,20c0,0,0,0,0,0c0.1,0,0.3,0,0.4,0.1c0,0.2-0.1,0.2-0.3,0.3
				C18.8,20.6,18.5,20.7,18.2,20.8z"/>
			<path class="st64" d="M18.8,22.7c-0.3,0-0.6,0.1-0.9,0c-0.1,0-0.2-0.1-0.3-0.2c-0.2-0.2-0.3-0.5-0.4-0.8c-0.1-0.2,0-0.4,0.2-0.5
				c0.2-0.1,0.3-0.3,0.6-0.3c0,0.1-0.1,0.1-0.2,0.2c-0.3,0.2-0.4,0.3-0.2,0.7c0.1,0.1,0.2,0.3,0.2,0.4c0.2,0.4,0.5,0.4,0.9,0.4
				c0.2,0,0.3,0,0.5,0C19.1,22.6,18.9,22.7,18.8,22.7z"/>
			<path class="st97" d="M9.5,21.4C9.2,21.3,9,21,8.8,20.9c0-0.2,0.1-0.1,0.2-0.1c0.5,0.2,1,0.1,1.5,0.1c0.4,0,0.7,0.1,1,0.3
				c0.1,0.1,0.2,0.1,0.3,0.2c0.1,0,0.2,0.1,0.2,0.2c-0.4-0.1-0.8-0.2-1.3-0.1c-0.3,0-0.7,0-1.1-0.1C9.6,21.3,9.5,21.3,9.5,21.4z"/>
			<path class="st79" d="M21,18.5c0.3,0,0.7-0.1,0.9,0.2c0,0,0,0,0,0c0,0,0,0-0.1,0.1c-0.1,0-0.2,0-0.2-0.2c0,0.1,0,0.1-0.1,0.2
				c-0.1,0-0.1,0-0.2,0c-0.2,0.4-0.6,0.5-1,0.6c-0.2,0.1-0.5,0.2-0.7,0.3c-0.7,0.2-1.4,0.3-2.1,0.5c-0.2,0-0.3,0.1-0.5,0.1
				c-0.6,0.1-1.2,0.3-1.8,0.4c-0.5,0.1-1,0.3-1.5,0.4c-0.1,0-0.1,0-0.2,0.1c0,0.1,0,0.1-0.1,0.1c-0.1,0-0.1,0-0.2-0.1
				c-0.1-0.2,0.1-0.3,0.1-0.4c0.4-0.2,0.8-0.3,1.3-0.4c0.3-0.1,0.6-0.2,0.8-0.3c1.5-0.4,3-0.8,4.4-1.2c0.1,0,0.2,0,0.3-0.1
				C20.6,19,20.9,19,21,18.5z"/>
			<path class="st15" d="M13.4,21.4c0,0,0.1,0,0.1-0.1c0.1,0,0.2,0,0.3,0c0,0,0,0,0,0c0,0.1-0.2,0.1-0.1,0.3c0.1,0.1,0.2,0.1,0.3,0
				c0.1,0,0.2-0.1,0.4-0.1c-0.2,0.1-0.4,0.2-0.7,0.2c-0.1,0-0.2,0-0.2-0.1c-0.1-0.3-0.2-0.1-0.3,0C13.3,21.5,13.4,21.5,13.4,21.4z"
				/>
			<path class="st40" d="M11.3,20.9c-0.1-0.1-0.1-0.1-0.2-0.2c0.1-0.3-0.1-0.4-0.4-0.5c-0.2-0.1-0.4-0.3-0.6-0.4
				c-0.1-0.1-0.3-0.1-0.3-0.3c0-0.1,0.1-0.1,0.2-0.1c0.4,0.2,0.8,0.4,1.2,0.6c0.3,0.2,0.6,0.4,0.9,0.6c0,0,0.1,0.1,0.2,0.1
				c0.1-0.1,0-0.1-0.1-0.2c-0.1-0.1-0.2-0.1-0.1-0.3c0.2,0,0.4,0.1,0.5,0.3c0,0.1,0,0.1,0,0.2c-0.1,0.3-0.1,0.5,0,0.8
				c-0.2,0-0.3-0.1-0.3-0.3c0-0.2-0.1-0.2-0.3-0.2c-0.1,0-0.2,0-0.2,0C11.5,21.2,11.4,21.1,11.3,20.9z"/>
			<path class="st19" d="M11.3,20.9c0.2,0.1,0.4,0.2,0.6,0.2c-0.1,0-0.3,0-0.4,0c0.1,0.2,0.3,0.2,0.4,0.3c-0.2,0-0.4-0.2-0.6-0.3
				C11,21.1,10.7,21,10.4,21c-0.5,0-1,0-1.5-0.2c-0.1,0-0.1,0-0.1,0.1c-0.1-0.1-0.3-0.2-0.4-0.3c0-0.1,0.1-0.1,0.1,0
				c0.5,0.2,0.9,0.1,1.4,0.1c0.4,0,0.8,0.2,1.2,0.4C11.1,21,11.2,21.1,11.3,20.9z"/>
			<path class="st47" d="M12.5,21.6c-0.2-0.2-0.3-0.4-0.1-0.7c0-0.1,0-0.2,0-0.3c0.1,0,0.2,0,0.2,0.1c0.2,0.2,0.4,0.2,0.6,0.1
				c0.6-0.2,1.3-0.4,1.9-0.5c0.1,0,0.2-0.1,0.4,0c-0.4,0.2-0.9,0.3-1.4,0.4c-0.2,0.1-0.5,0.1-0.7,0.2c-0.1,0.1-0.1,0.1-0.2,0.1
				c-0.1,0-0.3,0.1-0.4,0.1c-0.1,0-0.1,0.1-0.1,0.2c0,0.1,0.1,0.1,0.2,0.1c0.1,0,0.2-0.1,0.3,0.1c0,0.1-0.1,0.2-0.2,0.2
				C12.8,21.7,12.6,21.7,12.5,21.6z"/>
			<path class="st61" d="M13.2,21c0.1-0.1,0.1,0,0.2-0.1c0,0.1-0.2,0.2-0.2,0.3c-0.1,0-0.2,0-0.2-0.1C13,21.1,13.2,21.1,13.2,21z"/>
			<path class="st98" d="M17.6,20.3c0.7-0.2,1.4-0.4,2.1-0.5c0.3-0.1,0.6-0.2,0.9-0.2c0.2,0,0.3,0,0.4,0.2c0.1,0.2-0.1,0.3-0.2,0.3
				c-0.3,0.1-0.6,0.3-1,0.3c-0.1,0-0.1,0-0.2,0c0-0.2,0.2-0.2,0.3-0.4c-0.3,0-0.6,0-0.8,0.1c-0.3,0.1-0.5,0.1-0.8,0.2
				C18,20.2,17.8,20.3,17.6,20.3z"/>
			<path class="st99" d="M19.7,20.4c0.3-0.1,0.6-0.2,1-0.3c0.1,0,0.3-0.1,0.2-0.3c-0.1-0.2-0.2-0.2-0.4-0.1c-0.3,0-0.6,0.1-0.9,0.1
				c0.4-0.2,0.7-0.4,1.1-0.5c0.2,0,0.3-0.1,0.4-0.3c0-0.1,0.1-0.1,0.2-0.2c0,0,0,0.1,0,0.1c0,0,0,0.1-0.1,0.1
				c-0.2,0.3-0.1,0.3,0.2,0.5c0,0.2,0.1,0.2,0.2,0.2c0.1-0.1,0.4-0.1,0.3-0.4c0,0,0.1-0.1,0.1-0.1c0.1,0,0.1,0,0.2,0
				c0.1,0,0.3,0,0.3,0.1c0.1,0.2-0.1,0.2-0.2,0.3c-0.2,0.2-0.4,0.4-0.6,0.5c-0.4,0.2-0.7,0.5-1,0.8c-0.2,0.2-0.5,0.3-0.8,0.4
				c-0.3,0.1-0.8,0-0.9-0.3c-0.1-0.2-0.1-0.3,0.1-0.4c0.1-0.1,0.3-0.2,0.4-0.2C19.6,20.5,19.7,20.5,19.7,20.4z"/>
			<path class="st100" d="M24.5,21.3c0-0.2-0.2-0.7-0.4-0.7c-0.1,0-0.1,0.1-0.1,0.1c0,0.1,0,0.1-0.1,0.1c-0.1,0-0.1-0.1-0.1-0.1
				c0-0.4-0.1-0.8-0.1-1.2c0-0.1,0-0.2,0.2-0.2c0.2,0.1,0.2,0.4,0.3,0.6c0,0.1,0,0.2,0.2,0.1c0.1,0.3,0.1,0.6,0.3,0.9
				c0,0,0,0.1,0.1,0.1c0,0.2,0.1,0.5-0.1,0.6C24.7,21.6,24.7,21.4,24.5,21.3z"/>
			<path class="st65" d="M24.7,21.1c-0.3-0.2-0.4-0.5-0.4-0.8c0-0.1,0-0.2,0-0.3c0.1-0.1,0.1-0.4,0.3-0.3c0.2,0,0.1,0.3,0.1,0.4
				C24.7,20.4,24.7,20.8,24.7,21.1z"/>
			<path class="st43" d="M21.3,19c0,0,0-0.1,0-0.1c0.1,0,0.1,0,0.2,0c0.1-0.1,0.3,0,0.4-0.1l0,0c0.2-0.1,0.4-0.1,0.6-0.1
				c0.3,0,0.6,0,0.9,0c0.3,0,0.5,0,0.7,0.2c0,0,0,0,0,0C24.2,19,24.1,19,24,19c-0.6,0-1.2,0-1.9,0C21.9,19,21.6,18.8,21.3,19z"/>
			<path class="st101" d="M22,19.3c0.2,0.1,0.2,0.2,0,0.3c-0.1,0.1-0.3,0.2-0.5,0.2c-0.1,0-0.1,0-0.2-0.1c0-0.1,0.1-0.1,0.1-0.2
				C21.6,19.5,21.8,19.4,22,19.3z"/>
			<path class="st43" d="M24.6,18.7c0.1,0,0.1,0.1,0.2,0.2c0,0,0,0,0,0c0,0.2-0.1,0.3-0.2,0.1c-0.1-0.1-0.2-0.1-0.3-0.1c0,0,0,0,0,0
				c0-0.1,0.1-0.1,0.1-0.1C24.5,18.8,24.5,18.8,24.6,18.7z"/>
			<path class="st59" d="M23.7,21.5c0.1-0.1,0.2-0.2,0.3-0.3c0.1-0.1,0.2-0.1,0.3,0c0.2,0.1,0,0.2,0,0.2c0,0.1-0.1,0.1-0.2,0.1
				C24,21.4,23.8,21.6,23.7,21.5z"/>
			<path class="st102" d="M9.8,19.6c0.1,0.1,0.2,0.1,0.3,0.2c0.1,0.1,0,0.3-0.1,0.4c-0.1,0-0.2,0-0.2-0.1c-0.3-0.2-0.7-0.3-1.1-0.3
				c-0.2-0.1-0.4,0-0.7,0c0,0,0,0,0,0c-0.1,0.1-0.2,0.1-0.3,0.1c-0.2-0.1-0.4-0.1-0.5-0.3c-0.1-0.2-0.2-0.3-0.4-0.4
				c0.1-0.1,0.1-0.1,0.2,0c0.5,0.1,1,0.1,1.5,0C9,19.1,9.4,19.3,9.8,19.6z"/>
			<path class="st8" d="M8.6,19.8c0.4,0,0.8,0.1,1.1,0.3c0.1,0.1,0.2,0.1,0.3,0.1c0.1,0,0.2,0.1,0.3,0.2c0,0.1-0.1,0.1-0.1,0.1
				c-0.4-0.2-0.7-0.1-1.1-0.1c-0.2,0-0.5,0-0.7-0.1c-0.3,0-0.4-0.2-0.5-0.4c0,0,0,0,0,0C8.2,19.7,8.4,19.7,8.6,19.8z"/>
			<path class="st103" d="M10.4,20.4c-0.1,0-0.2-0.1-0.3-0.2c-0.1-0.1,0.1-0.2,0.1-0.4c0.4,0.2,0.7,0.4,1,0.6c0.2,0.1,0,0.2,0,0.4
				C10.8,20.7,10.6,20.4,10.4,20.4z"/>
			<path class="st104" d="M7.2,19.6c0.2,0.1,0.3,0.2,0.5,0.3c0,0.1,0.2,0.1,0.1,0.2c0,0.1-0.1,0-0.2,0C7.5,20.1,7.5,20,7.4,20
				c-0.1-0.1-0.2-0.2-0.4-0.3c-0.2,0-0.2-0.2-0.4-0.3c0-0.1-0.2-0.1-0.2-0.3C6.7,19.2,6.9,19.4,7.2,19.6z"/>
			<path class="st68" d="M7,19.7c0.2,0,0.3,0.1,0.4,0.3C7.3,19.9,7.1,19.8,7,19.7z"/>
			<path class="st103" d="M9.8,19.6c-0.2-0.1-0.4-0.2-0.7-0.3c-0.3-0.1-0.6-0.1-0.9-0.1c-0.5,0.1-1,0-1.4-0.1
				c-0.1-0.2,0.1-0.2,0.2-0.2c0.6,0,1.2,0,1.8,0c0,0,0,0,0.1,0C9,19,9.1,19,9.3,19.1c0.2,0.1,0.4,0.2,0.6,0.3c0,0,0.1,0,0.1,0.1
				C9.9,19.5,9.8,19.5,9.8,19.6z"/>
			<path class="st102" d="M8.8,19C8.2,19,7.6,19,7,19c-0.1,0-0.2,0-0.2,0.1c0,0,0,0,0,0c-0.1,0-0.3,0-0.3-0.2c0-0.1,0.2-0.1,0.3-0.1
				c0.6,0,1.2,0,1.8,0C8.6,18.9,8.7,18.9,8.8,19z"/>
			<path class="st102" d="M9.3,19.1C9.1,19.1,9,19,8.8,19c0,0,0.1,0,0.1,0C9.1,19,9.2,19,9.3,19.1C9.3,19.1,9.3,19.1,9.3,19.1
				C9.3,19.1,9.3,19.1,9.3,19.1z"/>
			<path class="st105" d="M21,18.5c0,0.4-0.2,0.6-0.8,0.6c0-0.1,0.1-0.1,0.2-0.2c0.1,0,0.2-0.1,0.3-0.2c0.1-0.2,0.1-0.4,0.1-0.6
				c0-0.3,0-0.7,0-1c0-0.2,0-0.4,0-0.6l0,0c0-0.9,0-1.8,0-2.7c0-0.3,0-0.6,0-0.9c0-0.4-0.1-0.7,0-1.1c0-0.2,0-0.4,0-0.7
				c0-0.2,0-0.4,0.1-0.6c0.2-0.2,0.1-0.3-0.1-0.5c-1.4-1.1-2.9-2.2-4.3-3.3c-0.1-0.1-0.2-0.2-0.4-0.3c0-0.1-0.1-0.1-0.1-0.2
				C16.1,6.2,15.9,6,16.3,6c0.2,0,0-0.2,0-0.3c0.2,0,0.4,0.2,0.5,0.3c0.3,0.2,0.5,0.4,0.8,0.6c0.1,0.2,0.1,0.3-0.1,0.3
				c-0.2,0-0.1,0.1-0.1,0.2c0.2,0.3,0.6,0.5,0.9,0.7c0.2,0.2,0.4,0.3,0.6,0.5c0.4,0.4,0.9,0.7,1.3,1c0.1,0.1,0.2,0.2,0.3,0.3
				c0.2,0.2,0.4,0.3,0.5,0.5c0.2,0.1,0.2,0.3,0.2,0.5c-0.2,0.1-0.2,0.3-0.2,0.5c0,0.9,0,1.8,0,2.7c0,1,0,2,0,3c0,0.2,0,0.4,0,0.5
				C21,17.7,21,18.1,21,18.5L21,18.5z"/>
			<path class="st11" d="M20.5,9.7c-0.4-0.3-0.7-0.5-1.1-0.8c-0.2-0.1-0.4-0.2-0.5-0.4c-0.2-0.3-0.2-0.3,0.2-0.4
				c-0.4-0.5-1.1-0.8-1.5-1.3c-0.4-0.3-0.9-0.6-1.3-1c-0.1-0.1-0.3-0.2-0.4-0.3c0,0,0-0.1,0.1-0.1c0.6,0.1,1.1,0.2,1.7,0.1
				c0.2,0,0.4,0,0.5,0.1c-0.6-0.1-1.2,0.1-1.8,0c0.1,0.3,0.4,0.4,0.6,0.5c0.6,0.4,1.1,0.9,1.6,1.3c0.6,0.5,1.2,1,1.9,1.6
				c0.1,0.1,0.2,0.1,0.2,0.2c0.2,0.2,0.2,0.3-0.1,0.4C20.3,9.4,20.5,9.6,20.5,9.7z"/>
			<path class="st39" d="M15.1,4.8c-0.2-0.1-0.4-0.2-0.5-0.4c0.3,0.1,0.7,0.3,1,0.4c0.6,0.1,1.2,0,1.9,0c0.1,0,0.3,0,0.4,0.1
				C16.9,4.9,16,5,15.1,4.8z"/>
			<path class="st105" d="M16,5.3C15.9,5.3,15.9,5.3,16,5.3c-0.2,0.1-0.2,0-0.3-0.1c0,0,0-0.1,0-0.1C15.8,5.2,15.9,5.1,16,5.3z"/>
			<path class="st106" d="M9,4C8.5,4.1,8,3.8,7.5,3.6C7.2,3.5,6.9,3.3,6.6,3.2c-0.1,0-0.2-0.1-0.3-0.2c0,0,0,0,0.1-0.1
				C6.5,3,6.7,3,6.8,2.9c0.3,0,0.5-0.2,0.8-0.2C7.7,3,7.9,3,8.1,3.1c0.2,0.1,0.5,0.2,0.7,0.3c0.3,0.2,0.7,0.3,1.1,0.2
				c0.1,0,0.1,0,0.2,0.1C9.7,3.9,9.4,3.9,9,4z"/>
			<path class="st107" d="M9.1,2.5c0.2-0.1,0.5-0.1,0.7-0.2c0.4,0,0.7-0.1,1.1-0.2c0.2,0,0.4,0,0.6,0c0.1,0,0.2,0.1,0.1,0.2
				c-0.3,0.3-0.5,0.5-0.8,0.7c-0.3,0.2-0.6,0.2-1,0C9.5,3,9.3,2.8,9.1,2.7C8.9,2.6,9,2.6,9.1,2.5z"/>
			<path class="st57" d="M12,3.7c0.1-0.1,0.2,0,0.3-0.1c-0.1-0.1-0.2-0.1-0.4-0.1c-0.9,0.2-1.8,0.4-2.7,0.6c-0.1,0-0.2,0-0.3,0
				C9.3,4,9.7,3.9,10.1,3.9c0.7-0.2,1.5-0.3,2.2-0.5c0.1,0,0.3-0.1,0.4,0c-0.1,0.1-0.1,0.2-0.1,0.3c-0.1,0.1-0.1,0-0.2,0
				c0,0,0,0-0.1,0C12.3,3.8,12.2,3.8,12,3.7z"/>
			<path class="st37" d="M12.5,3.7c0.1-0.1,0.1,0,0.2,0c0.3,0,0.7,0,1,0.2C13.3,3.8,12.9,3.7,12.5,3.7C12.5,3.7,12.5,3.7,12.5,3.7z"
				/>
			<path class="st58" d="M6.8,2.9C6.7,3,6.5,3.1,6.3,3C6.5,2.9,6.6,2.9,6.8,2.9z"/>
			<path class="st108" d="M21,18.2c0.1-0.2,0.1-0.3,0.2-0.5c0.1-0.3,0.2-0.7,0.4-1c0.1-0.1,0.2-0.2,0.3,0c0.1,0.3,0.3,0.7,0.4,1
				c0.1,0.3,0,0.7-0.3,0.9c-0.1,0.1-0.2,0-0.2-0.1c-0.1-0.1-0.3-0.2-0.4-0.1c-0.1,0.1-0.2,0-0.3-0.1C21,18.3,21,18.2,21,18.2z"/>
			<path class="st109" d="M24.6,18.7c0,0.1,0.1,0.3-0.1,0.2c-0.1,0-0.1,0-0.2,0c-0.8-0.2-1.5-0.1-2.3-0.1c0,0,0,0,0-0.1
				c0.2-0.1,0.4-0.1,0.6-0.1c0.4,0,0.8,0,1.2,0c0.1,0,0.2,0,0.3,0c0.1,0.1,0.3,0.2,0.2-0.1c0,0,0,0,0,0c0.4,0,0.1-0.3,0.2-0.4
				c0,0,0,0,0.1,0C24.6,18.3,24.5,18.5,24.6,18.7L24.6,18.7z"/>
			<path class="st79" d="M21,18.2c0,0.1,0,0.1,0,0.2c0,0.1,0,0.1,0,0.2c-0.1-0.4-0.1-0.8,0-1.2C21,17.6,21,17.9,21,18.2z"/>
			<path class="st43" d="M24.6,18.7c-0.1-0.2-0.1-0.4-0.1-0.6c0-0.2,0-0.4,0.2-0.5c0,0.2,0,0.4,0,0.6C24.7,18.4,24.6,18.5,24.6,18.7
				z"/>
			<path class="st110" d="M9.3,19.1C9.3,19.1,9.3,19.1,9.3,19.1c0.4,0,0.7,0.3,1,0.5c0.2,0.1,0.4,0.2,0.6,0.4c0.1,0,0.3,0.1,0.2-0.1
				c0.1-0.1,0.2,0,0.3,0.1c0.1,0,0.2,0.1,0.2,0.2c0.1,0.1,0.3,0.1,0.4,0.3c0,0.1,0.2,0.2,0.3,0.2c0.1,0.1,0.2,0.1,0.1,0.2
				c-0.1,0.1-0.2,0.1-0.3,0c-0.4-0.4-0.8-0.6-1.2-0.9c-0.3-0.2-0.6-0.2-0.8-0.5C9.8,19.3,9.5,19.3,9.3,19.1z"/>
			<path class="st111" d="M11.6,20.1c-0.2,0-0.3-0.3-0.5-0.3c-0.4-0.2-0.7-0.4-1.1-0.7c-0.2-0.4-0.6-0.6-1-0.9
				C9,18.1,8.8,18,8.8,17.9c0.1-0.1,0.2,0,0.2,0c0.7,0.5,1.3,1.1,2,1.6c0.2,0.1,0.3,0.2,0.5,0.3C11.5,19.9,11.6,19.9,11.6,20.1z"/>
			<path class="st37" d="M12,3.7c0.1,0,0.3,0,0.4,0c-0.3,0.1-0.6,0.1-0.9,0.2C11.7,3.8,11.9,3.8,12,3.7z"/>
			<path class="st112" d="M21,10.6c-0.1,0.2-0.1,0.4-0.1,0.7c0,0.6,0,1.1,0,1.7c-0.1-0.2,0-0.4-0.1-0.6c-0.1,0.3-0.2,0.6-0.2,0.8
				c0,0.8-0.3,1.5-0.5,2.2c-0.1,0.5-0.4,0.7-1,0.6c-0.3-0.1-0.7,0-1-0.1c-0.6-0.1-1.2-0.1-1.8-0.1c-0.8-0.1-1.6-0.1-2.4-0.2
				c-0.3,0-0.5,0-0.8-0.1c-1.1-0.1-2.1-0.1-3.2-0.3c-0.5-0.1-1.1-0.1-1.6-0.1c-0.5-0.1-1.1-0.1-1.6-0.2c-0.4-0.1-0.7-0.2-1-0.4
				c-0.1-0.1-0.2-0.2-0.4-0.1c0-0.2,0.2-0.2,0.3-0.3C5.9,14.1,6,14.1,6,14c0.1-0.1,0.3-0.2,0.5-0.2c0.4-0.2,0.9-0.1,1.4,0
				c0.9,0.1,1.8,0.1,2.6,0.2c0.8,0.1,1.5,0.1,2.3,0.2c0.7,0.1,1.5,0.1,2.2,0.2c0.8,0.1,1.6,0.1,2.4,0.2c0.7,0,1.4,0.1,2,0.1
				c0.4,0,0.6-0.1,0.7-0.5c0.2-0.5,0.3-1,0.3-1.5c0.1-0.4,0.1-0.8,0.1-1.2c0-0.4-0.1-0.7-0.3-1c-0.2-0.3-0.5-0.5-0.8-0.7
				c-0.7-0.5-1.4-1.1-2.1-1.6c-0.2-0.2-0.5-0.4-0.7-0.5c-0.1-0.1-0.1-0.1-0.2-0.2c0,0,0-0.1,0-0.1c0.4,0.2,0.7,0.5,1,0.7
				c1.1,0.8,2.1,1.6,3.2,2.4C20.8,10.6,20.9,10.6,21,10.6z"/>
			<path class="st113" d="M16.6,7.3C16.6,7.4,16.6,7.4,16.6,7.3c0,0.1,0,0.1-0.1,0.1c0,0-0.1,0-0.1,0C16,7.3,15.7,7,15.4,6.8
				c-0.6-0.5-1.3-1-1.9-1.5C13.1,5,12.6,4.9,12,5c-0.8,0.3-1.7,0.4-2.6,0.7C8.8,5.9,8.2,6,7.6,6.3C7,6.4,6.5,6.5,6,6.7
				c-0.5,0.2-0.7,0.4-0.7,1c0,1,0,2.1,0,3.1c0,0.4,0,0.7,0,1.1c0,0.1,0,0.2-0.1,0.3c-0.1-0.1,0-0.1-0.1-0.2c0-0.6,0-1.2,0-1.8
				C5.1,9.4,5,8.7,5,7.9c0-0.2,0-0.5,0.1-0.7c0-0.3,0.4-0.7,0.8-0.7c0.5-0.1,1-0.3,1.6-0.4C7.7,6,7.9,5.9,8.2,5.9
				c0.5-0.1,1-0.3,1.5-0.4c0.7-0.1,1.4-0.4,2-0.5c0.5-0.1,0.9-0.2,1.4-0.1c0.2,0.1,0.3,0.2,0.5,0.3c0.1,0.1,0.1,0.1,0.2,0.1
				c0.5,0.3,1,0.8,1.5,1.1c0.3,0.2,0.6,0.5,1,0.7C16.4,7.2,16.5,7.3,16.6,7.3z"/>
			<path class="st51" d="M13.1,4.2c0.2,0,0.3,0.1,0.4,0.2c0.2,0.1,0.4,0.3,0.5,0.5C13.7,4.7,13.4,4.4,13.1,4.2z"/>
			<path class="st114" d="M5.2,12.2c0-0.5,0-1,0-1.5c0.2,0,0.1,0.2,0.1,0.3c0.1,0.6,0.1,1.2,0.2,1.8c0.1,0.5,0.2,0.9,0.5,1.3
				c-0.1,0.2-0.4,0.2-0.5,0.4c0,0,0,0-0.1,0c-0.2,0-0.2-0.2-0.2-0.3C5.2,13.5,5.2,12.9,5.2,12.2z"/>
			<path class="st112" d="M20.9,13.8c0.1,0.2,0,0.4,0,0.6c0,0.6,0,1.2,0,1.9c0,0.1,0,0.2,0,0.3c0-0.1,0-0.2,0-0.3c0-0.3,0-0.7,0-1
				C20.9,14.7,20.9,14.3,20.9,13.8z"/>
			<path class="st115" d="M11.6,20.1c-0.2-0.3-0.6-0.5-0.9-0.7c-0.6-0.5-1.3-1-1.9-1.5c0,0-0.1,0-0.1-0.1c-0.1-0.1-0.3-0.2-0.3-0.3
				c0.1-0.1,0.3,0,0.4,0.1c0.7,0.4,1.3,0.9,2,1.3c0.6,0.4,1.2,0.8,1.9,1.3c0.4,0.2,0.8,0.2,1.2,0.1c1.6-0.4,3.3-0.8,4.9-1.1
				c0.4-0.1,0.9-0.2,1.3-0.3c0.3-0.1,0.6-0.2,0.7-0.5c0-0.1,0.1-0.1,0.1-0.1c0.1,0.2,0,0.4,0,0.5c-0.2,0.2-0.4,0.1-0.6,0.3
				c-1.3,0.3-2.5,0.7-3.8,1c-0.3,0.1-0.6,0.2-0.9,0.2c-0.6,0.1-1.1,0.3-1.7,0.4c-0.2,0-0.3,0.1-0.5,0.1c-0.4,0.2-0.7,0-1-0.2
				c-0.1-0.1-0.3-0.3-0.4-0.3C11.9,20.3,11.7,20.2,11.6,20.1z"/>
			<path class="st112" d="M20.9,17.2c0,0.3,0,0.7,0,1c0,0,0,0,0,0C20.9,17.9,20.9,17.5,20.9,17.2C20.9,17.2,20.9,17.2,20.9,17.2z"/>
			<path class="st90" d="M20.9,17.2L20.9,17.2C20.9,17.2,20.9,17.2,20.9,17.2c0-0.2-0.1-0.4,0-0.6C20.9,16.8,20.9,17,20.9,17.2z"/>
			<path class="st90" d="M20.9,18.2C20.9,18.2,20.9,18.2,20.9,18.2c0,0.2,0.1,0.4,0,0.6c0-0.2,0-0.4,0-0.5
				C20.9,18.3,20.9,18.2,20.9,18.2z"/>
			<path class="st116" d="M23.8,20.8c0,0.3-0.1,0.5-0.4,0.6c-0.4,0.1-0.8,0.1-1.2,0.2c-0.1,0-0.2,0-0.3-0.1c-0.1-0.1,0-0.2,0.1-0.3
				c0.3-0.5,0.8-0.9,1.3-1.3c0.2-0.1,0.3,0,0.3,0.1C23.7,20.3,23.7,20.6,23.8,20.8z"/>
			<path class="st64" d="M19,20c0.2-0.1,0.5-0.1,0.8-0.2c0.1,0,0.2,0,0.2,0.1c0,0.1-0.1,0.1-0.1,0.1c-0.1,0.1-0.2,0.2-0.3,0.3
				c-0.1,0-0.1,0-0.2,0.1c-0.4,0-0.7,0.3-1,0.4c-0.1,0-0.1,0.1-0.2,0.1c0.3-0.2,0.6-0.3,0.9-0.5c0.1-0.1,0.3-0.1,0.2-0.2
				C19.3,20,19.1,20,19,20z"/>
			<path class="st109" d="M21.9,18.8c-0.1,0.1-0.3,0-0.4,0.1c0-0.1,0-0.3,0.2-0.1C21.8,18.8,21.9,18.8,21.9,18.8z"/>
			<path class="st68" d="M8.6,19.8c-0.2,0-0.5,0-0.7,0.1C8.2,19.7,8.4,19.7,8.6,19.8z"/>
			<path class="st12" d="M17.6,6.6c0.4,0.2,0.7,0.5,1,0.8c0.2,0.1,0.4,0.3,0.5,0.5c0.1,0.1,0.1,0.2-0.1,0.2c-0.3,0-0.3,0.1-0.2,0.3
				c-0.5-0.4-1.1-0.8-1.5-1.2c-0.1-0.1-0.1-0.1-0.1-0.2c0-0.1,0.1-0.1,0.2-0.1C17.7,6.9,17.6,6.8,17.6,6.6z"/>
			<path class="st117" d="M16.5,7.4C16.5,7.4,16.5,7.4,16.5,7.4C16.7,7.6,17,7.8,17.2,8c0.8,0.6,1.7,1.3,2.5,1.9
				c0.2,0.2,0.5,0.4,0.7,0.6c0.3,0.3,0.4,0.7,0.3,1.1c-0.1,0.5-0.1,1-0.2,1.5c-0.1,0.4-0.2,0.8-0.3,1.2c-0.2,0.5-0.5,0.6-1,0.5
				c-0.4-0.1-0.7-0.1-1.1-0.1c-0.7,0-1.4-0.1-2-0.1c-0.9-0.1-1.8-0.2-2.7-0.3c-0.5,0-1-0.1-1.6-0.1c-0.8-0.1-1.7-0.1-2.5-0.2
				c-0.6,0-1.2-0.1-1.8-0.1c-0.3,0-0.7,0-1,0.1c0-0.1,0-0.1,0.1-0.2c0.3-0.2,0.6-0.4,0.9-0.5c0.6-0.1,1.2,0,1.8,0
				c0.8,0.1,1.7,0.1,2.5,0.2c0.9,0.1,1.8,0.1,2.6,0.2c1,0.1,2,0.2,3,0.2c0.6,0,1.1,0.1,1.7,0.1c0.1,0,0.3,0,0.4,0
				c0.3,0,0.6-0.2,0.7-0.5c0.2-0.5,0.3-1,0.3-1.5c0-0.2,0-0.4,0.1-0.6c0.1-0.4-0.1-0.7-0.4-1c-0.7-0.6-1.4-1.1-2.1-1.6
				c-0.5-0.4-0.9-0.7-1.4-1.1C16.6,7.6,16.5,7.6,16.5,7.4z"/>
			<path class="st118" d="M7.5,13.2c-0.3,0.2-0.7,0.4-1,0.6c-0.2,0-0.3,0.2-0.4,0.2c-0.2-0.1-0.3-0.3-0.3-0.4
				c-0.1-0.3-0.2-0.5-0.2-0.8c-0.1-0.9-0.1-1.8,0-2.6c0.2-0.1,0.2,0.1,0.2,0.1c0.1,0.2,0.1,0.5,0.2,0.7c0,0.2,0.1,0.4,0.3,0.5
				c0.1,0.1,0.2,0.1,0.3,0.2c0.8,0.1,1.5,0.1,2.3,0.2c0.2,0,0.4,0,0.6,0.1c0.2,0.1,0,0.2-0.1,0.2c-0.2,0.2-0.5,0.3-0.7,0.4
				C8.2,12.8,7.8,13.1,7.5,13.2z"/>
			<path class="st119" d="M7.5,13.2c0.3-0.2,0.7-0.5,1-0.6c0.3-0.1,0.5-0.2,0.8-0.2c0.8,0.1,1.5,0.1,2.3,0.2c1,0.1,1.9,0.2,2.9,0.2
				c0.6,0.1,1.1,0.1,1.7,0.1c0.7,0.1,1.5,0.1,2.2,0.2c0.4,0,0.7,0.1,1.1,0.1c0.3,0,0.6-0.2,0.7-0.5c0.2-0.5,0.3-0.9,0.3-1.4
				c0-0.4-0.2-0.8-0.5-1c-0.7-0.6-1.5-1.1-2.2-1.7c-0.4-0.3-0.8-0.6-1.2-0.9c-0.1-0.1-0.2-0.1-0.2-0.2c0,0,0-0.1,0-0.1
				c0,0,0.1,0,0.1,0c0.2,0.3,0.6,0.5,0.9,0.7c0.9,0.7,1.9,1.4,2.8,2.2c0.4,0.3,0.5,0.7,0.4,1.2c-0.1,0.6-0.2,1.2-0.3,1.8
				c0,0.2-0.1,0.4-0.2,0.5c-0.2,0.3-0.6,0.3-0.9,0.2c-0.3-0.1-0.7,0-1-0.1c-0.8-0.1-1.6-0.1-2.4-0.2c-1-0.1-2-0.2-3-0.2
				c-0.7,0-1.5-0.1-2.2-0.2c-0.9-0.1-1.7-0.2-2.6-0.2C7.8,13.1,7.6,13.2,7.5,13.2z"/>
			<path class="st120" d="M16.4,7.4C16.4,7.5,16.4,7.5,16.4,7.4c0,0.1-0.1,0.2-0.1,0.2c0,0-0.1,0-0.1,0c0,0,0,0-0.1,0
				c-0.4-0.4-0.9-0.7-1.4-1.1c-0.4-0.3-0.8-0.6-1.2-0.9C13,5.3,12.6,5.2,12,5.3c-1.2,0.4-2.5,0.7-3.7,1C7.6,6.5,6.8,6.7,6.1,6.9
				C5.6,7.1,5.5,7.2,5.5,7.7c0,0.7,0,1.3,0,2c0,0.1,0,0.3-0.1,0.4c0,0.9,0,1.8,0,2.7c-0.1-0.3-0.1-0.6-0.2-1
				c-0.1-0.4-0.1-0.8-0.2-1.1c0-1.1,0-2.1,0-3.2c0-0.5,0.2-0.7,0.6-0.9c0.3-0.1,0.6-0.2,0.9-0.2c0.6-0.2,1.1-0.3,1.7-0.5
				c1.2-0.3,2.4-0.6,3.6-1c0.6-0.2,1,0,1.5,0.3c0.8,0.6,1.6,1.2,2.4,1.8C16.1,7.2,16.2,7.4,16.4,7.4z"/>
			<path class="st121" d="M5.5,10.1C5.5,9.3,5.5,8.5,5.5,7.7c0-0.5,0.1-0.7,0.6-0.8c1.2-0.4,2.5-0.7,3.8-1c0.7-0.2,1.5-0.4,2.2-0.6
				c0.6-0.2,1,0,1.5,0.4c0.6,0.5,1.3,1,1.9,1.5c0.2,0.2,0.5,0.3,0.7,0.6c0,0.2-0.2,0.2-0.3,0.3c-0.9,0.5-1.7,1.1-2.6,1.7
				c-0.7,0.4-1.4,0.9-2.1,1.3c-0.2,0.1-0.3,0.2-0.5,0.3c-0.4,0.2-0.7,0.4-1.1,0.7c-0.1,0-0.1,0.1-0.2,0.1c-0.9-0.1-1.8-0.1-2.7-0.2
				c-0.7,0-0.9-0.4-1-0.9C5.7,10.6,5.6,10.4,5.5,10.1z"/>
			<path class="st122" d="M9.3,12c0.1,0,0.1-0.1,0.2-0.1c0.4-0.1,0.8,0,1.2,0c0.6,0,1.2,0.1,1.8,0.1c0.5,0,1.1,0.1,1.6,0.1
				c0.6,0.1,1.3,0.1,1.9,0.1c0.7,0.1,1.4,0.1,2.2,0.2c0.4,0,0.8,0.1,1.3,0.1c0.2,0,0.4-0.1,0.5-0.3c0.2-0.4,0.3-0.8,0.2-1.2
				c0-0.4-0.3-0.6-0.5-0.8c-0.8-0.6-1.7-1.3-2.5-1.9c-0.3-0.3-0.7-0.5-1-0.8c0,0,0.1-0.1,0.1-0.1c0.3,0.3,0.7,0.6,1.1,0.8
				c0.8,0.7,1.7,1.3,2.6,1.9c0.4,0.3,0.6,0.7,0.5,1.3c-0.1,0.3-0.1,0.7-0.2,1c-0.2,0.6-0.5,0.9-1.1,0.7c-0.3-0.1-0.6-0.1-1-0.1
				c-1-0.1-2-0.2-3-0.2c-0.8,0-1.7-0.1-2.5-0.2c-0.9-0.1-1.7-0.1-2.6-0.2c-0.5,0-1.1-0.2-1.6,0C8.7,12.3,9.1,12.2,9.3,12z"/>
			<path class="st123" d="M10.6,11.2c0.4-0.4,0.9-0.6,1.3-0.9c0.9-0.6,1.9-1.2,2.9-1.8c0.4-0.3,0.9-0.5,1.3-0.9c0,0,0,0,0.1,0
				c0.3,0,0.5,0.3,0.7,0.4c1,0.7,1.9,1.4,2.9,2.2c0.1,0.1,0.3,0.2,0.4,0.4c0.2,0.4,0.1,0.9-0.2,1.2C19.8,12,19.6,12,19.5,12
				c-1.2-0.1-2.4-0.2-3.6-0.3c-1.1-0.1-2.2-0.2-3.2-0.2c-0.6,0-1.2-0.1-1.8-0.2C10.8,11.3,10.7,11.3,10.6,11.2z"/>
			<path class="st124" d="M10.6,11.2c0.8,0.1,1.6,0.2,2.4,0.2c0.8,0,1.6,0.2,2.4,0.2c0.6,0,1.1,0.1,1.7,0.1c0.8,0,1.6,0.1,2.4,0.2
				c0.3,0,0.5-0.1,0.6-0.3c0.2-0.4,0.2-0.7-0.2-1.1c-0.4-0.4-0.9-0.8-1.4-1.1c-0.8-0.6-1.5-1.2-2.3-1.8c0,0,0.1-0.1,0.1-0.1
				c0.3,0.1,0.5,0.4,0.8,0.6c0.8,0.6,1.6,1.2,2.4,1.8c0.1,0.1,0.3,0.2,0.4,0.4c0.4,0.3,0.5,0.7,0.4,1.2c0,0.2-0.1,0.3-0.1,0.5
				c-0.1,0.4-0.3,0.5-0.7,0.5c-0.7,0-1.4-0.1-2-0.1c-0.7,0-1.4-0.2-2.1-0.2c-0.8,0-1.6-0.1-2.4-0.2c-0.5,0-1-0.1-1.5-0.1
				c-0.6,0-1.2-0.1-1.8-0.1C9.9,11.6,10.2,11.4,10.6,11.2z"/>
		</g>
	</g>
</g>
</svg>
