<?xml version="1.0" encoding="utf-8"?>
<!-- Generator: Adobe Illustrator 27.0.0, SVG Export Plug-In . SVG Version: 6.00 Build 0)  -->
<svg version="1.1" id="Layer_1" xmlns="http://www.w3.org/2000/svg" xmlns:xlink="http://www.w3.org/1999/xlink" x="0px" y="0px"
	 viewBox="0 0 200 200" style="enable-background:new 0 0 200 200;" xml:space="preserve">
<style type="text/css">
	
		.st0{clip-path:url(#SVGID_00000123427983259952263300000005184958161977363626_);fill:url(#SVGID_00000074423940250459949630000006773959449826814393_);}
	.st1{fill:#FFFFFF;}
	
		.st2{clip-path:url(#SVGID_00000045599235824440525160000008201996520500671927_);fill:url(#SVGID_00000173880463669922582120000005454189998752937391_);}
	.st3{fill-rule:evenodd;clip-rule:evenodd;fill:#FFFFFF;}
	
		.st4{clip-path:url(#SVGID_00000110446905857231152500000000795074534720337541_);fill:url(#SVGID_00000067215632942000568740000008856408046432460452_);}
	
		.st5{clip-path:url(#SVGID_00000149347138068852649780000017151834768279242147_);fill-rule:evenodd;clip-rule:evenodd;fill:#FFFFFF;}
	
		.st6{clip-path:url(#SVGID_00000173865198872559227730000000927726267661640619_);fill:url(#SVGID_00000142165865878832034430000018383401246095246255_);}
	
		.st7{clip-path:url(#SVGID_00000066477923712330804500000002466627414521165478_);fill:url(#SVGID_00000152972172631229209740000008683365248687783069_);}
</style>
<g>
	<g>
		<defs>
			<polygon id="SVGID_00000101064083680025588210000000598754191021137058_" points="52.4,12.2 3.4,100 52.4,187.8 150.4,187.8 
				199.4,100 150.4,12.2 			"/>
		</defs>
		<clipPath id="SVGID_00000025437071271062043370000000926875785650822057_">
			<use xlink:href="#SVGID_00000101064083680025588210000000598754191021137058_"  style="overflow:visible;"/>
		</clipPath>
		
			<linearGradient id="SVGID_00000039122910908787099070000001459652077561545892_" gradientUnits="userSpaceOnUse" x1="-723.1628" y1="349.872" x2="-720.1575" y2="349.872" gradientTransform="matrix(0 71.1465 71.1465 0 -24790.7637 51465.1328)">
			<stop  offset="0" style="stop-color:#E82429"/>
			<stop  offset="1.938450e-02" style="stop-color:#E82429"/>
			<stop  offset="0.2423" style="stop-color:#E52429"/>
			<stop  offset="0.4032" style="stop-color:#DC2227"/>
			<stop  offset="0.5447" style="stop-color:#CC1F24"/>
			<stop  offset="0.675" style="stop-color:#B61C20"/>
			<stop  offset="0.7963" style="stop-color:#99171C"/>
			<stop  offset="0.9038" style="stop-color:#791216"/>
			<stop  offset="1" style="stop-color:#791216"/>
		</linearGradient>
		
			<rect x="3.4" y="12.2" style="clip-path:url(#SVGID_00000025437071271062043370000000926875785650822057_);fill:url(#SVGID_00000039122910908787099070000001459652077561545892_);" width="196.1" height="175.6"/>
	</g>
	<g>
		<defs>
			<path id="SVGID_00000128455913710619392770000012512580643026776767_" d="M105.6,94.8C96.2,95.9,88.8,105,83,105.4
				C85.7,97.3,93.4,93.9,105.6,94.8 M137.4,76.3c6-0.2,15.5,23.5,5.8,30.8C141.1,97.6,144,84,137.4,76.3 M71.8,66.9
				c3.7-0.3,7.8,0.2,11.6,0.7c4.9,0.6,9.4,1.2,12.4,0.3c4.6-1.2,2.8-8.4,6.5-10.4c6.1,9.1,7.7,22.8,11.2,34.6
				c-10.3-7.5-30.2-2.4-34.6,6.9c-6.1-4-41-15.7-74.7-6.6c-16.9,8.1,30.8,57.7,30.4,69.5c12.8-2,40-21.2,48.8-26.9
				c35.2,8.3,50.6-12.7,67.8-25.4c5.4-42.3-27.7-46.5-42.4-68.9c-3.5-0.9-7-1.4-10.3-1.4C80.4,39.3,66.2,52,71.8,66.9"/>
		</defs>
		<clipPath id="SVGID_00000179647551979815127380000007025822014964036489_">
			<use xlink:href="#SVGID_00000128455913710619392770000012512580643026776767_"  style="overflow:visible;"/>
		</clipPath>
		
			<polygon style="clip-path:url(#SVGID_00000179647551979815127380000007025822014964036489_);fill-rule:evenodd;clip-rule:evenodd;fill:#FFFFFF;" points="
			150.4,12.2 52.4,12.2 3.4,100 52.4,187.8 150.4,187.8 199.4,100 		"/>
	</g>
</g>
</svg>
