<?xml version="1.0" encoding="utf-8"?>
<!-- Generator: Adobe Illustrator 27.0.0, SVG Export Plug-In . SVG Version: 6.00 Build 0)  -->
<svg version="1.1" id="workspace" xmlns="http://www.w3.org/2000/svg" xmlns:xlink="http://www.w3.org/1999/xlink" x="0px" y="0px"
	 viewBox="0 0 40 40" style="enable-background:new 0 0 40 40;" xml:space="preserve">
<style type="text/css">
	.st0{fill:url(#SVGID_1_);}
</style>
<linearGradient id="SVGID_1_" gradientUnits="userSpaceOnUse" x1="9.9031" y1="32.9455" x2="25.9567" y2="5.14">
	<stop  offset="0" style="stop-color:#0096FF"/>
	<stop  offset="0.9068" style="stop-color:#000D5C"/>
</linearGradient>
<path class="st0" d="M19.3,38.3c0.1,0,0.2,0.1,0.3,0.1c0.1,0,0.2,0,0.3-0.1c3.9-2,11-6.5,14.5-14.5c1.7-3.9,2.4-8.3,1.8-12.5
	c0-0.2-0.3-0.4-0.6-0.5c-3.1-0.2-6.1-0.9-8.8-2.1c-2.6-1.2-5-2.8-6.8-4.7c-0.2-0.2-0.7-0.2-0.9,0c-1.8,1.9-4.2,3.6-6.8,4.7
	c-2.7,1.2-5.7,1.9-8.8,2.1C3.3,10.9,3,11,3,11.3c-0.6,4.3,0,8.6,1.8,12.5C8.3,31.8,15.4,36.3,19.3,38.3z M16.6,19.3
	c0.5,0,1-0.4,1-0.8v-4.8h4.1v4.8c0,0.5,0.4,0.8,1,0.8h5.6v3.5h-5.6c-0.5,0-1,0.4-1,0.8v4.8h-4.1v-4.8c0-0.5-0.4-0.8-1-0.8H11v-3.5
	H16.6z"/>
</svg>
