<?xml version="1.0" encoding="utf-8"?>
<!-- Generator: Adobe Illustrator 27.0.0, SVG Export Plug-In . SVG Version: 6.00 Build 0)  -->
<svg version="1.1" id="workspace" xmlns="http://www.w3.org/2000/svg" xmlns:xlink="http://www.w3.org/1999/xlink" x="0px" y="0px"
	 viewBox="0 0 40 40" style="enable-background:new 0 0 40 40;" xml:space="preserve">
<style type="text/css">
	.st0{fill:#9AD311;}
	.st1{fill:#006222;}
</style>
<g>
	<path class="st0" d="M33.6,25.2c0,0.4-0.1,0.8-0.1,1.2c-0.5,6-3.1,11.8-11.2,11.7c-1.1,0-2.4-0.1-3.8-0.4c0,0,0.6-1.6,1.9-3.8
		c0.4-0.7,0.9-1.6,1.5-2.4c1.8-2.6,4.2-5.2,7.4-6.6c-2.1,0.4-4,1.4-5.6,2.7c-3,2.6-5.2,6.1-6.1,8c-0.4,0.6-0.5,1.1-0.5,1.1
		c-0.2-0.9-0.4-2.1-0.5-3.5c-0.1-3.7,1-8.5,7.1-12.2c0.2-0.1,0.4-0.3,0.6-0.4c5.9-3.6,7.4-6.1,7.6-7.2c0-0.1,0.1-0.1,0.1-0.1
		s0.1,0,0.1,0.1C32.7,15,33.9,20.1,33.6,25.2z"/>
</g>
<path class="st1" d="M23.5,19.1c-0.3,0.2-0.6,0.4-0.9,0.5c-4,2.4-6.5,5.5-7.4,9.3c-0.1,0.4-0.1,0.8-0.2,1.2
	c-1.3-4.3-2.4-10.2-1.2-16c-4.6,10.1,1.6,23.2,1.6,23.2C12.1,36,4.5,31.9,6.3,17.9C7.6,7.4,6.3,3.7,5.6,2.5c-0.1-0.2,0-0.4,0.2-0.3
	c1.8,0.7,7.1,3.1,11.5,7.1c0.4,0.3,0.7,0.6,1.1,1C20.7,12.7,22.8,15.7,23.5,19.1z"/>
</svg>
