<?xml version="1.0" encoding="utf-8"?>
<!-- Generator: Adobe Illustrator 27.0.0, SVG Export Plug-In . SVG Version: 6.00 Build 0)  -->
<svg version="1.1" id="Layer_1" xmlns="http://www.w3.org/2000/svg" xmlns:xlink="http://www.w3.org/1999/xlink" x="0px" y="0px"
	 viewBox="0 0 40 40" style="enable-background:new 0 0 40 40;" xml:space="preserve">
<style type="text/css">
	.st0{fill:url(#SVGID_1_);}
	.st1{fill:none;}
	.st2{fill:url(#SVGID_00000154385111535106276930000000604962872008217238_);}
	.st3{fill:url(#SVGID_00000108297128946967479880000000333575587372820882_);}
	.st4{fill:url(#SVGID_00000021833220733764864770000014135877769058140562_);}
	.st5{fill:url(#SVGID_00000183250575805657026610000001266895340527684783_);}
	.st6{fill:url(#SVGID_00000003823171618821446130000017064209453441866668_);}
	.st7{fill:url(#SVGID_00000104692464300929493970000000552018440252346808_);}
	.st8{fill:url(#SVGID_00000079462787714202559930000015922287455469028766_);}
	.st9{fill:url(#SVGID_00000025400406820498904430000001504063186763623346_);}
	.st10{fill:url(#SVGID_00000015314244851189720180000016340170573007735719_);}
	.st11{fill:url(#SVGID_00000016753928955972195660000006516187050178532506_);}
	.st12{fill:url(#SVGID_00000023279822478359136110000013309926995835798934_);}
	.st13{fill:url(#SVGID_00000057107435094934783140000011494176927215893675_);}
	.st14{fill:url(#SVGID_00000023242047421551415550000013843111144354266777_);}
	.st15{fill:url(#SVGID_00000118385211032369594290000012118265524295189387_);}
	.st16{fill:url(#SVGID_00000045583230069789078390000000757637703521384354_);}
	.st17{fill:url(#SVGID_00000032615670315198361120000015192603130279517870_);}
	.st18{fill:url(#SVGID_00000018234491122074256050000016714929604916707975_);}
	.st19{fill:url(#SVGID_00000108278023844497587190000004245558811733600446_);}
	.st20{fill:url(#SVGID_00000008141401417670763610000017398408158685078167_);}
</style>
<g>
	<g>
		<g>
			
				<linearGradient id="SVGID_1_" gradientUnits="userSpaceOnUse" x1="-143.6351" y1="309.3898" x2="-125.8261" y2="309.3898" gradientTransform="matrix(0.9788 0.2048 -0.2048 0.9788 220.7679 -249.3174)">
				<stop  offset="0" style="stop-color:#007C29"/>
				<stop  offset="0.12" style="stop-color:#0E8626"/>
				<stop  offset="0.346" style="stop-color:#32A01E"/>
				<stop  offset="0.6541" style="stop-color:#6DCA11"/>
				<stop  offset="1" style="stop-color:#B7FF00"/>
			</linearGradient>
			<path class="st0" d="M18.5,15.8c0,0,3.6,6.1,3.8,10.9c0.1,5.1-1,13.4-1,13.4s2.2-12,5.5-16.3c3.3-4.2,10.5-10.4,10.5-10.4
				s-8.9,6.9-12.7,6.6C21.4,19.7,18.5,15.8,18.5,15.8z"/>
			<path class="st1" d="M37.3,13.3C37.3,13.3,37.2,13.4,37.3,13.3C37.2,13.4,37.3,13.3,37.3,13.3z"/>
			
				<linearGradient id="SVGID_00000098196330098841726400000003678916279438462359_" gradientUnits="userSpaceOnUse" x1="-143.6351" y1="309.3898" x2="-125.8261" y2="309.3898" gradientTransform="matrix(0.9788 0.2048 -0.2048 0.9788 220.7679 -249.3174)">
				<stop  offset="0" style="stop-color:#007C29"/>
				<stop  offset="0.12" style="stop-color:#0E8626"/>
				<stop  offset="0.346" style="stop-color:#32A01E"/>
				<stop  offset="0.6541" style="stop-color:#6DCA11"/>
				<stop  offset="1" style="stop-color:#B7FF00"/>
			</linearGradient>
			<path style="fill:url(#SVGID_00000098196330098841726400000003678916279438462359_);" d="M29.2,19.2c-2.3,1.5-4.3,2.6-6.1,2
				c-1.5-0.6-4.5-5.3-4.5-5.3s3.6,6.1,3.8,10.9c0.1,5.1-1,13.4-1,13.4s2.2-12,5.5-16.3c3.3-4.2,10.5-10.4,10.5-10.4s0,0,0,0
				C36.7,13.8,31.4,17.8,29.2,19.2z"/>
			
				<linearGradient id="SVGID_00000100348665856524603510000005100917252595027114_" gradientUnits="userSpaceOnUse" x1="27.493" y1="-26.9365" x2="28.4939" y2="-34.6251" gradientTransform="matrix(0.9994 -3.330000e-02 3.330000e-02 0.9994 0.5334 50.1357)">
				<stop  offset="0" style="stop-color:#B7FF00"/>
				<stop  offset="0.3459" style="stop-color:#6DCA11"/>
				<stop  offset="0.654" style="stop-color:#32A01E"/>
				<stop  offset="0.88" style="stop-color:#0E8626"/>
				<stop  offset="1" style="stop-color:#007C29"/>
			</linearGradient>
			<path style="fill:url(#SVGID_00000100348665856524603510000005100917252595027114_);" d="M37.1,13.4c-0.8,0.6-5.8,4.4-7.9,5.8
				c-2.3,1.5-4.3,2.6-6.1,2c-1.4-0.5-4.3-4.9-4.5-5.3c0.3,0.4,3.2,4.6,4.6,5.2c1.8,0.7,3.8-0.5,6.1-2c1.9-1.2,6-4.3,7.5-5.4
				c0,0,0.1,0,0.1-0.1c0,0,0,0,0,0c0,0,0.1-0.1,0.1-0.1C37,13.5,37.1,13.5,37.1,13.4z"/>
			
				<linearGradient id="SVGID_00000047743850431688006160000005892310553828725143_" gradientUnits="userSpaceOnUse" x1="19.1419" y1="-31.6307" x2="37.4647" y2="-31.6307" gradientTransform="matrix(0.9994 -3.330000e-02 3.330000e-02 0.9994 0.5334 50.1357)">
				<stop  offset="0" style="stop-color:#B7FF00"/>
				<stop  offset="0.3459" style="stop-color:#6DCA11"/>
				<stop  offset="0.654" style="stop-color:#32A01E"/>
				<stop  offset="0.88" style="stop-color:#0E8626"/>
				<stop  offset="1" style="stop-color:#007C29"/>
			</linearGradient>
			<path style="fill:url(#SVGID_00000047743850431688006160000005892310553828725143_);" d="M36.8,13.7c-1.5,1.1-5.6,4.2-7.5,5.4
				c-2.3,1.5-4.3,2.6-6.1,2c-1.4-0.5-4.3-4.8-4.6-5.2c0,0,0,0,0,0c0,0,0,0,0,0c0,0,0,0,0,0c0.2,0.3,3,3.8,6,4
				C27.9,20.2,34.9,15.1,36.8,13.7z"/>
			
				<linearGradient id="SVGID_00000109731659145453632630000011548594430837009553_" gradientUnits="userSpaceOnUse" x1="30.713" y1="-29.7041" x2="34.6186" y2="-34.7284" gradientTransform="matrix(0.9994 -3.330000e-02 3.330000e-02 0.9994 0.5334 50.1357)">
				<stop  offset="0" style="stop-color:#000000"/>
				<stop  offset="1" style="stop-color:#FFFFFF"/>
			</linearGradient>
			<path style="fill:url(#SVGID_00000109731659145453632630000011548594430837009553_);" d="M27.8,19.2c0.8-0.2,1.4-0.5,2.1-0.7
				c0.3-0.1,0.5-0.2,0.8-0.4c2.5-1.8,6-4.4,6.5-4.7C36.7,13.8,31.8,17.6,27.8,19.2z"/>
			<g>
				
					<linearGradient id="SVGID_00000076595093874537294870000015712564957880202154_" gradientUnits="userSpaceOnUse" x1="-136.4478" y1="295.0521" x2="-138.8391" y2="299.8347" gradientTransform="matrix(0.9788 0.2048 -0.2048 0.9788 220.7679 -249.3174)">
					<stop  offset="0.4643" style="stop-color:#B7FF00"/>
					<stop  offset="1" style="stop-color:#007C29"/>
				</linearGradient>
				<path style="fill:url(#SVGID_00000076595093874537294870000015712564957880202154_);" d="M28.1,12.8c-0.4-0.5-1-1-1.7-1.1
					c-1.5-0.3-3,0.6-3.3,2.1c-0.2,0.7,0,1.4,0.4,2c-0.4-0.6-0.6-1.3-0.4-2.1c0.3-1.5,1.8-2.4,3.3-2.1C27.1,11.7,27.8,12.2,28.1,12.8
					z"/>
				
					<linearGradient id="SVGID_00000168084923901133637100000014977388516430078129_" gradientUnits="userSpaceOnUse" x1="-136.6056" y1="300.9193" x2="-136.7043" y2="298.9826" gradientTransform="matrix(0.9788 0.2048 -0.2048 0.9788 220.7679 -249.3174)">
					<stop  offset="0" style="stop-color:#007C29"/>
					<stop  offset="0.12" style="stop-color:#0E8626"/>
					<stop  offset="0.346" style="stop-color:#32A01E"/>
					<stop  offset="0.6541" style="stop-color:#6DCA11"/>
					<stop  offset="1" style="stop-color:#B7FF00"/>
				</linearGradient>
				<path style="fill:url(#SVGID_00000168084923901133637100000014977388516430078129_);" d="M28.5,14.8c-0.3,1.5-1.8,2.4-3.3,2.1
					c-0.7-0.1-1.3-0.6-1.7-1.1c0,0,0,0,0,0c-0.2-0.3-0.3-0.7-0.4-1c0.1,0.3,0.2,0.7,0.4,0.9c0,0,0,0,0,0c0.4,0.5,1,1,1.7,1.1
					C26.7,17.1,28.2,16.2,28.5,14.8c0.1-0.4,0.1-0.7,0-1C28.6,14.1,28.6,14.4,28.5,14.8z"/>
				
					<linearGradient id="SVGID_00000112624138867220404350000014363582056256531845_" gradientUnits="userSpaceOnUse" x1="-135.2205" y1="294.6721" x2="-138.1044" y2="300.44" gradientTransform="matrix(0.9788 0.2048 -0.2048 0.9788 220.7679 -249.3174)">
					<stop  offset="0" style="stop-color:#007C29"/>
					<stop  offset="0.12" style="stop-color:#0E8626"/>
					<stop  offset="0.346" style="stop-color:#32A01E"/>
					<stop  offset="0.6541" style="stop-color:#6DCA11"/>
					<stop  offset="1" style="stop-color:#B7FF00"/>
				</linearGradient>
				<path style="fill:url(#SVGID_00000112624138867220404350000014363582056256531845_);" d="M28.5,14.7c-0.3,1.5-1.8,2.4-3.3,2.1
					c-0.7-0.1-1.3-0.6-1.7-1.1c0,0,0,0,0,0c-0.2-0.3-0.3-0.6-0.4-0.9c0,0,0,0,0,0c0-0.3,0-0.6,0-1c0.3-1.5,1.8-2.4,3.3-2.1
					c0.7,0.1,1.3,0.6,1.7,1.1c0,0,0,0,0,0c0.2,0.3,0.3,0.6,0.4,1c0,0,0,0,0,0C28.6,14.1,28.6,14.4,28.5,14.7z"/>
				
					<linearGradient id="SVGID_00000179623804738070411150000009601278798126295188_" gradientUnits="userSpaceOnUse" x1="-136.8234" y1="297.9149" x2="-137.6079" y2="295.451" gradientTransform="matrix(0.9788 0.2048 -0.2048 0.9788 220.7679 -249.3174)">
					<stop  offset="0" style="stop-color:#000000"/>
					<stop  offset="1" style="stop-color:#FFFFFF"/>
				</linearGradient>
				<path style="fill:url(#SVGID_00000179623804738070411150000009601278798126295188_);" d="M28.5,14.2c-0.1-0.2-0.2-0.4-0.3-0.5
					c0,0,0,0,0,0c-0.4-0.5-1-0.9-1.7-1.1c-1.5-0.3-2.9,0.6-3.2,2c0,0.2-0.1,0.4-0.1,0.5c-0.1-0.4-0.2-0.9-0.1-1.4
					c0.3-1.4,1.7-2.3,3.2-2c0.7,0.1,1.3,0.5,1.7,1.1c0,0,0,0,0,0C28.4,13.2,28.5,13.7,28.5,14.2z"/>
			</g>
			
				<linearGradient id="SVGID_00000171718720068166883870000010338850326479059103_" gradientUnits="userSpaceOnUse" x1="21.0655" y1="-20.7731" x2="33.7637" y2="-20.7731" gradientTransform="matrix(0.9994 -3.330000e-02 3.330000e-02 0.9994 0.5334 50.1357)">
				<stop  offset="0" style="stop-color:#000000"/>
				<stop  offset="1" style="stop-color:#FFFFFF"/>
			</linearGradient>
			<path style="fill:url(#SVGID_00000171718720068166883870000010338850326479059103_);" d="M24.9,23.3c-1,1-1.7,1.9-2.5,3.3
				c0,0.1,0,0.1,0,0.2c0.1,5.1-1.1,13.4-1.1,13.4s1.9-11.7,5.4-16.3c1.7-2.1,4.3-4.8,6.5-6.9C30.2,18.7,27.5,20.7,24.9,23.3z"/>
		</g>
		<g>
			<g>
				
					<linearGradient id="SVGID_00000058579356106001697630000007856762273052649631_" gradientUnits="userSpaceOnUse" x1="18.8312" y1="-53.2863" x2="16.2523" y2="-48.1285" gradientTransform="matrix(0.9991 -4.260000e-02 4.260000e-02 0.9991 -4.9489 58.2325)">
					<stop  offset="0.4643" style="stop-color:#B7FF00"/>
					<stop  offset="1" style="stop-color:#007C29"/>
				</linearGradient>
				<path style="fill:url(#SVGID_00000058579356106001697630000007856762273052649631_);" d="M13.4,5.2c-0.6-0.5-1.3-0.7-2.1-0.7
					c-1.7,0.1-3,1.4-2.9,3c0,0.8,0.4,1.5,0.9,2c-0.6-0.5-1-1.2-1-2.1c-0.1-1.6,1.2-3,2.9-3C12,4.3,12.8,4.6,13.4,5.2z"/>
				
					<linearGradient id="SVGID_00000182501402769058749830000007025389772782219931_" gradientUnits="userSpaceOnUse" x1="18.682" y1="-46.9298" x2="18.5755" y2="-49.021" gradientTransform="matrix(0.9991 -4.260000e-02 4.260000e-02 0.9991 -4.9489 58.2325)">
					<stop  offset="0" style="stop-color:#007C29"/>
					<stop  offset="0.12" style="stop-color:#0E8626"/>
					<stop  offset="0.346" style="stop-color:#32A01E"/>
					<stop  offset="0.6541" style="stop-color:#6DCA11"/>
					<stop  offset="1" style="stop-color:#B7FF00"/>
				</linearGradient>
				<path style="fill:url(#SVGID_00000182501402769058749830000007025389772782219931_);" d="M14.3,7.2c0.1,1.6-1.2,3-2.9,3.1
					c-0.8,0-1.5-0.2-2.1-0.7c0,0,0,0,0,0C9,9.2,8.8,8.9,8.6,8.5C8.8,8.9,9,9.2,9.3,9.4c0,0,0,0,0,0c0.6,0.5,1.3,0.7,2.1,0.7
					C13,10.1,14.3,8.7,14.3,7.2c0-0.4-0.1-0.7-0.2-1C14.2,6.4,14.3,6.8,14.3,7.2z"/>
				
					<linearGradient id="SVGID_00000121260362123418022920000016083749192309612987_" gradientUnits="userSpaceOnUse" x1="20.1713" y1="-53.6878" x2="17.0599" y2="-47.4651" gradientTransform="matrix(0.9991 -4.260000e-02 4.260000e-02 0.9991 -4.9489 58.2325)">
					<stop  offset="0" style="stop-color:#007C29"/>
					<stop  offset="0.12" style="stop-color:#0E8626"/>
					<stop  offset="0.346" style="stop-color:#32A01E"/>
					<stop  offset="0.6541" style="stop-color:#6DCA11"/>
					<stop  offset="1" style="stop-color:#B7FF00"/>
				</linearGradient>
				<path style="fill:url(#SVGID_00000121260362123418022920000016083749192309612987_);" d="M14.3,7.1c0.1,1.6-1.2,3-2.9,3.1
					c-0.8,0-1.5-0.2-2.1-0.7c0,0,0,0,0,0C9,9.2,8.8,8.9,8.6,8.5c0,0,0,0,0,0c-0.1-0.3-0.2-0.7-0.2-1c-0.1-1.6,1.2-3,2.9-3
					c0.8,0,1.5,0.2,2.1,0.7c0,0,0,0,0,0c0.3,0.3,0.5,0.6,0.7,0.9c0,0,0,0,0,0C14.2,6.4,14.3,6.7,14.3,7.1z"/>
				
					<linearGradient id="SVGID_00000036946753762516811010000016797022674863642019_" gradientUnits="userSpaceOnUse" x1="18.4377" y1="-50.2034" x2="17.5874" y2="-52.8739" gradientTransform="matrix(0.9991 -4.260000e-02 4.260000e-02 0.9991 -4.9489 58.2325)">
					<stop  offset="0" style="stop-color:#000000"/>
					<stop  offset="1" style="stop-color:#FFFFFF"/>
				</linearGradient>
				<path style="fill:url(#SVGID_00000036946753762516811010000016797022674863642019_);" d="M14.1,6.6c-0.1-0.2-0.3-0.4-0.4-0.5
					c0,0,0,0,0,0c-0.5-0.5-1.3-0.7-2-0.7c-1.6,0.1-2.9,1.4-2.8,3c0,0.2,0,0.4,0.1,0.6C8.7,8.5,8.5,8,8.5,7.5c-0.1-1.6,1.2-2.9,2.8-3
					c0.8,0,1.5,0.2,2,0.7c0,0,0,0,0,0C13.7,5.6,14,6,14.1,6.6z"/>
			</g>
			
				<linearGradient id="SVGID_00000007395900290639763160000006799470518222482587_" gradientUnits="userSpaceOnUse" x1="10.1157" y1="-36.953" x2="32.573" y2="-36.953" gradientTransform="matrix(0.9991 -4.260000e-02 4.260000e-02 0.9991 -4.9489 58.2325)">
				<stop  offset="0" style="stop-color:#007C29"/>
				<stop  offset="0.12" style="stop-color:#0E8626"/>
				<stop  offset="0.346" style="stop-color:#32A01E"/>
				<stop  offset="0.6541" style="stop-color:#6DCA11"/>
				<stop  offset="1" style="stop-color:#B7FF00"/>
			</linearGradient>
			<path style="fill:url(#SVGID_00000007395900290639763160000006799470518222482587_);" d="M3.1,9.8c0,0,6.9,6.8,8.6,12.4
				c1.7,6,2.9,16.1,2.9,16.1s-1.1-14.9,1.5-20.9c2.6-6,9.2-15.4,9.2-15.4s-8.4,10.7-13,11.5C8.4,14.2,3.1,9.8,3.1,9.8z"/>
			
				<linearGradient id="SVGID_00000055670553260625112380000016205264237701857952_" gradientUnits="userSpaceOnUse" x1="3.9366" y1="-29.2819" x2="26.3015" y2="-29.2819" gradientTransform="matrix(0.9994 -3.330000e-02 3.330000e-02 0.9994 0.5334 50.1357)">
				<stop  offset="0" style="stop-color:#007C29"/>
				<stop  offset="0.12" style="stop-color:#0E8626"/>
				<stop  offset="0.346" style="stop-color:#32A01E"/>
				<stop  offset="0.6541" style="stop-color:#6DCA11"/>
				<stop  offset="1" style="stop-color:#B7FF00"/>
			</linearGradient>
			<path style="fill:url(#SVGID_00000055670553260625112380000016205264237701857952_);" d="M16.1,17.4c-2.6,6.1-1.5,20.9-1.5,20.9
				s-1.2-10.2-2.9-16.1c-1.6-5.4-8.2-12-8.5-12.4c0.3,0.3,5.9,5.4,8.3,5.7c2.3,0.3,4.2-1.3,5.1-2.4c0.9-1.1,6.2-7.7,6.2-7.7L25.2,2
				C24.9,2.4,18.6,11.6,16.1,17.4z"/>
			
				<linearGradient id="SVGID_00000049213694405200846550000016537209520789023418_" gradientUnits="userSpaceOnUse" x1="7.2539" y1="-26.0958" x2="14.4747" y2="-26.5374" gradientTransform="matrix(0.9994 -3.330000e-02 3.330000e-02 0.9994 0.5334 50.1357)">
				<stop  offset="0" style="stop-color:#FFFFFF"/>
				<stop  offset="1" style="stop-color:#000000"/>
			</linearGradient>
			<path style="fill:url(#SVGID_00000049213694405200846550000016537209520789023418_);" d="M8.7,14.9c-1-0.8-1.9-1.7-2.7-2.5
				C5,11.6,3.3,10,3.2,9.9c0.3,0.3,7,7,8.5,12.1c1.7,5.7,2.8,15.4,2.8,15.4s-0.7-8.9,0.3-15.5C13.3,19.2,11.1,16.8,8.7,14.9z"/>
			
				<linearGradient id="SVGID_00000060733309898544229090000009299099572965908650_" gradientUnits="userSpaceOnUse" x1="19.1182" y1="-37.1633" x2="13.8331" y2="-45.8523" gradientTransform="matrix(0.9994 -3.330000e-02 3.330000e-02 0.9994 0.5334 50.1357)">
				<stop  offset="0" style="stop-color:#B7FF00"/>
				<stop  offset="0.3459" style="stop-color:#6DCA11"/>
				<stop  offset="0.654" style="stop-color:#32A01E"/>
				<stop  offset="0.88" style="stop-color:#0E8626"/>
				<stop  offset="1" style="stop-color:#007C29"/>
			</linearGradient>
			<path style="fill:url(#SVGID_00000060733309898544229090000009299099572965908650_);" d="M25.2,2l-2.5,3.4c0,0-5.4,6.6-6.2,7.7
				c-0.9,1.1-2.8,2.7-5.1,2.4c-2.3-0.3-7.5-5-8.2-5.6c0.8,0.7,5.9,5.3,8.2,5.5c2.3,0.3,4.2-1.3,5.1-2.4c0.9-1.1,6.2-7.7,6.2-7.7
				L25.2,2z"/>
			
				<linearGradient id="SVGID_00000167381563762059347660000016492894537104345520_" gradientUnits="userSpaceOnUse" x1="3.9178" y1="-40.6412" x2="26.3646" y2="-40.8503" gradientTransform="matrix(0.9994 -3.330000e-02 3.330000e-02 0.9994 0.5334 50.1357)">
				<stop  offset="0" style="stop-color:#B7FF00"/>
				<stop  offset="0.3459" style="stop-color:#6DCA11"/>
				<stop  offset="0.654" style="stop-color:#32A01E"/>
				<stop  offset="0.88" style="stop-color:#0E8626"/>
				<stop  offset="1" style="stop-color:#007C29"/>
			</linearGradient>
			<path style="fill:url(#SVGID_00000167381563762059347660000016492894537104345520_);" d="M25.2,2L25.2,2L25.2,2l-2.5,3.3
				c0,0-5.4,6.6-6.2,7.7c-0.9,1.1-2.8,2.7-5.1,2.4C9.1,15.2,4,10.6,3.2,9.9c0,0-0.1-0.1-0.1-0.1c0,0,0,0,0,0c0,0,0,0,0,0
				c0,0,0,0,0,0c0,0,0,0,0,0c0.1,0.1,5.3,4.3,9.1,3.7c4.3-0.7,11.8-10,12.9-11.3C25.1,2.1,25.2,2.1,25.2,2C25.2,2.1,25.2,2,25.2,2
				C25.2,2,25.2,2,25.2,2C25.2,2,25.2,2,25.2,2C25.2,2,25.2,2,25.2,2z"/>
			
				<linearGradient id="SVGID_00000058567470770293807560000011116134488257868163_" gradientUnits="userSpaceOnUse" x1="21.7776" y1="-40.0893" x2="20.2998" y2="-41.9893" gradientTransform="matrix(0.9994 -3.330000e-02 3.330000e-02 0.9994 0.5334 50.1357)">
				<stop  offset="0" style="stop-color:#000000"/>
				<stop  offset="1" style="stop-color:#FFFFFF"/>
			</linearGradient>
			<path style="fill:url(#SVGID_00000058567470770293807560000011116134488257868163_);" d="M25.2,2.1L25.2,2.1L25.2,2.1
				C25.2,2.1,25.2,2.1,25.2,2.1C25.2,2.1,25.2,2.1,25.2,2.1C25.2,2.1,25.2,2.1,25.2,2.1C25.2,2.1,25.2,2.1,25.2,2.1
				c-0.1,0.1-0.1,0.1-0.1,0.1c-1,1.2-7.7,9.3-11.3,10.8c1.8-0.1,3.7-1.7,4.4-2.4c0.7-0.7,4.7-5.5,4.7-5.5L25.2,2.1z"/>
		</g>
	</g>
</g>
</svg>
