<?xml version="1.0" encoding="utf-8"?>
<!-- Generator: Adobe Illustrator 27.0.0, SVG Export Plug-In . SVG Version: 6.00 Build 0)  -->
<svg version="1.1" id="workspace" xmlns="http://www.w3.org/2000/svg" xmlns:xlink="http://www.w3.org/1999/xlink" x="0px" y="0px"
	 viewBox="0 0 40 40" style="enable-background:new 0 0 40 40;" xml:space="preserve">
<style type="text/css">
	.st0{fill:#606060;}
	.st1{fill:#FFC446;}
	.st2{opacity:0.16;}
	.st3{fill:#86CC4D;}
</style>
<g>
	<polygon class="st0" points="8.4,19.9 8.4,19.9 8.3,19.9 	"/>
	<path class="st1" d="M8,14.5c0.4-1.4,0.1-2.3-0.1-2.8c-1.1-0.5-3.3-1.1-4.3,1.2c-0.6,1.4-0.4,2.5,0,3.2C4.8,16.5,7.6,16.2,8,14.5z
		 M5.1,13.3L5.1,13.3c-0.1,0-0.1,0-0.2,0c0,0-0.1-0.1-0.1-0.1c0,0,0,0,0,0c0,0,0,0,0,0c0,0,0-0.1,0-0.1c0-0.1,0.2-0.3,0.6-0.4
		c0.4-0.1,0.8-0.2,1.2-0.2c0.2,0,0.4,0.1,0.6,0.2c0.1,0.1,0.2,0.2,0.2,0.3c0,0,0,0.1,0,0.1c0,0.1,0,0.2-0.1,0.4
		C7.1,13.6,7,13.8,6.7,14c0.3,0.1,0.4,0.2,0.5,0.3c0,0.1,0.1,0.1,0.1,0.2c0,0.1,0,0.1,0,0.2c0,0.3-0.2,0.5-0.5,0.8
		C6.5,15.8,6.2,16,5.8,16c-0.2,0-0.3,0-0.3-0.1c0,0,0-0.1,0-0.1c0-0.2,0.1-0.3,0.4-0.3H6c0.1,0,0.3-0.1,0.5-0.2
		c0.2-0.2,0.3-0.3,0.3-0.5c0,0,0,0,0-0.1c0-0.1-0.1-0.1-0.1-0.2c-0.1-0.1-0.2-0.1-0.3-0.1c0,0-0.1,0-0.2,0.1c-0.1,0-0.2,0.1-0.2,0.1
		c-0.1,0-0.2,0-0.3,0c0,0,0,0,0-0.1c0,0,0-0.1,0-0.1c0-0.1,0.1-0.2,0.4-0.3c0.2-0.1,0.3-0.2,0.5-0.3c0.2-0.2,0.2-0.3,0.2-0.4
		c0,0,0-0.1,0-0.1C6.8,13,6.7,13,6.5,13c-0.2,0-0.4,0-0.6,0.1c-0.2,0-0.3,0.1-0.3,0.2c0,0.1-0.1,0.4-0.2,1s-0.1,0.9-0.1,1l0,0.3
		c0,0.1,0,0.2-0.1,0.3c-0.1,0-0.1,0.1-0.2,0.1c-0.1,0-0.2-0.1-0.3-0.2c0,0,0-0.1,0-0.2c0,0,0-0.1,0-0.2C4.9,15,4.9,14.6,5,14.2
		c0.1-0.5,0.1-0.7,0.1-0.7C5.1,13.4,5.1,13.4,5.1,13.3C5.1,13.4,5.1,13.3,5.1,13.3z"/>
	<path class="st2" d="M8.4,9.7l0.1,0.1C8.4,9.7,8.4,9.7,8.4,9.7L8.4,9.7z"/>
	<path class="st2" d="M22.2,36.9c0.1,0.1,0.2,0.2,0.4,0.3c0.1,0.1,0.2,0.2,0.2,0.2c0,0,0,0,0,0c0,0,0,0,0,0c0-0.1-0.1-0.2-0.2-0.2
		C22.4,37.2,22.3,37.1,22.2,36.9c-0.1-0.1-0.1-0.1-0.2-0.2c0,0,0-0.1-0.1-0.1c0,0,0,0.1,0.1,0.1C22.1,36.8,22.1,36.9,22.2,36.9z"/>
	<g>
		<path class="st0" d="M16.7,14.9C16.7,14.9,16.7,14.9,16.7,14.9C16.7,14.9,16.7,14.9,16.7,14.9z"/>
		<path class="st1" d="M10.7,26.5c-0.2,0-0.4,0-0.6,0.1c0,0-0.1,0-0.1,0c-0.2,0.9-0.2,1.6-0.2,2c0,0.1,0,0.1,0,0.1
			c0.1,0,0.3-0.1,0.6-0.2c0.3-0.1,0.6-0.3,0.8-0.5c0.2-0.2,0.3-0.5,0.3-0.8c0-0.1,0-0.1,0-0.2c0-0.2-0.1-0.3-0.2-0.4
			C11.1,26.6,10.9,26.5,10.7,26.5z"/>
		<path class="st1" d="M12.3,27.9c0.4-1.6,0-2.7-0.2-3.1c-1.2-0.5-3.2-0.9-4.2,1.3c-0.7,1.6-0.4,2.7,0.1,3.5
			C9.3,29.9,11.8,29.6,12.3,27.9z M9.1,29l0-0.1c0-0.1,0-0.2,0-0.4c0-0.5,0.1-1,0.2-1.5c0-0.1,0-0.2,0-0.3c0,0,0,0,0,0c0,0,0,0,0,0
			c-0.1,0-0.2-0.1-0.2-0.1c0,0,0,0,0-0.1c0-0.1,0-0.1,0.1-0.2c0.1-0.1,0.1-0.1,0.2-0.1l0.3,0c0.1,0,0.3,0,0.5,0c0.2,0,0.3,0,0.5,0
			c0.4,0,0.7,0.1,0.9,0.3c0.2,0.2,0.3,0.4,0.3,0.6c0,0.1,0,0.2,0,0.3c0,0.4-0.2,0.8-0.6,1.1c-0.4,0.3-0.8,0.6-1.3,0.7
			c-0.1,0-0.2,0.1-0.3,0.1c-0.1,0-0.1,0.1-0.2,0.1c-0.1,0.1-0.2,0.1-0.3,0.1c-0.1,0-0.1,0-0.2-0.1c0,0,0-0.1-0.1-0.1
			c0,0,0-0.1,0-0.1C9.1,29.1,9.1,29,9.1,29z"/>
		<path class="st3" d="M20.6,6c0.1-1.2-0.1-1.9-0.4-2.3c-0.4-0.1-0.8,0-1.1,0.1c-0.7,0.3-0.8,1.1-0.6,2.5c0.2,1.2,0.8,1.6,1,1.7
			c0,0,0,0,0,0c0.1,0,0.2,0.1,0.3,0.1C19.8,8.1,20.5,7.8,20.6,6z"/>
		<path class="st0" d="M31.3,19.9C31.4,19.9,31.4,19.9,31.3,19.9C31.4,19.8,31.4,19.8,31.3,19.9L31.3,19.9
			C31.3,19.9,31.3,19.9,31.3,19.9z"/>
		<path class="st1" d="M30.8,7c0.4-1.5,0.1-2.5-0.1-3c-1.1-0.5-3.3-1.1-4.3,1.3c-0.7,1.5-0.4,2.6,0,3.3C27.4,9.1,30.3,8.8,30.8,7z
			 M27.7,6.4c0.2-0.4,0.5-0.7,0.8-1s0.7-0.4,1-0.4c0.2,0,0.3,0.1,0.4,0.2c0.1,0.1,0.1,0.2,0.2,0.3c0,0,0,0.1,0,0.1
			c0,0.2,0,0.3,0,0.4C30,6,30,6.1,29.9,6.1c-0.1,0.1-0.1,0.1-0.2,0.1c-0.1,0-0.1,0-0.1-0.1c0,0,0,0,0-0.1c0,0,0-0.1,0-0.1
			c0,0,0-0.1,0-0.2c0-0.1,0-0.2,0-0.2c0,0,0,0,0-0.1c0-0.1,0-0.1-0.1-0.1c-0.2,0-0.4,0.1-0.7,0.3c-0.2,0.2-0.5,0.5-0.6,0.8
			c-0.2,0.3-0.3,0.6-0.3,0.9c0,0.1,0,0.2,0,0.2C28,7.7,28,7.8,28,7.8C28.1,7.9,28.3,8,28.4,8c0.1,0,0.2,0,0.4-0.1
			c0.2-0.1,0.3-0.1,0.4-0.2c0.1-0.1,0.2-0.2,0.3-0.2c0.1,0,0.1,0,0.1,0.1c0,0,0,0,0,0.1c0,0.1-0.2,0.3-0.5,0.5
			c-0.3,0.2-0.6,0.3-0.9,0.3c-0.3,0-0.5-0.1-0.7-0.3c-0.2-0.1-0.3-0.3-0.3-0.5c0-0.1,0-0.1,0-0.2C27.4,7.1,27.5,6.8,27.7,6.4z"/>
		<path class="st1" d="M11,5.9L10.4,7c0.1,0,0.2,0,0.3,0c0.1,0,0.2,0,0.5-0.1c0.1,0,0.1,0,0.2,0C11.3,6.8,11.2,6.5,11,5.9
			C11,5.9,11,5.9,11,5.9z"/>
		<path class="st1" d="M12,8.3c0,0-0.1-0.1-0.1-0.1c-0.1-0.1-0.2-0.3-0.3-0.5c-0.1-0.2-0.1-0.3-0.1-0.3c0,0,0,0,0,0c0,0,0,0,0,0
			c-0.1,0-0.2,0-0.5,0.1c-0.3,0.1-0.5,0.1-0.6,0.2c0,0-0.1,0-0.1,0c-0.1,0-0.1,0-0.1,0c0,0.1-0.1,0.2-0.2,0.4
			C9.7,8.1,9.7,8.2,9.6,8.2c0,0-0.1,0-0.1,0c-0.1,0-0.1,0-0.2-0.1c-0.1,0-0.1-0.1-0.1-0.1c0,0,0,0,0,0c0-0.1,0.2-0.4,0.5-0.9
			c0.2-0.3,0.4-0.6,0.5-0.9c0.3-0.6,0.5-0.9,0.6-1C10.9,5.1,11,5.1,11,5.1c0.1,0,0.2,0,0.3,0.1c0,0,0,0,0,0.1c0,0,0,0.1,0,0.1
			c0,0.1,0,0.1,0,0.1c0.3,0.8,0.5,1.3,0.6,1.7c0.1,0.3,0.3,0.6,0.4,0.7c0,0,0.1,0.1,0.1,0.1c0.2-0.2,0.4-0.5,0.5-0.8
			c0.4-1.5,0.1-2.5-0.1-3C11.7,3.6,9.5,3,8.5,5.3C7.8,6.9,8.1,8.1,8.6,8.8C9.5,9,11,9,12,8.3z"/>
		<path class="st1" d="M35.7,14.7c0.4-1.6,0-2.7-0.2-3.1c-1.1-0.6-3.4-1.2-4.4,1.1c-0.7,1.7-0.3,2.8,0.2,3.6
			C32.4,16.7,35.2,16.5,35.7,14.7z M32.3,15.6L32.3,15.6c0-0.1,0-0.1,0-0.2c0.1-0.2,0.1-0.6,0.2-1.2c0.1-0.6,0.1-0.9,0.1-1
			c0,0,0,0,0,0c0,0,0,0,0-0.1c0,0,0,0,0-0.1c0,0,0,0,0-0.1c0,0,0,0,0-0.1c0,0,0-0.1,0.1-0.1c0.1,0,0.1,0,0.2,0c0.1,0,0.1,0,0.2,0
			c0.1,0,0.5,0,1.1-0.1c0.2,0,0.3,0,0.3,0l0,0c0.2,0,0.3,0,0.4,0.2c0,0,0,0,0,0.1c0,0,0,0.1-0.1,0.1c0,0-0.1,0.1-0.1,0.1l-0.6,0
			c-0.2,0-0.4,0-0.6,0.1c-0.2,0-0.2,0-0.3,0.1c0,0,0,0.1,0,0.1c0,0.1,0,0.2-0.1,0.4c0,0.1-0.1,0.2-0.1,0.3c0.1,0,0.2,0,0.4,0
			c0.2,0,0.3,0,0.4-0.1c0.2,0,0.4-0.1,0.5-0.1c0.2,0,0.3,0,0.3,0.1c0,0,0,0.1,0,0.1c0,0.1,0,0.2-0.1,0.2c-0.1,0-0.2,0.1-0.3,0.1
			c-0.1,0-0.2,0-0.3,0c-0.1,0-0.1,0-0.2,0c-0.4,0-0.6,0.1-0.7,0.1h0c0,0,0,0-0.1,0c0,0,0,0.1-0.1,0.3c0,0.2,0,0.3,0,0.4
			c0,0.1,0,0.1,0.1,0.1c0.1,0,0.2,0,0.5-0.1c0.3,0,0.5-0.1,0.5-0.1c0.2,0,0.3-0.1,0.4-0.1c0.1,0,0.2,0.1,0.2,0.2c0,0,0,0.1,0,0.1
			c0,0.1,0,0.1-0.1,0.1c-0.1,0.1-0.3,0.1-0.6,0.1c-0.2,0-0.4,0-0.7,0.1c-0.2,0.1-0.5,0.1-0.7,0.1c-0.1,0-0.2,0-0.2-0.1
			c0,0,0-0.1-0.1-0.1C32.4,15.7,32.3,15.6,32.3,15.6z"/>
		<path class="st1" d="M26.5,26.1c-0.7,1.5-0.4,2.7,0.1,3.4c0.8,0.3,2.5,0.2,3.5-0.4c0,0,0,0-0.1,0c-0.1,0-0.3-0.1-0.6-0.3l-0.8-0.6
			c-0.2-0.1-0.3-0.2-0.4-0.3c-0.1,0-0.1,0.3-0.2,0.7c0,0.2,0,0.3-0.1,0.4c0,0.1-0.1,0.1-0.2,0.1c-0.1,0-0.1,0-0.2-0.1
			c0,0,0-0.1,0-0.1c0,0,0-0.1,0-0.1c0,0,0-0.1,0-0.1c0-0.1,0.1-0.6,0.2-1.5c0.1-0.7,0.1-1.1,0.2-1.2c0-0.1,0.1-0.2,0.2-0.2
			c0.1,0,0.2,0.1,0.2,0.2c0,0,0,0.1,0,0.1c-0.1,0.4-0.2,0.8-0.2,1.3c0.2-0.2,0.3-0.3,0.4-0.4c0,0,0.1-0.1,0.1-0.1
			c0.1-0.1,0.2-0.2,0.3-0.3c0.1-0.1,0.2-0.2,0.2-0.3c0.1-0.1,0.1-0.2,0.2-0.3c0-0.1,0.1-0.1,0.1-0.1c0.1,0,0.1,0,0.2,0.1
			c0.1,0,0.1,0.1,0.1,0.1c0,0,0,0,0,0.1c0,0.1,0,0.1-0.1,0.2c-0.1,0.1-0.2,0.2-0.3,0.4l-0.8,0.7l0.9,0.7c0.1,0.1,0.1,0.1,0.2,0.1
			l0.1,0.1c0.1,0,0.2,0.1,0.5,0.1c0,0,0,0,0,0c0,0,0,0,0,0c0,0.1,0,0.1,0,0.1c0,0.1,0,0.1,0,0.2c0.3-0.3,0.5-0.6,0.7-1
			c0.4-1.5,0.1-2.5-0.2-3C29.8,24.4,27.5,23.8,26.5,26.1z"/>
		<polygon class="st0" points="23,14.9 23,14.9 23,14.9 23,14.9 		"/>
		<path class="st3" d="M19.9,8.6c-0.2,0-0.3,0-0.5-0.1c-0.1,0-0.2-0.1-0.3-0.1c0,0,0,0,0,0C19,8.6,19,8.8,19,9
			c0,0.1-0.1,0.2-0.1,0.3c-0.1,0.2-0.3,1-0.8,1.1c-0.7,0.1-1.8,0.3-2.6,1.1c-0.7,0.8-4.4,6.7-5,7.2c-0.6,0.6-1.4,0.5-1.4,0.5
			c0,0.1,0.4,0.4,0,0.9c-0.4,0.5-0.7,1.2-0.6,1.3c0.1,0,0.1,0.1,0.2,0.1c0.2,0.1,0.5,0,0.8-0.1c0.3-0.1,0.5-0.3,0.6-0.5l1.1-1.6
			c0.8-1,1.5-2.1,2.3-3.1c0.2-0.3,0.4-0.5,0.6-0.8c0.1-0.1,0.2-0.2,0.3-0.4c0.1-0.1,0.1-0.1,0.2-0.2l0.2-0.2c0.4-0.4,0.8-1,1.2-1.5
			c0,0,0,0,0.1-0.1c0.2-0.2,0.4-0.2,0.6,0c0.3,0.2,0.2,0.8,0.6,1.1c0.4,0.3,0.1,0.7,0.2,2.2c0.2,1.5,0.2,1.8,0.1,2.6
			c-0.1,0.8-0.7,3.5-0.6,6.2c0.1,2.7,0.8,9.7,0.9,10.5c0.1,0.8-0.1,1.1-0.5,1.4c-0.3,0.2-0.4,0.1-0.3,0.6c0.3,0,0.6,0,0.9,0l0.4,0
			l0.2,0c0,0,0.1,0,0.1,0c0,0,0,0,0.1,0c0.1,0,0.2-0.1,0.3-0.1c0,0,0.1-0.1,0.1-0.1c0,0,0,0,0,0c0-1.2,0-2.5-0.1-3.7
			c0-1.3,0-2.6,0-3.9c0-2.6,0.1-5.1,0.3-7.7c0,0,0,0,0,0c0,0,0,0,0,0C19.9,20.1,19.9,10.2,19.9,8.6z"/>
		<path class="st2" d="M14,5.8c-0.1-0.5-0.4-1-0.8-1.4c0,0,0,0,0,0C13.6,4.8,13.9,5.2,14,5.8z"/>
		<path class="st2" d="M12.4,8.3c-0.1,0.1-0.1,0.1-0.2,0.1c-0.1,0-0.1,0-0.2-0.1c0,0,0,0,0,0c0.1,0,0.1,0.1,0.2,0.1
			C12.3,8.4,12.4,8.3,12.4,8.3c0.1-0.1,0.1-0.1,0.1-0.2c0,0,0,0,0-0.1c0,0,0,0,0,0.1C12.5,8.2,12.5,8.2,12.4,8.3z"/>
		<path class="st1" d="M12.8,4.2c0.2,0.5,0.5,1.5,0.1,3c-0.1,0.3-0.3,0.6-0.5,0.8c0,0,0,0,0,0c0,0,0,0,0,0c0,0,0,0,0,0.1
			c0,0.1,0,0.1-0.1,0.2c-0.1,0.1-0.1,0.1-0.2,0.1c-0.1,0-0.1,0-0.2-0.1C11,9,9.5,9,8.6,8.8c0.3,0.5,0.7,0.8,0.8,0.9
			c0.4,0.2,0.9,0.3,1.4,0.3c0.9,0,1.7-0.4,2.3-1c0.6-0.6,1-1.5,1-2.3c0-0.3,0-0.7-0.1-1c-0.1-0.5-0.4-1-0.8-1.4
			C13.1,4.3,13,4.2,12.8,4.2z"/>
		<path class="st2" d="M12.8,4.2c0.2,0.5,0.5,1.5,0.1,3c-0.1,0.3-0.3,0.6-0.5,0.8c0,0,0,0,0,0c0,0,0,0,0,0c0,0,0,0,0,0.1
			c0,0.1,0,0.1-0.1,0.2c-0.1,0.1-0.1,0.1-0.2,0.1c-0.1,0-0.1,0-0.2-0.1C11,9,9.5,9,8.6,8.8c0.3,0.5,0.7,0.8,0.8,0.9
			c0.4,0.2,0.9,0.3,1.4,0.3c0.9,0,1.7-0.4,2.3-1c0.6-0.6,1-1.5,1-2.3c0-0.3,0-0.7-0.1-1c-0.1-0.5-0.4-1-0.8-1.4
			C13.1,4.3,13,4.2,12.8,4.2z"/>
		<path class="st2" d="M9.3,13.3c-0.1-0.5-0.4-0.9-0.7-1.3c0,0,0,0,0,0C8.9,12.4,9.1,12.8,9.3,13.3z"/>
		<path class="st1" d="M8,11.7c0.2,0.5,0.5,1.5,0.1,2.8c-0.5,1.7-3.3,2-4.4,1.6c0.3,0.5,0.7,0.9,0.9,1c0.5,0.3,1,0.4,1.6,0.4
			c0.9,0,1.7-0.3,2.3-1c0.6-0.6,1-1.5,1-2.4c0-0.3,0-0.7-0.1-1c-0.1-0.5-0.4-0.9-0.7-1.3C8.4,11.9,8.2,11.8,8,11.7z"/>
		<path class="st2" d="M8,11.7c0.2,0.5,0.5,1.5,0.1,2.8c-0.5,1.7-3.3,2-4.4,1.6c0.3,0.5,0.7,0.9,0.9,1c0.5,0.3,1,0.4,1.6,0.4
			c0.9,0,1.7-0.3,2.3-1c0.6-0.6,1-1.5,1-2.4c0-0.3,0-0.7-0.1-1c-0.1-0.5-0.4-0.9-0.7-1.3C8.4,11.9,8.2,11.8,8,11.7z"/>
		<path class="st2" d="M12.7,25.2c0.4,0.4,0.7,0.9,0.8,1.4C13.3,26.1,13.1,25.6,12.7,25.2c0,0-0.1-0.1-0.1-0.1c0,0,0,0,0,0
			C12.6,25.1,12.6,25.2,12.7,25.2z"/>
		<path class="st1" d="M12.5,25.1c-0.1-0.1-0.3-0.2-0.5-0.2c0.2,0.4,0.6,1.5,0.2,3.1c-0.5,1.7-3,2-4.2,1.7c0.4,0.6,0.9,1,0.9,1
			l-0.2-0.1c0.5,0.3,1.1,0.4,1.6,0.4c0.9,0,1.7-0.4,2.3-1c0.6-0.6,1-1.5,1-2.3c0-0.3,0-0.6-0.1-1c-0.2-0.5-0.4-1-0.8-1.4
			C12.6,25.2,12.6,25.1,12.5,25.1z"/>
		<path class="st2" d="M12.5,25.1c-0.1-0.1-0.3-0.2-0.5-0.2c0.2,0.4,0.6,1.5,0.2,3.1c-0.5,1.7-3,2-4.2,1.7c0.4,0.6,0.9,1,0.9,1
			l-0.2-0.1c0.5,0.3,1.1,0.4,1.6,0.4c0.9,0,1.7-0.4,2.3-1c0.6-0.6,1-1.5,1-2.3c0-0.3,0-0.6-0.1-1c-0.2-0.5-0.4-1-0.8-1.4
			C12.6,25.2,12.6,25.1,12.5,25.1z"/>
		<path class="st2" d="M31.4,25.2c0.3,0.4,0.6,0.8,0.8,1.3C32,26.1,31.8,25.6,31.4,25.2C31.4,25.3,31.4,25.2,31.4,25.2z"/>
		<path class="st2" d="M30.3,29c0,0.1-0.1,0.1-0.2,0.1c0,0,0,0,0,0C30.2,29.1,30.3,29,30.3,29C30.3,29,30.3,28.9,30.3,29
			C30.4,28.9,30.4,28.9,30.3,29C30.3,28.9,30.3,29,30.3,29z"/>
		<path class="st1" d="M30.9,24.9c0.2,0.4,0.6,1.5,0.2,3c-0.1,0.4-0.3,0.7-0.7,1c0,0,0,0.1-0.1,0.1c0,0.1-0.1,0.1-0.2,0.1
			c-1.1,0.7-2.7,0.7-3.5,0.4c0.3,0.6,0.8,0.9,0.9,1c0.5,0.2,1,0.4,1.5,0.4c0.9,0,1.7-0.3,2.3-1c0.6-0.6,1-1.5,1-2.4
			c0-0.3,0-0.7-0.1-1c-0.1-0.5-0.4-0.9-0.8-1.3C31.3,25.2,31.1,25,30.9,24.9z"/>
		<path class="st2" d="M30.9,24.9c0.2,0.4,0.6,1.5,0.2,3c-0.1,0.4-0.3,0.7-0.7,1c0,0,0,0.1-0.1,0.1c0,0.1-0.1,0.1-0.2,0.1
			c-1.1,0.7-2.7,0.7-3.5,0.4c0.3,0.6,0.8,0.9,0.9,1c0.5,0.2,1,0.4,1.5,0.4c0.9,0,1.7-0.3,2.3-1c0.6-0.6,1-1.5,1-2.4
			c0-0.3,0-0.7-0.1-1c-0.1-0.5-0.4-0.9-0.8-1.3C31.3,25.2,31.1,25,30.9,24.9z"/>
		<path class="st2" d="M36.8,13.3c-0.1-0.5-0.4-1-0.8-1.4c0,0,0,0,0,0C36.3,12.3,36.6,12.8,36.8,13.3z"/>
		<path class="st2" d="M31.1,17.3l0.1,0.1C31.2,17.3,31.2,17.2,31.1,17.3L31.1,17.3z"/>
		<path class="st1" d="M35.5,11.6c0.2,0.4,0.6,1.5,0.2,3.1c-0.5,1.7-3.3,2-4.4,1.6c0.4,0.6,0.8,0.8,0.8,0.9c0.5,0.2,1,0.4,1.5,0.4
			c0.9,0,1.7-0.4,2.3-1c0.6-0.6,1-1.5,1-2.3c0-0.3,0-0.6-0.1-1c-0.1-0.5-0.4-1-0.8-1.4C35.9,11.9,35.7,11.8,35.5,11.6z"/>
		<path class="st2" d="M35.5,11.6c0.2,0.4,0.6,1.5,0.2,3.1c-0.5,1.7-3.3,2-4.4,1.6c0.4,0.6,0.8,0.8,0.8,0.9c0.5,0.2,1,0.4,1.5,0.4
			c0.9,0,1.7-0.4,2.3-1c0.6-0.6,1-1.5,1-2.3c0-0.3,0-0.6-0.1-1c-0.1-0.5-0.4-1-0.8-1.4C35.9,11.9,35.7,11.8,35.5,11.6z"/>
		<path class="st2" d="M31.9,5.7c-0.1-0.5-0.4-1-0.8-1.4c0,0,0,0,0,0C31.5,4.8,31.8,5.2,31.9,5.7z"/>
		<path class="st1" d="M30.6,4.1c0.2,0.5,0.5,1.5,0.1,3c-0.5,1.8-3.3,2-4.5,1.6c0.4,0.6,0.9,0.9,0.9,0.9l-0.1,0
			c0.5,0.3,1.1,0.5,1.7,0.5c0.9,0,1.7-0.3,2.3-1c0.6-0.6,1-1.5,1-2.4c0-0.3,0-0.7-0.1-1c-0.1-0.5-0.4-1-0.8-1.4
			C31.1,4.3,30.9,4.2,30.6,4.1z"/>
		<path class="st2" d="M30.6,4.1c0.2,0.5,0.5,1.5,0.1,3c-0.5,1.8-3.3,2-4.5,1.6c0.4,0.6,0.9,0.9,0.9,0.9l-0.1,0
			c0.5,0.3,1.1,0.5,1.7,0.5c0.9,0,1.7-0.3,2.3-1c0.6-0.6,1-1.5,1-2.4c0-0.3,0-0.7-0.1-1c-0.1-0.5-0.4-1-0.8-1.4
			C31.1,4.3,30.9,4.2,30.6,4.1z"/>
		<path class="st2" d="M19.9,8.6c0.2,0,0.4-0.1,0.5-0.1c0.1,0,0.2-0.1,0.2-0.1c0,0,0,0,0,0c-0.1,0-0.2,0.1-0.2,0.1
			C20.2,8.6,20.1,8.6,19.9,8.6C19.9,8.6,19.9,8.6,19.9,8.6C19.9,8.6,19.9,8.6,19.9,8.6C19.9,8.6,19.9,8.6,19.9,8.6z"/>
		<path class="st2" d="M21.4,10c0.4,0.2,0.7,0.2,1,0.3c0.3,0.1,0.6,0.1,0.9,0.2c0.3,0.1,0.5,0.2,0.8,0.4c0.1,0.1,0.2,0.2,0.3,0.3
			c0.1,0.1,0.2,0.2,0.3,0.3l0.1,0.2l0.1,0.2l0.3,0.4c0.2,0.3,0.4,0.5,0.5,0.8c0.7,1.1,1.5,2.1,2.1,3.2c0.3,0.6,0.6,1.1,1,1.7
			c0.2,0.3,0.4,0.6,0.8,0.7c0.3,0.1,0.6,0.2,0.9,0.3c0.1,0,0.3,0.1,0.3,0.2c0,0,0,0,0,0c0,0,0,0,0,0c0,0,0,0,0,0
			c-0.1-0.1-0.2-0.1-0.3-0.2c-0.3-0.1-0.6-0.2-0.9-0.3c-0.4-0.1-0.6-0.4-0.8-0.7c-0.4-0.5-0.7-1.1-1-1.7c-0.6-1.1-1.4-2.2-2.1-3.2
			c-0.2-0.3-0.4-0.5-0.5-0.8L25,11.9l-0.1-0.2l-0.1-0.2c-0.1-0.1-0.2-0.2-0.3-0.3c-0.1-0.1-0.2-0.2-0.3-0.3
			c-0.2-0.2-0.5-0.3-0.8-0.4c-0.3-0.1-0.6-0.2-0.9-0.2C22.1,10.1,21.8,10.1,21.4,10c-0.2-0.1-0.4-0.2-0.5-0.4
			c-0.1-0.1-0.2-0.3-0.2-0.4c0,0.1,0.1,0.3,0.2,0.4C21.1,9.7,21.3,9.9,21.4,10z"/>
		<path class="st2" d="M30.9,20.1L30.9,20.1L30.9,20.1l0.1,0.2c0,0.1,0.1,0.1,0.1,0.2c0.1,0.2,0.2,0.3,0.2,0.5
			c0-0.2-0.1-0.3-0.2-0.5c0-0.1-0.1-0.1-0.1-0.2L30.9,20.1L30.9,20.1L30.9,20.1C30.9,20.1,30.8,20.1,30.9,20.1
			C30.8,20,30.8,20,30.8,20C30.8,20,30.8,20,30.9,20.1C30.8,20.1,30.9,20.1,30.9,20.1z"/>
		<path class="st3" d="M19.9,8.6C19.9,8.6,19.9,8.6,19.9,8.6c0,1.5,0,11.4,0,13.7c0,0,0.7,3.3,0.7,6.4c0,3.1-0.1,8.2-0.1,8.6
			c0,0.3,0.7,0.6,0.8,0.6l0.3,0c0.3,0,0.6,0,0.9,0c0.1,0,0.3,0,0.4-0.1c0,0,0.1,0,0.1,0c0,0,0,0,0-0.1c0,0,0-0.1,0-0.1
			c0,0,0-0.1,0-0.1c0,0,0,0,0,0c0,0,0,0,0,0c0-0.1-0.1-0.2-0.2-0.2c-0.1-0.1-0.2-0.2-0.4-0.3c-0.1-0.1-0.1-0.1-0.2-0.2
			c0-0.1,0-0.1-0.1-0.1c0,0,0-0.1,0-0.1c-0.1-0.3,0-0.6,0-0.9c0-0.3,0-0.6,0.1-0.9c0.1-1.2,0.3-2.3,0.4-3.5c0.1-0.6,0.1-1.2,0.1-1.8
			c0-0.6,0.1-1.2,0.2-1.8c0.1-1.2,0.2-2.3,0.2-3.5c0-1.2,0-2.3-0.2-3.5c-0.1-0.6-0.2-1.1-0.3-1.7c0-0.3-0.1-0.6-0.1-0.9
			c0-0.2,0-0.3,0-0.5l0.1-0.4c0.1-0.6,0-1.1,0-1.7c0-0.1,0-0.2,0-0.2c0-0.1,0-0.2,0.1-0.3c0,0,0,0,0-0.1c0,0,0,0,0,0c0,0,0,0,0,0
			c0,0,0,0,0-0.1c0-0.1,0.1-0.1,0.1-0.2c0.1-0.2,0.2-0.5,0.2-0.7c0.1-0.4,0.2-0.6,0.4-0.6c0.2,0,0.9,0.9,1.4,1.4
			c0.5,0.5,1.6,1.6,2.1,2.4c0.6,0.8,1.9,2.7,2.2,3.2c0.2,0.5,0.9,1.4,1.1,1.5c0,0,0.1,0,0.1,0c0.2,0.1,0.5,0.1,0.8,0.1
			c0.1,0,0.2-0.1,0.3-0.2c0.1-0.1,0.1-0.2,0.1-0.3c0-0.1,0-0.2,0-0.3c0-0.2-0.1-0.3-0.2-0.5c0-0.1-0.1-0.1-0.1-0.2l-0.1-0.1l0,0l0,0
			c0,0,0,0,0-0.1c0,0,0,0,0-0.1c-0.1-0.2,0-0.4,0.1-0.5c0,0,0,0,0,0l0,0c0,0,0,0,0,0c0,0,0,0,0,0c0,0,0.1-0.1,0.1-0.1c0,0,0,0,0,0
			c-0.1-0.1-0.2-0.1-0.3-0.2c-0.3-0.1-0.6-0.2-0.9-0.3c-0.4-0.1-0.6-0.4-0.8-0.7c-0.4-0.5-0.7-1.1-1-1.7c-0.6-1.1-1.4-2.2-2.1-3.2
			c-0.2-0.3-0.4-0.5-0.5-0.8L25,11.9l-0.1-0.2l-0.1-0.2c-0.1-0.1-0.2-0.2-0.3-0.3c-0.1-0.1-0.2-0.2-0.3-0.3
			c-0.2-0.2-0.5-0.3-0.8-0.4c-0.3-0.1-0.6-0.2-0.9-0.2c-0.3-0.1-0.6-0.1-1-0.3c-0.2-0.1-0.4-0.2-0.5-0.4c-0.1-0.1-0.2-0.3-0.2-0.4
			c0,0,0-0.1,0-0.1c0-0.2-0.1-0.4-0.1-0.6c0,0,0,0,0,0c-0.1,0-0.2,0.1-0.2,0.1C20.2,8.6,20.1,8.6,19.9,8.6z"/>
		<path class="st2" d="M19.9,8.6C19.9,8.6,19.9,8.6,19.9,8.6c0,1.5,0,11.4,0,13.7c0,0,0.7,3.3,0.7,6.4c0,3.1-0.1,8.2-0.1,8.6
			c0,0.3,0.7,0.6,0.8,0.6l0.3,0c0.3,0,0.6,0,0.9,0c0.1,0,0.3,0,0.4-0.1c0,0,0.1,0,0.1,0c0,0,0,0,0-0.1c0,0,0-0.1,0-0.1
			c0,0,0-0.1,0-0.1c0,0,0,0,0,0c0,0,0,0,0,0c0-0.1-0.1-0.2-0.2-0.2c-0.1-0.1-0.2-0.2-0.4-0.3c-0.1-0.1-0.1-0.1-0.2-0.2
			c0-0.1,0-0.1-0.1-0.1c0,0,0-0.1,0-0.1c-0.1-0.3,0-0.6,0-0.9c0-0.3,0-0.6,0.1-0.9c0.1-1.2,0.3-2.3,0.4-3.5c0.1-0.6,0.1-1.2,0.1-1.8
			c0-0.6,0.1-1.2,0.2-1.8c0.1-1.2,0.2-2.3,0.2-3.5c0-1.2,0-2.3-0.2-3.5c-0.1-0.6-0.2-1.1-0.3-1.7c0-0.3-0.1-0.6-0.1-0.9
			c0-0.2,0-0.3,0-0.5l0.1-0.4c0.1-0.6,0-1.1,0-1.7c0-0.1,0-0.2,0-0.2c0-0.1,0-0.2,0.1-0.3c0,0,0,0,0-0.1c0,0,0,0,0,0c0,0,0,0,0,0
			c0,0,0,0,0-0.1c0-0.1,0.1-0.1,0.1-0.2c0.1-0.2,0.2-0.5,0.2-0.7c0.1-0.4,0.2-0.6,0.4-0.6c0.2,0,0.9,0.9,1.4,1.4
			c0.5,0.5,1.6,1.6,2.1,2.4c0.6,0.8,1.9,2.7,2.2,3.2c0.2,0.5,0.9,1.4,1.1,1.5c0,0,0.1,0,0.1,0c0.2,0.1,0.5,0.1,0.8,0.1
			c0.1,0,0.2-0.1,0.3-0.2c0.1-0.1,0.1-0.2,0.1-0.3c0-0.1,0-0.2,0-0.3c0-0.2-0.1-0.3-0.2-0.5c0-0.1-0.1-0.1-0.1-0.2l-0.1-0.1l0,0l0,0
			c0,0,0,0,0-0.1c0,0,0,0,0-0.1c-0.1-0.2,0-0.4,0.1-0.5c0,0,0,0,0,0l0,0c0,0,0,0,0,0c0,0,0,0,0,0c0,0,0.1-0.1,0.1-0.1c0,0,0,0,0,0
			c-0.1-0.1-0.2-0.1-0.3-0.2c-0.3-0.1-0.6-0.2-0.9-0.3c-0.4-0.1-0.6-0.4-0.8-0.7c-0.4-0.5-0.7-1.1-1-1.7c-0.6-1.1-1.4-2.2-2.1-3.2
			c-0.2-0.3-0.4-0.5-0.5-0.8L25,11.9l-0.1-0.2l-0.1-0.2c-0.1-0.1-0.2-0.2-0.3-0.3c-0.1-0.1-0.2-0.2-0.3-0.3
			c-0.2-0.2-0.5-0.3-0.8-0.4c-0.3-0.1-0.6-0.2-0.9-0.2c-0.3-0.1-0.6-0.1-1-0.3c-0.2-0.1-0.4-0.2-0.5-0.4c-0.1-0.1-0.2-0.3-0.2-0.4
			c0,0,0-0.1,0-0.1c0-0.2-0.1-0.4-0.1-0.6c0,0,0,0,0,0c-0.1,0-0.2,0.1-0.2,0.1C20.2,8.6,20.1,8.6,19.9,8.6z"/>
		<path class="st3" d="M30,21.4l-0.2-0.1C29.9,21.3,29.9,21.4,30,21.4z"/>
		<path class="st2" d="M30,21.4l-0.2-0.1C29.9,21.3,29.9,21.4,30,21.4z"/>
		<path class="st3" d="M20.2,3.8c0.2,0.4,0.4,1.1,0.4,2.3c-0.1,1.8-0.7,2.1-0.8,2.1c0,0,0.1,0,0.1,0c0,0,0,0,0,0l0,0
			c0,0,0.1,0,0.1,0c0.1,0,0.1,0,0.2-0.1c0.1,0,0.3-0.1,0.4-0.2c0.2-0.2,0.4-0.4,0.6-0.6c0.3-0.5,0.4-1.1,0.5-1.7c0-0.2,0-0.5,0-0.7
			c0-0.1-0.1-0.4-0.4-0.7C21.1,4,20.6,3.8,20.2,3.8z"/>
		<path class="st2" d="M20.2,3.8c0.2,0.4,0.4,1.1,0.4,2.3c-0.1,1.8-0.7,2.1-0.8,2.1c0,0,0.1,0,0.1,0c0,0,0,0,0,0l0,0
			c0,0,0.1,0,0.1,0c0.1,0,0.1,0,0.2-0.1c0.1,0,0.3-0.1,0.4-0.2c0.2-0.2,0.4-0.4,0.6-0.6c0.3-0.5,0.4-1.1,0.5-1.7c0-0.2,0-0.5,0-0.7
			c0-0.1-0.1-0.4-0.4-0.7C21.1,4,20.6,3.8,20.2,3.8z"/>
		<path class="st3" d="M18.5,7.3c0.2,0.2,0.4,0.4,0.6,0.6C19.2,8,19.3,8,19.5,8.1c-0.2-0.1-0.8-0.5-1-1.7c-0.2-1.4,0-2.1,0.6-2.5
			c0.3-0.2,0.7-0.2,1.1-0.1c0.4,0.1,0.8,0.2,1,0.4c0.3,0.3,0.4,0.6,0.4,0.7c0-0.1,0-0.1,0-0.2c0-0.3-0.1-0.5-0.3-0.7
			c-0.2-0.2-0.4-0.3-0.7-0.4c-0.3-0.1-0.5-0.1-0.8-0.1c-0.6,0-1.2,0.2-1.5,0.6c-0.2,0.2-0.2,0.4-0.3,0.7c0,0.3,0,0.6,0,0.9
			C18,6.3,18.2,6.9,18.5,7.3z"/>
		<path class="st3" d="M9.1,20.2c0.4-0.5,0-0.8,0-0.9c0-0.1,0.8,0.1,1.4-0.5c0.6-0.6,4.2-6.4,5-7.2c0.7-0.8,1.9-1,2.6-1.1
			c0.6-0.1,0.8-0.8,0.8-1.1c0,0,0,0,0,0c0,0.1-0.1,0.2-0.1,0.2c-0.1,0.2-0.3,0.3-0.5,0.4c-0.4,0.2-0.7,0.2-1,0.3
			c-0.3,0.1-0.6,0.1-0.9,0.2c-0.3,0.1-0.6,0.2-0.8,0.4c-0.1,0.1-0.2,0.2-0.3,0.3c-0.1,0.1-0.2,0.2-0.3,0.3l-0.1,0.2l-0.1,0.2
			l-0.3,0.4c-0.2,0.3-0.4,0.5-0.5,0.8c-0.7,1.1-1.5,2.1-2.1,3.2c-0.3,0.6-0.6,1.1-1,1.7c-0.2,0.3-0.4,0.6-0.8,0.7
			C9.6,18.9,9.3,18.9,9,19c-0.1,0-0.3,0.1-0.3,0.2c0,0,0,0,0,0c0,0,0,0.1,0,0.1c0,0,0,0,0,0c0,0,0,0,0,0l0,0c0,0,0,0,0,0
			c0.1,0.1,0.2,0.4,0,0.6c0,0,0,0,0,0.1l0,0l0,0l-0.1,0.1c0,0.1-0.1,0.1-0.1,0.2c-0.2,0.2-0.3,0.5-0.2,0.7c0,0.1,0.1,0.2,0.1,0.3
			c0,0,0,0,0.1,0.1C8.4,21.3,8.7,20.6,9.1,20.2z"/>
		<path class="st3" d="M17.7,37.3c0.3-0.2,0.5-0.6,0.5-1.4c-0.1-0.8-0.8-7.8-0.9-10.5c-0.1-2.7,0.5-5.4,0.6-6.2
			c0.1-0.8,0.1-1.1-0.1-2.6c-0.2-1.5,0.2-2-0.2-2.2c-0.4-0.3-0.3-0.9-0.6-1.1c-0.3-0.2-0.5-0.1-0.6,0c0.1-0.1,0.3-0.1,0.4,0
			c0.1,0,0.1,0.1,0.1,0.2l0,0c0.1,0.3,0.2,0.6,0.3,0.8c0,0.1,0.1,0.1,0.1,0.2c0,0,0,0,0,0.1c0,0,0,0,0,0c0,0,0.1,0.1,0.1,0.1
			c0.1,0.1,0.1,0.2,0.1,0.3c0,0.1,0,0.2,0,0.2c0,0.6,0,1.2,0,1.7l0.1,0.4c0,0.2,0,0.3,0,0.5c0,0.3,0,0.6-0.1,0.9
			c-0.1,0.6-0.2,1.2-0.3,1.7c-0.2,1.2-0.2,2.3-0.2,3.5c0,1.2,0.1,2.3,0.2,3.5c0.1,0.6,0.1,1.2,0.2,1.8c0,0.6,0.1,1.2,0.1,1.8
			c0.1,1.2,0.2,2.3,0.4,3.5c0,0.3,0.1,0.6,0.1,0.9c0,0.3,0,0.6,0,1c0,0,0,0.1,0,0.1c0,0,0,0.1-0.1,0.1c0,0.1-0.1,0.2-0.2,0.2
			c-0.1,0.1-0.2,0.2-0.4,0.3c-0.1,0.1-0.2,0.2-0.2,0.2c0,0,0,0.1,0,0.1c0,0,0,0.1,0,0.1c0,0,0,0.1,0,0.1c0,0.1,0,0,0,0
			c0,0,0,0,0.1,0c0.1,0,0.2,0,0.4,0.1c0,0,0,0,0,0C17.3,37.5,17.4,37.6,17.7,37.3z"/>
		<path class="st2" d="M26.8,16.8c-0.6-0.8-1.7-1.9-2.1-2.4c-0.5-0.5-1.1-1.4-1.4-1.4c-0.2,0-0.3,0.2-0.4,0.6c0,0,0-0.1,0-0.1l0,0
			c0-0.2,0.2-0.3,0.4-0.2c0.1,0,0.1,0.1,0.2,0.1l0,0c0.4,0.5,0.8,1,1.2,1.5l0.2,0.2c0.1,0.1,0.1,0.1,0.2,0.2
			c0.1,0.1,0.2,0.2,0.3,0.4c0.2,0.2,0.4,0.5,0.6,0.8c0.8,1,1.6,2.1,2.3,3.1l1.1,1.6c0.1,0.1,0.2,0.2,0.3,0.3l0.2,0.1c0,0,0,0,0.1,0
			c-0.1-0.2-0.8-1.1-1.1-1.5C28.8,19.4,27.4,17.6,26.8,16.8z"/>
		<path class="st3" d="M20.4,37.3c0-0.3,0.1-5.5,0.1-8.6c0-3.1-0.7-6.4-0.7-6.4v0c0.3,2.6,0.3,5.1,0.3,7.7c0,1.3,0,2.6,0,3.9
			c0,1.2,0,2.5-0.1,3.7c0.1,0.1,0.3,0.2,0.5,0.3c0,0,0,0,0.1,0l0.1,0l0.2,0l0.2,0C21.1,37.9,20.5,37.6,20.4,37.3z"/>
	</g>
</g>
</svg>
