<?xml version="1.0" encoding="utf-8"?>
<!-- Generator: Adobe Illustrator 27.0.0, SVG Export Plug-In . SVG Version: 6.00 Build 0)  -->
<svg version="1.1" id="Layer_1" xmlns="http://www.w3.org/2000/svg" xmlns:xlink="http://www.w3.org/1999/xlink" x="0px" y="0px"
	 viewBox="0 0 333.4 333.4" style="enable-background:new 0 0 333.4 333.4;" xml:space="preserve">
<style type="text/css">
	.st0{fill:url(#SVGID_1_);}
	.st1{fill:url(#SVGID_00000168822499972662870810000000545449031229210039_);}
	.st2{fill:url(#SVGID_00000155858793895519151280000001775311911321728941_);}
	.st3{fill:url(#SVGID_00000083798761325736277270000006593939104741300613_);}
	.st4{fill:url(#SVGID_00000157999246090512325140000011234007725506975914_);}
	.st5{fill:url(#SVGID_00000131341656736401423980000001798207788957768328_);}
	.st6{fill:url(#SVGID_00000065786973695216449710000004855270184251859619_);}
	.st7{fill:url(#SVGID_00000127016676940873099610000004322960500281118890_);}
	.st8{fill:url(#SVGID_00000173847014516846715340000008786525648340040882_);}
	.st9{fill:url(#SVGID_00000162338762212825071810000012570744116618761632_);}
	.st10{fill:url(#SVGID_00000034071065820154373110000006416381058516773526_);}
	.st11{fill:url(#SVGID_00000177458620443801021140000010768263067692789652_);}
	.st12{fill:url(#SVGID_00000164507164841458977120000012210558035181473215_);}
	.st13{fill:url(#SVGID_00000181806650029563327490000010797485711494303408_);}
	.st14{fill:url(#SVGID_00000003076034788757699760000006272904005155656362_);}
	.st15{fill:url(#SVGID_00000077315824070481655320000009675266350075094946_);}
	.st16{fill:url(#SVGID_00000128465124456172458750000006264440786194180262_);}
	.st17{fill:url(#SVGID_00000142174763622996271040000014813165385957396388_);}
	.st18{fill:url(#SVGID_00000176764496470668229460000001930487234158242986_);}
	.st19{fill:url(#SVGID_00000135687124530500546020000004934669779906229931_);}
	.st20{fill:url(#SVGID_00000085951198430339246180000000127797594995736221_);}
	.st21{fill:url(#SVGID_00000000223899243788613810000014901597302370056608_);}
	.st22{fill:url(#SVGID_00000163779379933459731440000016393192624594877324_);}
</style>
<g>
	<linearGradient id="SVGID_1_" gradientUnits="userSpaceOnUse" x1="88.085" y1="236.495" x2="245.3445" y2="79.2355">
		<stop  offset="1.704893e-07" style="stop-color:#BCFF5C"/>
		<stop  offset="1" style="stop-color:#002E1C"/>
	</linearGradient>
	<path class="st0" d="M166.7,164.1L166.7,164.1c-42.8,0-81.4-23-106.5-56.9c30.2,72.3,67.6,140.1,106.5,208
		c38.9-67.9,76.4-135.7,106.6-208C248.2,141.1,209.5,164.1,166.7,164.1z"/>
	
		<linearGradient id="SVGID_00000175282011450832833420000017413236568784541620_" gradientUnits="userSpaceOnUse" x1="145.0791" y1="145.8837" x2="188.3527" y2="102.6101">
		<stop  offset="1.704893e-07" style="stop-color:#BCFF5C"/>
		<stop  offset="1" style="stop-color:#002E1C"/>
	</linearGradient>
	<path style="fill:url(#SVGID_00000175282011450832833420000017413236568784541620_);" d="M166.7,153.9c16.7,0,32.2-13.4,32.5-30.4
		c0.3-15.6-14.5-26.5-32.5-26.5s-32.8,10.9-32.5,26.5C134.6,140.5,150,153.9,166.7,153.9z"/>
	
		<linearGradient id="SVGID_00000005231360331703684560000008004789353912735145_" gradientUnits="userSpaceOnUse" x1="215.2737" y1="295.2917" x2="252.1393" y2="258.4262">
		<stop  offset="1.704893e-07" style="stop-color:#BCFF5C"/>
		<stop  offset="1" style="stop-color:#002E1C"/>
	</linearGradient>
	<path style="fill:url(#SVGID_00000005231360331703684560000008004789353912735145_);" d="M215.3,295.3L215.3,295.3
		c7.7-1.3,18-4.3,25.3-11.6c7.2-7.2,10.3-17.6,11.6-25.3c-7.7,1.3-18,4.3-25.3,11.6C219.6,277.3,216.6,287.6,215.3,295.3z"/>
	
		<linearGradient id="SVGID_00000168839224602814259320000014751318404599922560_" gradientUnits="userSpaceOnUse" x1="243.0397" y1="229.5737" x2="243.0403" y2="229.5731">
		<stop  offset="1.704893e-07" style="stop-color:#BCFF5C"/>
		<stop  offset="1" style="stop-color:#002E1C"/>
	</linearGradient>
	<polygon style="fill:url(#SVGID_00000168839224602814259320000014751318404599922560_);" points="243,229.6 243,229.6 243,229.6 	
		"/>
	
		<linearGradient id="SVGID_00000089568483592039897620000018098095826455231626_" gradientUnits="userSpaceOnUse" x1="243.0361" y1="229.5689" x2="279.9015" y2="192.7035">
		<stop  offset="1.704893e-07" style="stop-color:#BCFF5C"/>
		<stop  offset="1" style="stop-color:#002E1C"/>
	</linearGradient>
	<path style="fill:url(#SVGID_00000089568483592039897620000018098095826455231626_);" d="M243,229.6c7.7-1.3,18-4.3,25.3-11.6
		c7.2-7.2,10.3-17.6,11.6-25.3c-7.7,1.3-18,4.3-25.3,11.6C247.4,211.5,244.3,221.9,243,229.6z"/>
	
		<linearGradient id="SVGID_00000140015922515486727800000013033184062687382440_" gradientUnits="userSpaceOnUse" x1="293.188" y1="210.713" x2="330.054" y2="173.847">
		<stop  offset="1.704893e-07" style="stop-color:#BCFF5C"/>
		<stop  offset="1" style="stop-color:#002E1C"/>
	</linearGradient>
	<path style="fill:url(#SVGID_00000140015922515486727800000013033184062687382440_);" d="M304.8,185.4L304.8,185.4
		c-7.2,7.2-10.3,17.6-11.6,25.3c7.7-1.3,18-4.3,25.3-11.6c7.2-7.2,10.3-17.6,11.6-25.3C322.4,175.1,312,178.2,304.8,185.4z"/>
	
		<linearGradient id="SVGID_00000039107590602889985860000014411880596769141136_" gradientUnits="userSpaceOnUse" x1="280.2745" y1="150.6895" x2="317.1405" y2="113.8235">
		<stop  offset="1.704893e-07" style="stop-color:#BCFF5C"/>
		<stop  offset="1" style="stop-color:#002E1C"/>
	</linearGradient>
	<path style="fill:url(#SVGID_00000039107590602889985860000014411880596769141136_);" d="M317.1,113.8L317.1,113.8
		c-7.7,1.3-18,4.3-25.3,11.6c-7.2,7.2-10.3,17.6-11.6,25.3c7.7-1.3,18-4.3,25.3-11.6C312.8,131.9,315.8,121.5,317.1,113.8z"/>
	
		<linearGradient id="SVGID_00000079475127758666319740000004956162435468448185_" gradientUnits="userSpaceOnUse" x1="228.5888" y1="105.9907" x2="265.4547" y2="69.1247">
		<stop  offset="1.704893e-07" style="stop-color:#BCFF5C"/>
		<stop  offset="1" style="stop-color:#002E1C"/>
	</linearGradient>
	<path style="fill:url(#SVGID_00000079475127758666319740000004956162435468448185_);" d="M253.9,94.4L253.9,94.4
		c7.2-7.2,10.3-17.6,11.6-25.3c-7.7,1.3-18,4.3-25.3,11.6c-7.2,7.2-10.3,17.6-11.6,25.3C236.3,104.7,246.6,101.7,253.9,94.4z"/>
	
		<linearGradient id="SVGID_00000030451082415033630310000014948585084287766153_" gradientUnits="userSpaceOnUse" x1="239.2201" y1="18.3144" x2="239.2207" y2="18.3138">
		<stop  offset="1.704893e-07" style="stop-color:#BCFF5C"/>
		<stop  offset="1" style="stop-color:#002E1C"/>
	</linearGradient>
	<polygon style="fill:url(#SVGID_00000030451082415033630310000014948585084287766153_);" points="239.2,18.3 239.2,18.3 
		239.2,18.3 	"/>
	
		<linearGradient id="SVGID_00000009554596734124604190000016383829634915650958_" gradientUnits="userSpaceOnUse" x1="202.3585" y1="55.1845" x2="239.2243" y2="18.3186">
		<stop  offset="1.704893e-07" style="stop-color:#BCFF5C"/>
		<stop  offset="1" style="stop-color:#002E1C"/>
	</linearGradient>
	<path style="fill:url(#SVGID_00000009554596734124604190000016383829634915650958_);" d="M239.2,18.3c-7.7,1.3-18,4.3-25.3,11.6
		c-7.2,7.2-10.3,17.6-11.6,25.3c7.7-1.3,18-4.3,25.3-11.6C234.9,36.4,237.9,26,239.2,18.3z"/>
	
		<linearGradient id="SVGID_00000160903833637105008210000008497577992958910639_" gradientUnits="userSpaceOnUse" x1="261.5558" y1="295.2926" x2="298.4212" y2="258.4272">
		<stop  offset="1.704893e-07" style="stop-color:#BCFF5C"/>
		<stop  offset="1" style="stop-color:#002E1C"/>
	</linearGradient>
	<path style="fill:url(#SVGID_00000160903833637105008210000008497577992958910639_);" d="M261.6,295.3c7.7-1.3,18-4.3,25.3-11.6
		c7.2-7.2,10.3-17.6,11.6-25.3c-7.7,1.3-18,4.3-25.3,11.6C265.9,277.3,262.9,287.6,261.6,295.3z"/>
	
		<linearGradient id="SVGID_00000085971865490787142640000008827986771478158262_" gradientUnits="userSpaceOnUse" x1="261.5593" y1="295.2972" x2="261.5599" y2="295.2966">
		<stop  offset="1.704893e-07" style="stop-color:#BCFF5C"/>
		<stop  offset="1" style="stop-color:#002E1C"/>
	</linearGradient>
	<polygon style="fill:url(#SVGID_00000085971865490787142640000008827986771478158262_);" points="261.6,295.3 261.6,295.3 
		261.6,295.3 	"/>
	
		<linearGradient id="SVGID_00000183250003394524558480000018027405564487604099_" gradientUnits="userSpaceOnUse" x1="81.2954" y1="258.4233" x2="81.2964" y2="258.4223">
		<stop  offset="1.704893e-07" style="stop-color:#BCFF5C"/>
		<stop  offset="1" style="stop-color:#002E1C"/>
	</linearGradient>
	<polygon style="fill:url(#SVGID_00000183250003394524558480000018027405564487604099_);" points="81.3,258.4 81.3,258.4 
		81.3,258.4 	"/>
	
		<linearGradient id="SVGID_00000098936334123831580150000003769985631386015409_" gradientUnits="userSpaceOnUse" x1="92.8801" y1="283.7041" x2="106.5686" y2="270.0156">
		<stop  offset="1.704893e-07" style="stop-color:#BCFF5C"/>
		<stop  offset="1" style="stop-color:#002E1C"/>
	</linearGradient>
	<path style="fill:url(#SVGID_00000098936334123831580150000003769985631386015409_);" d="M81.3,258.4c1.3,7.7,4.3,18,11.6,25.3
		c7.3,7.3,17.6,10.3,25.3,11.6c-1.3-7.7-4.3-18-11.6-25.3C99.3,262.8,89,259.7,81.3,258.4z"/>
	
		<linearGradient id="SVGID_00000165926946382848542820000011023072377618032036_" gradientUnits="userSpaceOnUse" x1="65.1177" y1="217.9797" x2="78.8067" y2="204.2907">
		<stop  offset="1.704893e-07" style="stop-color:#BCFF5C"/>
		<stop  offset="1" style="stop-color:#002E1C"/>
	</linearGradient>
	<path style="fill:url(#SVGID_00000165926946382848542820000011023072377618032036_);" d="M90.4,229.6c-1.3-7.7-4.3-18-11.6-25.3
		c-7.3-7.3-17.6-10.3-25.3-11.6c1.3,7.7,4.3,18,11.6,25.3C72.4,225.2,82.7,228.3,90.4,229.6z"/>
	
		<linearGradient id="SVGID_00000177483366612825066750000016444105692963326141_" gradientUnits="userSpaceOnUse" x1="90.3907" y1="229.5727" x2="90.3912" y2="229.5722">
		<stop  offset="1.704893e-07" style="stop-color:#BCFF5C"/>
		<stop  offset="1" style="stop-color:#002E1C"/>
	</linearGradient>
	<polygon style="fill:url(#SVGID_00000177483366612825066750000016444105692963326141_);" points="90.4,229.6 90.4,229.6 
		90.4,229.6 	"/>
	
		<linearGradient id="SVGID_00000141443918725806886260000013768498414743534752_" gradientUnits="userSpaceOnUse" x1="14.966" y1="199.126" x2="28.656" y2="185.436">
		<stop  offset="1.704893e-07" style="stop-color:#BCFF5C"/>
		<stop  offset="1" style="stop-color:#002E1C"/>
	</linearGradient>
	<path style="fill:url(#SVGID_00000141443918725806886260000013768498414743534752_);" d="M28.7,185.4L28.7,185.4
		c-7.2-7.3-17.6-10.3-25.3-11.6c1.3,7.7,4.3,18,11.6,25.3c7.3,7.3,17.6,10.3,25.3,11.6C38.9,203,35.9,192.7,28.7,185.4z"/>
	
		<linearGradient id="SVGID_00000177456262494036382900000013763591492356728707_" gradientUnits="userSpaceOnUse" x1="53.1542" y1="150.6942" x2="53.1547" y2="150.6936">
		<stop  offset="1.704893e-07" style="stop-color:#BCFF5C"/>
		<stop  offset="1" style="stop-color:#002E1C"/>
	</linearGradient>
	<polygon style="fill:url(#SVGID_00000177456262494036382900000013763591492356728707_);" points="53.2,150.7 53.2,150.7 
		53.2,150.7 	"/>
	
		<linearGradient id="SVGID_00000134928578716248385000000014001256886411069079_" gradientUnits="userSpaceOnUse" x1="27.8811" y1="139.1012" x2="41.5707" y2="125.4117">
		<stop  offset="1.704893e-07" style="stop-color:#BCFF5C"/>
		<stop  offset="1" style="stop-color:#002E1C"/>
	</linearGradient>
	<path style="fill:url(#SVGID_00000134928578716248385000000014001256886411069079_);" d="M53.2,150.7c-1.3-7.7-4.3-18-11.6-25.3
		c-7.3-7.3-17.6-10.3-25.3-11.6c1.3,7.7,4.3,18,11.6,25.3C35.1,146.4,45.5,149.4,53.2,150.7z"/>
	
		<linearGradient id="SVGID_00000074425414388047758580000004925210812175059373_" gradientUnits="userSpaceOnUse" x1="79.5659" y1="94.401" x2="93.255" y2="80.7119">
		<stop  offset="1.704893e-07" style="stop-color:#BCFF5C"/>
		<stop  offset="1" style="stop-color:#002E1C"/>
	</linearGradient>
	<path style="fill:url(#SVGID_00000074425414388047758580000004925210812175059373_);" d="M104.8,106c-1.3-7.7-4.3-18-11.6-25.3
		C86,73.5,75.7,70.4,68,69.1c1.3,7.7,4.3,18,11.6,25.3C86.8,101.7,97.2,104.7,104.8,106z"/>
	
		<linearGradient id="SVGID_00000006673654793285223840000016264537113665703853_" gradientUnits="userSpaceOnUse" x1="104.8392" y1="105.9942" x2="104.8397" y2="105.9937">
		<stop  offset="1.704893e-07" style="stop-color:#BCFF5C"/>
		<stop  offset="1" style="stop-color:#002E1C"/>
	</linearGradient>
	<polygon style="fill:url(#SVGID_00000006673654793285223840000016264537113665703853_);" points="104.8,106 104.8,106 104.8,106 	
		"/>
	
		<linearGradient id="SVGID_00000028289518427619766620000004759240216407955076_" gradientUnits="userSpaceOnUse" x1="105.7953" y1="43.5963" x2="119.4848" y2="29.9068">
		<stop  offset="1.704893e-07" style="stop-color:#BCFF5C"/>
		<stop  offset="1" style="stop-color:#002E1C"/>
	</linearGradient>
	<path style="fill:url(#SVGID_00000028289518427619766620000004759240216407955076_);" d="M131.1,55.2L131.1,55.2
		c-1.3-7.7-4.3-18-11.6-25.3c-7.3-7.3-17.6-10.3-25.3-11.6c1.3,7.7,4.3,18,11.6,25.3C113,50.8,123.4,53.9,131.1,55.2z"/>
	
		<linearGradient id="SVGID_00000124859089620292180530000016740902077071016100_" gradientUnits="userSpaceOnUse" x1="46.5975" y1="283.7045" x2="60.2885" y2="270.0135">
		<stop  offset="1.704893e-07" style="stop-color:#BCFF5C"/>
		<stop  offset="1" style="stop-color:#002E1C"/>
	</linearGradient>
	<path style="fill:url(#SVGID_00000124859089620292180530000016740902077071016100_);" d="M35,258.4L35,258.4
		c1.3,7.7,4.3,18,11.6,25.3c7.3,7.3,17.6,10.3,25.3,11.6c-1.3-7.7-4.3-18-11.6-25.3C53,262.8,42.7,259.7,35,258.4z"/>
</g>
</svg>
