<?xml version="1.0" encoding="utf-8"?>
<!-- Generator: Adobe Illustrator 27.0.0, SVG Export Plug-In . SVG Version: 6.00 Build 0)  -->
<svg version="1.1" id="Layer_1" xmlns="http://www.w3.org/2000/svg" xmlns:xlink="http://www.w3.org/1999/xlink" x="0px" y="0px"
	 viewBox="0 0 333.4 333.4" style="enable-background:new 0 0 333.4 333.4;" xml:space="preserve">
<style type="text/css">
	.st0{fill:url(#SVGID_1_);}
	.st1{fill:url(#SVGID_00000036227767179652213810000011520967072427484093_);}
	.st2{fill:url(#SVGID_00000181784810657617239270000008827118265996985775_);}
	.st3{fill:url(#SVGID_00000147910248761076472840000001078539558762478009_);}
	.st4{fill:url(#SVGID_00000133516550372472925730000016177090209473130655_);}
	.st5{fill:url(#SVGID_00000149380996443689053770000013575439093777321129_);}
	.st6{fill:url(#SVGID_00000057108871052443429460000009692898881509671334_);}
	.st7{fill:url(#SVGID_00000127043499126181791370000002537028249896411053_);}
	.st8{fill:url(#SVGID_00000168111923484681947120000015524995756911592846_);}
	.st9{fill:url(#SVGID_00000016061171325166178820000018011381206655068048_);}
	.st10{fill:url(#SVGID_00000091731833704844751280000009450374837799360658_);}
	.st11{fill:url(#SVGID_00000099627672252264620880000007145102073727258017_);}
	.st12{fill:url(#SVGID_00000060741315338700254180000015677090362874960524_);}
	.st13{fill:url(#SVGID_00000027590045526705773730000006219619852483268749_);}
	.st14{fill:url(#SVGID_00000063593516036517906440000002029177156208235706_);}
	.st15{fill:url(#SVGID_00000181088133584644214800000010421513732600625794_);}
	.st16{fill:url(#SVGID_00000139997759714663780590000001411983954746617216_);}
	.st17{fill:url(#SVGID_00000090973517907054843700000003594396787433501109_);}
	.st18{fill:url(#SVGID_00000165193075696394070500000010810509945429115057_);}
	.st19{fill:url(#SVGID_00000107582249696194010850000016993334554771042212_);}
	.st20{fill:url(#SVGID_00000129207544930120518910000014665466510733337247_);}
	.st21{fill:url(#SVGID_00000092458424809982199560000008438011069746899855_);}
	.st22{fill:url(#SVGID_00000124159553702465441980000015114093186520076677_);}
	.st23{fill:url(#SVGID_00000031207984743079701560000014796242966378720415_);}
	.st24{fill:url(#SVGID_00000071523983644106555810000016446657339409443743_);}
</style>
<g>
	<linearGradient id="SVGID_1_" gradientUnits="userSpaceOnUse" x1="95.0276" y1="94.3362" x2="240.319" y2="239.6276">
		<stop  offset="0" style="stop-color:#FF3200"/>
		<stop  offset="1" style="stop-color:#730003"/>
	</linearGradient>
	<path class="st0" d="M197.2,198.7L197.2,198.7l-33,33l-33-33l-41.2-41.2l33-33l41.2,41.2L238,92c-18.4-17.2-43.1-27.8-70.3-27.8
		C111,64.2,65,110.2,65,167c0,56.7,46,102.7,102.7,102.7c56.7,0,102.7-46,102.7-102.7c0-12.4-2.2-24.3-6.2-35.3L197.2,198.7z"/>
	
		<linearGradient id="SVGID_00000076597232869290050710000000906371326857848510_" gradientUnits="userSpaceOnUse" x1="52.2518" y1="51.5222" x2="283.1333" y2="282.4037">
		<stop  offset="0" style="stop-color:#FF3200"/>
		<stop  offset="1" style="stop-color:#730003"/>
	</linearGradient>
	<path style="fill:url(#SVGID_00000076597232869290050710000000906371326857848510_);" d="M312.3,195.7c1.9-9.8,18.7-18.4,18.7-28.8
		c0-10.4-16.7-19-18.7-28.8c-2-10.1,10.1-24.4,6.3-33.7c-3.9-9.5-22.7-11-28.3-19.4c-5.7-8.5,0.1-26.4-7.1-33.6
		c-7.2-7.2-25.1-1.5-33.6-7.1c-8.4-5.6-9.9-24.4-19.4-28.3c-9.3-3.9-23.6,8.3-33.7,6.3c-9.8-1.9-18.4-18.7-28.8-18.7
		s-19,16.7-28.8,18.7c-10.1,2-24.4-10.1-33.7-6.3c-9.5,3.9-11,22.7-19.4,28.3c-8.5,5.7-26.4-0.1-33.6,7.1
		c-7.2,7.2-1.5,25.1-7.1,33.6c-5.6,8.4-24.4,9.9-28.3,19.4c-3.9,9.3,8.3,23.6,6.3,33.7C21.2,148,4.4,156.6,4.4,167
		c0,10.4,16.7,19,18.7,28.8c2,10.1-10.1,24.4-6.3,33.7c3.9,9.5,22.7,11,28.3,19.4c5.7,8.5-0.1,26.4,7.1,33.6
		c7.2,7.2,25.1,1.5,33.6,7.1c8.4,5.6,9.9,24.4,19.4,28.3c9.3,3.9,23.6-8.3,33.7-6.3c9.8,1.9,18.4,18.7,28.8,18.7
		c10.4,0,19-16.7,28.8-18.7c10.1-2,24.4,10.1,33.7,6.3c9.5-3.9,11-22.7,19.4-28.3c8.5-5.7,26.4,0.1,33.6-7.1
		c7.2-7.2,1.5-25.1,7.1-33.6c5.6-8.4,24.4-9.9,28.3-19.4C322.4,220.2,310.3,205.8,312.3,195.7z M167.7,289.8
		c-67.9,0-122.9-55-122.9-122.9s55-122.9,122.9-122.9c45.3,0,85,24.6,106.3,61.1c2.1,3.6,4,7.3,5.7,11c7,15.5,10.9,32.6,10.9,50.7
		C290.6,234.8,235.6,289.8,167.7,289.8z"/>
</g>
<g>
	
		<linearGradient id="SVGID_00000067210901588477155990000004395687101998784701_" gradientUnits="userSpaceOnUse" x1="629.369" y1="-65.721" x2="786.6285" y2="-222.9805">
		<stop  offset="1.704893e-07" style="stop-color:#BCFF5C"/>
		<stop  offset="1" style="stop-color:#002E1C"/>
	</linearGradient>
	<path style="fill:url(#SVGID_00000067210901588477155990000004395687101998784701_);" d="M708-138.2L708-138.2
		c-42.8,0-81.4-23-106.5-56.9C631.6-122.8,669.1-55,708,12.9c38.9-67.9,76.4-135.7,106.6-208C789.5-161.2,750.8-138.2,708-138.2z"/>
	
		<linearGradient id="SVGID_00000146468443573953662960000010471825273249827000_" gradientUnits="userSpaceOnUse" x1="686.3631" y1="-156.3323" x2="729.6367" y2="-199.6059">
		<stop  offset="1.704893e-07" style="stop-color:#BCFF5C"/>
		<stop  offset="1" style="stop-color:#002E1C"/>
	</linearGradient>
	<path style="fill:url(#SVGID_00000146468443573953662960000010471825273249827000_);" d="M708-148.3c16.7,0,32.2-13.4,32.5-30.4
		c0.3-15.6-14.5-26.5-32.5-26.5s-32.8,10.9-32.5,26.5C675.8-161.7,691.3-148.3,708-148.3z"/>
	
		<linearGradient id="SVGID_00000011028429688158396430000000891471856013980060_" gradientUnits="userSpaceOnUse" x1="756.5577" y1="-6.9243" x2="793.4233" y2="-43.7898">
		<stop  offset="1.704893e-07" style="stop-color:#BCFF5C"/>
		<stop  offset="1" style="stop-color:#002E1C"/>
	</linearGradient>
	<path style="fill:url(#SVGID_00000011028429688158396430000000891471856013980060_);" d="M756.6-6.9L756.6-6.9
		c7.7-1.3,18-4.3,25.3-11.6c7.2-7.2,10.3-17.6,11.6-25.3c-7.7,1.3-18,4.3-25.3,11.6C760.9-25,757.9-14.6,756.6-6.9z"/>
	
		<linearGradient id="SVGID_00000127723163531690331180000011083531621756933294_" gradientUnits="userSpaceOnUse" x1="784.3237" y1="-72.6423" x2="784.3243" y2="-72.6429">
		<stop  offset="1.704893e-07" style="stop-color:#BCFF5C"/>
		<stop  offset="1" style="stop-color:#002E1C"/>
	</linearGradient>
	<polygon style="fill:url(#SVGID_00000127723163531690331180000011083531621756933294_);" points="784.3,-72.6 784.3,-72.6 
		784.3,-72.6 	"/>
	
		<linearGradient id="SVGID_00000157267539489924705950000005422481315637809849_" gradientUnits="userSpaceOnUse" x1="784.3201" y1="-72.6471" x2="821.1855" y2="-109.5125">
		<stop  offset="1.704893e-07" style="stop-color:#BCFF5C"/>
		<stop  offset="1" style="stop-color:#002E1C"/>
	</linearGradient>
	<path style="fill:url(#SVGID_00000157267539489924705950000005422481315637809849_);" d="M784.3-72.6c7.7-1.3,18-4.3,25.3-11.6
		c7.2-7.2,10.3-17.6,11.6-25.3c-7.7,1.3-18,4.3-25.3,11.6C788.7-90.7,785.6-80.3,784.3-72.6z"/>
	
		<linearGradient id="SVGID_00000165953683313946934990000010479613110287154859_" gradientUnits="userSpaceOnUse" x1="834.472" y1="-91.503" x2="871.338" y2="-128.369">
		<stop  offset="1.704893e-07" style="stop-color:#BCFF5C"/>
		<stop  offset="1" style="stop-color:#002E1C"/>
	</linearGradient>
	<path style="fill:url(#SVGID_00000165953683313946934990000010479613110287154859_);" d="M846.1-116.8L846.1-116.8
		c-7.2,7.2-10.3,17.6-11.6,25.3c7.7-1.3,18-4.3,25.3-11.6c7.2-7.2,10.3-17.6,11.6-25.3C863.7-127.1,853.3-124,846.1-116.8z"/>
	
		<linearGradient id="SVGID_00000065797447721874041390000010376805457908503973_" gradientUnits="userSpaceOnUse" x1="821.5585" y1="-151.5265" x2="858.4245" y2="-188.3925">
		<stop  offset="1.704893e-07" style="stop-color:#BCFF5C"/>
		<stop  offset="1" style="stop-color:#002E1C"/>
	</linearGradient>
	<path style="fill:url(#SVGID_00000065797447721874041390000010376805457908503973_);" d="M858.4-188.4L858.4-188.4
		c-7.7,1.3-18,4.3-25.3,11.6c-7.2,7.2-10.3,17.6-11.6,25.3c7.7-1.3,18-4.3,25.3-11.6C854.1-170.4,857.1-180.7,858.4-188.4z"/>
	
		<linearGradient id="SVGID_00000140701986448578120370000010189274815050660778_" gradientUnits="userSpaceOnUse" x1="769.8727" y1="-196.2253" x2="806.7388" y2="-233.0913">
		<stop  offset="1.704893e-07" style="stop-color:#BCFF5C"/>
		<stop  offset="1" style="stop-color:#002E1C"/>
	</linearGradient>
	<path style="fill:url(#SVGID_00000140701986448578120370000010189274815050660778_);" d="M795.2-207.8L795.2-207.8
		c7.2-7.2,10.3-17.6,11.6-25.3c-7.7,1.3-18,4.3-25.3,11.6c-7.2,7.2-10.3,17.6-11.6,25.3C777.6-197.5,787.9-200.6,795.2-207.8z"/>
	
		<linearGradient id="SVGID_00000058577178291441662580000011840303986511228832_" gradientUnits="userSpaceOnUse" x1="780.5041" y1="-283.9016" x2="780.5048" y2="-283.9022">
		<stop  offset="1.704893e-07" style="stop-color:#BCFF5C"/>
		<stop  offset="1" style="stop-color:#002E1C"/>
	</linearGradient>
	<polygon style="fill:url(#SVGID_00000058577178291441662580000011840303986511228832_);" points="780.5,-283.9 780.5,-283.9 
		780.5,-283.9 	"/>
	
		<linearGradient id="SVGID_00000137089911864790542000000005313182314550757294_" gradientUnits="userSpaceOnUse" x1="743.6425" y1="-247.0315" x2="780.5084" y2="-283.8974">
		<stop  offset="1.704893e-07" style="stop-color:#BCFF5C"/>
		<stop  offset="1" style="stop-color:#002E1C"/>
	</linearGradient>
	<path style="fill:url(#SVGID_00000137089911864790542000000005313182314550757294_);" d="M780.5-283.9c-7.7,1.3-18,4.3-25.3,11.6
		c-7.2,7.2-10.3,17.6-11.6,25.3c7.7-1.3,18-4.3,25.3-11.6C776.2-265.9,779.2-276.2,780.5-283.9z"/>
	
		<linearGradient id="SVGID_00000165952614225779538550000012893447569733462408_" gradientUnits="userSpaceOnUse" x1="802.8398" y1="-6.9234" x2="839.7052" y2="-43.7888">
		<stop  offset="1.704893e-07" style="stop-color:#BCFF5C"/>
		<stop  offset="1" style="stop-color:#002E1C"/>
	</linearGradient>
	<path style="fill:url(#SVGID_00000165952614225779538550000012893447569733462408_);" d="M802.8-6.9c7.7-1.3,18-4.3,25.3-11.6
		c7.2-7.2,10.3-17.6,11.6-25.3c-7.7,1.3-18,4.3-25.3,11.6C807.2-25,804.1-14.6,802.8-6.9z"/>
	
		<linearGradient id="SVGID_00000075847706770285567780000013333705176038510239_" gradientUnits="userSpaceOnUse" x1="802.8433" y1="-6.9188" x2="802.8439" y2="-6.9194">
		<stop  offset="1.704893e-07" style="stop-color:#BCFF5C"/>
		<stop  offset="1" style="stop-color:#002E1C"/>
	</linearGradient>
	<polygon style="fill:url(#SVGID_00000075847706770285567780000013333705176038510239_);" points="802.8,-6.9 802.8,-6.9 
		802.8,-6.9 	"/>
	
		<linearGradient id="SVGID_00000169559410334633129930000008053053708444946580_" gradientUnits="userSpaceOnUse" x1="622.5793" y1="-43.7926" x2="622.5804" y2="-43.7937">
		<stop  offset="1.704893e-07" style="stop-color:#BCFF5C"/>
		<stop  offset="1" style="stop-color:#002E1C"/>
	</linearGradient>
	<polygon style="fill:url(#SVGID_00000169559410334633129930000008053053708444946580_);" points="622.6,-43.8 622.6,-43.8 
		622.6,-43.8 	"/>
	
		<linearGradient id="SVGID_00000102503031291164005610000004578874553232934538_" gradientUnits="userSpaceOnUse" x1="634.1641" y1="-18.5119" x2="647.8527" y2="-32.2004">
		<stop  offset="1.704893e-07" style="stop-color:#BCFF5C"/>
		<stop  offset="1" style="stop-color:#002E1C"/>
	</linearGradient>
	<path style="fill:url(#SVGID_00000102503031291164005610000004578874553232934538_);" d="M622.6-43.8c1.3,7.7,4.3,18,11.6,25.3
		c7.3,7.3,17.6,10.3,25.3,11.6c-1.3-7.7-4.3-18-11.6-25.3C640.6-39.5,630.3-42.5,622.6-43.8z"/>
	
		<linearGradient id="SVGID_00000079449906362024873380000001138466256446635928_" gradientUnits="userSpaceOnUse" x1="606.4017" y1="-84.2363" x2="620.0907" y2="-97.9253">
		<stop  offset="1.704893e-07" style="stop-color:#BCFF5C"/>
		<stop  offset="1" style="stop-color:#002E1C"/>
	</linearGradient>
	<path style="fill:url(#SVGID_00000079449906362024873380000001138466256446635928_);" d="M631.7-72.6c-1.3-7.7-4.3-18-11.6-25.3
		c-7.3-7.3-17.6-10.3-25.3-11.6c1.3,7.7,4.3,18,11.6,25.3C613.7-77,624-73.9,631.7-72.6z"/>
	
		<linearGradient id="SVGID_00000163790581025080120700000004334029325550709433_" gradientUnits="userSpaceOnUse" x1="631.6747" y1="-72.6433" x2="631.6752" y2="-72.6438">
		<stop  offset="1.704893e-07" style="stop-color:#BCFF5C"/>
		<stop  offset="1" style="stop-color:#002E1C"/>
	</linearGradient>
	<polygon style="fill:url(#SVGID_00000163790581025080120700000004334029325550709433_);" points="631.7,-72.6 631.7,-72.6 
		631.7,-72.6 	"/>
	
		<linearGradient id="SVGID_00000174603490450025516200000008810578548567785115_" gradientUnits="userSpaceOnUse" x1="556.25" y1="-103.09" x2="569.94" y2="-116.78">
		<stop  offset="1.704893e-07" style="stop-color:#BCFF5C"/>
		<stop  offset="1" style="stop-color:#002E1C"/>
	</linearGradient>
	<path style="fill:url(#SVGID_00000174603490450025516200000008810578548567785115_);" d="M569.9-116.8L569.9-116.8
		c-7.2-7.3-17.6-10.3-25.3-11.6c1.3,7.7,4.3,18,11.6,25.3c7.3,7.3,17.6,10.3,25.3,11.6C580.2-99.2,577.2-109.5,569.9-116.8z"/>
	
		<linearGradient id="SVGID_00000163786815068656920450000013640623830324988548_" gradientUnits="userSpaceOnUse" x1="594.4382" y1="-151.5218" x2="594.4387" y2="-151.5224">
		<stop  offset="1.704893e-07" style="stop-color:#BCFF5C"/>
		<stop  offset="1" style="stop-color:#002E1C"/>
	</linearGradient>
	<polygon style="fill:url(#SVGID_00000163786815068656920450000013640623830324988548_);" points="594.4,-151.5 594.4,-151.5 
		594.4,-151.5 	"/>
	
		<linearGradient id="SVGID_00000023989387232471417750000012999110721041713825_" gradientUnits="userSpaceOnUse" x1="569.1652" y1="-163.1148" x2="582.8547" y2="-176.8043">
		<stop  offset="1.704893e-07" style="stop-color:#BCFF5C"/>
		<stop  offset="1" style="stop-color:#002E1C"/>
	</linearGradient>
	<path style="fill:url(#SVGID_00000023989387232471417750000012999110721041713825_);" d="M594.4-151.5c-1.3-7.7-4.3-18-11.6-25.3
		c-7.3-7.3-17.6-10.3-25.3-11.6c1.3,7.7,4.3,18,11.6,25.3C576.4-155.9,586.8-152.8,594.4-151.5z"/>
	
		<linearGradient id="SVGID_00000115497602802956296470000011775350518564059540_" gradientUnits="userSpaceOnUse" x1="620.8499" y1="-207.815" x2="634.5389" y2="-221.5041">
		<stop  offset="1.704893e-07" style="stop-color:#BCFF5C"/>
		<stop  offset="1" style="stop-color:#002E1C"/>
	</linearGradient>
	<path style="fill:url(#SVGID_00000115497602802956296470000011775350518564059540_);" d="M646.1-196.2c-1.3-7.7-4.3-18-11.6-25.3
		c-7.3-7.3-17.6-10.3-25.3-11.6c1.3,7.7,4.3,18,11.6,25.3C628.1-200.6,638.4-197.5,646.1-196.2z"/>
	
		<linearGradient id="SVGID_00000008124107110183664770000015065344124114981819_" gradientUnits="userSpaceOnUse" x1="646.1232" y1="-196.2218" x2="646.1237" y2="-196.2223">
		<stop  offset="1.704893e-07" style="stop-color:#BCFF5C"/>
		<stop  offset="1" style="stop-color:#002E1C"/>
	</linearGradient>
	<polygon style="fill:url(#SVGID_00000008124107110183664770000015065344124114981819_);" points="646.1,-196.2 646.1,-196.2 
		646.1,-196.2 	"/>
	
		<linearGradient id="SVGID_00000120555640556796495590000005712863966997340861_" gradientUnits="userSpaceOnUse" x1="647.0792" y1="-258.6197" x2="660.7688" y2="-272.3092">
		<stop  offset="1.704893e-07" style="stop-color:#BCFF5C"/>
		<stop  offset="1" style="stop-color:#002E1C"/>
	</linearGradient>
	<path style="fill:url(#SVGID_00000120555640556796495590000005712863966997340861_);" d="M672.4-247L672.4-247
		c-1.3-7.7-4.3-18-11.6-25.3c-7.3-7.3-17.6-10.3-25.3-11.6c1.3,7.7,4.3,18,11.6,25.3C654.3-251.4,664.7-248.3,672.4-247z"/>
	
		<linearGradient id="SVGID_00000090978494955867229080000016582344187307750308_" gradientUnits="userSpaceOnUse" x1="587.8815" y1="-18.5115" x2="601.5725" y2="-32.2025">
		<stop  offset="1.704893e-07" style="stop-color:#BCFF5C"/>
		<stop  offset="1" style="stop-color:#002E1C"/>
	</linearGradient>
	<path style="fill:url(#SVGID_00000090978494955867229080000016582344187307750308_);" d="M576.3-43.8L576.3-43.8
		c1.3,7.7,4.3,18,11.6,25.3c7.3,7.3,17.6,10.3,25.3,11.6c-1.3-7.7-4.3-18-11.6-25.3C594.3-39.5,584-42.5,576.3-43.8z"/>
</g>
</svg>
