<?xml version="1.0" encoding="utf-8"?>
<!-- Generator: Adobe Illustrator 27.0.0, SVG Export Plug-In . SVG Version: 6.00 Build 0)  -->
<svg version="1.1" id="Layer_1" xmlns="http://www.w3.org/2000/svg" xmlns:xlink="http://www.w3.org/1999/xlink" x="0px" y="0px"
	 viewBox="0 0 333.4 333.4" style="enable-background:new 0 0 333.4 333.4;" xml:space="preserve">
<style type="text/css">
	.st0{fill:url(#SVGID_1_);}
	.st1{fill:url(#SVGID_00000176746448342464838820000011829419156323897737_);}
	.st2{fill:url(#SVGID_00000055692897582900673420000004032019621206618270_);}
	.st3{fill:url(#SVGID_00000138538598813487950870000004826782365749656253_);}
	.st4{fill:url(#SVGID_00000173142116664287343980000010381092701929246380_);}
	.st5{fill:url(#SVGID_00000034069923649362999080000007491032711011316138_);}
	.st6{fill:url(#SVGID_00000179644265964437091790000006566371253724607125_);}
	.st7{fill:url(#SVGID_00000173882181598855810050000011154277421516207797_);}
	.st8{fill:url(#SVGID_00000123425710209620075040000010859666561978685355_);}
	.st9{fill:url(#SVGID_00000145046433760412901470000001872899114640418981_);}
	.st10{fill:url(#SVGID_00000072263329022625927850000004247387132413595791_);}
	.st11{fill:url(#SVGID_00000112609717224773328810000002730389588484914052_);}
	.st12{fill:url(#SVGID_00000093885842498499323790000000769154882909565599_);}
	.st13{fill:url(#SVGID_00000057123791642583947130000001759626218945639350_);}
	.st14{fill:url(#SVGID_00000124850090635094430180000014151905011015899305_);}
	.st15{fill:url(#SVGID_00000017483712818476783840000011253750921587459003_);}
	.st16{fill:url(#SVGID_00000127757427796316219660000004765902102121357728_);}
	.st17{fill:url(#SVGID_00000156585654148861537220000008560860058699713670_);}
	.st18{fill:url(#SVGID_00000127022713486395570900000015336424668722985107_);}
	.st19{fill:url(#SVGID_00000057150590439453978890000016211299031686025911_);}
	.st20{fill:url(#SVGID_00000123400940088057235860000014810194960793111210_);}
	.st21{fill:url(#SVGID_00000159449944494263220850000009050370243924780459_);}
	.st22{fill:url(#SVGID_00000003792567047049829010000017135260782548067980_);}
	.st23{fill:url(#SVGID_00000165923923359897108500000013398778485646111895_);}
</style>
<linearGradient id="SVGID_1_" gradientUnits="userSpaceOnUse" x1="45.5525" y1="94.4692" x2="285.2646" y2="334.1814">
	<stop  offset="0" style="stop-color:#73D9FF"/>
	<stop  offset="0" style="stop-color:#8BF0FF"/>
	<stop  offset="1.065558e-07" style="stop-color:#73F5FF"/>
	<stop  offset="0.5205" style="stop-color:#007BA2"/>
</linearGradient>
<path class="st0" d="M281.7,313.6L281.7,313.6H190c-5.9,0-10.8-4.9-10.8-10.6v-23.4c0-9.9,6-18.8,15.1-22.6c3.2-1.4,4.8-5.1,3.5-8.4
	l-9-22.7c-0.8-2.4,0.3-4.8,2.5-5.9l70.1-27.4c2.1-1.1,3.7-2.7,4.8-4.9c0.8-2.1,1.1-4.6,0.3-6.8c-1.9-4.6-7-7-11.5-5.1l-108.6,42.1
	c-3.5,1-5.4,4.8-4.3,8.4l1.3,4c0.3,1.3,0,2.9-1,4c-0.8,1.4-2.5,1.9-4.1,1.6c-10.2-1.6-28.3-8.9-34.5-39.6
	c-8.6-44.2,31.5-65.5,51.5-73.3c2.4-0.8,5.1-0.8,7.5,0.2c2.1,1.1,4,3,5.1,5.5l-3.5,1.9c-1.4,0.8-1.9,2.1-1.4,3.5
	c0.5,1,1.6,1.6,2.5,1.6c0.5,0,0.8-0.3,1.3-0.3l3.5-1.8c2.7,4.3,6.8,7.5,11.3,9.7l-0.5,4c-0.3,1.6,0.8,3,2.5,3.3h0.3
	c1.4,0,2.4-1.1,2.7-2.4l0.5-3.5c1.4,0.3,3,0.5,4.6,0.5c3.2,0,6.5-0.8,9.4-1.9l2.5,4.3c0.5,1.1,1.4,1.6,2.4,1.6
	c0.3,0,0.8-0.3,1.1-0.3c1.4-0.8,1.9-2.4,1.1-3.8l-2.1-4.3c3.8-2.7,7-6.2,8.9-10.4l3.2,1.6c0.3,0.3,0.8,0.3,1.4,0.3
	c0.8,0,1.9-0.5,2.1-1.3c0.8-1.4,0.3-3-1.1-3.8l-4.1-1.9c0.5-1.9,0.8-3.8,0.8-5.6c0-3.2-0.8-6.5-2.1-9.7l2.7-1.6
	c1.4-0.5,1.9-2.1,1.4-3.5c-0.9-1.4-2.5-1.9-3.8-1.4l-2.7,1.9c-1.6-2.5-3.8-4.6-6.5-6.5c-1-0.8-1.9-1.9-2.7-3.2l-30.8-67.9
	c-2.4-5.4-9.2-8.1-14.8-5.6c-1.6,0.8-3.5,0-4.3-1.6l-6.2-12.7c-1.8-4-6.4-6-10.5-4c-4,1.9-5.6,6.7-4,10.8l6,12.1
	c0.3,0.9,0.3,1.9,0,2.7c-0.3,0.8-1.1,1.6-1.9,1.9c-2.7,1.4-4.8,3.5-5.9,6.2c-1,3-1,6,0,8.6l9.2,21c1.4,3.2,0,7-3.2,8.4
	c-25.8,11.6-79.4,45.2-66,121c6.5,37.1,27,54.4,43.7,62.5c8.4,4,13.8,12.6,13.8,22.1v21.6c0,5.7-4.6,10.5-10.5,10.5h-24
	c-3.5,0-6.2,3-6.2,6.2v12.3h200.2V320C287.9,316.5,285.2,313.6,281.7,313.6z M148,89.9c2.4,0,4.3,1.9,4.3,4.3c0,2.5-1.9,4.3-4.3,4.3
	c-2.4,0-4.6-1.9-4.6-4.3C143.4,91.8,145.6,89.9,148,89.9z M154,262.1c-2.5,0-4.6-2.2-4.6-4.4c0-2.7,2.1-4.5,4.6-4.5v0
	c2.4,0,4.3,1.9,4.3,4.5C158.2,259.9,156.4,262.1,154,262.1z"/>
<g>
	
		<linearGradient id="SVGID_00000014610406895672718280000000180943422913085611_" gradientUnits="userSpaceOnUse" x1="584.369" y1="249.7174" x2="741.6285" y2="92.4579">
		<stop  offset="1.704893e-07" style="stop-color:#BCFF5C"/>
		<stop  offset="1" style="stop-color:#002E1C"/>
	</linearGradient>
	<path style="fill:url(#SVGID_00000014610406895672718280000000180943422913085611_);" d="M663,177.3L663,177.3
		c-42.8,0-81.4-23-106.5-56.9c30.2,72.3,67.6,140.1,106.5,208c38.9-67.9,76.4-135.7,106.6-208C744.5,154.3,705.8,177.3,663,177.3z"
		/>
	
		<linearGradient id="SVGID_00000005247063032287801270000011243421293403103120_" gradientUnits="userSpaceOnUse" x1="641.3631" y1="159.1061" x2="684.6367" y2="115.8325">
		<stop  offset="1.704893e-07" style="stop-color:#BCFF5C"/>
		<stop  offset="1" style="stop-color:#002E1C"/>
	</linearGradient>
	<path style="fill:url(#SVGID_00000005247063032287801270000011243421293403103120_);" d="M663,167.1c16.7,0,32.2-13.4,32.5-30.4
		c0.3-15.6-14.5-26.5-32.5-26.5s-32.8,10.9-32.5,26.5C630.8,153.7,646.3,167.1,663,167.1z"/>
	
		<linearGradient id="SVGID_00000161615031353394133830000005014647360590829709_" gradientUnits="userSpaceOnUse" x1="711.5577" y1="308.5142" x2="748.4233" y2="271.6487">
		<stop  offset="1.704893e-07" style="stop-color:#BCFF5C"/>
		<stop  offset="1" style="stop-color:#002E1C"/>
	</linearGradient>
	<path style="fill:url(#SVGID_00000161615031353394133830000005014647360590829709_);" d="M711.6,308.5L711.6,308.5
		c7.7-1.3,18-4.3,25.3-11.6c7.2-7.2,10.3-17.6,11.6-25.3c-7.7,1.3-18,4.3-25.3,11.6C715.9,290.5,712.9,300.8,711.6,308.5z"/>
	
		<linearGradient id="SVGID_00000094611460713481224710000004317493210497551026_" gradientUnits="userSpaceOnUse" x1="739.3237" y1="242.7962" x2="739.3243" y2="242.7956">
		<stop  offset="1.704893e-07" style="stop-color:#BCFF5C"/>
		<stop  offset="1" style="stop-color:#002E1C"/>
	</linearGradient>
	<polygon style="fill:url(#SVGID_00000094611460713481224710000004317493210497551026_);" points="739.3,242.8 739.3,242.8 
		739.3,242.8 	"/>
	
		<linearGradient id="SVGID_00000050637456740144271770000018095746501808580480_" gradientUnits="userSpaceOnUse" x1="739.3201" y1="242.7913" x2="776.1855" y2="205.9259">
		<stop  offset="1.704893e-07" style="stop-color:#BCFF5C"/>
		<stop  offset="1" style="stop-color:#002E1C"/>
	</linearGradient>
	<path style="fill:url(#SVGID_00000050637456740144271770000018095746501808580480_);" d="M739.3,242.8c7.7-1.3,18-4.3,25.3-11.6
		c7.2-7.2,10.3-17.6,11.6-25.3c-7.7,1.3-18,4.3-25.3,11.6C743.7,224.7,740.6,235.1,739.3,242.8z"/>
	
		<linearGradient id="SVGID_00000079474239850326002150000003694296651804599682_" gradientUnits="userSpaceOnUse" x1="789.472" y1="223.9355" x2="826.338" y2="187.0695">
		<stop  offset="1.704893e-07" style="stop-color:#BCFF5C"/>
		<stop  offset="1" style="stop-color:#002E1C"/>
	</linearGradient>
	<path style="fill:url(#SVGID_00000079474239850326002150000003694296651804599682_);" d="M801.1,198.7L801.1,198.7
		c-7.2,7.2-10.3,17.6-11.6,25.3c7.7-1.3,18-4.3,25.3-11.6c7.2-7.2,10.3-17.6,11.6-25.3C818.7,188.4,808.3,191.4,801.1,198.7z"/>
	
		<linearGradient id="SVGID_00000068676486488112700310000009624265187067502005_" gradientUnits="userSpaceOnUse" x1="776.5585" y1="163.9119" x2="813.4245" y2="127.0459">
		<stop  offset="1.704893e-07" style="stop-color:#BCFF5C"/>
		<stop  offset="1" style="stop-color:#002E1C"/>
	</linearGradient>
	<path style="fill:url(#SVGID_00000068676486488112700310000009624265187067502005_);" d="M813.4,127L813.4,127
		c-7.7,1.3-18,4.3-25.3,11.6c-7.2,7.2-10.3,17.6-11.6,25.3c7.7-1.3,18-4.3,25.3-11.6C809.1,145.1,812.1,134.7,813.4,127z"/>
	
		<linearGradient id="SVGID_00000140727806112981705280000001452993322739309218_" gradientUnits="userSpaceOnUse" x1="724.8727" y1="119.2132" x2="761.7388" y2="82.3472">
		<stop  offset="1.704893e-07" style="stop-color:#BCFF5C"/>
		<stop  offset="1" style="stop-color:#002E1C"/>
	</linearGradient>
	<path style="fill:url(#SVGID_00000140727806112981705280000001452993322739309218_);" d="M750.2,107.6L750.2,107.6
		c7.2-7.2,10.3-17.6,11.6-25.3c-7.7,1.3-18,4.3-25.3,11.6c-7.2,7.2-10.3,17.6-11.6,25.3C732.6,117.9,742.9,114.9,750.2,107.6z"/>
	
		<linearGradient id="SVGID_00000157271177061177623830000010776298861067256733_" gradientUnits="userSpaceOnUse" x1="735.5041" y1="31.5368" x2="735.5048" y2="31.5362">
		<stop  offset="1.704893e-07" style="stop-color:#BCFF5C"/>
		<stop  offset="1" style="stop-color:#002E1C"/>
	</linearGradient>
	<polygon style="fill:url(#SVGID_00000157271177061177623830000010776298861067256733_);" points="735.5,31.5 735.5,31.5 
		735.5,31.5 	"/>
	
		<linearGradient id="SVGID_00000071546468725553484950000012467548428351397290_" gradientUnits="userSpaceOnUse" x1="698.6425" y1="68.407" x2="735.5084" y2="31.5411">
		<stop  offset="1.704893e-07" style="stop-color:#BCFF5C"/>
		<stop  offset="1" style="stop-color:#002E1C"/>
	</linearGradient>
	<path style="fill:url(#SVGID_00000071546468725553484950000012467548428351397290_);" d="M735.5,31.5c-7.7,1.3-18,4.3-25.3,11.6
		c-7.2,7.2-10.3,17.6-11.6,25.3c7.7-1.3,18-4.3,25.3-11.6C731.2,49.6,734.2,39.2,735.5,31.5z"/>
	
		<linearGradient id="SVGID_00000099635459786700369340000008003248048887819688_" gradientUnits="userSpaceOnUse" x1="757.8398" y1="308.515" x2="794.7052" y2="271.6497">
		<stop  offset="1.704893e-07" style="stop-color:#BCFF5C"/>
		<stop  offset="1" style="stop-color:#002E1C"/>
	</linearGradient>
	<path style="fill:url(#SVGID_00000099635459786700369340000008003248048887819688_);" d="M757.8,308.5c7.7-1.3,18-4.3,25.3-11.6
		c7.2-7.2,10.3-17.6,11.6-25.3c-7.7,1.3-18,4.3-25.3,11.6C762.2,290.5,759.1,300.8,757.8,308.5z"/>
	
		<linearGradient id="SVGID_00000007416144055124934520000018231676692985533075_" gradientUnits="userSpaceOnUse" x1="757.8433" y1="308.5197" x2="757.8439" y2="308.5191">
		<stop  offset="1.704893e-07" style="stop-color:#BCFF5C"/>
		<stop  offset="1" style="stop-color:#002E1C"/>
	</linearGradient>
	<polygon style="fill:url(#SVGID_00000007416144055124934520000018231676692985533075_);" points="757.8,308.5 757.8,308.5 
		757.8,308.5 	"/>
	
		<linearGradient id="SVGID_00000126322489744846457280000013230903267611561369_" gradientUnits="userSpaceOnUse" x1="577.5793" y1="271.6458" x2="577.5804" y2="271.6448">
		<stop  offset="1.704893e-07" style="stop-color:#BCFF5C"/>
		<stop  offset="1" style="stop-color:#002E1C"/>
	</linearGradient>
	<polygon style="fill:url(#SVGID_00000126322489744846457280000013230903267611561369_);" points="577.6,271.6 577.6,271.6 
		577.6,271.6 	"/>
	
		<linearGradient id="SVGID_00000107565524621824304470000017102026425113968810_" gradientUnits="userSpaceOnUse" x1="589.1641" y1="296.9265" x2="602.8526" y2="283.238">
		<stop  offset="1.704893e-07" style="stop-color:#BCFF5C"/>
		<stop  offset="1" style="stop-color:#002E1C"/>
	</linearGradient>
	<path style="fill:url(#SVGID_00000107565524621824304470000017102026425113968810_);" d="M577.6,271.6c1.3,7.7,4.3,18,11.6,25.3
		c7.3,7.3,17.6,10.3,25.3,11.6c-1.3-7.7-4.3-18-11.6-25.3C595.6,276,585.3,272.9,577.6,271.6z"/>
	
		<linearGradient id="SVGID_00000125599066493905382600000001375275625720630676_" gradientUnits="userSpaceOnUse" x1="561.4017" y1="231.2021" x2="575.0907" y2="217.5131">
		<stop  offset="1.704893e-07" style="stop-color:#BCFF5C"/>
		<stop  offset="1" style="stop-color:#002E1C"/>
	</linearGradient>
	<path style="fill:url(#SVGID_00000125599066493905382600000001375275625720630676_);" d="M586.7,242.8c-1.3-7.7-4.3-18-11.6-25.3
		c-7.3-7.3-17.6-10.3-25.3-11.6c1.3,7.7,4.3,18,11.6,25.3C568.7,238.5,579,241.5,586.7,242.8z"/>
	
		<linearGradient id="SVGID_00000049920500183657142260000016477499300759124365_" gradientUnits="userSpaceOnUse" x1="586.6747" y1="242.7951" x2="586.6752" y2="242.7946">
		<stop  offset="1.704893e-07" style="stop-color:#BCFF5C"/>
		<stop  offset="1" style="stop-color:#002E1C"/>
	</linearGradient>
	<polygon style="fill:url(#SVGID_00000049920500183657142260000016477499300759124365_);" points="586.7,242.8 586.7,242.8 
		586.7,242.8 	"/>
	
		<linearGradient id="SVGID_00000068638871041406112250000004981857119443685014_" gradientUnits="userSpaceOnUse" x1="511.25" y1="212.3484" x2="524.94" y2="198.6584">
		<stop  offset="1.704893e-07" style="stop-color:#BCFF5C"/>
		<stop  offset="1" style="stop-color:#002E1C"/>
	</linearGradient>
	<path style="fill:url(#SVGID_00000068638871041406112250000004981857119443685014_);" d="M524.9,198.7L524.9,198.7
		c-7.2-7.3-17.6-10.3-25.3-11.6c1.3,7.7,4.3,18,11.6,25.3c7.3,7.3,17.6,10.3,25.3,11.6C535.2,216.3,532.2,205.9,524.9,198.7z"/>
	
		<linearGradient id="SVGID_00000091697767128953682440000016945873800649524404_" gradientUnits="userSpaceOnUse" x1="549.4382" y1="163.9166" x2="549.4387" y2="163.9161">
		<stop  offset="1.704893e-07" style="stop-color:#BCFF5C"/>
		<stop  offset="1" style="stop-color:#002E1C"/>
	</linearGradient>
	<polygon style="fill:url(#SVGID_00000091697767128953682440000016945873800649524404_);" points="549.4,163.9 549.4,163.9 
		549.4,163.9 	"/>
	
		<linearGradient id="SVGID_00000023959180930206360380000017137442983600013228_" gradientUnits="userSpaceOnUse" x1="524.1652" y1="152.3236" x2="537.8547" y2="138.6341">
		<stop  offset="1.704893e-07" style="stop-color:#BCFF5C"/>
		<stop  offset="1" style="stop-color:#002E1C"/>
	</linearGradient>
	<path style="fill:url(#SVGID_00000023959180930206360380000017137442983600013228_);" d="M549.4,163.9c-1.3-7.7-4.3-18-11.6-25.3
		c-7.3-7.3-17.6-10.3-25.3-11.6c1.3,7.7,4.3,18,11.6,25.3C531.4,159.6,541.8,162.6,549.4,163.9z"/>
	
		<linearGradient id="SVGID_00000151527274647140553840000016670500038025392305_" gradientUnits="userSpaceOnUse" x1="575.8499" y1="107.6234" x2="589.5389" y2="93.9344">
		<stop  offset="1.704893e-07" style="stop-color:#BCFF5C"/>
		<stop  offset="1" style="stop-color:#002E1C"/>
	</linearGradient>
	<path style="fill:url(#SVGID_00000151527274647140553840000016670500038025392305_);" d="M601.1,119.2c-1.3-7.7-4.3-18-11.6-25.3
		c-7.3-7.3-17.6-10.3-25.3-11.6c1.3,7.7,4.3,18,11.6,25.3C583.1,114.9,593.4,117.9,601.1,119.2z"/>
	
		<linearGradient id="SVGID_00000147203442996960367460000016270068078522818728_" gradientUnits="userSpaceOnUse" x1="601.1232" y1="119.2167" x2="601.1237" y2="119.2161">
		<stop  offset="1.704893e-07" style="stop-color:#BCFF5C"/>
		<stop  offset="1" style="stop-color:#002E1C"/>
	</linearGradient>
	<polygon style="fill:url(#SVGID_00000147203442996960367460000016270068078522818728_);" points="601.1,119.2 601.1,119.2 
		601.1,119.2 	"/>
	
		<linearGradient id="SVGID_00000121279887152588366410000005415281736464489901_" gradientUnits="userSpaceOnUse" x1="602.0792" y1="56.8187" x2="615.7688" y2="43.1292">
		<stop  offset="1.704893e-07" style="stop-color:#BCFF5C"/>
		<stop  offset="1" style="stop-color:#002E1C"/>
	</linearGradient>
	<path style="fill:url(#SVGID_00000121279887152588366410000005415281736464489901_);" d="M627.4,68.4L627.4,68.4
		c-1.3-7.7-4.3-18-11.6-25.3c-7.3-7.3-17.6-10.3-25.3-11.6c1.3,7.7,4.3,18,11.6,25.3C609.3,64.1,619.7,67.1,627.4,68.4z"/>
	
		<linearGradient id="SVGID_00000181777379231008382010000014157767656215457966_" gradientUnits="userSpaceOnUse" x1="542.8815" y1="296.9269" x2="556.5725" y2="283.2359">
		<stop  offset="1.704893e-07" style="stop-color:#BCFF5C"/>
		<stop  offset="1" style="stop-color:#002E1C"/>
	</linearGradient>
	<path style="fill:url(#SVGID_00000181777379231008382010000014157767656215457966_);" d="M531.3,271.6L531.3,271.6
		c1.3,7.7,4.3,18,11.6,25.3c7.3,7.3,17.6,10.3,25.3,11.6c-1.3-7.7-4.3-18-11.6-25.3C549.3,276,539,272.9,531.3,271.6z"/>
</g>
</svg>
