<?xml version="1.0" encoding="utf-8"?>
<!-- Generator: Adobe Illustrator 27.0.0, SVG Export Plug-In . SVG Version: 6.00 Build 0)  -->
<svg version="1.1" id="Layer_1" xmlns="http://www.w3.org/2000/svg" xmlns:xlink="http://www.w3.org/1999/xlink" x="0px" y="0px"
	 viewBox="0 0 333.4 333.4" style="enable-background:new 0 0 333.4 333.4;" xml:space="preserve">
<style type="text/css">
	.st0{fill:url(#SVGID_1_);}
	.st1{fill:url(#SVGID_00000003086140163171320120000014756267038438421133_);}
	.st2{fill:url(#SVGID_00000066505468442197792220000011404447043946412934_);}
	.st3{fill:url(#SVGID_00000129893058703997028340000013836206016264052386_);}
	.st4{fill:url(#SVGID_00000089535316871609482670000016178281496703801014_);}
	.st5{fill:url(#SVGID_00000053532265495166289780000010931028505300486838_);}
	.st6{fill:url(#SVGID_00000107589660471966925350000005566710788791136134_);}
	.st7{fill:url(#SVGID_00000059289145636507696690000001951813005419818641_);}
	.st8{fill:url(#SVGID_00000017488084071428257260000012624441716181291414_);}
	.st9{fill:url(#SVGID_00000111869630416907246030000009885816090076813488_);}
	.st10{fill:url(#SVGID_00000015342570826902105700000009570170845870615477_);}
	.st11{fill:url(#SVGID_00000144307494766531721870000001504021601765282998_);}
	.st12{fill:url(#SVGID_00000103247001746972221820000017677533319623296152_);}
	.st13{fill:url(#SVGID_00000082337281917216839290000016607916639799814829_);}
	.st14{fill:url(#SVGID_00000070097108111971951360000010913276116789452435_);}
	.st15{fill:url(#SVGID_00000077293719982643224020000008608975078183693218_);}
	.st16{fill:url(#SVGID_00000062192886575490544430000017958324439341656495_);}
	.st17{fill:url(#SVGID_00000119116413734424322950000006468681126318217864_);}
	.st18{fill:url(#SVGID_00000080188284096797127850000017987134180022488196_);}
	.st19{fill:url(#SVGID_00000116213293473883121920000003527623237062471575_);}
	.st20{fill:url(#SVGID_00000168839607761044638590000008651505899398572978_);}
	.st21{fill:url(#SVGID_00000024693480575787411300000014879517942025459878_);}
	.st22{fill:url(#SVGID_00000005962421001808221390000004319686879924783764_);}
	.st23{fill:url(#SVGID_00000095319202375476545170000010048763695009468560_);}
	.st24{fill:url(#SVGID_00000165928067552728667840000002794228253614925209_);}
	.st25{fill:url(#SVGID_00000119837246367854466810000010327045358773418380_);}
</style>
<linearGradient id="SVGID_1_" gradientUnits="userSpaceOnUse" x1="42.0123" y1="69.2957" x2="302.0247" y2="329.3082">
	<stop  offset="0" style="stop-color:#FFF35C"/>
	<stop  offset="0.4795" style="stop-color:#D2AC03"/>
	<stop  offset="1" style="stop-color:#D0AA00"/>
</linearGradient>
<path class="st0" d="M309.1,277.4L228,210.6c-2.4-2.4-4.9-4.4-7.5-6.1c16-23.3,22.2-51.4,18.5-78.4c-3.5,3.7-7.2,7.3-11.2,10.7
	c-4.2,3.6-8.6,6.8-13.2,9.7c-1.2,20.4-9.6,40.4-25.1,55.9c-33.7,33.8-88.7,33.8-122.4,0C33.3,168.7,33.3,113.8,67,80
	c13.4-13.4,30.1-21.4,47.5-24.2c9-10.1,20-18.3,33.1-24.6c-34.7-6.1-71.8,4.2-98.5,31c-43.6,43.6-43.6,114.6,0,158.2
	c38.7,38.7,98.8,43,142.3,13.1c1.7,2.6,3.7,5.2,6.1,7.5l66.8,81.1c12.3,12.3,36.4,8.5,44.8,0.1C317.5,313.8,321.4,289.7,309.1,277.4
	z"/>
<linearGradient id="SVGID_00000101082681540816918160000006215538780583023780_" gradientUnits="userSpaceOnUse" x1="309.077" y1="277.361" x2="309.078" y2="277.362">
	<stop  offset="0" style="stop-color:#FFF35C"/>
	<stop  offset="0.4795" style="stop-color:#D2AC03"/>
	<stop  offset="1" style="stop-color:#D0AA00"/>
</linearGradient>
<polygon style="fill:url(#SVGID_00000101082681540816918160000006215538780583023780_);" points="309.1,277.4 309.1,277.4 
	309.1,277.4 "/>
<linearGradient id="SVGID_00000102534538590292425090000003637888436351219083_" gradientUnits="userSpaceOnUse" x1="154.9476" y1="39.5466" x2="228.0616" y2="112.6606">
	<stop  offset="0" style="stop-color:#FFF35C"/>
	<stop  offset="0.4795" style="stop-color:#D2AC03"/>
	<stop  offset="1" style="stop-color:#D0AA00"/>
</linearGradient>
<path style="fill:url(#SVGID_00000102534538590292425090000003637888436351219083_);" d="M107.4,142l18.1-13.2l2.3-34l3.3,29.9
	l61.4-44.8L188,84l-4.2,3.8l7.6-6.4l0,0l-7.6,6.4l-19.6,17.9l28.4,0.9l-32.7,3l-43.2,39.3C264.2,166.4,268.9,3.5,268.9,3.5
	c-15.2,27.5-49.4,29.2-49.4,29.2C101,37.4,104.2,119.3,107.4,142z"/>
<g>
	
		<linearGradient id="SVGID_00000007424556900609602150000008776547351229010319_" gradientUnits="userSpaceOnUse" x1="938.369" y1="99.2382" x2="1095.6285" y2="-58.0213">
		<stop  offset="1.704893e-07" style="stop-color:#BCFF5C"/>
		<stop  offset="1" style="stop-color:#002E1C"/>
	</linearGradient>
	<path style="fill:url(#SVGID_00000007424556900609602150000008776547351229010319_);" d="M1017,26.8L1017,26.8
		c-42.8,0-81.4-23-106.5-56.9c30.2,72.3,67.6,140.1,106.5,208c38.9-67.9,76.4-135.7,106.6-208C1098.5,3.8,1059.8,26.8,1017,26.8z"/>
	
		<linearGradient id="SVGID_00000027584879905072842190000018287475440871503244_" gradientUnits="userSpaceOnUse" x1="995.3631" y1="8.6269" x2="1038.6367" y2="-34.6467">
		<stop  offset="1.704893e-07" style="stop-color:#BCFF5C"/>
		<stop  offset="1" style="stop-color:#002E1C"/>
	</linearGradient>
	<path style="fill:url(#SVGID_00000027584879905072842190000018287475440871503244_);" d="M1017,16.6c16.7,0,32.2-13.4,32.5-30.4
		c0.3-15.6-14.4-26.5-32.5-26.5c-18.1,0-32.8,10.9-32.5,26.5C984.8,3.2,1000.3,16.6,1017,16.6z"/>
	
		<linearGradient id="SVGID_00000100349674666709407190000008649275056466168216_" gradientUnits="userSpaceOnUse" x1="1065.5577" y1="158.035" x2="1102.4232" y2="121.1694">
		<stop  offset="1.704893e-07" style="stop-color:#BCFF5C"/>
		<stop  offset="1" style="stop-color:#002E1C"/>
	</linearGradient>
	<path style="fill:url(#SVGID_00000100349674666709407190000008649275056466168216_);" d="M1065.6,158L1065.6,158
		c7.7-1.3,18-4.3,25.3-11.6c7.2-7.2,10.3-17.6,11.6-25.3c-7.7,1.3-18,4.3-25.3,11.6C1069.9,140,1066.9,150.4,1065.6,158z"/>
	
		<linearGradient id="SVGID_00000018202860130199491610000016061053785839256713_" gradientUnits="userSpaceOnUse" x1="1093.3237" y1="92.3169" x2="1093.3243" y2="92.3163">
		<stop  offset="1.704893e-07" style="stop-color:#BCFF5C"/>
		<stop  offset="1" style="stop-color:#002E1C"/>
	</linearGradient>
	<polygon style="fill:url(#SVGID_00000018202860130199491610000016061053785839256713_);" points="1093.3,92.3 1093.3,92.3 
		1093.3,92.3 	"/>
	
		<linearGradient id="SVGID_00000039106084663859241690000018347745129259844240_" gradientUnits="userSpaceOnUse" x1="1093.3201" y1="92.3121" x2="1130.1854" y2="55.4467">
		<stop  offset="1.704893e-07" style="stop-color:#BCFF5C"/>
		<stop  offset="1" style="stop-color:#002E1C"/>
	</linearGradient>
	<path style="fill:url(#SVGID_00000039106084663859241690000018347745129259844240_);" d="M1093.3,92.3c7.7-1.3,18-4.3,25.3-11.6
		c7.2-7.2,10.3-17.6,11.6-25.3c-7.7,1.3-18,4.3-25.3,11.6C1097.7,74.3,1094.6,84.6,1093.3,92.3z"/>
	
		<linearGradient id="SVGID_00000116209268626443475570000017805131438433425301_" gradientUnits="userSpaceOnUse" x1="1143.472" y1="73.4562" x2="1180.338" y2="36.5902">
		<stop  offset="1.704893e-07" style="stop-color:#BCFF5C"/>
		<stop  offset="1" style="stop-color:#002E1C"/>
	</linearGradient>
	<path style="fill:url(#SVGID_00000116209268626443475570000017805131438433425301_);" d="M1155.1,48.2L1155.1,48.2
		c-7.2,7.2-10.3,17.6-11.6,25.3c7.7-1.3,18-4.3,25.3-11.6c7.2-7.2,10.3-17.6,11.6-25.3C1172.7,37.9,1162.3,40.9,1155.1,48.2z"/>
	
		<linearGradient id="SVGID_00000048502632489018270210000005455882660967334529_" gradientUnits="userSpaceOnUse" x1="1130.5585" y1="13.4327" x2="1167.4244" y2="-23.4333">
		<stop  offset="1.704893e-07" style="stop-color:#BCFF5C"/>
		<stop  offset="1" style="stop-color:#002E1C"/>
	</linearGradient>
	<path style="fill:url(#SVGID_00000048502632489018270210000005455882660967334529_);" d="M1167.4-23.4L1167.4-23.4
		c-7.7,1.3-18,4.3-25.3,11.6c-7.2,7.2-10.3,17.6-11.6,25.3c7.7-1.3,18-4.3,25.3-11.6C1163.1-5.4,1166.1-15.8,1167.4-23.4z"/>
	
		<linearGradient id="SVGID_00000144322099659424174420000013524393053486795403_" gradientUnits="userSpaceOnUse" x1="1078.8728" y1="-31.2661" x2="1115.7388" y2="-68.132">
		<stop  offset="1.704893e-07" style="stop-color:#BCFF5C"/>
		<stop  offset="1" style="stop-color:#002E1C"/>
	</linearGradient>
	<path style="fill:url(#SVGID_00000144322099659424174420000013524393053486795403_);" d="M1104.2-42.9L1104.2-42.9
		c7.2-7.2,10.3-17.6,11.6-25.3c-7.7,1.3-18,4.3-25.3,11.6c-7.2,7.2-10.3,17.6-11.6,25.3C1086.6-32.5,1096.9-35.6,1104.2-42.9z"/>
	
		<linearGradient id="SVGID_00000044880288660120887960000002795115391751890057_" gradientUnits="userSpaceOnUse" x1="1089.5042" y1="-118.9424" x2="1089.5048" y2="-118.943">
		<stop  offset="1.704893e-07" style="stop-color:#BCFF5C"/>
		<stop  offset="1" style="stop-color:#002E1C"/>
	</linearGradient>
	<polygon style="fill:url(#SVGID_00000044880288660120887960000002795115391751890057_);" points="1089.5,-118.9 1089.5,-118.9 
		1089.5,-118.9 	"/>
	
		<linearGradient id="SVGID_00000140701990928485525960000001462978342814397335_" gradientUnits="userSpaceOnUse" x1="1052.6425" y1="-82.0723" x2="1089.5083" y2="-118.9381">
		<stop  offset="1.704893e-07" style="stop-color:#BCFF5C"/>
		<stop  offset="1" style="stop-color:#002E1C"/>
	</linearGradient>
	<path style="fill:url(#SVGID_00000140701990928485525960000001462978342814397335_);" d="M1089.5-118.9c-7.7,1.3-18,4.3-25.3,11.6
		c-7.2,7.2-10.3,17.6-11.6,25.3c7.7-1.3,18-4.3,25.3-11.6C1085.2-100.9,1088.2-111.3,1089.5-118.9z"/>
	
		<linearGradient id="SVGID_00000066486238348921694740000000126720187701920191_" gradientUnits="userSpaceOnUse" x1="1111.8398" y1="158.0358" x2="1148.7052" y2="121.1704">
		<stop  offset="1.704893e-07" style="stop-color:#BCFF5C"/>
		<stop  offset="1" style="stop-color:#002E1C"/>
	</linearGradient>
	<path style="fill:url(#SVGID_00000066486238348921694740000000126720187701920191_);" d="M1111.8,158c7.7-1.3,18-4.3,25.3-11.6
		c7.2-7.2,10.3-17.6,11.6-25.3c-7.7,1.3-18,4.3-25.3,11.6C1116.2,140,1113.1,150.4,1111.8,158z"/>
	
		<linearGradient id="SVGID_00000137101048788310556380000016633051483336604292_" gradientUnits="userSpaceOnUse" x1="1111.8433" y1="158.0405" x2="1111.8439" y2="158.0398">
		<stop  offset="1.704893e-07" style="stop-color:#BCFF5C"/>
		<stop  offset="1" style="stop-color:#002E1C"/>
	</linearGradient>
	<polygon style="fill:url(#SVGID_00000137101048788310556380000016633051483336604292_);" points="1111.8,158 1111.8,158 
		1111.8,158 	"/>
	
		<linearGradient id="SVGID_00000145051115391036228150000017546017325431063694_" gradientUnits="userSpaceOnUse" x1="931.5793" y1="121.1666" x2="931.5804" y2="121.1656">
		<stop  offset="1.704893e-07" style="stop-color:#BCFF5C"/>
		<stop  offset="1" style="stop-color:#002E1C"/>
	</linearGradient>
	<polygon style="fill:url(#SVGID_00000145051115391036228150000017546017325431063694_);" points="931.6,121.2 931.6,121.2 
		931.6,121.2 	"/>
	
		<linearGradient id="SVGID_00000144310406013788919750000001409605147823257243_" gradientUnits="userSpaceOnUse" x1="943.1641" y1="146.4473" x2="956.8526" y2="132.7588">
		<stop  offset="1.704893e-07" style="stop-color:#BCFF5C"/>
		<stop  offset="1" style="stop-color:#002E1C"/>
	</linearGradient>
	<path style="fill:url(#SVGID_00000144310406013788919750000001409605147823257243_);" d="M931.6,121.2c1.3,7.7,4.3,18,11.6,25.3
		c7.3,7.3,17.6,10.3,25.3,11.6c-1.3-7.7-4.3-18-11.6-25.3C949.6,125.5,939.3,122.5,931.6,121.2z"/>
	
		<linearGradient id="SVGID_00000018224503607778990110000012683045730091911092_" gradientUnits="userSpaceOnUse" x1="915.4017" y1="80.7229" x2="929.0907" y2="67.0339">
		<stop  offset="1.704893e-07" style="stop-color:#BCFF5C"/>
		<stop  offset="1" style="stop-color:#002E1C"/>
	</linearGradient>
	<path style="fill:url(#SVGID_00000018224503607778990110000012683045730091911092_);" d="M940.7,92.3c-1.3-7.7-4.3-18-11.6-25.3
		c-7.3-7.3-17.6-10.3-25.3-11.6c1.3,7.7,4.3,18,11.6,25.3C922.7,88,933,91,940.7,92.3z"/>
	
		<linearGradient id="SVGID_00000164480491863515559030000007169388303265465999_" gradientUnits="userSpaceOnUse" x1="940.6747" y1="92.3159" x2="940.6752" y2="92.3154">
		<stop  offset="1.704893e-07" style="stop-color:#BCFF5C"/>
		<stop  offset="1" style="stop-color:#002E1C"/>
	</linearGradient>
	<polygon style="fill:url(#SVGID_00000164480491863515559030000007169388303265465999_);" points="940.7,92.3 940.7,92.3 
		940.7,92.3 	"/>
	
		<linearGradient id="SVGID_00000045612211320533621550000000692936423678518164_" gradientUnits="userSpaceOnUse" x1="865.25" y1="61.8692" x2="878.94" y2="48.1792">
		<stop  offset="1.704893e-07" style="stop-color:#BCFF5C"/>
		<stop  offset="1" style="stop-color:#002E1C"/>
	</linearGradient>
	<path style="fill:url(#SVGID_00000045612211320533621550000000692936423678518164_);" d="M878.9,48.2L878.9,48.2
		c-7.2-7.3-17.6-10.3-25.3-11.6c1.3,7.7,4.3,18,11.6,25.3c7.3,7.3,17.6,10.3,25.3,11.6C889.2,65.8,886.2,55.4,878.9,48.2z"/>
	
		<linearGradient id="SVGID_00000158012069063376181230000017108352796453065909_" gradientUnits="userSpaceOnUse" x1="903.4382" y1="13.4374" x2="903.4387" y2="13.4369">
		<stop  offset="1.704893e-07" style="stop-color:#BCFF5C"/>
		<stop  offset="1" style="stop-color:#002E1C"/>
	</linearGradient>
	<polygon style="fill:url(#SVGID_00000158012069063376181230000017108352796453065909_);" points="903.4,13.4 903.4,13.4 
		903.4,13.4 	"/>
	
		<linearGradient id="SVGID_00000101090559244745180330000015192045993995174044_" gradientUnits="userSpaceOnUse" x1="878.1652" y1="1.8444" x2="891.8547" y2="-11.8451">
		<stop  offset="1.704893e-07" style="stop-color:#BCFF5C"/>
		<stop  offset="1" style="stop-color:#002E1C"/>
	</linearGradient>
	<path style="fill:url(#SVGID_00000101090559244745180330000015192045993995174044_);" d="M903.4,13.4c-1.3-7.7-4.3-18-11.6-25.3
		c-7.3-7.3-17.6-10.3-25.3-11.6c1.3,7.7,4.3,18,11.6,25.3C885.4,9.1,895.8,12.2,903.4,13.4z"/>
	
		<linearGradient id="SVGID_00000139985060406267368800000012133577535492458135_" gradientUnits="userSpaceOnUse" x1="929.8499" y1="-42.8558" x2="943.5389" y2="-56.5449">
		<stop  offset="1.704893e-07" style="stop-color:#BCFF5C"/>
		<stop  offset="1" style="stop-color:#002E1C"/>
	</linearGradient>
	<path style="fill:url(#SVGID_00000139985060406267368800000012133577535492458135_);" d="M955.1-31.3c-1.3-7.7-4.3-18-11.6-25.3
		c-7.3-7.3-17.6-10.3-25.3-11.6c1.3,7.7,4.3,18,11.6,25.3C937.1-35.6,947.4-32.5,955.1-31.3z"/>
	
		<linearGradient id="SVGID_00000011721283932294501200000003686640048940290438_" gradientUnits="userSpaceOnUse" x1="955.1232" y1="-31.2626" x2="955.1237" y2="-31.2631">
		<stop  offset="1.704893e-07" style="stop-color:#BCFF5C"/>
		<stop  offset="1" style="stop-color:#002E1C"/>
	</linearGradient>
	<polygon style="fill:url(#SVGID_00000011721283932294501200000003686640048940290438_);" points="955.1,-31.3 955.1,-31.3 
		955.1,-31.3 	"/>
	
		<linearGradient id="SVGID_00000180345344379009312850000014445249511200228770_" gradientUnits="userSpaceOnUse" x1="956.0792" y1="-93.6605" x2="969.7688" y2="-107.35">
		<stop  offset="1.704893e-07" style="stop-color:#BCFF5C"/>
		<stop  offset="1" style="stop-color:#002E1C"/>
	</linearGradient>
	<path style="fill:url(#SVGID_00000180345344379009312850000014445249511200228770_);" d="M981.4-82.1L981.4-82.1
		c-1.3-7.7-4.3-18-11.6-25.3c-7.3-7.3-17.6-10.3-25.3-11.6c1.3,7.7,4.3,18,11.6,25.3C963.3-86.4,973.7-83.4,981.4-82.1z"/>
	
		<linearGradient id="SVGID_00000108988077012150448090000004617070812027082415_" gradientUnits="userSpaceOnUse" x1="896.8815" y1="146.4477" x2="910.5725" y2="132.7567">
		<stop  offset="1.704893e-07" style="stop-color:#BCFF5C"/>
		<stop  offset="1" style="stop-color:#002E1C"/>
	</linearGradient>
	<path style="fill:url(#SVGID_00000108988077012150448090000004617070812027082415_);" d="M885.3,121.2L885.3,121.2
		c1.3,7.7,4.3,18,11.6,25.3c7.3,7.3,17.6,10.3,25.3,11.6c-1.3-7.7-4.3-18-11.6-25.3C903.3,125.5,893,122.5,885.3,121.2z"/>
</g>
</svg>
