<?xml version="1.0" encoding="utf-8"?>
<!-- Generator: Adobe Illustrator 27.0.0, SVG Export Plug-In . SVG Version: 6.00 Build 0)  -->
<svg version="1.1" id="Layer_1" xmlns="http://www.w3.org/2000/svg" xmlns:xlink="http://www.w3.org/1999/xlink" x="0px" y="0px"
	 viewBox="0 0 200 76.8" style="enable-background:new 0 0 200 76.8;" xml:space="preserve">
<style type="text/css">
	.st0{clip-path:url(#SVGID_00000018231133346244425810000006798277166548859807_);}
	.st1{fill:#373435;}
	.st2{opacity:0.25;clip-path:url(#SVGID_00000018231133346244425810000006798277166548859807_);fill:#FBED21;}
	.st3{opacity:0.25;clip-path:url(#SVGID_00000018231133346244425810000006798277166548859807_);fill:#FBD900;}
	.st4{opacity:0.25;clip-path:url(#SVGID_00000018231133346244425810000006798277166548859807_);fill:#FFCA05;}
	.st5{opacity:0.25;clip-path:url(#SVGID_00000018231133346244425810000006798277166548859807_);fill:#F9A11B;}
	.st6{opacity:0.25;clip-path:url(#SVGID_00000018231133346244425810000006798277166548859807_);fill:#F37820;}
	.st7{opacity:0.25;clip-path:url(#SVGID_00000018231133346244425810000006798277166548859807_);fill:#F05822;}
	.st8{opacity:0.25;clip-path:url(#SVGID_00000018231133346244425810000006798277166548859807_);fill:#EE3D23;}
	.st9{opacity:0.25;clip-path:url(#SVGID_00000018231133346244425810000006798277166548859807_);fill:#ED2C24;}
	.st10{opacity:0.25;clip-path:url(#SVGID_00000018231133346244425810000006798277166548859807_);fill:#D61F26;}
	.st11{opacity:0.25;clip-path:url(#SVGID_00000018231133346244425810000006798277166548859807_);fill:#D01F33;}
	.st12{opacity:0.25;clip-path:url(#SVGID_00000018231133346244425810000006798277166548859807_);fill:#971A44;}
	.st13{opacity:0.25;clip-path:url(#SVGID_00000018231133346244425810000006798277166548859807_);fill:#A01D52;}
	.st14{opacity:0.25;clip-path:url(#SVGID_00000018231133346244425810000006798277166548859807_);fill:#AA2067;}
	.st15{opacity:0.25;clip-path:url(#SVGID_00000018231133346244425810000006798277166548859807_);fill:#842066;}
	.st16{opacity:0.25;clip-path:url(#SVGID_00000018231133346244425810000006798277166548859807_);fill:#72297E;}
	.st17{opacity:0.25;clip-path:url(#SVGID_00000018231133346244425810000006798277166548859807_);fill:#52357C;}
	.st18{opacity:0.25;clip-path:url(#SVGID_00000018231133346244425810000006798277166548859807_);fill:#2D367E;}
	.st19{opacity:0.25;clip-path:url(#SVGID_00000018231133346244425810000006798277166548859807_);fill:#234788;}
	.st20{opacity:0.25;clip-path:url(#SVGID_00000018231133346244425810000006798277166548859807_);fill:#3754A4;}
	.st21{opacity:0.25;clip-path:url(#SVGID_00000018231133346244425810000006798277166548859807_);fill:#395DAA;}
	.st22{opacity:0.25;clip-path:url(#SVGID_00000018231133346244425810000006798277166548859807_);fill:#327EC0;}
	.st23{opacity:0.25;clip-path:url(#SVGID_00000018231133346244425810000006798277166548859807_);fill:#2BAAE0;}
	.st24{opacity:0.25;clip-path:url(#SVGID_00000018231133346244425810000006798277166548859807_);fill:#0FC0E8;}
	.st25{opacity:0.25;clip-path:url(#SVGID_00000018231133346244425810000006798277166548859807_);fill:#39C0CE;}
	.st26{opacity:0.25;clip-path:url(#SVGID_00000018231133346244425810000006798277166548859807_);fill:#50C1BF;}
	.st27{opacity:0.25;clip-path:url(#SVGID_00000018231133346244425810000006798277166548859807_);fill:#3BBEB9;}
	.st28{opacity:0.25;clip-path:url(#SVGID_00000018231133346244425810000006798277166548859807_);fill:#07AF96;}
	.st29{opacity:0.25;clip-path:url(#SVGID_00000018231133346244425810000006798277166548859807_);fill:#00AE77;}
	.st30{opacity:0.25;clip-path:url(#SVGID_00000018231133346244425810000006798277166548859807_);fill:#13B15B;}
	.st31{opacity:0.25;clip-path:url(#SVGID_00000018231133346244425810000006798277166548859807_);fill:#149F49;}
	.st32{opacity:0.25;clip-path:url(#SVGID_00000018231133346244425810000006798277166548859807_);fill:#40B449;}
	.st33{opacity:0.25;clip-path:url(#SVGID_00000018231133346244425810000006798277166548859807_);fill:#83C341;}
	.st34{opacity:0.25;clip-path:url(#SVGID_00000018231133346244425810000006798277166548859807_);fill:#A8CE38;}
	.st35{opacity:0.25;clip-path:url(#SVGID_00000018231133346244425810000006798277166548859807_);fill:#C9DA2A;}
	.st36{opacity:0.25;clip-path:url(#SVGID_00000018231133346244425810000006798277166548859807_);fill:#EBE724;}
	.st37{opacity:0.25;clip-path:url(#SVGID_00000018231133346244425810000006798277166548859807_);fill:#F4EA1C;}
	.st38{fill:#211E1F;}
</style>
<g>
	<g>
		<defs>
			<rect id="SVGID_1_" x="50.4" y="4.8" width="80.8" height="68.4"/>
		</defs>
		<clipPath id="SVGID_00000119082370720966069580000002104248567947003286_">
			<use xlink:href="#SVGID_1_"  style="overflow:visible;"/>
		</clipPath>
		<g style="clip-path:url(#SVGID_00000119082370720966069580000002104248567947003286_);">
			<path class="st1" d="M133.9,64.6c-0.1-0.2-0.4-0.3-0.6-0.3c-0.3,0-0.6,0.1-0.6,0.5c0,0.2,0.2,0.3,0.5,0.4
				c0.6,0.2,0.9,0.4,0.9,0.9c0,0.7-0.7,0.9-1.3,0.9c-0.5,0-1-0.1-1.2-0.5l0.5-0.3c0.1,0.2,0.4,0.3,0.7,0.3c0.3,0,0.7-0.1,0.7-0.5
				c0-0.3-0.3-0.4-0.6-0.5c-0.4-0.1-0.8-0.3-0.8-0.8c0-0.6,0.6-0.9,1.3-0.9c0.3,0,0.8,0.1,1,0.4L133.9,64.6z"/>
			<path class="st1" d="M137.1,67h-0.6l-0.2-1.4h0l-0.9,1.4h-0.6l-0.3-2h0.6l0.2,1.4h0l0.8-1.4h0.6l0.2,1.4h0l0.9-1.4h0.6L137.1,67z
				"/>
			<path class="st1" d="M138.9,66.1C138.9,66.1,138.9,66.1,138.9,66.1c0,0.3,0.3,0.5,0.6,0.5c0.3,0,0.5-0.1,0.7-0.3l0.3,0.3
				c-0.3,0.3-0.6,0.4-1.1,0.4c-0.6,0-1.1-0.3-1.1-0.9c0-0.7,0.6-1.2,1.4-1.2c0.6,0,1,0.3,1,0.8c0,0.1,0,0.3-0.1,0.4H138.9z
				 M140.2,65.7c0-0.2-0.2-0.4-0.5-0.4c-0.4,0-0.7,0.3-0.7,0.5h1.2C140.2,65.7,140.2,65.7,140.2,65.7z"/>
			<path class="st1" d="M141.7,66.1C141.7,66.1,141.7,66.1,141.7,66.1c0,0.3,0.3,0.5,0.6,0.5c0.3,0,0.5-0.1,0.7-0.3l0.3,0.3
				c-0.3,0.3-0.6,0.4-1.1,0.4c-0.6,0-1.1-0.3-1.1-0.9c0-0.7,0.6-1.2,1.4-1.2c0.6,0,1,0.3,1,0.8c0,0.1,0,0.3-0.1,0.4H141.7z
				 M143,65.7c0-0.2-0.2-0.4-0.5-0.4c-0.4,0-0.7,0.3-0.7,0.5h1.2C143,65.7,143,65.7,143,65.7z"/>
			<path class="st1" d="M143.8,65.4l0.1-0.4h0.4l0.1-0.6h0.6l-0.1,0.6h0.5l-0.1,0.4h-0.5l-0.2,0.9c0,0,0,0.1,0,0.1
				c0,0.1,0.1,0.2,0.3,0.2c0.1,0,0.2,0,0.2,0l0,0.4c-0.1,0-0.2,0.1-0.4,0.1c-0.5,0-0.7-0.2-0.7-0.5c0-0.1,0-0.2,0-0.3l0.2-0.9H143.8
				z"/>
			<path class="st1" d="M150.2,64.6c-0.1-0.2-0.4-0.3-0.6-0.3c-0.3,0-0.6,0.1-0.6,0.5c0,0.2,0.2,0.3,0.5,0.4
				c0.6,0.2,0.9,0.4,0.9,0.9c0,0.7-0.7,0.9-1.3,0.9c-0.5,0-1-0.1-1.2-0.5l0.5-0.3c0.1,0.2,0.4,0.3,0.7,0.3c0.3,0,0.7-0.1,0.7-0.5
				c0-0.3-0.3-0.4-0.6-0.5c-0.4-0.1-0.8-0.3-0.8-0.8c0-0.6,0.6-0.9,1.3-0.9c0.3,0,0.8,0.1,1,0.4L150.2,64.6z"/>
		</g>
		<g style="clip-path:url(#SVGID_00000119082370720966069580000002104248567947003286_);">
			<path class="st1" d="M150.8,65.4l0.1-0.4h0.4l0.1-0.6h0.6l-0.1,0.6h0.5l-0.1,0.4h-0.5l-0.2,0.9c0,0,0,0.1,0,0.1
				c0,0.1,0.1,0.2,0.3,0.2c0.1,0,0.2,0,0.2,0l0,0.4c-0.1,0-0.2,0.1-0.4,0.1c-0.5,0-0.7-0.2-0.7-0.5c0-0.1,0-0.2,0-0.3l0.2-0.9H150.8
				z"/>
			<path class="st1" d="M153,66.1C153,66.1,153,66.1,153,66.1c0,0.3,0.3,0.5,0.6,0.5c0.3,0,0.5-0.1,0.7-0.3l0.3,0.3
				c-0.3,0.3-0.6,0.4-1.1,0.4c-0.6,0-1.1-0.3-1.1-0.9c0-0.7,0.6-1.2,1.4-1.2c0.6,0,1,0.3,1,0.8c0,0.1,0,0.3-0.1,0.4H153z
				 M154.3,65.7c0-0.2-0.2-0.4-0.5-0.4c-0.4,0-0.7,0.3-0.7,0.5h1.2C154.3,65.7,154.3,65.7,154.3,65.7z"/>
			<path class="st1" d="M156.3,67h-0.6l-0.5-2h0.6l0.3,1.5h0l1-1.5h0.6L156.3,67z"/>
			<path class="st1" d="M157.7,67l0.4-2h0.6l-0.4,2H157.7z M158.5,64.6c-0.2,0-0.3-0.1-0.3-0.3c0-0.2,0.2-0.3,0.4-0.3
				c0.2,0,0.3,0.1,0.3,0.3C158.9,64.4,158.7,64.6,158.5,64.6z"/>
			<path class="st1" d="M160.6,65.6c0-0.2-0.2-0.3-0.4-0.3c-0.2,0-0.5,0.1-0.7,0.2l-0.2-0.3c0.3-0.2,0.6-0.3,1-0.3
				c0.5,0,0.9,0.1,0.9,0.6c0,0,0,0.1,0,0.2l-0.2,0.8c0,0.2-0.1,0.3-0.1,0.4h-0.5c0-0.1,0-0.2,0-0.2h0c-0.2,0.2-0.4,0.3-0.8,0.3
				s-0.7-0.1-0.7-0.5c0-0.7,0.9-0.8,1.7-0.8C160.6,65.6,160.6,65.6,160.6,65.6z M160.5,66c-0.4,0-1,0-1,0.3c0,0.2,0.2,0.2,0.4,0.2
				c0.4,0,0.6-0.2,0.7-0.5L160.5,66L160.5,66z"/>
		</g>
		<path style="opacity:0.25;clip-path:url(#SVGID_00000119082370720966069580000002104248567947003286_);fill:#FBED21;" d="
			M125.4,35.9c-60.1,2.1-61.3,3.2,3.8-3.4c-65.1,6.7-62.2,6.9-9.1-0.7c-53.1,7.7-53.8,8.7,2.2-3.3c-56,11.9-53.1,11.8-9.3,0.5
			c-43.8,11.3-44.2,12,1.1-2.3c-45.2,14.4-42.3,13.8-9.1,1.8c-33.3,12-33.4,12.3,0.3-1.1c-33.7,13.4-31.1,12.4-8,2.9
			c-23.1,9.5-23.2,9.5,0.4,0.2c-23.7,9.2-21.5,8.1-6.7,3.6c-14.9,4.4-15.2,4,0.9,1.4c-16.1,2.5-14.4,1.4-5.1,3.6
			c-9.3-2.1-11.2-3.1,5.9,3c-17.1-6.1-16.9-6.5-0.6,1.2c-16.3-7.7-18.7-8.6,7.4,2.8c-26.1-11.3-26-11.3-0.4-0.1
			c-25.6-11.3-28.3-11.9,8.6,1.9c-36.9-13.8-36.7-13.3-0.6-1.3c-36.1-12-39.1-12.2,9.3,0.6c-48.4-12.8-47.9-12-1.6-2.5
			c-46.3-9.5-49.2-9.3,9.2-0.7c-58.5-8.6-57.5-7.6-3-3.2c-54.5-4.4-57.3-3.8,8.8-1.9C63.8,37,65.3,38,125.4,35.9"/>
		<path style="opacity:0.25;clip-path:url(#SVGID_00000119082370720966069580000002104248567947003286_);fill:#FBED21;" d="
			M125.4,35.9c-60.1,2.1-61.3,3.2,3.8-3.4c-65.1,6.7-62.2,6.9-9.1-0.7c-53.1,7.7-53.8,8.7,2.2-3.3c-56,11.9-53.1,11.8-9.3,0.5
			c-43.8,11.3-44.2,12,1.1-2.3c-45.2,14.4-42.3,13.8-9.1,1.8c-33.3,12-33.4,12.3,0.3-1.1c-33.7,13.4-31.1,12.4-8,2.9
			c-23.1,9.5-23.2,9.5,0.4,0.2c-23.7,9.2-21.5,8.1-6.7,3.6c-14.9,4.4-15.2,4,0.9,1.4c-16.1,2.5-14.4,1.4-5.1,3.6
			c-9.3-2.1-11.2-3.1,5.9,3c-17.1-6.1-16.9-6.5-0.6,1.2c-16.3-7.7-18.7-8.6,7.4,2.8c-26.1-11.3-26-11.3-0.4-0.1
			c-25.6-11.3-28.3-11.9,8.6,1.9c-36.9-13.8-36.7-13.3-0.6-1.3c-36.1-12-39.1-12.2,9.3,0.6c-48.4-12.8-47.9-12-1.6-2.5
			c-46.3-9.5-49.2-9.3,9.2-0.7c-58.5-8.6-57.5-7.6-3-3.2c-54.5-4.4-57.3-3.8,8.8-1.9C63.8,37,65.3,38,125.4,35.9"/>
		<path style="opacity:0.25;clip-path:url(#SVGID_00000119082370720966069580000002104248567947003286_);fill:#FBD900;" d="
			M124.2,30.7c-58.6,8.9-59.5,10.2,3-3.8c-62.5,14-59.6,13.8-9.1,0.5c-50.5,13.3-51,14.4,1.5-3.4c-52.6,17.8-49.7,17.3-9,1.7
			C70,41.3,69.8,42,111.2,23.4c-41.4,18.6-38.7,17.7-8.5,3c-30.1,14.7-30.2,15,0.1-1c-30.3,16-27.9,14.7-7.3,3.9
			C74.8,40.1,74.7,40,95.9,29.6c-21.2,10.4-19.4,9-5.8,4.4c-13.6,4.6-13.9,4.1,1.2,1.4c-15.1,2.7-13.7,1.4-4.3,4.1
			c-9.4-2.7-11.5-3.4,6.4,2.2c-17.9-5.6-17.8-6-0.3,1.2c-17.5-7.1-20-7.7,7.9,1.8c-27.8-9.5-27.7-9.5-0.4-0.1
			c-27.3-9.3-30.1-9.6,8.8,0.7c-39-10.3-38.7-9.8-0.9-1.4c-37.8-8.5-40.8-8.3,9.3-0.7c-50.1-7.6-49.5-6.9-2.1-2.3
			c-47.4-4.6-50.2-4,8.9-1.9c-59.2-2.1-58-1.2-3.6-2.8c-54.4,1.6-57.1,2.6,8.2-3C64,38.9,65.6,39.7,124.2,30.7"/>
		<path style="opacity:0.25;clip-path:url(#SVGID_00000119082370720966069580000002104248567947003286_);fill:#FBD900;" d="
			M124.2,30.7c-58.6,8.9-59.5,10.2,3-3.8c-62.5,14-59.6,13.8-9.1,0.5c-50.5,13.3-51,14.4,1.5-3.4c-52.6,17.8-49.7,17.3-9,1.7
			C70,41.3,69.8,42,111.2,23.4c-41.4,18.6-38.7,17.7-8.5,3c-30.1,14.7-30.2,15,0.1-1c-30.3,16-27.9,14.7-7.3,3.9
			C74.8,40.1,74.7,40,95.9,29.6c-21.2,10.4-19.4,9-5.8,4.4c-13.6,4.6-13.9,4.1,1.2,1.4c-15.1,2.7-13.7,1.4-4.3,4.1
			c-9.4-2.7-11.5-3.4,6.4,2.2c-17.9-5.6-17.8-6-0.3,1.2c-17.5-7.1-20-7.7,7.9,1.8c-27.8-9.5-27.7-9.5-0.4-0.1
			c-27.3-9.3-30.1-9.6,8.8,0.7c-39-10.3-38.7-9.8-0.9-1.4c-37.8-8.5-40.8-8.3,9.3-0.7c-50.1-7.6-49.5-6.9-2.1-2.3
			c-47.4-4.6-50.2-4,8.9-1.9c-59.2-2.1-58-1.2-3.6-2.8c-54.4,1.6-57.1,2.6,8.2-3C64,38.9,65.6,39.7,124.2,30.7"/>
		<path style="opacity:0.25;clip-path:url(#SVGID_00000119082370720966069580000002104248567947003286_);fill:#FFCA05;" d="
			M122,25.8c-55.7,15.4-56.4,16.7,2.1-4.1c-58.5,20.8-55.7,20.3-8.8,1.7C68.5,42,68.2,43.1,116.1,20c-47.9,23.1-45.2,22.2-8.5,2.9
			c-36.7,19.3-36.7,20,0.1-2.3c-36.8,22.3-34.3,21-7.8,4.1c-26.5,16.9-26.5,17.2-0.1-0.9c-26.3,18-24.3,16.5-6.4,4.8
			C75.5,40.3,75.3,40.2,93.9,29c-18.6,11.2-17.1,9.6-4.8,5.1c-12.3,4.5-12.7,4.1,1.4,1.3c-14.1,2.7-13.1,1.3-3.4,4.6
			c-9.7-3.3-11.8-3.7,6.8,1.3c-18.6-5.1-18.6-5.4-0.1,1.1c-18.5-6.5-21.1-6.7,8.1,0.7c-29.2-7.4-29.1-7.4-0.4-0.2
			c-28.7-7.2-31.5-7,8.8-0.5c-40.3-6.5-40-6.1-1.1-1.3c-38.8-4.8-41.7-4.2,9-1.9c-50.8-2.3-49.9-1.6-2.5-2.1
			c-47.4,0.4-50.1,1.4,8.4-3.1c-58.5,4.5-57.2,5.3-4.1-2.3c-53.1,7.6-55.5,8.9,7.5-4.1C64.6,40.7,66.3,41.2,122,25.8"/>
		<path style="opacity:0.25;clip-path:url(#SVGID_00000119082370720966069580000002104248567947003286_);fill:#FFCA05;" d="
			M122,25.8c-55.7,15.4-56.4,16.7,2.1-4.1c-58.5,20.8-55.7,20.3-8.8,1.7C68.5,42,68.2,43.1,116.1,20c-47.9,23.1-45.2,22.2-8.5,2.9
			c-36.7,19.3-36.7,20,0.1-2.3c-36.8,22.3-34.3,21-7.8,4.1c-26.5,16.9-26.5,17.2-0.1-0.9c-26.3,18-24.3,16.5-6.4,4.8
			C75.5,40.3,75.3,40.2,93.9,29c-18.6,11.2-17.1,9.6-4.8,5.1c-12.3,4.5-12.7,4.1,1.4,1.3c-14.1,2.7-13.1,1.3-3.4,4.6
			c-9.7-3.3-11.8-3.7,6.8,1.3c-18.6-5.1-18.6-5.4-0.1,1.1c-18.5-6.5-21.1-6.7,8.1,0.7c-29.2-7.4-29.1-7.4-0.4-0.2
			c-28.7-7.2-31.5-7,8.8-0.5c-40.3-6.5-40-6.1-1.1-1.3c-38.8-4.8-41.7-4.2,9-1.9c-50.8-2.3-49.9-1.6-2.5-2.1
			c-47.4,0.4-50.1,1.4,8.4-3.1c-58.5,4.5-57.2,5.3-4.1-2.3c-53.1,7.6-55.5,8.9,7.5-4.1C64.6,40.7,66.3,41.2,122,25.8"/>
		<path style="opacity:0.25;clip-path:url(#SVGID_00000119082370720966069580000002104248567947003286_);fill:#F9A11B;" d="
			M118.9,21.3C67.4,42.7,67,44,120.1,17.1c-53.2,26.9-50.5,26-8.3,2.8c-42.2,23.2-42.2,24.3,0.1-3.4c-42.3,27.7-39.8,26.4-7.8,4
			c-32,22.4-31.9,23.1-0.4-2.1c-31.5,25.2-29.3,23.6-6.8,5C74.4,42,74.5,42.2,96.6,22.8c-22.1,19.5-20.4,17.7-5.3,5.6
			c-15.1,12.1-15.3,12,0.5,0.4c-15.8,11.6-14.7,9.8-3.7,5.6c-11,4.2-11.5,3.8,1.7,1.2c-13.2,2.6-12.4,1.1-2.4,4.9
			c-10-3.8-12.2-4,6.9,0.4c-19.2-4.4-19.2-4.7,0.2,0.9c-19.4-5.6-22-5.5,8.1-0.4c-30.1-5.2-30-5.1-0.4-0.2
			c-29.5-4.9-32.3-4.3,8.6-1.7c-40.9-2.7-40.4-2.3-1.4-1.3c-39.1-1-41.8,0,8.5-3.1c-50.3,3-49.3,3.6-2.9-1.8
			c-46.4,5.4-48.9,6.7,7.6-4.2c-56.5,10.9-55.1,11.5-4.5-1.8c-50.6,13.3-52.6,14.9,6.5-5C65.5,42.3,67.4,42.7,118.9,21.3"/>
		<path style="opacity:0.25;clip-path:url(#SVGID_00000119082370720966069580000002104248567947003286_);fill:#F9A11B;" d="
			M118.9,21.3C67.4,42.7,67,44,120.1,17.1c-53.2,26.9-50.5,26-8.3,2.8c-42.2,23.2-42.2,24.3,0.1-3.4c-42.3,27.7-39.8,26.4-7.8,4
			c-32,22.4-31.9,23.1-0.4-2.1c-31.5,25.2-29.3,23.6-6.8,5C74.4,42,74.5,42.2,96.6,22.8c-22.1,19.5-20.4,17.7-5.3,5.6
			c-15.1,12.1-15.3,12,0.5,0.4c-15.8,11.6-14.7,9.8-3.7,5.6c-11,4.2-11.5,3.8,1.7,1.2c-13.2,2.6-12.4,1.1-2.4,4.9
			c-10-3.8-12.2-4,6.9,0.4c-19.2-4.4-19.2-4.7,0.2,0.9c-19.4-5.6-22-5.5,8.1-0.4c-30.1-5.2-30-5.1-0.4-0.2
			c-29.5-4.9-32.3-4.3,8.6-1.7c-40.9-2.7-40.4-2.3-1.4-1.3c-39.1-1-41.8,0,8.5-3.1c-50.3,3-49.3,3.6-2.9-1.8
			c-46.4,5.4-48.9,6.7,7.6-4.2c-56.5,10.9-55.1,11.5-4.5-1.8c-50.6,13.3-52.6,14.9,6.5-5C65.5,42.3,67.4,42.7,118.9,21.3"/>
		<path style="opacity:0.25;clip-path:url(#SVGID_00000119082370720966069580000002104248567947003286_);fill:#F37820;" d="
			M114.8,17.3c-46.2,26.6-46.3,28,0.4-4.2C68.5,45.3,71,44,107.6,17c-36.6,27-36.4,28.1-0.6-3.2c-35.8,31.3-33.6,29.7-6.8,5
			c-26.8,24.8-26.5,25.4-0.9-1.9c-25.6,27.3-23.8,25.4-5.7,5.8c-18.2,19.6-18,19.7-0.5-0.5c-17.6,20.3-16.3,18.3-4,6.1
			c-12.2,12.2-12.4,12,0.6,0.4c-13,11.6-12.2,9.7-2.5,5.9c-9.8,3.8-10.4,3.4,1.9,1.1c-12.3,2.4-11.8,0.7-1.3,5.1
			c-10.5-4.3-12.7-4.2,6.9-0.5C75.1,36.6,75,36.4,95,41.1c-20.1-4.7-22.6-4.3,7.9-1.4c-30.5-2.8-30.4-2.7-0.5-0.3
			c-29.9-2.4-32.5-1.6,8.1-2.8c-40.6,1.2-40.1,1.6-1.6-1.2c-38.5,2.7-41,4.1,7.7-4.2c-48.7,8.2-47.7,8.7-3.2-1.5
			c-44.5,10.1-46.6,11.8,6.7-5.1c-53.2,16.9-51.7,17.3-4.8-1.3c-46.9,18.5-48.6,20.4,5.4-5.8C66.8,43.8,68.6,43.9,114.8,17.3"/>
		<path style="opacity:0.25;clip-path:url(#SVGID_00000119082370720966069580000002104248567947003286_);fill:#F37820;" d="
			M114.8,17.3c-46.2,26.6-46.3,28,0.4-4.2C68.5,45.3,71,44,107.6,17c-36.6,27-36.4,28.1-0.6-3.2c-35.8,31.3-33.6,29.7-6.8,5
			c-26.8,24.8-26.5,25.4-0.9-1.9c-25.6,27.3-23.8,25.4-5.7,5.8c-18.2,19.6-18,19.7-0.5-0.5c-17.6,20.3-16.3,18.3-4,6.1
			c-12.2,12.2-12.4,12,0.6,0.4c-13,11.6-12.2,9.7-2.5,5.9c-9.8,3.8-10.4,3.4,1.9,1.1c-12.3,2.4-11.8,0.7-1.3,5.1
			c-10.5-4.3-12.7-4.2,6.9-0.5C75.1,36.6,75,36.4,95,41.1c-20.1-4.7-22.6-4.3,7.9-1.4c-30.5-2.8-30.4-2.7-0.5-0.3
			c-29.9-2.4-32.5-1.6,8.1-2.8c-40.6,1.2-40.1,1.6-1.6-1.2c-38.5,2.7-41,4.1,7.7-4.2c-48.7,8.2-47.7,8.7-3.2-1.5
			c-44.5,10.1-46.6,11.8,6.7-5.1c-53.2,16.9-51.7,17.3-4.8-1.3c-46.9,18.5-48.6,20.4,5.4-5.8C66.8,43.8,68.6,43.9,114.8,17.3"/>
		<path style="opacity:0.25;clip-path:url(#SVGID_00000119082370720966069580000002104248567947003286_);fill:#F05822;" d="M110,14
			c-39.9,31-39.7,32.3-0.5-4.1c-39.2,36.4-37,34.8-6.7,4.8c-30.3,30-29.9,30.9-1.3-3c-28.6,33.9-26.8,32.1-5.7,5.8
			c-21.1,26.3-20.7,26.8-1.2-1.6c-19.5,28.5-18.1,26.4-4.4,6.5c-13.7,19.9-13.5,20-0.6-0.3C76.7,42.4,77.6,40.4,87,28.6
			c-9.4,11.8-9.6,11.6,0.7,0.4c-10.3,11.2-9.9,9.3-1.2,6.1c-8.7,3.2-9.4,2.9,2.1,0.9c-11.4,2-11.3,0.4-0.3,5.1
			c-11.1-4.7-13.2-4.3,6.7-1.4c-19.9-2.9-20-3.1,0.5,0.6c-20.6-3.7-23-2.9,7.5-2.5c-30.4-0.4-30.3-0.3-0.5-0.3
			c-29.8,0-32.2,1.2,7.4-3.8c-39.6,5-39,5.3-1.8-1c-37.2,6.4-39.4,8,6.7-5.1c-46.1,13.1-45,13.4-3.5-1.1C69.8,41,68,42.9,116.8,20.6
			c-48.8,22.3-47.2,22.5-5-0.6c-42.2,23.1-43.5,25.2,4.1-6.3C68.3,45.1,70.2,45,110,14"/>
		<path style="opacity:0.25;clip-path:url(#SVGID_00000119082370720966069580000002104248567947003286_);fill:#F05822;" d="M110,14
			c-39.9,31-39.7,32.3-0.5-4.1c-39.2,36.4-37,34.8-6.7,4.8c-30.3,30-29.9,30.9-1.3-3c-28.6,33.9-26.8,32.1-5.7,5.8
			c-21.1,26.3-20.7,26.8-1.2-1.6c-19.5,28.5-18.1,26.4-4.4,6.5c-13.7,19.9-13.5,20-0.6-0.3C76.7,42.4,77.6,40.4,87,28.6
			c-9.4,11.8-9.6,11.6,0.7,0.4c-10.3,11.2-9.9,9.3-1.2,6.1c-8.7,3.2-9.4,2.9,2.1,0.9c-11.4,2-11.3,0.4-0.3,5.1
			c-11.1-4.7-13.2-4.3,6.7-1.4c-19.9-2.9-20-3.1,0.5,0.6c-20.6-3.7-23-2.9,7.5-2.5c-30.4-0.4-30.3-0.3-0.5-0.3
			c-29.8,0-32.2,1.2,7.4-3.8c-39.6,5-39,5.3-1.8-1c-37.2,6.4-39.4,8,6.7-5.1c-46.1,13.1-45,13.4-3.5-1.1C69.8,41,68,42.9,116.8,20.6
			c-48.8,22.3-47.2,22.5-5-0.6c-42.2,23.1-43.5,25.2,4.1-6.3C68.3,45.1,70.2,45,110,14"/>
		<path style="opacity:0.25;clip-path:url(#SVGID_00000119082370720966069580000002104248567947003286_);fill:#EE3D23;" d="
			M104.6,11.5c-32.7,34.4-32.3,35.6-1.4-3.8c-30.9,39.4-29.1,37.6-5.6,5.6c-23.6,32-22.9,32.8-1.9-2.6C74.7,46.1,76.1,44,91.4,17
			c-15.2,27-14.7,27.4-1.6-1.3c-13.2,28.7-12.2,26.5-3,6.9c-9.2,19.7-9,19.7-0.6-0.1c-8.4,19.8-8,17.7-1.3,6.7
			c-6.7,11-6.9,10.8,0.7,0.4C78,40,78,38.1,85.7,35.7c-7.8,2.4-8.5,2.2,2.2,0.7c-10.7,1.5-10.9-0.1,0.8,4.9C77,36.3,75,37,95,39.1
			c-20-2.1-20.2-2.2,0.7,0.4c-20.9-2.6-23-1.5,6.9-3.4c-29.9,1.9-29.7,2-0.5-0.4c-29.2,2.4-31.3,3.9,6.5-4.7
			c-37.8,8.6-37.1,8.9-2-0.9c-35.2,9.7-37,11.6,5.6-5.9c-42.5,17.5-41.4,17.7-3.6-0.7C70.7,42,69.4,44,112.6,17.1
			c-43.3,27-41.7,27-5,0c-36.7,27-37.5,29.1,2.7-6.7C70.1,46.2,71.9,45.8,104.6,11.5"/>
		<path style="opacity:0.25;clip-path:url(#SVGID_00000119082370720966069580000002104248567947003286_);fill:#EE3D23;" d="
			M104.6,11.5c-32.7,34.4-32.3,35.6-1.4-3.8c-30.9,39.4-29.1,37.6-5.6,5.6c-23.6,32-22.9,32.8-1.9-2.6C74.7,46.1,76.1,44,91.4,17
			c-15.2,27-14.7,27.4-1.6-1.3c-13.2,28.7-12.2,26.5-3,6.9c-9.2,19.7-9,19.7-0.6-0.1c-8.4,19.8-8,17.7-1.3,6.7
			c-6.7,11-6.9,10.8,0.7,0.4C78,40,78,38.1,85.7,35.7c-7.8,2.4-8.5,2.2,2.2,0.7c-10.7,1.5-10.9-0.1,0.8,4.9C77,36.3,75,37,95,39.1
			c-20-2.1-20.2-2.2,0.7,0.4c-20.9-2.6-23-1.5,6.9-3.4c-29.9,1.9-29.7,2-0.5-0.4c-29.2,2.4-31.3,3.9,6.5-4.7
			c-37.8,8.6-37.1,8.9-2-0.9c-35.2,9.7-37,11.6,5.6-5.9c-42.5,17.5-41.4,17.7-3.6-0.7C70.7,42,69.4,44,112.6,17.1
			c-43.3,27-41.7,27-5,0c-36.7,27-37.5,29.1,2.7-6.7C70.1,46.2,71.9,45.8,104.6,11.5"/>
		<path style="opacity:0.25;clip-path:url(#SVGID_00000119082370720966069580000002104248567947003286_);fill:#ED2C24;" d="
			M98.8,9.7c-25,36.7-24.3,37.8-2.1-3.5c-22.2,41.2-20.8,39.2-4.3,6.3c-16.5,33-15.7,33.7-2.4-2.2c-13.2,35.9-12.3,33.7-3,6.8
			C77.6,44,78.2,44.3,85,16.2c-6.9,28.1-6.4,25.8-1.5,7.1C78.7,42,78.9,42,82.9,23.4c-4,18.6-4,16.5,0.1,6.7
			c-4.1,9.8-4.4,9.6,0.8,0.5c-5.2,9.2-5.6,7.3,1.3,5.8c-7,1.5-7.7,1.4,2.3,0.5c-10,0.9-10.6-0.6,1.8,4.6c-12.4-5.2-14.2-4.2,5.7-3
			c-19.9-1.3-20.2-1.3,0.7,0.2c-20.9-1.5-22.8-0.1,6-4.2c-28.9,4.1-28.7,4.2-0.6-0.4c-28.1,4.6-29.8,6.4,5.4-5.5
			c-35.2,11.9-34.6,12.1-2.1-0.7c-32.5,12.8-33.8,14.8,4.3-6.5c-38.1,21.4-36.9,21.4-3.7-0.2c-33.2,21.7-34.1,23.9,2.8-6.9
			c-36.9,30.8-35.3,30.6-4.9,0.6c-30.4,30-30.8,32.2,1.3-6.9C72.1,47,73.8,46.4,98.8,9.7"/>
		<path style="opacity:0.25;clip-path:url(#SVGID_00000119082370720966069580000002104248567947003286_);fill:#ED2C24;" d="
			M98.8,9.7c-25,36.7-24.3,37.8-2.1-3.5c-22.2,41.2-20.8,39.2-4.3,6.3c-16.5,33-15.7,33.7-2.4-2.2c-13.2,35.9-12.3,33.7-3,6.8
			C77.6,44,78.2,44.3,85,16.2c-6.9,28.1-6.4,25.8-1.5,7.1C78.7,42,78.9,42,82.9,23.4c-4,18.6-4,16.5,0.1,6.7
			c-4.1,9.8-4.4,9.6,0.8,0.5c-5.2,9.2-5.6,7.3,1.3,5.8c-7,1.5-7.7,1.4,2.3,0.5c-10,0.9-10.6-0.6,1.8,4.6c-12.4-5.2-14.2-4.2,5.7-3
			c-19.9-1.3-20.2-1.3,0.7,0.2c-20.9-1.5-22.8-0.1,6-4.2c-28.9,4.1-28.7,4.2-0.6-0.4c-28.1,4.6-29.8,6.4,5.4-5.5
			c-35.2,11.9-34.6,12.1-2.1-0.7c-32.5,12.8-33.8,14.8,4.3-6.5c-38.1,21.4-36.9,21.4-3.7-0.2c-33.2,21.7-34.1,23.9,2.8-6.9
			c-36.9,30.8-35.3,30.6-4.9,0.6c-30.4,30-30.8,32.2,1.3-6.9C72.1,47,73.8,46.4,98.8,9.7"/>
		<path style="opacity:0.25;clip-path:url(#SVGID_00000119082370720966069580000002104248567947003286_);fill:#D61F26;" d="
			M92.7,8.9c-16.9,37.8-16,38.7-2.8-3c-13.2,41.7-12.3,39.6-3,6.7C77.6,45.5,78.5,46,84,10.9c-5.5,35.1-5,32.9-1.5,7
			c-3.5,25.8-2.8,26-2-0.5c-0.8,26.5-0.8,24.3,0,7.1c-0.8,17.2-0.6,17.1-0.7,0.3c0,16.8-0.4,14.7,1.5,6.4c-1.9,8.3-2.2,8.1,0.9,0.4
			c-3.1,7.7-3.9,5.9,2.5,5.4c-6.4,0.5-7.2,0.4,2.4,0.3c-9.5,0.2-10.4-1.2,2.7,4.1c-13.1-5.3-14.7-4.1,5-3.6
			c-19.7-0.5-20-0.5,0.8-0.1c-20.7-0.4-22.4,1.2,5.1-4.9c-27.4,6.1-27.2,6.3-0.7-0.4c-26.5,6.7-27.9,8.6,4.2-6.1
			c-32.1,14.7-31.4,14.9-2.2-0.5c-29.2,15.3-30.1,17.6,2.9-6.9c-33,24.5-31.8,24.4-3.7,0.2c-28.1,24.2-28.5,26.5,1.3-7.1
			c-29.9,33.6-28.4,33.2-4.7,1.2c-23.6,32-23.6,34.2-0.1-6.9C74.2,47.4,75.7,46.7,92.7,8.9"/>
		<path style="opacity:0.25;clip-path:url(#SVGID_00000119082370720966069580000002104248567947003286_);fill:#D61F26;" d="
			M92.7,8.9c-16.9,37.8-16,38.7-2.8-3c-13.2,41.7-12.3,39.6-3,6.7C77.6,45.5,78.5,46,84,10.9c-5.5,35.1-5,32.9-1.5,7
			c-3.5,25.8-2.8,26-2-0.5c-0.8,26.5-0.8,24.3,0,7.1c-0.8,17.2-0.6,17.1-0.7,0.3c0,16.8-0.4,14.7,1.5,6.4c-1.9,8.3-2.2,8.1,0.9,0.4
			c-3.1,7.7-3.9,5.9,2.5,5.4c-6.4,0.5-7.2,0.4,2.4,0.3c-9.5,0.2-10.4-1.2,2.7,4.1c-13.1-5.3-14.7-4.1,5-3.6
			c-19.7-0.5-20-0.5,0.8-0.1c-20.7-0.4-22.4,1.2,5.1-4.9c-27.4,6.1-27.2,6.3-0.7-0.4c-26.5,6.7-27.9,8.6,4.2-6.1
			c-32.1,14.7-31.4,14.9-2.2-0.5c-29.2,15.3-30.1,17.6,2.9-6.9c-33,24.5-31.8,24.4-3.7,0.2c-28.1,24.2-28.5,26.5,1.3-7.1
			c-29.9,33.6-28.4,33.2-4.7,1.2c-23.6,32-23.6,34.2-0.1-6.9C74.2,47.4,75.7,46.7,92.7,8.9"/>
		<path style="opacity:0.25;clip-path:url(#SVGID_00000119082370720966069580000002104248567947003286_);fill:#D01F33;" d="
			M86.5,8.9c-8.7,37.7-7.7,38.5-3.4-2.4c-4.3,40.9-3.8,38.7-1.5,6.9c-2.2,31.8-1.2,32.1-3.2-1.1c2,33.2,2,31-0.1,7
			c2,23.9,2.7,24-2.1-0.1c4.8,24.1,4.3,21.9,1.5,6.9c2.9,15,3.1,14.9-0.6,0.5c3.7,14.3,2.8,12.4,2.8,6c0,6.4-0.3,6.3,0.9,0.4
			c-1.3,5.9-2.4,4.3,3.6,4.9c-6-0.5-6.8-0.6,2.4,0c-9.1-0.6-10.3-1.7,3.5,3.6c-13.8-5.3-15.1-3.9,4.2-4.2
			c-19.3,0.3-19.6,0.4,0.8-0.3c-20.3,0.7-21.6,2.4,4-5.5c-25.6,7.9-25.3,8-0.7-0.4c-24.6,8.5-25.5,10.6,2.9-6.5
			c-28.4,17-27.7,17.1-2.3-0.3c-25.4,17.4-25.9,19.7,1.4-7.1C73.2,44,74.4,43.8,96.9,17.8c-22.5,26-22.5,28.2-0.2-7
			c-22.3,35.3-20.9,34.7-4.4,1.7c-16.5,33-16,35.1-1.6-6.6C76.3,47.6,77.7,46.6,86.5,8.9"/>
		<path style="opacity:0.25;clip-path:url(#SVGID_00000119082370720966069580000002104248567947003286_);fill:#D01F33;" d="
			M86.5,8.9c-8.7,37.7-7.7,38.5-3.4-2.4c-4.3,40.9-3.8,38.7-1.5,6.9c-2.2,31.8-1.2,32.1-3.2-1.1c2,33.2,2,31-0.1,7
			c2,23.9,2.7,24-2.1-0.1c4.8,24.1,4.3,21.9,1.5,6.9c2.9,15,3.1,14.9-0.6,0.5c3.7,14.3,2.8,12.4,2.8,6c0,6.4-0.3,6.3,0.9,0.4
			c-1.3,5.9-2.4,4.3,3.6,4.9c-6-0.5-6.8-0.6,2.4,0c-9.1-0.6-10.3-1.7,3.5,3.6c-13.8-5.3-15.1-3.9,4.2-4.2
			c-19.3,0.3-19.6,0.4,0.8-0.3c-20.3,0.7-21.6,2.4,4-5.5c-25.6,7.9-25.3,8-0.7-0.4c-24.6,8.5-25.5,10.6,2.9-6.5
			c-28.4,17-27.7,17.1-2.3-0.3c-25.4,17.4-25.9,19.7,1.4-7.1C73.2,44,74.4,43.8,96.9,17.8c-22.5,26-22.5,28.2-0.2-7
			c-22.3,35.3-20.9,34.7-4.4,1.7c-16.5,33-16,35.1-1.6-6.6C76.3,47.6,77.7,46.6,86.5,8.9"/>
		<path style="opacity:0.25;clip-path:url(#SVGID_00000119082370720966069580000002104248567947003286_);fill:#971A44;" d="
			M80.4,9.9c-0.7,36.4,0.5,37-3.8-1.7c4.4,38.7,4.4,36.5-0.1,6.9c4.5,29.6,5.6,29.8-3.4-0.5c8.9,30.3,8.5,28.1,1.4,6.8
			c7.1,21.3,7.8,21.2-2.1,0.3c9.9,20.9,8.9,18.8,2.9,6.4c6.1,12.4,6.2,12.1-0.5,0.7c6.7,11.4,5.5,9.7,4,5.4c1.5,4.3,1.1,4.2,1,0.4
			c0.1,3.8-1.3,2.5,4.6,4.1c-5.9-1.7-6.6-1.6,2.3-0.2c-9-1.4-10.3-2.3,4.2,2.9c-14.5-5.2-15.6-3.7,3.2-4.6c-18.8,1-19,1.1,0.7-0.5
			c-19.7,1.6-20.6,3.5,2.8-5.9c-23.4,9.4-23.1,9.5-0.8-0.5c-22.3,10-22.8,12.1,1.5-6.7C73.9,42.1,74.7,42.1,96,23.2
			c-21.3,18.9-21.3,21.1-0.1-7.1c-21.2,28.2-20.1,27.9-3.4,1C75.8,44,76.3,46.2,90.9,10.3c-14.6,35.9-13.3,35.2-4,2.3
			c-9.3,32.9-8.4,34.9-2.9-6.2C78.5,47.4,79.7,46.3,80.4,9.9"/>
		<path style="opacity:0.25;clip-path:url(#SVGID_00000119082370720966069580000002104248567947003286_);fill:#971A44;" d="
			M80.4,9.9c-0.7,36.4,0.5,37-3.8-1.7c4.4,38.7,4.4,36.5-0.1,6.9c4.5,29.6,5.6,29.8-3.4-0.5c8.9,30.3,8.5,28.1,1.4,6.8
			c7.1,21.3,7.8,21.2-2.1,0.3c9.9,20.9,8.9,18.8,2.9,6.4c6.1,12.4,6.2,12.1-0.5,0.7c6.7,11.4,5.5,9.7,4,5.4c1.5,4.3,1.1,4.2,1,0.4
			c0.1,3.8-1.3,2.5,4.6,4.1c-5.9-1.7-6.6-1.6,2.3-0.2c-9-1.4-10.3-2.3,4.2,2.9c-14.5-5.2-15.6-3.7,3.2-4.6c-18.8,1-19,1.1,0.7-0.5
			c-19.7,1.6-20.6,3.5,2.8-5.9c-23.4,9.4-23.1,9.5-0.8-0.5c-22.3,10-22.8,12.1,1.5-6.7C73.9,42.1,74.7,42.1,96,23.2
			c-21.3,18.9-21.3,21.1-0.1-7.1c-21.2,28.2-20.1,27.9-3.4,1C75.8,44,76.3,46.2,90.9,10.3c-14.6,35.9-13.3,35.2-4,2.3
			c-9.3,32.9-8.4,34.9-2.9-6.2C78.5,47.4,79.7,46.3,80.4,9.9"/>
		<path style="opacity:0.25;clip-path:url(#SVGID_00000119082370720966069580000002104248567947003286_);fill:#A01D52;" d="
			M74.6,11.8c6.9,34,8.3,34.3-4.2-1c12.4,35.3,12,33.2,1.3,6.7c10.7,26.5,11.8,26.5-3.4,0.1c15.2,26.4,14.3,24.3,2.8,6.4
			c11.5,17.9,12.2,17.7-2,0.7c14.2,16.9,12.8,15.1,4.1,5.8c8.7,9.3,8.8,9-0.3,0.9c9.2,8.1,7.5,6.6,5,4.6c2.5,2,2.2,1.9,1.1,0.4
			c1.1,1.6-0.6,0.5,5.4,3.3c-6-2.8-6.7-2.6,2.2-0.4c-8.9-2.2-10.4-2.9,4.8,2.1c-15.2-5-15.9-3.4,2.2-4.9c-18.1,1.5-18.3,1.8,0.6-0.7
			c-18.9,2.5-19.4,4.5,1.5-6.1C74.8,40.1,75,40.2,94.8,29.1C75,40.2,75,42.3,94.9,22.4C75,42.3,75.7,42.3,92.7,22.6
			c-17,19.7-16.4,21.9-1.6-6.8C76.2,44.5,77.2,44,88,17.1c-10.8,27-9.8,29-3-6.3c-6.8,35.3-5.7,34.5-3.4,2.7
			c-2.3,31.8-1,33.5-4.2-5.5C80.6,47,81.5,45.7,74.6,11.8"/>
		<path style="opacity:0.25;clip-path:url(#SVGID_00000119082370720966069580000002104248567947003286_);fill:#A01D52;" d="
			M74.6,11.8c6.9,34,8.3,34.3-4.2-1c12.4,35.3,12,33.2,1.3,6.7c10.7,26.5,11.8,26.5-3.4,0.1c15.2,26.4,14.3,24.3,2.8,6.4
			c11.5,17.9,12.2,17.7-2,0.7c14.2,16.9,12.8,15.1,4.1,5.8c8.7,9.3,8.8,9-0.3,0.9c9.2,8.1,7.5,6.6,5,4.6c2.5,2,2.2,1.9,1.1,0.4
			c1.1,1.6-0.6,0.5,5.4,3.3c-6-2.8-6.7-2.6,2.2-0.4c-8.9-2.2-10.4-2.9,4.8,2.1c-15.2-5-15.9-3.4,2.2-4.9c-18.1,1.5-18.3,1.8,0.6-0.7
			c-18.9,2.5-19.4,4.5,1.5-6.1C74.8,40.1,75,40.2,94.8,29.1C75,40.2,75,42.3,94.9,22.4C75,42.3,75.7,42.3,92.7,22.6
			c-17,19.7-16.4,21.9-1.6-6.8C76.2,44.5,77.2,44,88,17.1c-10.8,27-9.8,29-3-6.3c-6.8,35.3-5.7,34.5-3.4,2.7
			c-2.3,31.8-1,33.5-4.2-5.5C80.6,47,81.5,45.7,74.6,11.8"/>
		<path style="opacity:0.25;clip-path:url(#SVGID_00000119082370720966069580000002104248567947003286_);fill:#AA2067;" d="
			M69.2,14.4c14,30.4,15.4,30.5-4.3-0.3C84.6,45,83.7,43,67.6,20.4c16.1,22.5,17.2,22.3-3.4,0.7c20.6,21.6,19.3,19.7,4.1,5.8
			c15.2,14,15.8,13.6-1.8,1.1c17.6,12.5,15.9,10.9,5.3,5c10.6,5.9,10.7,5.5-0.2,1c10.9,4.5,9,3.3,5.9,3.7c3-0.3,2.7-0.4,1.1,0.3
			c1.6-0.8-0.3-1.5,6,2.3c-6.3-3.8-7-3.6,2.1-0.6c-9.1-3-10.7-3.4,5.1,1.2C76,36.4,75.6,38,93,36c-17.4,2-17.5,2.3,0.4-0.9
			c-18,3.3-18,5.2,0.2-6.1c-18.3,11.3-18,11.4-0.9-0.4c-17,11.9-16.6,13.9-1.3-6.5c-15.3,20.4-14.6,20.3-2.2,0.4
			c-12.5,19.9-11.5,22-3-6.4c-8.6,28.4-7.7,27.8-2.8,1.7c-4.9,26.1-3.5,28-4.2-5.7c0.7,33.6,1.6,32.7-2.8,3
			c4.4,29.6,6.1,31.1-5.2-4.7C82.6,46.2,83.2,44.9,69.2,14.4"/>
		<path style="opacity:0.25;clip-path:url(#SVGID_00000119082370720966069580000002104248567947003286_);fill:#AA2067;" d="
			M69.2,14.4c14,30.4,15.4,30.5-4.3-0.3C84.6,45,83.7,43,67.6,20.4c16.1,22.5,17.2,22.3-3.4,0.7c20.6,21.6,19.3,19.7,4.1,5.8
			c15.2,14,15.8,13.6-1.8,1.1c17.6,12.5,15.9,10.9,5.3,5c10.6,5.9,10.7,5.5-0.2,1c10.9,4.5,9,3.3,5.9,3.7c3-0.3,2.7-0.4,1.1,0.3
			c1.6-0.8-0.3-1.5,6,2.3c-6.3-3.8-7-3.6,2.1-0.6c-9.1-3-10.7-3.4,5.1,1.2C76,36.4,75.6,38,93,36c-17.4,2-17.5,2.3,0.4-0.9
			c-18,3.3-18,5.2,0.2-6.1c-18.3,11.3-18,11.4-0.9-0.4c-17,11.9-16.6,13.9-1.3-6.5c-15.3,20.4-14.6,20.3-2.2,0.4
			c-12.5,19.9-11.5,22-3-6.4c-8.6,28.4-7.7,27.8-2.8,1.7c-4.9,26.1-3.5,28-4.2-5.7c0.7,33.6,1.6,32.7-2.8,3
			c4.4,29.6,6.1,31.1-5.2-4.7C82.6,46.2,83.2,44.9,69.2,14.4"/>
		<path style="opacity:0.25;clip-path:url(#SVGID_00000119082370720966069580000002104248567947003286_);fill:#842066;" d="
			M64.5,17.9c20.2,25.9,21.6,25.8-4.3,0.5c25.9,25.3,24.6,23.5,4,5.7c20.7,17.8,21.7,17.4-3.2,1.3c24.9,16.1,23.2,14.5,5.2,5
			c18,9.5,18.5,9-1.6,1.5c20.1,7.5,18.1,6.2,6.2,4c11.8,2.2,11.8,1.9,0,1.2c11.8,0.7,9.7-0.2,6.6,2.6c3.1-2.8,2.7-2.9,1.2,0.3
			c1.6-3.1-0.5-3.6,6.4,1.3c-6.8-4.8-7.4-4.6,1.9-0.8c-9.4-3.8-11.1-3.9,5.3,0.3c-16.4-4.2-16.4-2.6,0.1-5
			c-16.5,2.4-16.6,2.8,0.3-1.1c-16.8,3.9-16.5,5.7-1-5.9c-15.5,11.6-15.2,11.8-1-0.4C76.4,40.5,77.2,42.4,88,22.2
			c-10.7,20.2-10.1,20-2,0.6c-8,19.5-6.7,21.3-4.2-5.7c-2.4,27-1.7,26.4-2.4,1.9c0.7,24.5,2.4,26-5.4-4.8c7.8,30.9,8.5,29.8-2.2,3.3
			c10.6,26.5,12.6,27.7-6.1-3.8C84.4,45.1,84.7,43.8,64.5,17.9"/>
		<path style="opacity:0.25;clip-path:url(#SVGID_00000119082370720966069580000002104248567947003286_);fill:#842066;" d="
			M64.5,17.9c20.2,25.9,21.6,25.8-4.3,0.5c25.9,25.3,24.6,23.5,4,5.7c20.7,17.8,21.7,17.4-3.2,1.3c24.9,16.1,23.2,14.5,5.2,5
			c18,9.5,18.5,9-1.6,1.5c20.1,7.5,18.1,6.2,6.2,4c11.8,2.2,11.8,1.9,0,1.2c11.8,0.7,9.7-0.2,6.6,2.6c3.1-2.8,2.7-2.9,1.2,0.3
			c1.6-3.1-0.5-3.6,6.4,1.3c-6.8-4.8-7.4-4.6,1.9-0.8c-9.4-3.8-11.1-3.9,5.3,0.3c-16.4-4.2-16.4-2.6,0.1-5
			c-16.5,2.4-16.6,2.8,0.3-1.1c-16.8,3.9-16.5,5.7-1-5.9c-15.5,11.6-15.2,11.8-1-0.4C76.4,40.5,77.2,42.4,88,22.2
			c-10.7,20.2-10.1,20-2,0.6c-8,19.5-6.7,21.3-4.2-5.7c-2.4,27-1.7,26.4-2.4,1.9c0.7,24.5,2.4,26-5.4-4.8c7.8,30.9,8.5,29.8-2.2,3.3
			c10.6,26.5,12.6,27.7-6.1-3.8C84.4,45.1,84.7,43.8,64.5,17.9"/>
		<path style="opacity:0.25;clip-path:url(#SVGID_00000119082370720966069580000002104248567947003286_);fill:#72297E;" d="
			M60.6,21.9c25.4,20.6,26.7,20.2-4.2,1.2c30.9,19,29.2,17.4,5.1,4.9c24.2,12.5,25.1,11.9-2.9,1.9c28,10,26,8.7,6.2,4
			c19.8,4.7,20.2,4.1-1.3,1.8c21.5,2.3,19.3,1.4,7,2.9c12.3-1.5,12.2-1.9,0.3,1.3c11.9-3.2,9.7-3.7,7,1.5c2.6-5.2,2.3-5.3,1.2,0.2
			c1.1-5.5-1-5.6,6.5,0.2c-7.5-5.8-8.1-5.5,1.7-1c-9.8-4.5-11.5-4.3,5.3-0.6c-16.8-3.8-16.5-2.2-0.9-4.9c-15.6,2.6-15.6,3,0-1.2
			c-15.6,4.3-14.9,6-2.2-5.5c-12.7,11.6-12.3,11.7-1.1-0.4c-11.3,12.1-10.1,13.8-3.8-5.5c-6.2,19.3-5.6,19.1-1.9,0.7
			c-3.8,18.3-2,19.9-5.4-4.9c3.3,24.8,4,24.1-1.9,2.1c5.9,22,7.9,23.2-6.3-3.9c14.2,27.1,14.6,26-1.4,3.4
			c16.1,22.6,18.3,23.4-6.8-2.7C85.9,43.8,86,42.5,60.6,21.9"/>
		<path style="opacity:0.25;clip-path:url(#SVGID_00000119082370720966069580000002104248567947003286_);fill:#72297E;" d="
			M60.6,21.9c25.4,20.6,26.7,20.2-4.2,1.2c30.9,19,29.2,17.4,5.1,4.9c24.2,12.5,25.1,11.9-2.9,1.9c28,10,26,8.7,6.2,4
			c19.8,4.7,20.2,4.1-1.3,1.8c21.5,2.3,19.3,1.4,7,2.9c12.3-1.5,12.2-1.9,0.3,1.3c11.9-3.2,9.7-3.7,7,1.5c2.6-5.2,2.3-5.3,1.2,0.2
			c1.1-5.5-1-5.6,6.5,0.2c-7.5-5.8-8.1-5.5,1.7-1c-9.8-4.5-11.5-4.3,5.3-0.6c-16.8-3.8-16.5-2.2-0.9-4.9c-15.6,2.6-15.6,3,0-1.2
			c-15.6,4.3-14.9,6-2.2-5.5c-12.7,11.6-12.3,11.7-1.1-0.4c-11.3,12.1-10.1,13.8-3.8-5.5c-6.2,19.3-5.6,19.1-1.9,0.7
			c-3.8,18.3-2,19.9-5.4-4.9c3.3,24.8,4,24.1-1.9,2.1c5.9,22,7.9,23.2-6.3-3.9c14.2,27.1,14.6,26-1.4,3.4
			c16.1,22.6,18.3,23.4-6.8-2.7C85.9,43.8,86,42.5,60.6,21.9"/>
		<path style="opacity:0.25;clip-path:url(#SVGID_00000119082370720966069580000002104248567947003286_);fill:#52357C;" d="
			M57.6,26.5C87,41,88.2,40.4,53.7,28.4c34.5,12,32.5,10.7,6,3.9c26.5,6.8,27.3,6-2.4,2.4c29.8,3.6,27.6,2.7,6.9,2.9
			c20.7-0.2,20.9-0.9-0.9,2.1c21.8-3,19.4-3.6,7.5,1.7c12-5.3,11.8-5.7,0.5,1.3c11.3-7.1,9-7.2,7.3,0.3c1.7-7.5,1.3-7.5,1.2,0.2
			c0.1-7.7-2-7.4,6.5-0.9c-8.4-6.6-8.9-6.2,1.5-1.1c-10.4-5.1-12.1-4.7,5.1-1.4c-17.2-3.2-16.6-1.8-1.9-4.5
			c-14.6,2.7-14.6,3.2-0.2-1.3c-14.4,4.5-13.3,6.1-3.4-5c-9.9,11.1-9.6,11.2-1.1-0.3c-8.5,11.6-6.9,13.1-4.9-4.7
			c-2,17.8-1.5,17.5-1.7,0.9c0.2,16.6,2.3,17.9-6.3-3.9c8.6,21.8,9,21.1-1.5,2.3c10.5,18.8,12.7,19.7-7-2.8
			c19.7,22.4,19.9,21.3-0.7,3.5c20.6,17.9,23,18.4-7.3-1.5C87.2,42.3,87,41,57.6,26.5"/>
		<path style="opacity:0.25;clip-path:url(#SVGID_00000119082370720966069580000002104248567947003286_);fill:#52357C;" d="
			M57.6,26.5C87,41,88.2,40.4,53.7,28.4c34.5,12,32.5,10.7,6,3.9c26.5,6.8,27.3,6-2.4,2.4c29.8,3.6,27.6,2.7,6.9,2.9
			c20.7-0.2,20.9-0.9-0.9,2.1c21.8-3,19.4-3.6,7.5,1.7c12-5.3,11.8-5.7,0.5,1.3c11.3-7.1,9-7.2,7.3,0.3c1.7-7.5,1.3-7.5,1.2,0.2
			c0.1-7.7-2-7.4,6.5-0.9c-8.4-6.6-8.9-6.2,1.5-1.1c-10.4-5.1-12.1-4.7,5.1-1.4c-17.2-3.2-16.6-1.8-1.9-4.5
			c-14.6,2.7-14.6,3.2-0.2-1.3c-14.4,4.5-13.3,6.1-3.4-5c-9.9,11.1-9.6,11.2-1.1-0.3c-8.5,11.6-6.9,13.1-4.9-4.7
			c-2,17.8-1.5,17.5-1.7,0.9c0.2,16.6,2.3,17.9-6.3-3.9c8.6,21.8,9,21.1-1.5,2.3c10.5,18.8,12.7,19.7-7-2.8
			c19.7,22.4,19.9,21.3-0.7,3.5c20.6,17.9,23,18.4-7.3-1.5C87.2,42.3,87,41,57.6,26.5"/>
		<path style="opacity:0.25;clip-path:url(#SVGID_00000119082370720966069580000002104248567947003286_);fill:#2D367E;" d="
			M55.5,31.4c32.1,8,33.2,7.2-3.4,2.6c36.6,4.6,34.4,3.7,6.7,2.9c27.7,0.8,28.3-0.1-1.9,2.9c30.2-3,27.9-3.5,7.4,1.8
			c20.5-5.3,20.6-6-0.4,2.3c21.1-8.3,18.6-8.5,7.7,0.5c10.8-9,10.6-9.4,0.8,1.4c9.8-10.8,7.5-10.5,7.2-0.9c0.3-9.6-0.1-9.7,1.2,0.1
			c-1.3-9.8-3.3-9.1,6.2-1.9c-9.5-7.2-9.9-6.9,1.2-1.2c-11.1-5.7-12.7-5,4.8-2.3c-17.4-2.7-16.5-1.4-2.8-4.1
			c-13.7,2.7-13.5,3.1-0.5-1.4c-13,4.6-11.7,5.9-4.3-4.3c-7.3,10.3-7,10.3-1.1-0.3c-5.8,10.6-3.9,11.8-5.8-3.8
			c1.9,15.6,2.3,15.3-1.5,1c3.8,14.3,6.1,15.2-7-2.8c13.1,18.1,13.4,17.3-1,2.3c14.4,15,16.7,15.5-7.5-1.6c24.2,17.1,24.2,16,0,3.4
			c24.2,12.6,26.6,12.7-7.5-0.3C88.1,40.7,87.6,39.4,55.5,31.4"/>
		<path style="opacity:0.25;clip-path:url(#SVGID_00000119082370720966069580000002104248567947003286_);fill:#2D367E;" d="
			M55.5,31.4c32.1,8,33.2,7.2-3.4,2.6c36.6,4.6,34.4,3.7,6.7,2.9c27.7,0.8,28.3-0.1-1.9,2.9c30.2-3,27.9-3.5,7.4,1.8
			c20.5-5.3,20.6-6-0.4,2.3c21.1-8.3,18.6-8.5,7.7,0.5c10.8-9,10.6-9.4,0.8,1.4c9.8-10.8,7.5-10.5,7.2-0.9c0.3-9.6-0.1-9.7,1.2,0.1
			c-1.3-9.8-3.3-9.1,6.2-1.9c-9.5-7.2-9.9-6.9,1.2-1.2c-11.1-5.7-12.7-5,4.8-2.3c-17.4-2.7-16.5-1.4-2.8-4.1
			c-13.7,2.7-13.5,3.1-0.5-1.4c-13,4.6-11.7,5.9-4.3-4.3c-7.3,10.3-7,10.3-1.1-0.3c-5.8,10.6-3.9,11.8-5.8-3.8
			c1.9,15.6,2.3,15.3-1.5,1c3.8,14.3,6.1,15.2-7-2.8c13.1,18.1,13.4,17.3-1,2.3c14.4,15,16.7,15.5-7.5-1.6c24.2,17.1,24.2,16,0,3.4
			c24.2,12.6,26.6,12.7-7.5-0.3C88.1,40.7,87.6,39.4,55.5,31.4"/>
		<path style="opacity:0.25;clip-path:url(#SVGID_00000119082370720966069580000002104248567947003286_);fill:#234788;" d="
			M54.5,36.6c33.4,1.2,34.3,0.2-2.8,3.2c37.1-3,34.8-3.5,7.2,1.7c27.6-5.3,28-6.3-1.3,3.2c29.3-9.5,26.9-9.7,7.7,0.5
			c19.2-10.2,19.2-11,0,2.5C84.5,34.2,82,34.5,73,46.9c9-12.4,8.7-12.9,1,1.3c7.6-14.2,5.4-13.6,6.9-2c-1.5-11.5-1.9-11.5,1.2,0
			c-3.1-11.6-4.9-10.6,5.7-2.9c-10.7-7.7-11-7.3,1-1.2c-12-6.1-13.3-5.1,4.2-3.1c-17.5-2.1-16.4-1-3.6-3.5c-12.7,2.5-12.5,3-0.7-1.4
			c-11.7,4.4-10.1,5.5-5.2-3.5c-4.9,9-4.5,9.1-1.2-0.2c-3.4,9.3-1.3,10.2-6.5-2.8c5.2,13,5.6,12.6-1.2,1.1
			c6.9,11.6,9.3,12.1-7.5-1.6c16.8,13.7,16.9,13-0.5,2.3C84,40.1,86.5,40.2,59,29.1c27.5,11.1,27.3,10.1,0.7,3.2
			c26.5,6.8,28.9,6.6-7.5,0.9C88.7,38.9,87.9,37.8,54.5,36.6"/>
		<path style="opacity:0.25;clip-path:url(#SVGID_00000119082370720966069580000002104248567947003286_);fill:#234788;" d="
			M54.5,36.6c33.4,1.2,34.3,0.2-2.8,3.2c37.1-3,34.8-3.5,7.2,1.7c27.6-5.3,28-6.3-1.3,3.2c29.3-9.5,26.9-9.7,7.7,0.5
			c19.2-10.2,19.2-11,0,2.5C84.5,34.2,82,34.5,73,46.9c9-12.4,8.7-12.9,1,1.3c7.6-14.2,5.4-13.6,6.9-2c-1.5-11.5-1.9-11.5,1.2,0
			c-3.1-11.6-4.9-10.6,5.7-2.9c-10.7-7.7-11-7.3,1-1.2c-12-6.1-13.3-5.1,4.2-3.1c-17.5-2.1-16.4-1-3.6-3.5c-12.7,2.5-12.5,3-0.7-1.4
			c-11.7,4.4-10.1,5.5-5.2-3.5c-4.9,9-4.5,9.1-1.2-0.2c-3.4,9.3-1.3,10.2-6.5-2.8c5.2,13,5.6,12.6-1.2,1.1
			c6.9,11.6,9.3,12.1-7.5-1.6c16.8,13.7,16.9,13-0.5,2.3C84,40.1,86.5,40.2,59,29.1c27.5,11.1,27.3,10.1,0.7,3.2
			c26.5,6.8,28.9,6.6-7.5,0.9C88.7,38.9,87.9,37.8,54.5,36.6"/>
		<path style="opacity:0.25;clip-path:url(#SVGID_00000119082370720966069580000002104248567947003286_);fill:#3754A4;" d="
			M54.6,41.8c33.3-5.7,34-6.9-2.2,3.7c36.1-10.6,33.8-10.7,7.5,0.5c26.3-11.2,26.5-12.4-0.6,3.5c27.1-15.8,24.7-15.6,7.7-0.7
			c17-14.9,16.8-15.7,0.5,2.6c16.3-18.2,13.9-17.6,7.5-2c6.5-15.6,6.1-16,1.3,1.3c4.8-17.3,2.7-16.3,6.4-3.1
			c-3.7-13.1-4.1-13.1,1.2,0c-5.2-13.1-6.9-11.9,5.1-3.8c-11.9-8-12.2-7.6,0.7-1.2c-12.9-6.4-14-5.2,3.5-3.8
			C75.6,37.2,77,38,88.8,35.8c-11.8,2.2-11.5,2.6-1-1.4c-10.5,4.1-8.6,4.9-5.8-2.6c-2.8,7.5-2.4,7.5-1.2-0.2c-1.2,7.7,1,8.2-7-1.7
			c8,9.9,8.3,9.5-1,1.1c9.3,8.4,11.8,8.5-7.7-0.4c19.5,8.9,19.5,8.2,0,2.2c19.5,5.9,21.9,5.6-7.6,0.9c29.5,4.7,29.1,3.8,1.4,2.9
			c27.7,0.8,30,0.2-7.2,2.1C88.8,37,87.9,36.1,54.6,41.8"/>
		<path style="opacity:0.25;clip-path:url(#SVGID_00000119082370720966069580000002104248567947003286_);fill:#3754A4;" d="
			M54.6,41.8c33.3-5.7,34-6.9-2.2,3.7c36.1-10.6,33.8-10.7,7.5,0.5c26.3-11.2,26.5-12.4-0.6,3.5c27.1-15.8,24.7-15.6,7.7-0.7
			c17-14.9,16.8-15.7,0.5,2.6c16.3-18.2,13.9-17.6,7.5-2c6.5-15.6,6.1-16,1.3,1.3c4.8-17.3,2.7-16.3,6.4-3.1
			c-3.7-13.1-4.1-13.1,1.2,0c-5.2-13.1-6.9-11.9,5.1-3.8c-11.9-8-12.2-7.6,0.7-1.2c-12.9-6.4-14-5.2,3.5-3.8
			C75.6,37.2,77,38,88.8,35.8c-11.8,2.2-11.5,2.6-1-1.4c-10.5,4.1-8.6,4.9-5.8-2.6c-2.8,7.5-2.4,7.5-1.2-0.2c-1.2,7.7,1,8.2-7-1.7
			c8,9.9,8.3,9.5-1,1.1c9.3,8.4,11.8,8.5-7.7-0.4c19.5,8.9,19.5,8.2,0,2.2c19.5,5.9,21.9,5.6-7.6,0.9c29.5,4.7,29.1,3.8,1.4,2.9
			c27.7,0.8,30,0.2-7.2,2.1C88.8,37,87.9,36.1,54.6,41.8"/>
		<path style="opacity:0.25;clip-path:url(#SVGID_00000119082370720966069580000002104248567947003286_);fill:#395DAA;" d="M55.8,47
			c31.8-12.5,32.2-13.8-1.4,4c33.6-17.9,31.2-17.6,7.5-0.7c23.7-16.9,23.7-18.1,0.1,3.6c23.6-21.7,21.3-21.1,7.4-2
			c13.9-19.1,13.5-19.9,1,2.6c12.5-22.5,10.3-21.5,6.9-3.2c3.3-18.3,2.9-18.7,1.5,1.2c1.4-19.9-0.5-18.5,5.7-4.2
			C78.3,34,78,34,85.6,48.3c-7.7-14.3-9-12.8,4.2-4.6c-13.2-8.1-13.4-7.8,0.4-1.2c-13.8-6.6-14.7-5.2,2.7-4.4
			c-17.4-0.8-15.8-0.2-4.8-2c-11,1.7-10.6,2.2-1.3-1.4c-9.3,3.6-7.3,4.1-6.3-1.6c-1.1,5.6-0.7,5.6-1.2-0.1c0.5,5.8,2.8,5.9-7.2-0.5
			c10.1,6.4,10.3,6-0.7,1.1c11,4.9,13.5,4.6-7.7,0.9c21.2,3.7,21.1,3.1,0.5,2.1c20.6,1,22.9,0.3-7.3,2.1c30.3-1.8,29.6-2.7,2,2.6
			c27.6-5.2,29.7-6.3-6.6,3.3C88.7,35.2,87.5,34.5,55.8,47"/>
		<path style="opacity:0.25;clip-path:url(#SVGID_00000119082370720966069580000002104248567947003286_);fill:#395DAA;" d="
			M60.2,45.6c28-10.9,28.4-12.1-1.2,3.5c29.6-15.6,27.5-15.4,6.6-0.6c20.9-14.8,20.9-15.8,0.1,3.2c20.8-18.9,18.7-18.4,6.5-1.7
			C84.3,33.3,84,32.5,73,52.2c11-19.6,9.1-18.7,6.1-2.8c2.9-15.9,2.5-16.3,1.3,1c1.2-17.3-0.4-16.2,5-3.6c-5.4-12.5-5.7-12.5,1-0.1
			c-6.7-12.5-7.9-11.2,3.7-4.1c-11.6-7.1-11.8-6.8,0.4-1c-12.1-5.7-12.9-4.5,2.4-3.8c-15.3-0.7-13.9-0.2-4.2-1.7
			c-9.7,1.5-9.3,1.9-1.1-1.2c-8.2,3.1-6.5,3.5-5.5-1.4c-0.9,4.9-0.6,4.9-1.1-0.1c0.5,5,2.5,5.2-6.4-0.4c8.9,5.6,9.1,5.3-0.6,1
			c9.7,4.3,11.9,4-6.8,0.8c18.7,3.3,18.5,2.7,0.4,1.8c18.1,0.9,20.2,0.3-6.5,1.9c26.6-1.6,26.1-2.3,1.8,2.2
			c24.3-4.6,26.2-5.5-5.8,2.8C89.1,35.3,88.1,34.7,60.2,45.6"/>
		<path style="opacity:0.25;clip-path:url(#SVGID_00000119082370720966069580000002104248567947003286_);fill:#327EC0;" d="
			M57.9,51.9c28.9-19,29.1-20.4-0.5,4.3c29.6-24.7,27.3-24.1,7.2-1.9C84.7,32.1,84.4,31,65.4,58c19-27,16.8-26,6.9-3.1
			c9.9-22.9,9.4-23.7,1.5,2.5c7.9-26.2,5.9-24.8,6.2-4.3c-0.3-20.5-0.8-20.8,1.7,1.1c-2.6-21.9-4.1-20.3,4.8-5
			c-8.9-15.2-9.2-15.2,1.1-0.1c-10.3-15.1-11.3-13.4,3.2-5.3c-14.5-8.1-14.6-7.7,0.2-1.1c-14.8-6.6-15.3-5.1,1.8-4.8
			c-17.1-0.3-15.5,0.1-5.2-1.1c-10.3,1.2-9.8,1.6-1.5-1.3c-8.3,2.9-6.2,3-6.5-0.5c0.3,3.5,0.7,3.5-1.2-0.1c1.9,3.6,4.2,3.4-7.2,0.7
			c11.4,2.7,11.6,2.3-0.5,1.1c12,1.2,14.4,0.5-7.4,2.1c21.9-1.6,21.5-2.2,0.9,1.9c20.6-4,22.8-5.1-6.8,3.3
			c29.6-8.4,28.8-9.1,2.5,2.1c26.3-11.2,28.2-12.6-5.9,4.3C88.1,33.4,86.8,32.9,57.9,51.9"/>
		<path style="opacity:0.25;clip-path:url(#SVGID_00000119082370720966069580000002104248567947003286_);fill:#327EC0;" d="
			M62.1,49.9c25.4-16.6,25.6-17.8-0.5,3.7c26.1-21.5,24-21,6.4-1.7c17.7-19.3,17.4-20.3,0.7,3.2c16.7-23.6,14.8-22.7,6.1-2.7
			c8.7-19.9,8.3-20.6,1.3,2.2c6.9-22.8,5.2-21.6,5.4-3.7c-0.3-17.9-0.7-18.2,1.5,0.9c-2.3-19.1-3.6-17.7,4.2-4.4
			c-7.8-13.3-8.1-13.3,1-0.1c-9.1-13.2-10-11.7,2.8-4.6c-12.8-7-12.8-6.7,0.2-1c-13-5.8-13.5-4.4,1.6-4.2c-15.1-0.2-13.6,0.1-4.5-1
			c-9.1,1-8.7,1.4-1.3-1.1c-7.3,2.5-5.5,2.6-5.7-0.4c0.2,3.1,0.6,3.1-1.1,0c1.6,3.1,3.7,2.9-6.4,0.6c10,2.3,10.2,2-0.4,1
			c10.6,1.1,12.7,0.5-6.5,1.8c19.2-1.4,19-1.9,0.8,1.6c18.1-3.5,20.1-4.4-6,2.9c26-7.3,25.3-7.9,2.2,1.9c23.1-9.8,24.8-11-5.2,3.7
			C88.6,33.7,87.5,33.3,62.1,49.9"/>
		<path style="opacity:0.25;clip-path:url(#SVGID_00000119082370720966069580000002104248567947003286_);fill:#2BAAE0;" d="
			M61.1,56.4c24.7-25,24.6-26.4,0.3,4.4C85.7,30,83.6,31,68.2,57.8c15.4-26.8,14.9-27.9,1.5,3.6c13.3-31.6,11.4-30.2,6.2-4.2
			c5.2-26,4.6-26.7,2,2.3c2.6-29.1,0.9-27.4,5.2-5.3c-4.3-22.1-4.9-22.4,1.9,0.9c-6.8-23.4-8-21.5,3.7-5.8
			c-11.7-15.7-12-15.7,1.1-0.2C76.7,33.7,76,35.6,91.8,43.4c-15.8-7.8-15.8-7.5-0.1-1c-15.7-6.5-16-4.9,0.8-5.1
			c-16.8,0.2-15.1,0.3-5.3-0.2c-9.7,0.5-9.2,0.9-1.8-1.2c-7.4,2.1-5.3,1.9-6.5,0.6c1.2,1.3,1.6,1.3-1.2,0c2.7,1.3,5,0.7-7,1.9
			c12-1.2,12-1.5-0.2,1c12.3-2.6,14.5-3.6-6.9,3.3c21.4-6.9,21-7.4,1.3,1.6c19.6-9,21.6-10.4-6,4.4c27.6-14.8,26.7-15.3,2.9,1.6
			c23.8-16.9,25.3-18.6-4.9,5.2C87.2,31.7,85.8,31.5,61.1,56.4"/>
		<path style="opacity:0.25;clip-path:url(#SVGID_00000119082370720966069580000002104248567947003286_);fill:#2BAAE0;" d="
			M64.9,53.8c21.7-21.8,21.7-23,0.3,3.9c21.4-26.9,19.5-26,5.9-2.7c13.5-23.3,13.1-24.3,1.4,3.2c11.7-27.5,10-26.3,5.4-3.7
			c4.6-22.6,4-23.3,1.8,2c2.3-25.3,0.8-23.9,4.6-4.6c-3.8-19.3-4.3-19.6,1.7,0.8c-6-20.4-7.1-18.7,3.2-5C78.9,34,78.6,34,90.1,47.5
			C78.6,34,78,35.7,91.9,42.5C78,35.7,78,35.9,91.8,41.6c-13.8-5.7-14.1-4.2,0.7-4.5c-14.8,0.2-13.3,0.3-4.7-0.2
			c-8.6,0.5-8.1,0.8-1.5-1c-6.5,1.8-4.7,1.6-5.7,0.5c1,1.1,1.4,1.1-1,0c2.4,1.1,4.4,0.6-6.2,1.6C83.9,37,84,36.8,73.2,39
			c10.8-2.2,12.7-3.2-6.1,2.9c18.8-6,18.4-6.5,1.2,1.4c17.3-7.8,19-9.1-5.3,3.8c24.3-12.9,23.5-13.3,2.6,1.4
			c20.9-14.7,22.3-16.2-4.3,4.5C87.8,32.3,86.6,32,64.9,53.8"/>
		<path style="opacity:0.25;clip-path:url(#SVGID_00000119082370720966069580000002104248567947003286_);fill:#0FC0E8;" d="
			M65.2,60.4c19.4-30.2,19-31.6,1.2,4.4c17.8-36.1,15.8-34.7,6-4.1c9.8-30.6,9.1-31.7,2.2,3.5c6.8-35.2,5.2-33.5,5.2-5.2
			c0-28.3-0.8-29,2.4,2.1C79,30,77.7,31.9,86.4,55c-8.6-23.2-9.3-23.4,2.1,0.8c-11.4-24.1-12.1-22.1,2.4-6.4
			c-14.6-15.7-14.9-15.7,1-0.2C76,33.7,75.7,35.7,92.7,43.1c-17-7.4-16.9-7.1-0.3-0.9C75.8,36,75.9,37.7,92.2,37
			c-16.3,0.7-14.6,0.5-5.3,0.7c-9.3-0.2-8.7,0.1-2-1c-6.7,1.1-4.7,0.6-6.3,1.7c1.6-1.1,2-1.1-1.1,0.1c3.1-1.1,5.2-2.1-6.5,3
			c11.7-5.1,11.7-5.4,0,0.9c11.7-6.3,13.7-7.7-6.1,4.4c19.8-12.1,19.3-12.5,1.6,1.2c17.7-13.7,19.3-15.4-5.1,5.3
			c24.3-20.8,23.3-21.1,3.2,1c20.1-22.1,21.3-24-3.8,6C85.9,30.2,84.5,30.2,65.2,60.4"/>
		<path style="opacity:0.25;clip-path:url(#SVGID_00000119082370720966069580000002104248567947003286_);fill:#0FC0E8;" d="
			M68.4,57.3c17.1-26.3,16.7-27.6,1.1,3.9c15.6-31.4,13.9-30.3,5.3-3.6c8.6-26.7,8-27.7,2,3c6-30.7,4.6-29.2,4.6-4.5
			c0-24.7-0.7-25.3,2.2,1.9c-2.9-27.2-4-25.5,3.6-5.3c-7.6-20.2-8.2-20.4,1.8,0.7c-10-21.1-10.7-19.3,2.1-5.5
			C78.3,34,78,34,91.9,47.5C78,34,77.7,35.7,92.7,42.2c-15-6.4-14.9-6.2-0.2-0.7c-14.6-5.4-14.6-4-0.2-4.6
			c-14.3,0.6-12.8,0.4-4.7,0.6c-8.2-0.2-7.6,0.1-1.7-0.9c-5.9,1-4.1,0.5-5.6,1.4c1.4-0.9,1.7-0.9-1,0.1c2.7-1,4.6-1.8-5.7,2.6
			c10.3-4.4,10.3-4.7,0,0.8c10.3-5.5,12-6.7-5.4,3.8c17.4-10.6,17-10.9,1.4,1.1c15.5-12,17-13.5-4.4,4.6
			c21.4-18.1,20.5-18.4,2.8,0.9c17.7-19.3,18.7-20.9-3.3,5.2C86.7,31,85.5,30.9,68.4,57.3"/>
		<path style="opacity:0.25;clip-path:url(#SVGID_00000119082370720966069580000002104248567947003286_);fill:#39C0CE;" d="
			M69.9,63.7c13.1-34.6,12.4-36,2.1,4.3c10.3-40.3,8.6-38.6,5.1-5.1c3.5-33.6,2.6-34.6,2.9,3.2c-0.3-37.8-1.6-35.9,4.1-6
			C78.5,30.3,77.6,29.7,87,62c-9.4-32.4-10.3-30.2,2.8-6.7C76.7,31.8,76,31.6,91.9,55.9C76,31.6,75.6,33.8,93,49.1
			C75.6,33.8,75.3,33.8,94,48.9c-18.6-15.1-18.5-13.1-0.4-6.3c-18.1-6.8-17.9-6.5-0.5-0.7c-17.5-5.9-17.1-4.2-1.3-5.3
			c-15.7,1.1-14.1,0.6-5.1,1.6c-9-1-8.4-0.7-2.1-0.8c-6.2,0.1-4.3-0.8-5.9,2.7c1.5-3.4,1.9-3.5-1.1,0.1c3-3.6,4.9-4.9-5.8,4
			c10.7-8.9,10.6-9.1,0.2,0.8c10.4-10,12.1-11.7-5.1,5.3c17.2-17,16.6-17.3,1.9,0.9c14.7-18.1,16-20.1-3.9,6.1
			c19.9-26.2,18.8-26.3,3.4,0.4c15.4-26.7,16.2-28.8-2.5,6.6C84.4,28.9,83,29.1,69.9,63.7"/>
		<path style="opacity:0.25;clip-path:url(#SVGID_00000119082370720966069580000002104248567947003286_);fill:#39C0CE;" d="
			M69.9,63.7c13.1-34.6,12.4-36,2.1,4.3c10.3-40.3,8.6-38.6,5.1-5.1c3.5-33.6,2.6-34.6,2.9,3.2c-0.3-37.8-1.6-35.9,4.1-6
			C78.5,30.3,77.6,29.7,87,62c-9.4-32.4-10.3-30.2,2.8-6.7C76.7,31.8,76,31.6,91.9,55.9C76,31.6,75.6,33.8,93,49.1
			C75.6,33.8,75.3,33.8,94,48.9c-18.6-15.1-18.5-13.1-0.4-6.3c-18.1-6.8-17.9-6.5-0.5-0.7c-17.5-5.9-17.1-4.2-1.3-5.3
			c-15.7,1.1-14.1,0.6-5.1,1.6c-9-1-8.4-0.7-2.1-0.8c-6.2,0.1-4.3-0.8-5.9,2.7c1.5-3.4,1.9-3.5-1.1,0.1c3-3.6,4.9-4.9-5.8,4
			c10.7-8.9,10.6-9.1,0.2,0.8c10.4-10,12.1-11.7-5.1,5.3c17.2-17,16.6-17.3,1.9,0.9c14.7-18.1,16-20.1-3.9,6.1
			c19.9-26.2,18.8-26.3,3.4,0.4c15.4-26.7,16.2-28.8-2.5,6.6C84.4,28.9,83,29.1,69.9,63.7"/>
		<path style="opacity:0.25;clip-path:url(#SVGID_00000119082370720966069580000002104248567947003286_);fill:#50C1BF;" d="
			M75.4,66.3c5.9-38,5-39.3,2.9,4.1c2-43.3,0.8-41.4,4-5.9c-3.2-35.6-4.4-36.5,3.5,2.8C77.9,28,77,30.1,88.6,60.7
			C77,30.1,76,29.6,91.8,62.2C76,29.6,75.6,31.9,93.1,55.1c-17.6-23.2-18.3-23.4,2.2,0.3C74.9,31.8,75,34,95.1,48.5
			C75,34,74.7,34,96,48.3C74.7,34,75.2,36.1,94.3,42c-19-6-18.9-5.8-0.6-0.5c-18.2-5.4-17.5-3.7-2.4-5.1c-15.1,1.4-13.6,0.6-4.7,2.4
			c-8.9-1.8-8.2-1.6-2.3-0.6c-5.9-1-4.3-2.1-5.3,3.6c1-5.8,1.3-5.8-1.1,0.2c2.4-6,4-7.5-4.9,4.9c8.9-12.5,8.7-12.7,0.4,0.6
			c8.4-13.3,9.6-15.3-4,6.1c13.6-21.4,13-21.6,2,0.5c11-22,11.8-24.1-2.6,6.7c14.4-30.8,13.3-30.8,3.4-0.2c9.9-30.6,10.2-32.8-1.1,7
			C82.6,27.9,81.3,28.3,75.4,66.3"/>
		<path style="opacity:0.25;clip-path:url(#SVGID_00000119082370720966069580000002104248567947003286_);fill:#50C1BF;" d="
			M75.4,66.3c5.9-38,5-39.3,2.9,4.1c2-43.3,0.8-41.4,4-5.9c-3.2-35.6-4.4-36.5,3.5,2.8C77.9,28,77,30.1,88.6,60.7
			C77,30.1,76,29.6,91.8,62.2C76,29.6,75.6,31.9,93.1,55.1c-17.6-23.2-18.3-23.4,2.2,0.3C74.9,31.8,75,34,95.1,48.5
			C75,34,74.7,34,96,48.3C74.7,34,75.2,36.1,94.3,42c-19-6-18.9-5.8-0.6-0.5c-18.2-5.4-17.5-3.7-2.4-5.1c-15.1,1.4-13.6,0.6-4.7,2.4
			c-8.9-1.8-8.2-1.6-2.3-0.6c-5.9-1-4.3-2.1-5.3,3.6c1-5.8,1.3-5.8-1.1,0.2c2.4-6,4-7.5-4.9,4.9c8.9-12.5,8.7-12.7,0.4,0.6
			c8.4-13.3,9.6-15.3-4,6.1c13.6-21.4,13-21.6,2,0.5c11-22,11.8-24.1-2.6,6.7c14.4-30.8,13.3-30.8,3.4-0.2c9.9-30.6,10.2-32.8-1.1,7
			C82.6,27.9,81.3,28.3,75.4,66.3"/>
		<path style="opacity:0.25;clip-path:url(#SVGID_00000119082370720966069580000002104248567947003286_);fill:#3BBEB9;" d="M81.2,68
			c-1.8-40.3-3-41.4,3.7,3.7c-6.7-45.1-7.6-43,2.7-6.5c-10.3-36.6-11.6-37.3,4,2.4c-15.7-39.7-16.1-37.5,1.4-7
			c-17.5-30.4-18.6-30.8,3.4,1.2c-22-32-22-29.6-0.1-7.3c-21.9-22.3-22.6-22.3,2.3,0.1C73.8,32.1,74.3,34.3,97,47.6
			c-22.7-13.4-22.9-13.3,0.8-0.2c-23.7-13.1-22.8-11.1-2.9-6c-19.8-5.1-19.6-5-0.7-0.3c-18.9-4.7-17.8-3.2-3.4-4.8
			c-14.4,1.6-13.1,0.6-4.1,3.2c-9-2.6-8.2-2.5-2.3-0.4c-5.9-2.1-4.5-3.5-4.4,4.5c0-8,0.3-8-1,0.2c1.3-8.2,2.5-10-3.8,5.7
			c6.3-15.7,6.2-15.9,0.5,0.5c5.7-16.4,6.5-18.5-2.7,6.7c9.2-25.2,8.5-25.2,2.1,0c6.4-25.3,6.8-27.5-1.2,7.1
			c8-34.6,6.9-34.4,3.3-0.8c3.6-33.6,3.5-35.8,0.3,7.1C80.6,27.1,79.4,27.7,81.2,68"/>
		<path style="opacity:0.25;clip-path:url(#SVGID_00000119082370720966069580000002104248567947003286_);fill:#3BBEB9;" d="M81.2,68
			c-1.8-40.3-3-41.4,3.7,3.7c-6.7-45.1-7.6-43,2.7-6.5c-10.3-36.6-11.6-37.3,4,2.4c-15.7-39.7-16.1-37.5,1.4-7
			c-17.5-30.4-18.6-30.8,3.4,1.2c-22-32-22-29.6-0.1-7.3c-21.9-22.3-22.6-22.3,2.3,0.1C73.8,32.1,74.3,34.3,97,47.6
			c-22.7-13.4-22.9-13.3,0.8-0.2c-23.7-13.1-22.8-11.1-2.9-6c-19.8-5.1-19.6-5-0.7-0.3c-18.9-4.7-17.8-3.2-3.4-4.8
			c-14.4,1.6-13.1,0.6-4.1,3.2c-9-2.6-8.2-2.5-2.3-0.4c-5.9-2.1-4.5-3.5-4.4,4.5c0-8,0.3-8-1,0.2c1.3-8.2,2.5-10-3.8,5.7
			c6.3-15.7,6.2-15.9,0.5,0.5c5.7-16.4,6.5-18.5-2.7,6.7c9.2-25.2,8.5-25.2,2.1,0c6.4-25.3,6.8-27.5-1.2,7.1
			c8-34.6,6.9-34.4,3.3-0.8c3.6-33.6,3.5-35.8,0.3,7.1C80.6,27.1,79.4,27.7,81.2,68"/>
		<path style="opacity:0.25;clip-path:url(#SVGID_00000119082370720966069580000002104248567947003286_);fill:#07AF96;" d="
			M87.3,68.9C77.4,27.5,76,26.5,91.7,72C76,26.5,75.6,28.7,93.1,65.1C75.6,28.7,74.2,28.1,97.6,67c-23.4-39-23.4-36.7-0.1-7.3
			c-23.3-29.4-24.5-29.6,3.6,0.8C73,30.1,73.5,32.5,99.5,53.2c-26-20.7-26.7-20.7,2.2-0.1c-28.9-20.6-28-18.5-3.1-6.7
			c-24.9-11.8-25.1-11.8,0.7-0.2c-25.8-11.6-24.5-9.7-4.1-5.6c-20.4-4.1-20.2-4.1-0.8,0c-19.4-4.1-18-2.7-4.3-4.4
			c-13.7,1.7-12.6,0.5-3.4,3.9c-9.2-3.4-8.4-3.4-2.4-0.2c-6.1-3.2-5-4.8-3.5,5.2c-1.5-10-1.2-10.1-0.9,0.2
			C79.8,35,80.6,33,77.4,51.6c3.2-18.6,3-18.7,0.6,0.3c2.4-18.9,2.8-21.2-1.3,7.1c4.1-28.4,3.4-28.2,2.1-0.4
			c1.3-27.8,1.2-30.2,0.3,7.3c1-37.4,0-37,3.1-1.4c-3.2-35.6-3.7-37.8,1.7,7.1C78.5,26.6,77.4,27.5,87.3,68.9"/>
		<path style="opacity:0.25;clip-path:url(#SVGID_00000119082370720966069580000002104248567947003286_);fill:#07AF96;" d="
			M87.3,68.9C77.4,27.5,76,26.5,91.7,72C76,26.5,75.6,28.7,93.1,65.1C75.6,28.7,74.2,28.1,97.6,67c-23.4-39-23.4-36.7-0.1-7.3
			c-23.3-29.4-24.5-29.6,3.6,0.8C73,30.1,73.5,32.5,99.5,53.2c-26-20.7-26.7-20.7,2.2-0.1c-28.9-20.6-28-18.5-3.1-6.7
			c-24.9-11.8-25.1-11.8,0.7-0.2c-25.8-11.6-24.5-9.7-4.1-5.6c-20.4-4.1-20.2-4.1-0.8,0c-19.4-4.1-18-2.7-4.3-4.4
			c-13.7,1.7-12.6,0.5-3.4,3.9c-9.2-3.4-8.4-3.4-2.4-0.2c-6.1-3.2-5-4.8-3.5,5.2c-1.5-10-1.2-10.1-0.9,0.2
			C79.8,35,80.6,33,77.4,51.6c3.2-18.6,3-18.7,0.6,0.3c2.4-18.9,2.8-21.2-1.3,7.1c4.1-28.4,3.4-28.2,2.1-0.4
			c1.3-27.8,1.2-30.2,0.3,7.3c1-37.4,0-37,3.1-1.4c-3.2-35.6-3.7-37.8,1.7,7.1C78.5,26.6,77.4,27.5,87.3,68.9"/>
		<path style="opacity:0.25;clip-path:url(#SVGID_00000119082370720966069580000002104248567947003286_);fill:#00AE77;" d="
			M93.5,68.8c-18.1-41.3-19.6-42.1,5,2.6c-24.6-44.7-24.6-42.5,0-7.1c-24.6-35.4-26.1-35.8,4.8,1.3c-30.9-37.1-30.4-34.8-1.5-7.3
			c-28.8-27.5-30-27.6,3.7,0.3c-33.7-28-32.7-25.7-3.1-7.1c-29.7-18.6-30.4-18.5,2.2-0.3c-32.6-18.2-31.2-16.2-4.4-6.2
			c-26.8-10-27-9.9,0.7-0.2c-27.6-9.7-26-8.1-5.2-5.1c-20.8-3-20.5-3.1-0.8,0.2c-19.8-3.3-18.1-2.1-5.1-3.8
			c-13,1.7-12.2,0.3-2.6,4.4c-9.6-4.2-8.8-4.2-2.4,0.1c-6.5-4.2-5.7-6.1-2.4,5.7c-3.3-11.8-3.1-11.9-0.9,0.2
			c-2.2-12.1-1.8-14.2-1.3,6.7c-0.5-20.9-0.7-20.9,0.7,0.1c-1.4-21-1.4-23.3,0.2,7.3c-1.6-30.7-2.3-30.4,2-0.8
			c-4.3-29.6-4.8-31.9,1.7,7.2c-6.6-39.2-7.5-38.5,2.8-2c-10.3-36.6-11.3-38.8,3.2,6.9C76.3,26.5,75.5,27.5,93.5,68.8"/>
		<path style="opacity:0.25;clip-path:url(#SVGID_00000119082370720966069580000002104248567947003286_);fill:#00AE77;" d="
			M97.7,75.9c-23.5-50.2-25.6-51.3,6.5,3.2c-32.1-54.4-32.1-51.7-0.1-8.7c-32-43-34-43.5,6.2,1.6c-40.2-45.2-39.6-42.3-2-8.8
			c-37.6-33.5-39.1-33.6,4.8,0.4c-43.9-34-42.6-31.3-4-8.6c-38.7-22.6-39.6-22.5,2.8-0.4c-42.4-22.2-40.6-19.8-5.7-7.6
			c-34.9-12.2-35.2-12.1,0.8-0.3c-36-11.8-33.8-9.9-6.8-6.2c-27.1-3.7-26.7-3.8-1,0.2c-25.7-4-23.6-2.5-6.7-4.6
			c-16.9,2.1-15.8,0.3-3.4,5.4c-12.5-5.1-11.5-5.1-3.1,0.1c-8.4-5.2-7.4-7.4-3.1,6.9c-4.3-14.3-4-14.4-1.1,0.3
			c-2.9-14.7-2.3-17.3-1.7,8.2c-0.6-25.5-0.9-25.5,0.9,0.1c-1.8-25.5-1.9-28.4,0.3,8.9c-2.1-37.3-3-37,2.6-1
			c-5.5-36-6.3-38.8,2.3,8.8C77.8,26.2,76.6,27,90,71.5C76.6,27,75.3,24.3,94.1,79.8C75.3,24.3,74.1,25.6,97.7,75.9"/>
		<path style="opacity:0.25;clip-path:url(#SVGID_00000119082370720966069580000002104248567947003286_);fill:#13B15B;" d="
			M99.6,67.8c-26.1-40-27.8-40.6,5.4,2c-33.3-42.6-32.8-40.3-1.5-7.1c-31.3-33.2-32.9-33.4,5,0.7c-37.8-34.2-36.9-31.9-3-7.1
			c-33.9-24.9-35.1-24.8,3.7-0.1c-38.8-24.7-37.3-22.6-4.5-6.7c-32.9-16-33.6-15.8,2.1-0.5c-35.6-15.3-33.8-13.5-5.6-5.6
			c-28.3-7.9-28.5-7.9,0.6-0.2c-29-7.7-27.1-6.3-6.2-4.3C74.8,37,75,36.9,95,39.4c-20-2.5-18.1-1.5-5.8-3.1
			c-12.3,1.6-11.8,0-1.7,4.9c-10.1-4.8-9.4-4.9-2.3,0.3c-7.1-5.2-6.7-7.2-1.2,6.1c-5.5-13.3-5.3-13.3-0.8,0.2
			c-4.5-13.6-4.5-15.8,0.1,6.9C78.7,32,78.5,32.1,84,54.5c-5.5-22.5-6-24.8,1.7,7.3c-7.7-32.1-8.3-31.7,1.8-1.2
			c-10.1-30.5-11.1-32.8,3.2,7c-14.3-39.8-15.1-39,2.4-2.5c-17.5-36.5-18.9-38.5,4.5,6.4C74.2,26.6,73.5,27.8,99.6,67.8"/>
		<path style="opacity:0.25;clip-path:url(#SVGID_00000119082370720966069580000002104248567947003286_);fill:#13B15B;" d="
			M99.6,67.8c-26.1-40-27.8-40.6,5.4,2c-33.3-42.6-32.8-40.3-1.5-7.1c-31.3-33.2-32.9-33.4,5,0.7c-37.8-34.2-36.9-31.9-3-7.1
			c-33.9-24.9-35.1-24.8,3.7-0.1c-38.8-24.7-37.3-22.6-4.5-6.7c-32.9-16-33.6-15.8,2.1-0.5c-35.6-15.3-33.8-13.5-5.6-5.6
			c-28.3-7.9-28.5-7.9,0.6-0.2c-29-7.7-27.1-6.3-6.2-4.3C74.8,37,75,36.9,95,39.4c-20-2.5-18.1-1.5-5.8-3.1
			c-12.3,1.6-11.8,0-1.7,4.9c-10.1-4.8-9.4-4.9-2.3,0.3c-7.1-5.2-6.7-7.2-1.2,6.1c-5.5-13.3-5.3-13.3-0.8,0.2
			c-4.5-13.6-4.5-15.8,0.1,6.9C78.7,32,78.5,32.1,84,54.5c-5.5-22.5-6-24.8,1.7,7.3c-7.7-32.1-8.3-31.7,1.8-1.2
			c-10.1-30.5-11.1-32.8,3.2,7c-14.3-39.8-15.1-39,2.4-2.5c-17.5-36.5-18.9-38.5,4.5,6.4C74.2,26.6,73.5,27.8,99.6,67.8"/>
		<path style="opacity:0.25;clip-path:url(#SVGID_00000119082370720966069580000002104248567947003286_);fill:#149F49;" d="
			M105.4,66c-33.7-37.6-35.6-38,5.7,1.2c-41.3-39.2-40.4-37-2.9-6.9c-37.5-30.1-39.1-30.1,5,0.1c-44.1-30.2-42.7-28.1-4.4-6.6
			c-38.3-21.5-39.5-21.3,3.6-0.5c-43.1-20.8-41.2-18.9-5.7-6c-35.5-12.9-36.1-12.7,1.9-0.7c-38.1-12-35.9-10.5-6.6-4.8
			c-29.3-5.6-29.5-5.6,0.5-0.1c-30-5.4-27.8-4.3-7-3.5c-20.8-0.8-20.6-1-0.6,0.6c-20-1.7-18-0.9-6.4-2.3C77,37.8,77.2,36.2,88,41.6
			c-10.8-5.4-10.1-5.6-2.2,0.5c-7.9-6.1-7.9-8.1,0.1,6.3c-8-14.4-7.8-14.5-0.7,0.2c-7-14.7-7.5-16.9,1.5,6.9
			c-9-23.8-9.2-23.7,0.6-0.4c-9.8-23.3-10.9-25.6,3.2,7.1c-14-32.6-14.5-32.1,1.5-1.6c-16-30.6-17.5-32.7,4.6,6.5
			C74.5,28,73.9,28.9,98.4,64.3c-24.5-35.4-26.4-37.2,5.7,5.8C72.1,27.1,71.7,28.4,105.4,66"/>
		<path style="opacity:0.25;clip-path:url(#SVGID_00000119082370720966069580000002104248567947003286_);fill:#149F49;" d="
			M105.4,66c-33.7-37.6-35.6-38,5.7,1.2c-41.3-39.2-40.4-37-2.9-6.9c-37.5-30.1-39.1-30.1,5,0.1c-44.1-30.2-42.7-28.1-4.4-6.6
			c-38.3-21.5-39.5-21.3,3.6-0.5c-43.1-20.8-41.2-18.9-5.7-6c-35.5-12.9-36.1-12.7,1.9-0.7c-38.1-12-35.9-10.5-6.6-4.8
			c-29.3-5.6-29.5-5.6,0.5-0.1c-30-5.4-27.8-4.3-7-3.5c-20.8-0.8-20.6-1-0.6,0.6c-20-1.7-18-0.9-6.4-2.3C77,37.8,77.2,36.2,88,41.6
			c-10.8-5.4-10.1-5.6-2.2,0.5c-7.9-6.1-7.9-8.1,0.1,6.3c-8-14.4-7.8-14.5-0.7,0.2c-7-14.7-7.5-16.9,1.5,6.9
			c-9-23.8-9.2-23.7,0.6-0.4c-9.8-23.3-10.9-25.6,3.2,7.1c-14-32.6-14.5-32.1,1.5-1.6c-16-30.6-17.5-32.7,4.6,6.5
			C74.5,28,73.9,28.9,98.4,64.3c-24.5-35.4-26.4-37.2,5.7,5.8C72.1,27.1,71.7,28.4,105.4,66"/>
		<path style="opacity:0.25;clip-path:url(#SVGID_00000119082370720966069580000002104248567947003286_);fill:#40B449;" d="
			M110.7,63.3c-40.8-34-42.7-34.2,5.9,0.5c-48.6-34.7-47.2-32.6-4.3-6.5c-42.9-26.1-44.5-26,5-0.5c-49.5-25.5-47.7-23.5-5.7-6
			c-42-17.5-43.1-17.3,3.4-0.9c-46.5-16.3-44.3-14.7-6.9-5.2c-37.4-9.5-38-9.2,1.8-0.8c-39.8-8.4-37.4-7.1-7.5-3.9
			c-29.8-3.2-30-3.2,0.5-0.1c-30.5-3.1-28.1-2.3-7.6-2.5c-20.5,0.2-20.4,0-0.5,0.8c-19.8-0.9-17.7-0.4-6.7-1.5
			c-11,1.1-11.1-0.6,0.4,5.3c-11.5-5.9-10.9-6.1-2,0.7c-8.8-6.9-9.3-8.9,1.4,6.3c-10.6-15.2-10.4-15.2-0.7,0.2
			c-9.8-15.4-10.7-17.6,2.9,6.7c-13.6-24.3-13.8-24.1,0.6-0.6c-14.3-23.5-15.8-25.6,4.6,6.6C74.9,29.7,74.5,30.3,96.4,60
			c-21.9-29.7-23.8-31.6,5.8,5.9c-29.6-37.5-30-36.5,1.2-3.2c-31.2-33.2-33.4-34.8,6.8,4.9C70.1,27.9,70,29.3,110.7,63.3"/>
		<path style="opacity:0.25;clip-path:url(#SVGID_00000119082370720966069580000002104248567947003286_);fill:#40B449;" d="
			M110.7,63.3c-40.8-34-42.7-34.2,5.9,0.5c-48.6-34.7-47.2-32.6-4.3-6.5c-42.9-26.1-44.5-26,5-0.5c-49.5-25.5-47.7-23.5-5.7-6
			c-42-17.5-43.1-17.3,3.4-0.9c-46.5-16.3-44.3-14.7-6.9-5.2c-37.4-9.5-38-9.2,1.8-0.8c-39.8-8.4-37.4-7.1-7.5-3.9
			c-29.8-3.2-30-3.2,0.5-0.1c-30.5-3.1-28.1-2.3-7.6-2.5c-20.5,0.2-20.4,0-0.5,0.8c-19.8-0.9-17.7-0.4-6.7-1.5
			c-11,1.1-11.1-0.6,0.4,5.3c-11.5-5.9-10.9-6.1-2,0.7c-8.8-6.9-9.3-8.9,1.4,6.3c-10.6-15.2-10.4-15.2-0.7,0.2
			c-9.8-15.4-10.7-17.6,2.9,6.7c-13.6-24.3-13.8-24.1,0.6-0.6c-14.3-23.5-15.8-25.6,4.6,6.6C74.9,29.7,74.5,30.3,96.4,60
			c-21.9-29.7-23.8-31.6,5.8,5.9c-29.6-37.5-30-36.5,1.2-3.2c-31.2-33.2-33.4-34.8,6.8,4.9C70.1,27.9,70,29.3,110.7,63.3"/>
		<path style="opacity:0.25;clip-path:url(#SVGID_00000119082370720966069580000002104248567947003286_);fill:#83C341;" d="
			M115.4,59.9c-47-29.5-48.9-29.4,5.9-0.3c-54.8-29.2-53-27.3-5.5-5.9c-47.5-21.4-49-21.1,4.8-1.1c-53.8-20-51.6-18.3-6.8-5.2
			C69,34.3,68,34.7,117,46.1c-49-11.4-46.5-10.1-7.8-4.2c-38.6-5.8-39.1-5.5,1.6-1c-40.7-4.6-38.1-3.7-8.2-2.8
			c-29.9-0.8-30-0.8,0.4-0.1C72.5,37.3,75,37.8,95,36.6c-20,1.3-19.9,0.9-0.3,1c-19.5-0.1-17.3,0.1-6.9-0.6
			c-10.4,0.7-10.9-1,1.5,5.3c-12.4-6.3-11.8-6.6-1.8,0.9c-10-7.4-10.8-9.4,2.6,6.1c-13.4-15.5-13.2-15.6-0.6,0.2
			c-12.6-15.8-14-17.8,4.2,6.3C75.4,31.7,75.3,31.9,94.1,55c-18.8-23-20.6-25,5.8,6c-26.5-30.9-26.7-30.2,0.8-2.2
			c-27.5-28.1-29.7-29.7,7,5.1c-36.7-34.7-36.9-33.6,0.6-3.5c-37.4-30.1-39.9-31.4,7.7,4C68.3,28.9,68.5,30.4,115.4,59.9"/>
		<path style="opacity:0.25;clip-path:url(#SVGID_00000119082370720966069580000002104248567947003286_);fill:#83C341;" d="
			M115.4,59.9c-47-29.5-48.9-29.4,5.9-0.3c-54.8-29.2-53-27.3-5.5-5.9c-47.5-21.4-49-21.1,4.8-1.1c-53.8-20-51.6-18.3-6.8-5.2
			C69,34.3,68,34.7,117,46.1c-49-11.4-46.5-10.1-7.8-4.2c-38.6-5.8-39.1-5.5,1.6-1c-40.7-4.6-38.1-3.7-8.2-2.8
			c-29.9-0.8-30-0.8,0.4-0.1C72.5,37.3,75,37.8,95,36.6c-20,1.3-19.9,0.9-0.3,1c-19.5-0.1-17.3,0.1-6.9-0.6
			c-10.4,0.7-10.9-1,1.5,5.3c-12.4-6.3-11.8-6.6-1.8,0.9c-10-7.4-10.8-9.4,2.6,6.1c-13.4-15.5-13.2-15.6-0.6,0.2
			c-12.6-15.8-14-17.8,4.2,6.3C75.4,31.7,75.3,31.9,94.1,55c-18.8-23-20.6-25,5.8,6c-26.5-30.9-26.7-30.2,0.8-2.2
			c-27.5-28.1-29.7-29.7,7,5.1c-36.7-34.7-36.9-33.6,0.6-3.5c-37.4-30.1-39.9-31.4,7.7,4C68.3,28.9,68.5,30.4,115.4,59.9"/>
		<path style="opacity:0.25;clip-path:url(#SVGID_00000119082370720966069580000002104248567947003286_);fill:#A8CE38;" d="
			M119.4,55.8c-52.2-24.2-54-23.9,5.8-1c-59.8-22.9-57.6-21.2-6.7-5.1c-51-16.1-52.4-15.6,4.5-1.7c-56.9-13.9-54.4-12.6-7.8-4.2
			c-46.6-8.3-47.5-7.8,2.9-1.6c-50.4-6.2-47.7-5.2-8.6-3.1c-39.1-2.1-39.5-1.7,1.3-1c-40.8-0.7-38.1-0.1-8.6-1.7
			c-29.4,1.6-29.6,1.6,0.4,0c-30,1.6-27.4,1.7-8.1-0.4C75.2,38,75.2,37.7,94.3,37c-19.1,0.6-16.9,0.5-6.9,0.3
			c-10,0.2-10.8-1.4,2.5,5.1c-13.3-6.5-12.8-6.9-1.6,1c-11.2-7.9-12.4-9.7,3.8,5.8c-16.2-15.5-16-15.5-0.5,0.1
			C76.1,33.7,74.3,31.9,97,55.1c-22.7-23.2-22.8-22.9,0.3-0.9c-23-21.9-25.3-23.6,7,5.1c-32.2-28.7-32.4-28,0.3-2.4
			C71.9,31.3,69.4,30,112.5,61c-43.1-31-43-29.8-0.2-3.6c-42.9-26.2-45.6-27.1,8.4,2.9C66.8,30.2,67.2,31.6,119.4,55.8"/>
		<path style="opacity:0.25;clip-path:url(#SVGID_00000119082370720966069580000002104248567947003286_);fill:#A8CE38;" d="
			M119.4,55.8c-52.2-24.2-54-23.9,5.8-1c-59.8-22.9-57.6-21.2-6.7-5.1c-51-16.1-52.4-15.6,4.5-1.7c-56.9-13.9-54.4-12.6-7.8-4.2
			c-46.6-8.3-47.5-7.8,2.9-1.6c-50.4-6.2-47.7-5.2-8.6-3.1c-39.1-2.1-39.5-1.7,1.3-1c-40.8-0.7-38.1-0.1-8.6-1.7
			c-29.4,1.6-29.6,1.6,0.4,0c-30,1.6-27.4,1.7-8.1-0.4C75.2,38,75.2,37.7,94.3,37c-19.1,0.6-16.9,0.5-6.9,0.3
			c-10,0.2-10.8-1.4,2.5,5.1c-13.3-6.5-12.8-6.9-1.6,1c-11.2-7.9-12.4-9.7,3.8,5.8c-16.2-15.5-16-15.5-0.5,0.1
			C76.1,33.7,74.3,31.9,97,55.1c-22.7-23.2-22.8-22.9,0.3-0.9c-23-21.9-25.3-23.6,7,5.1c-32.2-28.7-32.4-28,0.3-2.4
			C71.9,31.3,69.4,30,112.5,61c-43.1-31-43-29.8-0.2-3.6c-42.9-26.2-45.6-27.1,8.4,2.9C66.8,30.2,67.2,31.6,119.4,55.8"/>
		<path style="opacity:0.25;clip-path:url(#SVGID_00000119082370720966069580000002104248567947003286_);fill:#C9DA2A;" d="
			M106.3,51.9c-34.9-18.7-36-18.1,3.4-1.8c-39.4-16.4-37.9-15-4.7-4.3c-33.2-10.7-34-10,2.5-2.3c-36.5-7.7-34.8-6.7-5.3-3.2
			c-29.5-3.4-30-2.8,1.5-1.9c-31.5-0.9-29.7-0.2-5.6-2c-24.1,1.8-24.3,2.1,0.7-1.1c-25,3.3-23.2,3.5-5.5-0.6c-17.7,4-17.8,4,0.2,0.1
			c-18,3.9-16.4,3.7-5,0.7c-11.4,3.1-11.4,2.6,0.1,1.3c-11.5,1.3-10.2,0.9-4.2,1.3c-6-0.4-6.7-1.9,2.2,4.9c-8.9-6.8-8.6-7.2-0.9,1.2
			C78,35.7,77,34,88.8,49.5C77,34,77.1,34,88.5,49.6c-11.4-15.6-12.7-17.2,4,5.1c-16.7-22.3-16.7-22,0.1-1.1
			c-16.8-20.8-18.4-22.2,4.9,4.3c-23.3-26.5-23.3-25.6-0.1-2.6c-23.2-23.1-24.9-24.1,5.3,3.1c-30.2-27.1-30-25.9-0.6-3.8
			c-29.5-22.1-31.2-22.7,5.5,1.8C70.9,31.8,71.4,33.2,106.3,51.9"/>
		<path style="opacity:0.25;clip-path:url(#SVGID_00000119082370720966069580000002104248567947003286_);fill:#C9DA2A;" d="
			M106.3,51.9c-34.9-18.7-36-18.1,3.4-1.8c-39.4-16.4-37.9-15-4.7-4.3c-33.2-10.7-34-10,2.5-2.3c-36.5-7.7-34.8-6.7-5.3-3.2
			c-29.5-3.4-30-2.8,1.5-1.9c-31.5-0.9-29.7-0.2-5.6-2c-24.1,1.8-24.3,2.1,0.7-1.1c-25,3.3-23.2,3.5-5.5-0.6c-17.7,4-17.8,4,0.2,0.1
			c-18,3.9-16.4,3.7-5,0.7c-11.4,3.1-11.4,2.6,0.1,1.3c-11.5,1.3-10.2,0.9-4.2,1.3c-6-0.4-6.7-1.9,2.2,4.9c-8.9-6.8-8.6-7.2-0.9,1.2
			C78,35.7,77,34,88.8,49.5C77,34,77.1,34,88.5,49.6c-11.4-15.6-12.7-17.2,4,5.1c-16.7-22.3-16.7-22,0.1-1.1
			c-16.8-20.8-18.4-22.2,4.9,4.3c-23.3-26.5-23.3-25.6-0.1-2.6c-23.2-23.1-24.9-24.1,5.3,3.1c-30.2-27.1-30-25.9-0.6-3.8
			c-29.5-22.1-31.2-22.7,5.5,1.8C70.9,31.8,71.4,33.2,106.3,51.9"/>
		<path style="opacity:0.25;clip-path:url(#SVGID_00000119082370720966069580000002104248567947003286_);fill:#EBE724;" d="
			M107.6,46.8c-36.6-12-37.6-11.2,3.1-2.4c-40.7-8.7-39-7.7-5.2-3.2c-33.9-4.5-34.6-3.7,2.2-2.7c-36.8-0.9-35-0.3-5.6-2
			c-29.4,1.7-29.8,2.4,1.3-2.2c-31,4.6-29.2,4.8-5.8-0.7c-23.4,5.6-23.6,5.9,0.5-1.2C74,39.5,75.8,39.2,92.6,33
			c-16.8,6.2-16.9,6.2,0.2,0.1c-17.2,6.1-15.6,5.5-4.9,1.8c-10.8,3.7-10.8,3.3,0.2,1.4c-11,1.9-9.8,1.2-3.9,2.1
			c-5.8-1-6.7-2.4,2.8,4.4c-9.5-6.8-9.2-7.2-0.7,1.2c-8.5-8.4-9.7-9.9,3.7,4.7c-13.4-14.6-13.3-14.6-0.3,0.1
			c-13-14.6-14.5-16,4.6,4.1c-19.1-20.1-19.1-19.7-0.1-1.2c-19-18.5-20.7-19.5,5.4,3.1c-26.1-22.6-26-21.8-0.4-2.6
			c-25.6-19.1-27.4-19.7,5.6,1.9c-33-21.6-32.7-20.4-1-3.7c-31.7-16.7-33.5-16.8,5.7,0.6C70.4,33.5,71,34.8,107.6,46.8"/>
		<path style="opacity:0.25;clip-path:url(#SVGID_00000119082370720966069580000002104248567947003286_);fill:#EBE724;" d="
			M107.6,46.8c-36.6-12-37.6-11.2,3.1-2.4c-40.7-8.7-39-7.7-5.2-3.2c-33.9-4.5-34.6-3.7,2.2-2.7c-36.8-0.9-35-0.3-5.6-2
			c-29.4,1.7-29.8,2.4,1.3-2.2c-31,4.6-29.2,4.8-5.8-0.7c-23.4,5.6-23.6,5.9,0.5-1.2C74,39.5,75.8,39.2,92.6,33
			c-16.8,6.2-16.9,6.2,0.2,0.1c-17.2,6.1-15.6,5.5-4.9,1.8c-10.8,3.7-10.8,3.3,0.2,1.4c-11,1.9-9.8,1.2-3.9,2.1
			c-5.8-1-6.7-2.4,2.8,4.4c-9.5-6.8-9.2-7.2-0.7,1.2c-8.5-8.4-9.7-9.9,3.7,4.7c-13.4-14.6-13.3-14.6-0.3,0.1
			c-13-14.6-14.5-16,4.6,4.1c-19.1-20.1-19.1-19.7-0.1-1.2c-19-18.5-20.7-19.5,5.4,3.1c-26.1-22.6-26-21.8-0.4-2.6
			c-25.6-19.1-27.4-19.7,5.6,1.9c-33-21.6-32.7-20.4-1-3.7c-31.7-16.7-33.5-16.8,5.7,0.6C70.4,33.5,71,34.8,107.6,46.8"/>
		<path style="opacity:0.25;clip-path:url(#SVGID_00000119082370720966069580000002104248567947003286_);fill:#F4EA1C;" d="
			M108.2,41.5c-37.4-4.9-38.3-4,2.8-3c-41.1-0.9-39.3-0.3-5.5-2c-33.8,1.7-34.4,2.7,1.8-3.1c-36.2,5.8-34.4,6-5.8-0.8
			c-28.6,6.8-28.9,7.5,1-2.3c-29.9,9.9-28,9.7-5.8,0.6c-22.2,9.1-22.4,9.5,0.4-1.1c-22.7,10.6-21,10-5.3,1.9
			C76,39.7,76,39.7,92,31.7c-16,7.9-14.6,7-4.6,2.8c-10,4.2-10.1,3.8,0.4,1.5c-10.5,2.3-9.4,1.4-3.6,2.9c-5.8-1.6-6.8-2.8,3.3,3.8
			c-10.1-6.6-9.9-7-0.5,1.3c-9.4-8.2-10.7-9.5,4.2,3.8c-14.9-13.3-14.8-13.3-0.3,0c-14.6-13.3-16.2-14.3,5,3.1
			C74.7,33.5,74.8,34,95.7,49.6C74.8,34,73,33.3,101.4,51.5c-28.4-18.1-28.2-17.3-0.7-2.6c-27.5-14.7-29.3-14.9,5.8,0.6
			C71.4,34,71.8,35.1,105,45.9c-33.1-10.8-34.9-10.5,5.6-0.7C70,35.4,70.8,36.5,108.2,41.5"/>
		<path style="opacity:0.25;clip-path:url(#SVGID_00000119082370720966069580000002104248567947003286_);fill:#F4EA1C;" d="
			M108.2,41.5c-37.4-4.9-38.3-4,2.8-3c-41.1-0.9-39.3-0.3-5.5-2c-33.8,1.7-34.4,2.7,1.8-3.1c-36.2,5.8-34.4,6-5.8-0.8
			c-28.6,6.8-28.9,7.5,1-2.3c-29.9,9.9-28,9.7-5.8,0.6c-22.2,9.1-22.4,9.5,0.4-1.1c-22.7,10.6-21,10-5.3,1.9
			C76,39.7,76,39.7,92,31.7c-16,7.9-14.6,7-4.6,2.8c-10,4.2-10.1,3.8,0.4,1.5c-10.5,2.3-9.4,1.4-3.6,2.9c-5.8-1.6-6.8-2.8,3.3,3.8
			c-10.1-6.6-9.9-7-0.5,1.3c-9.4-8.2-10.7-9.5,4.2,3.8c-14.9-13.3-14.8-13.3-0.3,0c-14.6-13.3-16.2-14.3,5,3.1
			C74.7,33.5,74.8,34,95.7,49.6C74.8,34,73,33.3,101.4,51.5c-28.4-18.1-28.2-17.3-0.7-2.6c-27.5-14.7-29.3-14.9,5.8,0.6
			C71.4,34,71.8,35.1,105,45.9c-33.1-10.8-34.9-10.5,5.6-0.7C70,35.4,70.8,36.5,108.2,41.5"/>
	</g>
	<g>
		<g>
			<path d="M27.4,51h-5.5l-5.3-12h-3.7l-2.1,12H5.9l5-28.2h8.3c6.2,0,9.7,2.7,9.7,7.3c0,4.5-2.9,7.3-7.4,8.3L27.4,51z M23.9,30.6
				c0-2.8-2.1-3.7-5.4-3.7h-3.5l-1.4,8h3.7C21.4,35,23.9,33.6,23.9,30.6z"/>
			<path d="M30.5,51l3.3-19.1h4.7L35.2,51H30.5z M37.3,28.3c-1.5,0-2.8-1-2.8-2.7c0-1.7,1.4-2.9,2.9-2.9c1.5,0,2.7,1.1,2.7,2.7
				C40.1,26.9,38.9,28.3,37.3,28.3z"/>
			<path d="M41,35.7l0.7-3.8H45l1-5.6h4.6l-1,5.6h4.3l-0.7,3.8H49l-1.7,9c-0.1,0.4-0.1,0.8-0.1,1.1c0,1.4,0.9,1.8,2.3,1.8
				c0.6,0,1.3-0.1,1.8-0.3L51,50.9c-0.8,0.3-2,0.5-2.9,0.5c-4,0-5.6-1.8-5.6-4.4c0-0.7,0.1-1.7,0.2-2.4l1.6-8.9H41z"/>
			<path d="M59.3,42.9c0,0.2,0,0.3,0,0.4c0,2.5,2.2,4.4,5,4.4c2.4,0,4.1-1,5.4-2.5l2.7,2.5c-2.3,2.5-5.2,3.8-8.6,3.8
				c-5.2,0-8.9-3.1-8.9-8.5c0-6.6,4.7-11.7,11.2-11.7c4.6,0,7.9,2.6,7.9,7.6c0,0.8-0.2,2.6-0.5,3.9H59.3z M69.7,38.6
				c0-2.1-1.5-3.7-4.2-3.7c-3.3,0-5.4,2.6-5.8,4.7h9.9C69.7,39.2,69.7,38.9,69.7,38.6z"/>
			<path d="M104.8,28.7c-1.1-1.7-2.9-2.5-4.9-2.5c-2,0-5.2,1.2-5.2,4.3c0,2,1.5,3,3.9,3.9c4.9,1.8,7.7,4.1,7.7,8.4
				c0,6.4-5.6,9-10.9,9c-3.7,0-7.7-1.4-9.7-4.6l4-2.7c1,1.9,3.4,3.2,6,3.2c2.6,0,5.5-1.2,5.5-4.5c0-2.6-2.3-3.8-5.1-4.8
				c-3.4-1.2-6.3-3-6.3-7.4c0-5.6,5.1-8.8,10.6-8.8c2.8,0,6.2,1.2,7.9,3.7L104.8,28.7z"/>
			<path d="M109.6,35.7l0.7-3.8h3.3l1-5.6h4.6l-1,5.6h4.3l-0.7,3.8h-4.2l-1.7,9c-0.1,0.4-0.1,0.8-0.1,1.1c0,1.4,0.9,1.8,2.3,1.8
				c0.6,0,1.3-0.1,1.8-0.3l-0.3,3.5c-0.8,0.3-2,0.5-2.9,0.5c-4,0-5.6-1.8-5.6-4.4c0-0.7,0.1-1.7,0.2-2.4l1.6-8.9H109.6z"/>
			<path d="M127.9,42.9c0,0.2,0,0.3,0,0.4c0,2.5,2.2,4.4,5,4.4c2.4,0,4.1-1,5.4-2.5l2.7,2.5c-2.3,2.5-5.2,3.8-8.6,3.8
				c-5.2,0-8.9-3.1-8.9-8.5c0-6.6,4.7-11.7,11.2-11.7c4.6,0,7.9,2.6,7.9,7.6c0,0.8-0.2,2.6-0.5,3.9H127.9z M138.3,38.6
				c0-2.1-1.5-3.7-4.2-3.7c-3.3,0-5.4,2.6-5.8,4.7h9.9C138.3,39.2,138.3,38.9,138.3,38.6z"/>
			<path d="M154.6,51h-5l-3.7-19.1h4.9l2.2,14h0.1l7.9-14h4.9L154.6,51z"/>
			<path d="M165.5,51l3.3-19.1h4.7L170.1,51H165.5z M172.2,28.3c-1.5,0-2.8-1-2.8-2.7c0-1.7,1.4-2.9,2.9-2.9c1.5,0,2.7,1.1,2.7,2.7
				C175.1,26.9,173.8,28.3,172.2,28.3z"/>
			<path d="M189.5,37.7c0-1.8-1.2-2.6-3.5-2.6c-1.9,0-4,0.8-5.5,1.9l-1.8-3.1c2.1-1.6,5.1-2.5,8-2.5c3.7,0,7.4,1.4,7.4,5.8
				c0,0.5-0.1,1.3-0.2,1.8l-1.4,7.8c-0.2,1.5-0.5,3.3-0.5,4.3h-4.3c0-0.7,0.1-1.5,0.2-2.3h-0.1c-1.5,1.8-3.5,2.7-6.2,2.7
				s-6-1.1-6-5.1c0-6.3,7.4-7.4,13.7-7.4C189.5,38.3,189.5,38,189.5,37.7z M188.4,42.3c-3.6,0-8.2,0.4-8.2,3.3
				c0,1.8,1.5,2.4,3.1,2.4c2.9,0,5-2,5.4-4.5l0.2-1.2H188.4z"/>
		</g>
		<g>
			<path class="st38" d="M27.4,51h-5.5l-5.3-12h-3.7l-2.1,12H5.9l5-28.2h8.3c6.2,0,9.7,2.7,9.7,7.3c0,4.5-2.9,7.3-7.4,8.3L27.4,51z
				 M23.9,30.6c0-2.8-2.1-3.7-5.4-3.7h-3.5l-1.4,8h3.7C21.4,35,23.9,33.6,23.9,30.6z"/>
			<path class="st38" d="M30.5,51l3.3-19.1h4.7L35.2,51H30.5z M37.3,28.3c-1.5,0-2.8-1-2.8-2.7c0-1.7,1.4-2.9,2.9-2.9
				c1.5,0,2.7,1.1,2.7,2.7C40.1,26.9,38.9,28.3,37.3,28.3z"/>
			<path class="st38" d="M41,35.7l0.7-3.8H45l1-5.6h4.6l-1,5.6h4.3l-0.7,3.8H49l-1.7,9c-0.1,0.4-0.1,0.8-0.1,1.1
				c0,1.4,0.9,1.8,2.3,1.8c0.6,0,1.3-0.1,1.8-0.3L51,50.9c-0.8,0.3-2,0.5-2.9,0.5c-4,0-5.6-1.8-5.6-4.4c0-0.7,0.1-1.7,0.2-2.4
				l1.6-8.9H41z"/>
			<path class="st38" d="M59.3,42.9c0,0.2,0,0.3,0,0.4c0,2.5,2.2,4.4,5,4.4c2.4,0,4.1-1,5.4-2.5l2.7,2.5c-2.3,2.5-5.2,3.8-8.6,3.8
				c-5.2,0-8.9-3.1-8.9-8.5c0-6.6,4.7-11.7,11.2-11.7c4.6,0,7.9,2.6,7.9,7.6c0,0.8-0.2,2.6-0.5,3.9H59.3z M69.7,38.6
				c0-2.1-1.5-3.7-4.2-3.7c-3.3,0-5.4,2.6-5.8,4.7h9.9C69.7,39.2,69.7,38.9,69.7,38.6z"/>
			<path class="st38" d="M104.8,28.7c-1.1-1.7-2.9-2.5-4.9-2.5c-2,0-5.2,1.2-5.2,4.3c0,2,1.5,3,3.9,3.9c4.9,1.8,7.7,4.1,7.7,8.4
				c0,6.4-5.6,9-10.9,9c-3.7,0-7.7-1.4-9.7-4.6l4-2.7c1,1.9,3.4,3.2,6,3.2c2.6,0,5.5-1.2,5.5-4.5c0-2.6-2.3-3.8-5.1-4.8
				c-3.4-1.2-6.3-3-6.3-7.4c0-5.6,5.1-8.8,10.6-8.8c2.8,0,6.2,1.2,7.9,3.7L104.8,28.7z"/>
			<path class="st38" d="M109.6,35.7l0.7-3.8h3.3l1-5.6h4.6l-1,5.6h4.3l-0.7,3.8h-4.2l-1.7,9c-0.1,0.4-0.1,0.8-0.1,1.1
				c0,1.4,0.9,1.8,2.3,1.8c0.6,0,1.3-0.1,1.8-0.3l-0.3,3.5c-0.8,0.3-2,0.5-2.9,0.5c-4,0-5.6-1.8-5.6-4.4c0-0.7,0.1-1.7,0.2-2.4
				l1.6-8.9H109.6z"/>
			<path class="st38" d="M127.9,42.9c0,0.2,0,0.3,0,0.4c0,2.5,2.2,4.4,5,4.4c2.4,0,4.1-1,5.4-2.5l2.7,2.5c-2.3,2.5-5.2,3.8-8.6,3.8
				c-5.2,0-8.9-3.1-8.9-8.5c0-6.6,4.7-11.7,11.2-11.7c4.6,0,7.9,2.6,7.9,7.6c0,0.8-0.2,2.6-0.5,3.9H127.9z M138.3,38.6
				c0-2.1-1.5-3.7-4.2-3.7c-3.3,0-5.4,2.6-5.8,4.7h9.9C138.3,39.2,138.3,38.9,138.3,38.6z"/>
			<path class="st38" d="M154.6,51h-5l-3.7-19.1h4.9l2.2,14h0.1l7.9-14h4.9L154.6,51z"/>
			<path class="st38" d="M165.5,51l3.3-19.1h4.7L170.1,51H165.5z M172.2,28.3c-1.5,0-2.8-1-2.8-2.7c0-1.7,1.4-2.9,2.9-2.9
				c1.5,0,2.7,1.1,2.7,2.7C175.1,26.9,173.8,28.3,172.2,28.3z"/>
			<path class="st38" d="M189.5,37.7c0-1.8-1.2-2.6-3.5-2.6c-1.9,0-4,0.8-5.5,1.9l-1.8-3.1c2.1-1.6,5.1-2.5,8-2.5
				c3.7,0,7.4,1.4,7.4,5.8c0,0.5-0.1,1.3-0.2,1.8l-1.4,7.8c-0.2,1.5-0.5,3.3-0.5,4.3h-4.3c0-0.7,0.1-1.5,0.2-2.3h-0.1
				c-1.5,1.8-3.5,2.7-6.2,2.7s-6-1.1-6-5.1c0-6.3,7.4-7.4,13.7-7.4C189.5,38.3,189.5,38,189.5,37.7z M188.4,42.3
				c-3.6,0-8.2,0.4-8.2,3.3c0,1.8,1.5,2.4,3.1,2.4c2.9,0,5-2,5.4-4.5l0.2-1.2H188.4z"/>
		</g>
	</g>
</g>
</svg>
