<?xml version="1.0" encoding="UTF-8"?>
<svg id="Layer_1" data-name="Layer 1" xmlns="http://www.w3.org/2000/svg" viewBox="0 0 200 200">
  <defs>
    <style>
      .cls-1 {
        fill: #fff;
      }

      .cls-2 {
        fill: #8bc540;
      }

      .cls-3 {
        fill: #86ac3f;
      }

      .cls-4 {
        fill: #9ec83e;
      }

      .cls-5 {
        fill: #b3b3b3;
      }

      .cls-6 {
        fill: #f2f2f2;
      }

      .cls-7 {
        fill: #124923;
      }
    </style>
  </defs>
  <path class="cls-5" d="M170.59,31.6C152.65,13.98,127.99,3.2,100.86,3.45,46.61,3.94,3.02,48.34,3.51,102.61c.25,27.14,11.46,51.61,29.4,69.23,17.94,17.62,42.6,28.4,69.73,28.16,54.26-.49,97.85-44.89,97.36-99.16-.25-27.14-11.46-51.61-29.4-69.23Z"/>
  <path class="cls-4" d="M97.36,0C43.1,.49-.49,44.89,0,99.17c.25,27.14,11.46,51.61,29.4,69.23L167.09,28.16C149.15,10.54,124.49-.24,97.36,0Z"/>
  <path class="cls-3" d="M167.09,28.16L29.41,168.4c17.94,17.62,42.6,28.4,69.73,28.16,54.26-.49,97.85-44.89,97.36-99.16-.25-27.14-11.46-51.61-29.4-69.23Z"/>
  <g>
    <path class="cls-7" d="M95.29,140.99c-.72-7.17-4.07-13.17-8.51-16.31-.57-4.09-2.02-7.73-4-10.65l-25.55,26.02c.06,6,4.31,12.7,11.41,16.92,5.52,3.28,11.54,4.32,16.44,3.31l19.86,36.11c1.66-.11,3.3-.26,4.94-.46l-20.2-36.73c4.05-3.89,6.38-10.71,5.62-18.22Zm65.56-71.15c-3.6,29.75-22.07,93.73-32.22,121.99,1.48-.48,2.95-1,4.4-1.55,15.15-31.4,27.71-74.52,35-89.86l20.64,9.64s-13.53-26.19-27.82-40.23Zm-22.81,60.51c3.38-8.15,3.25-16.58,.29-22.54,2.5-6.77,2.63-13.62,.75-19.02,1.89-6.84,1.4-13.55-1.08-18.53,1.82-4.93,2.37-9.9,1.82-14.32l-43.93,44.74c.41,2.01,1.03,4.05,1.89,6.07-.59,1.04-1.07,2.18-1.44,3.38-.65-2.66-1.29-5.31-1.93-7.95l-3.33,3.4c6.3,29.97,13.88,66.71,23.3,89.71,.64-.1,1.27-.21,1.9-.33,.55-.1,1.09-.21,1.63-.32,1.32-.27,2.63-.56,3.93-.88l-.42-47.03c6.63-1.84,13.1-7.85,16.64-16.39Zm-21.83,57.89c-3.58-13.6-8.45-32.31-13.47-52.26,3.76,4.64,8.42,7.85,13.08,9.24l.39,43.02Z"/>
    <path class="cls-7" d="M71.91,97.15c-1.02-6.16-4-11.29-7.86-14.22-1.31-8.08-5.97-14.43-11.61-16.37-1.28,.76-2.45,1.78-3.47,3-4.33-5.71-10.36-8.94-15.73-8.56-3.19,4.33-3.69,11.15-1.19,17.87-1.58,.21-3.07,.65-4.39,1.33-1.38,5.8,1.48,13.14,7.6,18.57,.42,5.01,3.36,10.47,8.32,14.7,.2,4.04,2.08,8.43,5.37,12.24,.38,4.83,3.36,10,8.27,13.92,0,.14,0,.29,0,.43l25.55-26.02c-.85-1.24-1.79-2.37-2.82-3.31-1.21-5.3-3.88-9.7-7.28-12.39l6.54-39.37c3.41,6.85,7.29,24.98,11.84,46.63l3.33-3.4c-6.59-27.39-12.31-53.13-14.32-67.55-5.86,5.97-7.67,46.19-8.17,62.5ZM135.03,25.18c-1.82,.07-3.67,.5-5.49,1.22-1.36-8.68-5.99-15.66-11.99-18.37-5.96,2.82-10.45,9.88-11.66,18.58-1.83-.69-3.68-1.08-5.51-1.12-4.86,5.46-6.03,15.03-2.58,24.45-2.45,5.65-2.46,13.25,.44,20.69-2.13,4.48-2.65,10.3-1.32,16.32-1.71,3.88-2.08,8.72-1.06,13.75l43.93-44.74c-.29-2.3-.87-4.46-1.75-6.38,3.28-9.48,1.93-19.03-3.02-24.4Z"/>
  </g>
  <g>
    <path class="cls-1" d="M1.52,81.11c-2.12,11.98-2.01,24.27,.33,36.21l78.4-.71,35.88-36.54L1.52,81.11Z"/>
    <path class="cls-6" d="M116.12,80.08l-35.88,36.54,114.73-1.04c2.12-11.98,2.01-24.27-.33-36.21l-78.53,.71Z"/>
  </g>
  <g>
    <path class="cls-2" d="M36.41,100.51l2.45-.02,.03,3.32c-.28,.14-.94,.24-1.77,.25-2.95,.03-5.02-1.89-5.05-5.17-.03-3.44,2.22-5.16,5.21-5.19,1.74-.02,2.83,.28,3.71,.65l.73-2.89c-.78-.37-2.37-.76-4.42-.74-5.21,.05-9.03,3.1-9,8.39,0,2.33,.82,4.4,2.29,5.76,1.47,1.4,3.58,2.12,6.48,2.09,2.1-.02,4.19-.56,5.3-.94l-.08-8.37-5.92,.05,.03,2.81Zm12.24-9.71l-3.61,.03,.14,15.9,9.93-.09-.03-3.02-6.32,.06-.12-12.88Zm17.18,9c.03,2.81-1,4.14-2.89,4.16-1.84,.02-2.89-1.37-2.91-4.1l-.08-9.15-3.61,.03,.08,8.87c.05,5.07,2.42,7.27,6.43,7.23,4.15-.04,6.6-2.4,6.56-7.3l-.08-8.92-3.58,.03,.08,9.15Zm5.44-6.18l4.27-.04,.12,12.88,3.61-.03-.12-12.88,4.34-.04-.03-3.02-12.21,.11,.03,3.02Zm14.24,12.75l4.85-.04,2.92-2.97-4.19,.04-.03-3.78,5.85-.05-.03-2.92-5.85,.05-.03-3.3,6.2-.06-.03-2.95-9.81,.09,.14,15.9Zm16.64-16.05l-4.2,.04,.07,8.15,3.16-3.22c-.01-.26-.02-.53-.04-.79l.07-.02c.07,.17,.16,.35,.24,.53l2.14-2.18-1.45-2.51Z"/>
    <path class="cls-3" d="M90.35,106.32l5.29-.05-.03-2.95-2.35,.02-2.92,2.97Zm7.67-7.82l.07,7.75,3.3-.03-.04-4.79c-.02-2.28-.08-4.27-.17-6.15l-3.16,3.22Zm9.83-3.62c.02,2.41,.11,4.55,.37,6.65h-.07c-.72-1.79-1.69-3.76-2.64-5.43l-1.9-3.29-2.14,2.18c.76,1.71,1.7,3.53,2.57,5.06l3.45,6.1,3.77-.03-.14-15.9-3.3,.03,.04,4.62Zm11.28,11.17l3.61-.03-.06-6.39,5.71-.05-.03-2.92-5.71,.05-.03-3.63,6.11-.06-.03-2.95-9.72,.09,.14,15.9Zm20.94-7.64v-.07c1.36-.51,2.79-1.91,2.77-3.94-.01-1.46-.54-2.57-1.49-3.31-1.14-.89-2.79-1.23-5.15-1.21-1.91,.02-3.63,.17-4.78,.38l.14,15.69,3.56-.03-.06-6.25h1.09c1.46,0,2.15,.54,2.59,2.51,.49,1.95,.88,3.22,1.14,3.69l3.68-.03c-.31-.61-.83-2.68-1.34-4.47-.41-1.46-1.04-2.51-2.15-2.95Zm-3.62-1.36h-1.42s-.04-4.37-.04-4.37c.26-.05,.75-.13,1.63-.13,1.65,0,2.65,.73,2.66,2.19s-1.04,2.3-2.83,2.31Zm12.63,2.01l5.85-.05-.03-2.92-5.85,.05-.03-3.3,6.2-.06-.03-2.95-9.81,.09,.14,15.9,10.14-.09-.03-2.95-6.53,.06-.03-3.78Zm12.63,3.66l-.03-3.78,5.85-.05-.03-2.92-5.85,.05-.03-3.3,6.2-.06-.03-2.95-9.81,.09,.14,15.9,10.14-.09-.03-2.95-6.53,.06Z"/>
  </g>
</svg>