<?xml version="1.0" encoding="UTF-8"?>
<svg id="Layer_1" data-name="Layer 1" xmlns="http://www.w3.org/2000/svg" viewBox="0 0 200 200">
  <defs>
    <style>
      .cls-1 {
        fill: #fff;
      }

      .cls-2 {
        fill: #9ec83e;
      }

      .cls-3 {
        fill: #b3b3b3;
      }

      .cls-4 {
        fill: #f2f2f2;
      }

      .cls-5 {
        fill: #124923;
      }
    </style>
  </defs>
  <polygon class="cls-3" points="163.43 29.96 150.04 3.95 51.8 4.89 3.51 102.91 40.08 173.99 53.46 200 151.71 199.06 200 101.03 163.43 29.96"/>
  <g>
    <polygon class="cls-2" points="146.54 0 48.29 .94 0 98.97 36.57 170.04 159.92 26.01 146.54 0"/>
    <polygon class="cls-5" points="159.92 26.01 36.57 170.04 49.96 196.05 148.2 195.11 196.49 97.09 159.92 26.01"/>
  </g>
  <g>
    <polygon class="cls-4" points="149.37 38.33 180.21 97.24 139.95 177.54 57.91 178.32 47.12 157.72 43.09 162.42 54.77 184.74 143.19 183.89 186.67 97.18 153.4 33.63 149.37 38.33"/>
    <polygon class="cls-1" points="16.28 98.81 56.54 18.51 138.59 17.73 149.37 38.33 153.4 33.63 141.72 11.31 53.3 12.16 9.82 98.87 43.09 162.42 47.12 157.72 16.28 98.81"/>
  </g>
  <g>
    <path class="cls-1" d="M69.08,86.69c3.6-.03,7.19-1.09,9.08-1.85l-.14-16.46-10.15,.1,.05,5.52,4.21-.04,.06,6.54c-.48,.28-1.61,.48-3.03,.49-5.05,.05-8.6-3.72-8.66-10.16-.06-6.77,3.8-10.14,8.93-10.19,2.99-.03,4.86,.56,6.36,1.28l1.25-5.67c-1.34-.73-4.06-1.49-7.57-1.46-8.93,.09-15.47,6.08-15.43,16.47,0,4.59,1.41,8.66,3.94,11.32,2.53,2.76,6.14,4.16,11.11,4.11Zm33.57-31.89l-2.82,10.41c-.86,3.48-1.75,7.62-2.49,11.24h-.12c-.64-3.65-1.52-7.59-2.4-11.15l-2.76-10.41-8.21,.08-1.47,31.26,5.7-.05,.38-11.87c.17-3.9,.25-8.72,.37-12.94h.08c.68,4.07,1.65,8.51,2.57,12.22l3.01,12.02,4.81-.05,3.21-12.23c1.02-3.67,2.11-8.13,2.93-12.13h.12c.04,4.54,.2,9.08,.35,12.84l.51,11.96,2.12-.02,3.67-4.28-1.52-26.99-8.05,.08Zm26.27-.76c-8.05,.08-13.2,7.13-13.12,16.49,.02,2.14,.31,4.16,.86,6l5.66-6.61c.06-5.87,2.42-10.23,6.49-10.27,.71,0,1.37,.13,1.98,.38l3.97-4.63c-1.68-.88-3.62-1.38-5.83-1.36ZM57.04,142.11l3.48-.03,2.68-3.13-.08-9.46,9.78-.09-.05-5.75-9.78,.09-.06-7.14,10.47-.1-.05-5.8-16.66,.16,.27,31.24Zm21.04-31.03l.09,10.39,9.5-11.09c-.45-.02-.91-.02-1.39-.02-3.28,.03-6.22,.34-8.2,.73Z"/>
    <path class="cls-2" d="M112.22,81.71l-3.67,4.28,3.91-.04-.24-4.24Zm29.78-11.99c-.05-6.34-2.58-11.87-7.24-14.33l-3.97,4.63c3,1.23,4.66,5.32,4.7,9.99,.05,6.07-2.29,10.64-6.46,10.68-4.12,.04-6.67-4.25-6.72-10.37,0-.14,0-.27,0-.4l-5.66,6.61c1.72,5.83,5.95,9.84,12.09,9.78,7.97-.08,13.33-6.34,13.24-16.59ZM63.23,142.05l-.03-3.11-2.68,3.13,2.71-.03Zm29.71-14.93v-.14c2.34-1,4.78-3.76,4.74-7.74-.02-2.87-.93-5.05-2.56-6.51-1.72-1.53-4.13-2.23-7.45-2.35l-9.5,11.09,.17,20.44,6.11-.06-.1-12.28,1.86-.02c2.51,.02,3.69,1.08,4.45,4.96,.84,3.84,1.51,6.34,1.96,7.26l6.31-.06c-.54-1.2-1.42-5.27-2.3-8.79-.71-2.87-1.78-4.94-3.69-5.81Zm-6.21-2.68l-2.43,.02-.07-8.62c.44-.1,1.29-.25,2.79-.26,2.83,.02,4.54,1.44,4.57,4.32,.02,2.73-1.78,4.51-4.85,4.54Zm21.66,3.96l10.03-.1-.05-5.75-10.03,.1-.06-6.49,10.63-.1-.05-5.8-16.82,.16,.27,31.24,17.39-.17-.05-5.8-11.2,.11-.06-7.42Zm21.59-.21l10.03-.1-.05-5.75-10.03,.1-.06-6.49,10.63-.1-.05-5.8-16.82,.16,.27,31.24,17.39-.17-.05-5.8-11.2,.11-.06-7.42Z"/>
  </g>
</svg>