<?xml version="1.0" encoding="UTF-8"?>
<svg id="Layer_1" data-name="Layer 1" xmlns="http://www.w3.org/2000/svg" viewBox="0 0 200 200">
  <defs>
    <style>
      .cls-1 {
        fill: #46a447;
      }

      .cls-1, .cls-2, .cls-3, .cls-4, .cls-5, .cls-6, .cls-7, .cls-8, .cls-9, .cls-10, .cls-11, .cls-12, .cls-13, .cls-14, .cls-15 {
        fill-rule: evenodd;
      }

      .cls-2 {
        fill: #47a547;
      }

      .cls-3 {
        fill: #4aa747;
      }

      .cls-4 {
        fill: #42a448;
      }

      .cls-5 {
        fill: #55a947;
      }

      .cls-6 {
        fill: #7ac04d;
      }

      .cls-7 {
        fill: #439a45;
      }

      .cls-8 {
        fill: #4aa547;
      }

      .cls-9 {
        fill: #52a446;
      }

      .cls-10 {
        fill: #449f46;
      }

      .cls-11 {
        fill: #41a247;
      }

      .cls-12 {
        fill: #b6d44b;
      }

      .cls-13 {
        fill: #449d46;
      }

      .cls-16 {
        fill: #1f6440;
      }

      .cls-14 {
        fill: #46a247;
      }

      .cls-15 {
        fill: #41a147;
      }
    </style>
  </defs>
  <path class="cls-14" d="M76.75,17.63c-.16,.95,.22,.61-.59,1.08-.79,7.07,1.16,4.43-1.37,6.77-3.83,3.55-2.13,1.35-6.23,1.6,.05,3.28,.02,7.51-2.76,8.75-.15-2.56-.34-4.89,.55-7.03-2.67-.13-2.58,.9-5.2,4.13-2.9-1.39-.98-1.21-3.36-2.68l-2.81,3.21c-1.49,1.98-.21,1.61-1.51,3.41-4.09-1.42-2.66-2.88-4.39-6.34l-2.7,4.36c.07,.12,.27,.22,.34,.28l.97,.87c.15,.19,.35-.1,.58,1.04,.22,1.09-.47,1.82-.85,2.69,2.03,1.42,1.14,.04,2.1,2.23l-1.77,2.47c-3.25-1.09-2.35-.86-4.87-3.02l-2.82-3.25-2.34,5.39c-1.58-1.79,.12-1.31-1.76-3.01-.47,.38-.91-.03-.72,2.4,0,.07,.36,1.12,.39,2.11-2.83-.69,1-.9-2.4-2.12-.35,3.73-1.3,3.15-.11,5.49l.47,.72c-1.51,.84-.78,.74-2.22,.94-.38-3.57-1.35-6.98-.52-9.61-.95-.5-.64-.27-2.09-.53l-.55,.9c-.14,.25-.26,.34-.56,1.04-.43,1.01-.4,1.52-.72,2.65l-1.25-1.51s-.31,.05-.35-.07c-.04-.13-.25-.07-.37-.04-1.29,2.59,.15,4.81-.75,6.99-1.5,3.64-2.49-.52-1.81,4.76-1.22-.49-2.87-.82-4.49-1.16-1.02,1.02-1.02,1.41-1.88,2.31-1.49,1.56-6.7,2.95-2.51,7.26l-4.13,.43c1.88,3.53,1.55,7.87-.56,11.23l-1.4-2.67-4.22,.5c-.3,3.79,3.85,4.41,4.03,7.31,1.44-.91,.61,1.21,1.21-1.27l2.55,2.83c-.85,.76-.09,.14-1.17,.9l-2.97,10.83c-.35,.75,2.63,10.55-.56,19.99l-.73-1.39-2.32,.66c-.22,1.51-.43,4.52-.19,6.25,.29,2.13,1.87,2.72,2.55,4.49-1.55,.46-2.24-.04-3.41,.46,1.03,1.73,1.19,1.15,2.06,3.19,1.4-1.37,.04-1.61,2.48-2.29l.06,1.02c0,.71-.36,0-.04,.64,3.34-.02,3.64-.34,6.72,.22-.8,.54-1.68,1.27-2.1,1.55-1.72,1.16-.61-1.08-1.33,1.07,1.94,.76,3.01-1.54,2.55,1.47-.51,3.3,.1-.07-2.54,1.26,.5,1.42,1.09,.97,2.4,2.16l-1.66,3.29c-2.33,.32,.53-1.62-1.82,.01,.1,4.89,1.19,2.95,3.37,6.24l.48,.63c.37,.57,.65,1.04,.07,2.06l-.95-.31c-.08-.02-.79-.72-2.75,.1,.59,1.02,.55,.57,1.29,1.29,1.65,1.58,.88,2.31,3.99,2.36-1.48-2.8-.96,.99-1.37-2.45,1.89-.41,1.57-.48,3.46-.89-.72,1.7-.59,5.09-.67,7.5,2.02,1.02,.54-.02,2.02,1.75,1.23,1.47-1.43-1.94,.53,.65,1.91,2.53,.55,4.84,5.65,5.56,1.04-2.53-2.06-4.63,2.98-5.38,.85,2.88-1.72,4.14,.12,5.74,1.84,1.6,1.34,.25,1.39,.23,.07-.1,.09-.28,.09-.34l-.22-1.4s-.45,0-.89-1.7c1.69,.62,2.47,1.92,3.73,3.27-1.18,1.27-1.94,1.69-2.43,3.2,3.05,.91,3.67,.32,5.23-1.58,2.01,.88,1.56,1.67,3.56,1.32,2.19-.38,.22-1.11,3.14-1.17-.24,3.09-2.87,0-1.02,3.79,3.41-.96,1.34-1.77,3.09-4.03,1.05,.68,1.27,2.58,1.62,1.84,.04-.09,.17,.25,.28,.35,.93-1.1,.98-1.44,2.85-1.97,.47,3.86-.08,1.83-1.63,4.15,1.51,.51,4.15-.19,5.57,.5-.7,2.04-.64,.91-1.96,2.85l-3.37-1.02c.15,.31,1.29,2.06,1.48,2.24,1.69,1.54,.14,1.03,3.38,.87-.27,1.46-.24,2.53,.69,3.53l3.51-1.02c2.84-.83,1.55-1.19,3.44-2.19,1.49,3.52,.07,1.15,2.8,2.55,2.75,1.41,.08-.3,.63,1.88,.35,1.4-1.07-.09,.49,.61,1.36,.61,.76-.46,2.4,.32,1.94,.93,.08,1.25,1.51,2.54,2.3-1.9,5.53,.52,8.69-.09,1.48-3.83-.44-2.27,.11-5.32,4.75-.97,2.69,1.18,2.4,3.36l2.68,1.01c-5.67,1.97-.03,5.34,1.31,8.38-.09,.14-.26,.28-.33,.37-.07,.09-.23,.26-.32,.37-.86,1.14-.79,.33-1.14,2.02,2.18-.32,2.27-.85,3.33-2.06-.45-2.59-1.6-1.94-2.5-5.13,2.09,.63,1.87,.7,2.89,2.17,2.5-.29,3.34-1.62,4.29,.17,1.31,2.49-1.51,.32-.66,3.43,1.45,.64,2.03,.45,3.42-.41l.76-.54c1.68,3.37,1.33,7.62,5.53,9.68l1.98-3.2c4.38,.3,4.7,4.8,7.28,1.52l1.27-3.06c.14-2.17-.24-2.19-2.95-2.64-1.8,1.75-.91,1.6-1.22,3.08-1.66,.05-1.88-.08-2.86-.67,.64-2.29,2.99-.9,.87-3.1l3.36-.84c-.76-1.83-.9-1.18-.65-3.36,3.37,1.04,2.66,2.17,5.56,.81-.15,1.57-.47,1.53-.55,1.85-.41,1.71-.87-.21-.13,1.26,2.17,.05,3.54-.38,5.19-.65,2.1-.34,2.77-.03,3.76-1.67l-6.21-1.8c.71-1.62,.1-1.11,2.21-1.77,2.62,1.15,.29-.09,1.27,1.65,4.63,.1,5.3,.37,7.43-2.59,1.52,.43,1.92,.8,3.84,.83-.17-2.24-2.13-2.73,1.23-3.23-1.3,2.57-.16,2.89,1.93,4.86,5.23-1.91,3.22-3.1,6.51-5.4-1.52-1.34-.61-.05-1.77-1.93l-1.71-2.63-1.15,.89c-.13,.1-.49,.42-.6,.51-.66,.52-.3,.43-.89,.61-.19-1.79,1.26-2,3.24-4.44,4.4-.55,3.5,1,6.3-.12,.61-.24,.39-1.1,2.28-.72,2.3,.46-.3-.21,1.08,.55,5.09,2.8-4.69-.77,1.23,.75,1.73-2.6,1.06-.5,3.13-2.1,2.34-1.8-1.17-.6,2.57-2.18,3.87-1.63,5.56,.78,6.4,1.85,3.29-.84,3.88-1.21,4.74-3.18,.6-1.39,3.38-2.43,2.27-3.93-.76-.14-1.54,.88-1.87,1.12-.12-.11-.23-.28-.29-.36-.63-.79-1.98-2.07-1.87-3.12l3.06-.59c1.7-.75,.31,.13,1.55-1.48,2.82,1.62,2.43,1.3,6.07,.17l.13-4.56c1.46,.37,4.83,.89,6.93,.11,1.37,1.33,.01,1.59,2.53,2.22l1.23-1.71c.14-.84-.08-.82-1.02-1.57,3.03-.33,3.09-.36,5.64,.57-.76-2.53,.93-.72-1.45-1.97-1.46-.78-3.29,.2-5.97-.39,1.18-1.37,2.06-1.41,3.7-1.52,1.78-.12,3.49-.23,5.34-.31l.79-2.37c3.47,.07,1.9,1.27,5.08-.66-.16-.96-.18-.49-1.48-1.8,3.61-.41,5.73-3.28,4.94-5.5-1.81-.28-.4,.19-2.09,.31l-1.09-.09c.63-2.87,1.86-.7,2.15-2.59-1.68-.71-5.65,.56-4.34-4.49l1.96-4.18c-3.62-1.89-.82-.86-2.67-4.2,.69-.24,2.63-.3,2.9-.96,.08-.2,.33-.15,.46-.26-1.73-1.15-2.82-1.08-5.72-1.37,1.7-2.27,2.58-1.11,5.7-1.26-2.12-2.19,2.2,1.85-1.37-.82-1.12-.84-.61,.26-1.35-1.33l.85-.5c.11-.07,.28-.18,.4-.25,1.5-.95,1.79-1.41,3.41-1.7,.72-.94-.89-.57,1.84-1.28l-.87-.5c-2.79-1.66-.86,.21-1.31-.89,2.59-.18,1.78,.25,3.3-.94-1.03-1.25,.06-.57-2.03-1.22-3.82-1.19-2.45-2.77-4.62-4.96-.86-.87-2.86-2.1-2.48-5.91,.08-.84,.37-1.63,.4-2.9-1.78,.53-1.7,.85-2.54,1.07l-2.25-.17c1.37-2.6,2.68-1.38,5.61-3.06l.75-.44c.16-.12,3.53-2.26-.49-3.61,1.73-1.35,3.54-4.8,3.2-6.07l-2.53-.24c-1.43-.28-.9-.12-1.79-.82,.85-1.66-.61-.51,2.64-1.4l.1-3.83c3.05,.48,3.32,1.4,3.1-1.27-1.86-.03-2.58,.53-3.75,1.1l-1.24-2.35,5.18-.5,.37-2.63c-1.09,.48-2.76,3.48-9.12,.92l3.05-.86c.65-3.01-2.42-2.75,2.55-3.68,1.79-.34,3.47-.63,4.96-3.03-3.98-1.74-3.53,.35-6.32-3.26-1.71-2.22-1.45-3.47-3.26-5.89-1.5,.58-.01-.33-1.07,.68l-1.24,2.13c-1.65-.58-1.03-.51-2.28-.88-1.47-.44-3.02-.25-4.4-3.09,2.96,.7,3.11,1.96,6.14,1.4,.25-1.8-1.24-2.58-.83-6.39-1.76-.09-3.41,.18-3.97-.79-.8-1.39-.49-.31,1.77-1.25-.73-1.33-1.44-2.13-1.56-4.56-3.65,2.05-2.47,.56-4.55,2.79-.05,.05-.15,.18-.2,.23l-2.18,1.8c-1.5,1.76,1.3,.01-1.38,1.84-1.54-.68-1.62-1.41-2.75-2.91-.26-.35-.92-1.29-.99-1.38,0,0-.52-.72-.6-.86-.63-1.1-.7,1.02-.42-1.4,.29-2.5,2.53-.89,2.15-4.72-3-1.12-3.61-.28-5.62,.35-1.45-2.04,1.99-2.27-4.63-2.43,.1,2.77,.58,1.11,.9,4l-4.8-3.58c.99-2.16,.46,.13,1.72-2.2-4.28-2.21,1.26-.14-3.4-4.62-2.21-2.13,.77-.56-1.19-2.64-1.85,1.07-.77,.26-1.48,2.88-1.13-1.14-.45-.91-1.99-1.16-.55,1.95,.35,3.01,.35,2.98,0-.06,.07,.18,.04,.27-2.9-.58-1.85-1.78-1.86-4.83-.64-.09-.59,.03-1.37-.21-1.22-.37-.64-.22-1.36-.7,2.41-.42,1.95-.15,2.81-2.19,.54,.6-.01-.2,.8,1.01,.06,.09,.23,.52,.29,.7,4.14-4.15-.64,1.41,3.56-1.1-.3-2.94-.46-.9-1.98-2.24-1.57-1.38,.97,.31-1.13-1.93-2.94,.7-3.63-1.88-4.78,5.65-2.16-.31-1.65-.66-3.52-1.1-2.52-.59-1.18,.21-3.61-.16,1.36-2.21,2.4-.21,3.42-2.39l-3.39-.48c1.34-2.13,1.3-.27,.66-2.13-1.59-.39-.92,.32-2.46-.48-2.02-1.05,2.22-1.15-2.72-1.26-.95,2.55,.74,1.4-.37,3.85-2.09-.69-.15,.45-.91-.89l-.3-.97c-.02-.16,0-.25-.07-.35-3.21-.7-3.84-.28-5.53-.96-.3-1.39-.38-.66-.1-2.01,.35-1.68,.5-.64,1.19-2.51,.07-.18,.36-1.67,.37-1.75-1.47-1.19-.04-1.55,.09-4.18-3.34,.46,.2,.07-2.62,.67l-1.43-3.33c-2.91,1.03-1.11,.7-3.25,2.82,.37,1.06,.19,.46,.61,1.1,.06,.1,.21,.28,.27,.36l.59,.74c-1.44,1.49-1.59,2.16-2.6,3.18-5.72-.69-2.77-.92-3.38-4.14-2.92-.06-2.61,.1-5,.66-1.84-1.35-1.54-1.91-4.05-2.27l-.85,3.01c-.78-1.53-1.59-2.38-2.4-3.79-1.11-1.94-.68-2.6-1.55-4.17-2.73,1.04-.06,1.77-2.86,2.98l-.5-4.67-1.77-1.58c-.27,3.96,1.47,4.78,.53,7.99-4.83-2.95-1.04-4.07-2.94-7.01-1.92,2.27,1.52,10.64-4.54,12.95-.97-2-1.6-3.9-1.83-6.69l-1.78-.53-.61-3.9c-2.36,2.72-1.34,11.39-1.7,14.45l-1.24,4.38c-3.09-1.03-.67,0-1.7-1.47-3.53-5.04-1.39-5.19-3.76-5.85"/>
  <path class="cls-14" d="M113.71,15.02c-.08,2.04,.08,1.87-.85,3.02l-1.3-2.41,2.15-.61Z"/>
  <path class="cls-14" d="M110.65,17.65c-.3,1.12-.05,.59-.94,1.4-.09,.08-.24,.2-.33,.28-.1,.08-.27,.2-.36,.27l-1.21,.74,.67-3.04,2.17,.35Z"/>
  <path class="cls-14" d="M112.87,26.3c-1.14-3.79-.89-1.44,3.13-7.79l2.59,1.4c-.43,.99-.36,1.33-1.98,2.35l-2.71,2.51c-.75,1.5-.3,.71-1.02,1.53"/>
  <path class="cls-14" d="M100.22,24.48c-.5-.31-1.02,1.34-.72-1.87l3.49,.36-1.34,3.24c-1.41-2.84-.03-.87-1.43-1.73"/>
  <path class="cls-14" d="M118.78,25.05l.42-.8c1.52,1.29,1.35,.73,.02,1.85-.59-.58-.33,.07-.43-1.05"/>
  <path class="cls-14" d="M61.62,33.04c.12,2.39,.18,3.32-1.85,4.76-2.33-.99-.76,.17-2.35-1.9,.57-.35,0-.61,2.28-.06l1.92-2.81Z"/>
  <path class="cls-14" d="M161.97,48.45l-3.95-.56c-.35-.58-.22-.72-.7-1.39-1.62-2.23-2.48-.66-1.55-3.25,1.98,.68,5.99,3.53,6.21,5.21"/>
  <polygon class="cls-14" points="170.01 53.05 168.23 55.9 167.13 53 170.01 53.05"/>
  <path class="cls-12" d="M23.48,107.91l-4.42-.35,4.25-8.91-.33-32.45c.41-1.45,31.37-16.85,35.13-18.71,6.03-3.09,38.99-22.64,44.08-20.09,21.58,10.8,45.43,21.85,66.28,32.61,.08-.1,.17-.28,.21-.34l1.47,.82c.52,.98,4.51,2.51,6.9,3.94l.3,29.47c.96,.81,.11,.27,1.27,.92,.25,.14,.91,.3,1.2,.4-3.62,.03-1.29-.01-2.46,.87l.1,9.28,2.38,1.07c-3.24,.61-1.14,.1-2.34,1.11l.26,34.1c-6.08,3.82-76.23,38.97-76.45,38.98-2.12,.07-68.75-33.64-77.54-37.53l-.29-35.19Z"/>
  <path class="cls-14" d="M185.88,63.27c2.1-.69,2.34-.32,3.22,1.06-.97,.51-.24,1.18-2.13,.4-1.26-.52-.88-1.05-1.09-1.45"/>
  <path class="cls-14" d="M186.08,126.09c-1.59-1.54,.37-.93-.99-3.34l2.63,.45-1.63,2.89Z"/>
  <path class="cls-14" d="M187.01,127.31c-.01-.17,.11-.24,.17-.36,1.54-.05,1.28-.19,1.72,1.59-1.66,.02-1.79,.25-1.89-1.23"/>
  <path class="cls-14" d="M52.08,164.47c-.02,1.19,.88,.68-.59,1.33-1.96,.87-1.62-.41-1.7-.46,1.08-.45-1.28-.69,2.29-.86"/>
  <path class="cls-11" d="M11.43,155.13c-.99-2.49,.77-2.18-1.92-3.46-.67,1.44-.48,3.39,.34,4.44,1.26,1.61,.41,.07,4.22,2.57-.01-1.12-.24-1.65,.29-2.57l1.24-1.11c.08-.07,.25-.2,.36-.32-3.91-2.07-.58-1.66-3.33-3.82-1.18,1.78,.12,2.76-1.21,4.26"/>
  <path class="cls-8" d="M110.95,194.98c1.67,1.06,1.16,.98,1.93,2.49l.58,.87c3.47-1.12,3.56-2.8,2.92-5.57l-2.36-.93-3.07,3.13Z"/>
  <path class="cls-14" d="M113.71,11.79c2.1-.16,.84-.29,2.84-1.18l2.12,1.39,.85-2.21c-1.19-.71-1.11-.45-1.8-.57,.48-2.44,3.88-4.17,0-5.35-.66,2.36,.5,2.45-1.92,4.21-2.18,1.59-2.31,.84-2.09,3.7"/>
  <path class="cls-14" d="M105.89,10.64c.66-.6,1.32-1.48,1.52-1.61,.12-.07,.29-.13,.42-.2l1.43-.46c.11-.04,.32-.1,.47-.18l.06-2.5c-1.84,.75-1.83,1.07-2.85,1.11-2.38-2.48,.72-2.18-2.37-3.62-.18,.29-1.34,.41-.32,3.74l.82,2.42c.48,1.08,.27,.65,.83,1.3"/>
  <polygon class="cls-6" points="23.48 107.91 23.31 98.65 19.06 107.56 23.48 107.91"/>
  <path class="cls-14" d="M28.25,37.23v-.1c2.68,.01,4.49-.89,6.29-2.05,1.4,.21,.6,.12,1.36,.39,4.17,1.43-1.86-.36,1.1,.46,.57-.89,.72-1.33,.76-2.79l-1.12,.84c-.09,.07-.45,.39-.59,.52-1.14-2.47-.17-1.6-5.15,.01-2,.65-2.53,.57-2.65,2.72"/>
  <path class="cls-7" d="M2.45,103.68l-1.35,1.28c1.36,1.35,1.27,.74,2.38,1.73,1.41,1.27,.57,1.14,2.35,2.26,.08-1.32,.08-2.57,.1-3.9,0-.21,.06-1.53,.04-1.62-.19-1.37,.14-.75-.72-1.38l-.91,2.05-1.89-.42Z"/>
  <path class="cls-11" d="M161.9,30.29c1.32-.62,.38,.41,1.32-1.16,0,0,.51-1.65,.53-1.75,.28-1.64,.21-2.03-.22-3.56-1.75,.64-2.69,2.94-2.6,4.73,.16,3.28,0,.74,.97,1.75"/>
  <path class="cls-4" d="M69.47,15.92l.1,.15c-3.22-.33-4.52,.47-5.08,3.01,2.43-.52,3.03-.65,5.34-1.63l-.36-1.53Z"/>
  <path class="cls-11" d="M47.23,179.6c2.44-.43,2.83-.37,2.43-3.29l-3.48,.03,1.05,3.26Z"/>
  <path class="cls-11" d="M154.99,29.21c.56-1.35,1.18-.11,1.21-2.83,.02-1.51,.02-1.58-.64-2.61-2.85,1.04-1.22,4.69-.57,5.44"/>
  <path class="cls-14" d="M197.03,84.12c-.06-.02-1.25,.04-.15-.2-.09-1.05,1.67-2.58-1.75-1.64-.76,.21-1.23-1.34-.98,1.64,.13,1.63,1.95,2.42,2.88,.2"/>
  <path class="cls-2" d="M58.97,25.18c.26,2.42-.61,.83,.66,2.06,.98,.95,.97-.3,.99-.32,1.26-1.34-.73-.62,2.24-1.48l-.78-1.97-3.11,1.7Z"/>
  <path class="cls-11" d="M110.21,4.44c.95-.57,.36,.19,1.02-.82l1.31-3.62c-2.94,.46-3.79,1.52-2.33,4.44"/>
  <path class="cls-11" d="M44.07,35.79c-1.01,2.35-.88,3.5,1.26,4.44,.47-2.46,.96-3.03-1.26-4.44"/>
  <path class="cls-8" d="M192.15,57.78c-1.97,.63-1.85,.15-2.86,.55,.77,1.4,.45,.52,1.48,1.86,1.31,1.69-.49,.51,1.55,1.62v-1.87c-.12-.84-.16-1.29-.17-2.16"/>
  <path class="cls-1" d="M192.15,57.78c2.01,1.67,.07,1.19,2.52,1.44,.59-2.31,.34-2.38-2.05-3.22l-.46,1.78Z"/>
  <path class="cls-4" d="M102.06,199.81c-.28-2-.29-2.38-2.85-1.91l.02,2.1,2.83-.19Z"/>
  <path class="cls-14" d="M193.68,135.87c1.22,.8,1.29,.84,3.14,1.19-1.04-3.41-1.24-2.45-2.1-3.03l-1.04,1.85Z"/>
  <path class="cls-5" d="M163.21,36.17s1.07,1.69,1.45,2.04c.73,.68,.82,.68,2.12,1-.22-2.31-1.29-2.8-3.57-3.04"/>
  <path class="cls-8" d="M.65,66.93c1.54,1.24,.04,.62,2.58,.68-.66-1.16-2.02-3.28-2.58-.68"/>
  <path class="cls-8" d="M171.72,45.95c.02,.93,.67,.73,1.88,1l-.26-2.12c-.81,.24-1.65-.46-1.62,1.12"/>
  <path class="cls-8" d="M33.37,39.37c2.37,.87,2.48,.1,2.64-2.01-1.58,.97-.26,.08-1.63,1.14l-1.02,.87Z"/>
  <path class="cls-13" d="M.39,85.02c1.78-.33,1.38-.11,1.14-1.99l-1.53-.35,.39,2.34Z"/>
  <path class="cls-3" d="M126.77,4.12l-.12,.12c-.75-1.7,1.9-1.54-1.77-1.29-.32,.72-.25,.55-.19,1.69l2.09-.51Z"/>
  <path class="cls-10" d="M200,77.77l-.63-1.56c-2.09,.4-1.03-.24-1.91,1.42l2.54,.14Z"/>
  <path class="cls-15" d="M81.72,5.61l.08,1,2.01-.4-.56-1.74s-1.51,1.12-1.53,1.14"/>
  <path class="cls-5" d="M91.41,8.86c.53-2.3-.34-.8-.6-1.14-.85,1.19-1.13,1.12-.6,2.19,1.09-.42,.8,.71,1.21-1.05"/>
  <path class="cls-9" d="M137.72,179.7c1.47-1.9,.59-1.01-.11-1.73-2.28,.97-1.27,1.24,.11,1.73"/>
  <path class="cls-3" d="M150.94,172.7c.71-.43,.91,1.22,1.42-1.35-1.96,.11-1.11-.37-1.42,1.35"/>
  <g>
    <path class="cls-16" d="M93.65,75.16l-6.06-13.5h-.11l.29,13.55-5.16,.04-.23-22.25,6.35-.05,6.02,13.69h.11l-.25-13.73,4.98-.04,.23,22.25-6.17,.05Z"/>
    <path class="cls-16" d="M113.13,75.6c-6.06,.05-9.86-4.64-9.93-11.71-.07-7.04,3.56-11.69,9.69-11.74,6.06-.05,9.86,4.54,9.93,11.58,.07,7.07-3.63,11.82-9.69,11.87Zm-.19-18.57c-2.63,.02-3.87,2.95-3.83,6.82,.04,3.87,1.33,6.84,3.97,6.82,2.6-.02,3.87-3.02,3.83-6.88-.04-3.86-1.37-6.78-3.97-6.76Z"/>
  </g>
  <g>
    <path class="cls-16" d="M42.28,101.3l-1.02-3.82-5.42,.04-.95,3.84-5.46,.04,5.66-21.06,6.85-.06,6.04,20.97-5.7,.04Zm-3.78-16.42h-.14l-1.95,8.95,4.13-.03-2.04-8.92Z"/>
    <path class="cls-16" d="M60.17,101.16l-3.33-8.34h-1.6s.09,8.39,.09,8.39l-5.25,.04-.21-21.01,7.74-.06c4.67-.04,7.42,2.07,7.47,6.26,.03,3.12-1.79,4.85-3.35,5.34l4.22,9.35-5.76,.04Zm-3.31-17.01h-1.7s.05,5.33,.05,5.33h1.6c1.54-.03,2.89-.84,2.87-2.74-.02-2.14-1.56-2.6-2.83-2.59Z"/>
  </g>
  <g>
    <path class="cls-16" d="M75.73,84.05l.17,16.98-5.36,.04-.17-16.98-4.43,.04-.04-4.03,14.22-.11,.04,4.03-4.43,.04Z"/>
    <path class="cls-16" d="M82.43,100.98l-.21-21.01,5.49-.04,.21,21.01-5.49,.04Z"/>
    <path class="cls-16" d="M97.53,84.15l.05,4.27,5.76-.04,.04,4.07-5.73,.04,.09,8.37-5.52,.04-.21-21.01,11.76-.09,.04,4.3-6.27,.05Z"/>
    <path class="cls-16" d="M106.92,100.78l-.21-21.01,5.49-.04,.21,21.01-5.49,.04Z"/>
    <path class="cls-16" d="M125.1,101.2c-5.63,.04-9.43-4.5-9.5-11-.07-6.59,3.67-11.1,9.27-11.14,3.2-.03,5.36,1.08,6.67,2.59l-2.9,3.47c-.83-.94-1.78-1.53-3.32-1.52-2.86,.02-4.34,2.89-4.3,6.57,.04,3.62,1.57,6.52,4.46,6.49,1.47-.01,2.56-.76,3.19-1.63l3.07,3.27c-1.32,1.61-3.31,2.88-6.65,2.9Z"/>
    <path class="cls-16" d="M134.14,100.57l-.21-21.01,5.49-.04,.21,21.01-5.49,.04Z"/>
    <path class="cls-16" d="M154.62,100.41l-1.03-3.82-5.42,.04-.95,3.84-5.46,.04,5.65-21.06,6.86-.06,6.04,20.97-5.7,.05Zm-3.78-16.42h-.14l-1.95,8.95,4.13-.03-2.04-8.92Z"/>
    <path class="cls-16" d="M162.41,100.35l-.21-21.01,5.52-.04,.17,16.62,6.45-.05,.05,4.39-11.96,.1Z"/>
  </g>
  <path class="cls-16" d="M44.13,127.04c-5.63,.04-9.43-4.5-9.5-11-.07-6.59,3.67-11.1,9.27-11.15,3.2-.03,5.36,1.08,6.67,2.59l-2.9,3.47c-.83-.94-1.78-1.53-3.32-1.52-2.86,.02-4.34,2.88-4.3,6.56,.03,3.62,1.57,6.52,4.46,6.5,1.47-.01,2.56-.76,3.19-1.63l3.07,3.27c-1.32,1.61-3.31,2.88-6.65,2.9Z"/>
  <g>
    <path class="cls-16" d="M61.05,126.91c-5.73,.04-9.32-4.38-9.39-11.06-.07-6.65,3.37-11.05,9.16-11.09,5.73-.05,9.32,4.29,9.39,10.94,.07,6.68-3.43,11.16-9.16,11.2Zm-.18-17.55c-2.49,.02-3.65,2.79-3.61,6.44,.03,3.65,1.26,6.46,3.75,6.44,2.46-.02,3.65-2.85,3.62-6.5-.04-3.65-1.3-6.41-3.75-6.39Z"/>
    <path class="cls-16" d="M73.61,126.25l-.21-21.02,5.52-.04,.17,16.62,6.45-.05,.05,4.39-11.97,.1Z"/>
  </g>
  <g>
    <path class="cls-16" d="M95.29,126.64c-5.73,.04-9.32-4.38-9.39-11.06-.07-6.65,3.37-11.05,9.16-11.09,5.73-.05,9.32,4.29,9.39,10.94,.07,6.68-3.43,11.16-9.16,11.21Zm-.18-17.55c-2.49,.02-3.65,2.79-3.61,6.44,.03,3.65,1.26,6.46,3.75,6.44,2.46-.02,3.65-2.85,3.62-6.5-.04-3.65-1.3-6.41-3.75-6.39Z"/>
    <path class="cls-16" d="M117.94,125.89l-3.33-8.34h-1.6s.09,8.38,.09,8.38l-5.25,.04-.21-21.02,7.74-.06c4.67-.04,7.42,2.07,7.46,6.26,.03,3.12-1.78,4.85-3.35,5.34l4.22,9.35-5.76,.05Zm-3.31-17.01h-1.7s.05,5.33,.05,5.33h1.6c1.54-.02,2.89-.84,2.87-2.74-.02-2.14-1.56-2.6-2.83-2.59Z"/>
    <path class="cls-16" d="M141.38,126.27c-5.73,.05-9.32-4.37-9.39-11.05-.07-6.65,3.37-11.05,9.16-11.09,5.73-.04,9.32,4.29,9.39,10.94,.07,6.68-3.43,11.16-9.16,11.2Zm-.18-17.55c-2.49,.02-3.65,2.79-3.61,6.44,.03,3.65,1.26,6.46,3.75,6.44,2.46-.02,3.65-2.85,3.62-6.5-.04-3.65-1.3-6.4-3.75-6.39Z"/>
    <path class="cls-16" d="M164.03,125.53l-3.33-8.34h-1.6s.09,8.38,.09,8.38l-5.25,.04-.21-21.02,7.74-.06c4.66-.04,7.41,2.08,7.45,6.26,.03,3.12-1.78,4.85-3.35,5.34l4.22,9.35-5.76,.05Zm-3.31-17.02h-1.7s.05,5.33,.05,5.33h1.6c1.54-.02,2.89-.84,2.87-2.74-.02-2.14-1.56-2.6-2.83-2.59Z"/>
  </g>
  <g>
    <path class="cls-16" d="M52.26,137.34l.04,3.84,5.16-.04,.03,3.65-5.13,.04,.08,7.52-4.96,.04-.19-18.88,10.55-.08,.04,3.86-5.62,.04Z"/>
    <path class="cls-16" d="M60.72,152.28l-.19-18.88,4.96-.04,.15,14.93,5.78-.05,.04,3.95-10.73,.09Z"/>
    <path class="cls-16" d="M83.27,152.1l-.92-3.43-4.86,.04-.85,3.45-4.89,.04,5.06-18.92,6.14-.05,5.42,18.84-5.1,.04Zm-3.39-14.75h-.12l-1.75,8.04,3.7-.03-1.83-8.01Z"/>
    <path class="cls-16" d="M99.76,151.97l-6.2,.05-5.42-18.84,5.54-.04,3.07,13.79h.06l2.76-13.83,5.32-.04-5.13,18.92Z"/>
    <path class="cls-16" d="M114.44,152.36c-5.14,.04-8.36-3.93-8.42-9.93-.06-5.97,3.02-9.92,8.22-9.96,5.13-.04,8.35,3.86,8.41,9.83,.07,6-3.07,10.02-8.2,10.06Zm-.16-15.76c-2.24,.02-3.28,2.51-3.25,5.79,.03,3.28,1.12,5.8,3.36,5.78,2.2-.02,3.27-2.56,3.24-5.84-.03-3.28-1.16-5.75-3.35-5.74Z"/>
    <path class="cls-16" d="M132.63,152.22c-5.29,.04-7.28-3.25-7.33-7.44l-.12-11.89,4.92-.04,.12,11.52c.02,2.13,.52,3.76,2.45,3.74,1.92-.02,2.4-1.64,2.38-3.78l-.12-11.52,4.89-.04,.12,11.89c.05,4.16-2.03,7.51-7.32,7.55Z"/>
    <path class="cls-16" d="M152.58,151.55l-2.98-7.49h-1.44s.08,7.53,.08,7.53l-4.71,.04-.19-18.88,6.94-.06c4.19-.03,6.65,1.86,6.69,5.63,.03,2.8-1.61,4.36-3.01,4.8l3.79,8.4-5.17,.04Zm-2.97-15.28h-1.53s.05,4.79,.05,4.79h1.44c1.37-.02,2.59-.75,2.57-2.46-.02-1.92-1.4-2.34-2.53-2.33Z"/>
  </g>
</svg>