<?xml version="1.0" encoding="UTF-8"?>
<svg id="Layer_1" data-name="Layer 1" xmlns="http://www.w3.org/2000/svg" viewBox="0 0 200 200">
  <defs>
    <style>
      .cls-1 {
        fill: #fff;
      }

      .cls-2 {
        fill: #90ba3f;
      }

      .cls-3 {
        fill: #e6e6e6;
      }

      .cls-4 {
        fill: #2c441e;
      }

      .cls-5 {
        fill: #f7f7f7;
      }

      .cls-6 {
        fill: #b3b3b3;
      }

      .cls-7 {
        fill: #f2f2f2;
      }

      .cls-8 {
        fill: #124923;
      }
    </style>
  </defs>
  <path class="cls-6" d="M170.59,31.6C152.65,13.98,127.99,3.2,100.86,3.45,46.61,3.94,3.02,48.34,3.51,102.61c.25,27.14,11.46,51.61,29.4,69.23,17.94,17.62,42.6,28.4,69.73,28.16,54.26-.49,97.85-44.89,97.36-99.16-.25-27.14-11.46-51.61-29.4-69.23Z"/>
  <g>
    <path class="cls-8" d="M97.36,0C43.1,.49-.49,44.89,0,99.17c.25,27.14,11.46,51.61,29.4,69.23L167.09,28.16C149.15,10.54,124.49-.24,97.36,0Z"/>
    <path class="cls-2" d="M167.09,28.16L29.41,168.4c17.94,17.62,42.6,28.4,69.73,28.16,54.26-.49,97.85-44.89,97.36-99.16-.25-27.14-11.46-51.61-29.4-69.23Z"/>
  </g>
  <g>
    <polygon class="cls-5" points="89.62 149.9 94.22 184.92 64.91 179.32 60.32 144.3 89.62 149.9"/>
    <polygon class="cls-3" points="89.62 149.9 113.37 136.22 117.97 171.24 94.22 184.92 89.62 149.9"/>
    <polygon class="cls-1" points="60.32 144.3 84.06 130.62 113.37 136.22 89.62 149.9 60.32 144.3"/>
  </g>
  <g>
    <path class="cls-1" d="M1.52,81.04c-2.12,11.98-2.01,24.27,.33,36.21l78.47-.71,35.87-36.54L1.52,81.04Z"/>
    <path class="cls-7" d="M116.19,80.01l-35.87,36.54,114.66-1.04c2.12-11.98,2.01-24.27-.33-36.21l-78.46,.71Z"/>
  </g>
  <g>
    <polygon class="cls-7" points="106.52 40.22 92.1 70.85 75.54 52.3 89.96 21.67 106.52 40.22"/>
    <polygon class="cls-7" points="63.43 66.16 46.87 47.61 75.54 52.3 92.1 70.85 63.43 66.16"/>
    <polygon class="cls-1" points="46.87 47.61 61.29 16.98 89.96 21.67 75.54 52.3 46.87 47.61"/>
  </g>
  <g>
    <polygon class="cls-5" points="139.57 135.38 138.99 173.65 105.99 168.88 106.57 130.6 139.57 135.38"/>
    <polygon class="cls-3" points="139.57 135.38 160.51 128.9 159.93 167.18 138.99 173.65 139.57 135.38"/>
    <polygon class="cls-1" points="106.57 130.6 127.5 124.13 160.51 128.9 139.57 135.38 106.57 130.6"/>
  </g>
  <g>
    <path class="cls-4" d="M15.24,110.6l-.19-21.28,5.31-.05,4.26,7.76c1.21,2.24,2.4,4.87,3.34,7.27h.06c-.29-2.81-.41-5.69-.44-8.91l-.05-6.18,4.18-.04,.19,21.28-4.78,.04-4.37-8.17c-1.21-2.27-2.59-5-3.56-7.48h-.12c.17,2.84,.25,5.83,.29,9.31l.05,6.41-4.18,.04Z"/>
    <path class="cls-4" d="M49.39,99.94c.05,6.31-2.33,10.72-7.25,10.77-5.02,.04-7.27-4.71-7.36-10.51-.05-5.97,2.27-10.66,7.28-10.71,5.17-.05,7.27,4.83,7.32,10.45Zm-10.07,.22c.04,4.7,1.14,6.93,2.87,6.92,1.76-.02,2.7-2.36,2.65-7.03-.04-4.55-.99-6.94-2.81-6.92-1.64,.01-2.76,2.23-2.72,7.03Z"/>
    <path class="cls-4" d="M73.25,109.51c-.81,.42-2.71,.94-5.13,.96-6.95,.06-10.58-4.51-10.63-10.57-.07-7.26,4.8-11.32,10.88-11.38,2.36-.02,4.15,.44,4.96,.9l-.92,3.8c-.89-.4-2.18-.77-3.83-.75-3.58,.03-6.37,2.36-6.33,7.1,.04,4.26,2.46,6.93,6.49,6.89,1.4-.01,2.89-.31,3.81-.73l.69,3.79Z"/>
    <path class="cls-4" d="M81.23,104.54l-1.39,5.47-4.69,.04,5.93-21.33,5.97-.05,6.46,21.22-4.92,.04-1.6-5.45-5.76,.05Zm5.07-3.64l-1.3-4.51c-.36-1.26-.74-2.83-1.05-4.09h-.06c-.28,1.27-.57,2.88-.89,4.11l-1.15,4.53,4.45-.04Z"/>
    <path class="cls-4" d="M96.04,88.59l4.54-.04,.16,17.24,8-.07,.03,4.04-12.54,.11-.19-21.28Z"/>
    <path class="cls-4" d="M128.67,98.72c.06,7.01-3.87,11.24-9.78,11.3-5.94,.05-9.51-4.69-9.56-10.78-.06-6.38,3.78-11.18,9.69-11.24,6.18-.05,9.59,4.81,9.65,10.71Zm-14.54,.38c.04,4.2,1.92,7.12,4.97,7.09,3.08-.03,4.81-3.14,4.77-7.27-.03-3.85-1.77-7.12-4.9-7.09-3.1,.03-4.87,3.14-4.84,7.27Z"/>
    <path class="cls-4" d="M131.61,88.55c1.45-.27,3.6-.47,6.05-.49,2.98-.03,5.08,.42,6.52,1.61,1.24,1,1.9,2.51,1.92,4.47,.03,2.68-1.78,4.56-3.5,5.24v.09c1.41,.59,2.2,1.97,2.72,3.93,.66,2.42,1.28,5.19,1.67,6.01l-4.66,.04c-.3-.63-.83-2.33-1.41-4.95-.59-2.68-1.47-3.37-3.35-3.38h-1.34s.08,8.38,.08,8.38l-4.5,.04-.18-21Zm4.59,9.12l1.79-.02c2.27-.02,3.6-1.24,3.58-3.1-.02-1.92-1.28-2.92-3.37-2.9-1.11,.01-1.73,.08-2.06,.18l.05,5.84Z"/>
    <path class="cls-4" d="M153.89,88.07l.19,21.28-4.54,.04-.19-21.28,4.54-.04Z"/>
    <path class="cls-4" d="M169.93,100.21l-7.4,.07,.04,5.05,8.26-.08,.03,3.95-12.8,.12-.19-21.28,12.39-.11,.04,3.95-7.85,.07,.03,4.42,7.4-.07,.04,3.92Z"/>
    <path class="cls-4" d="M174.11,104.21c1.2,.65,3.12,1.3,5.06,1.28,2.09-.02,3.18-.94,3.17-2.33-.01-1.32-.98-2.08-3.4-2.94-3.36-1.23-5.59-3.17-5.62-6.26-.03-3.63,2.84-6.41,7.56-6.45,2.3-.02,3.94,.44,5.14,1.03l-.98,3.86c-.77-.4-2.25-.99-4.18-.97-1.97,.02-2.92,1-2.91,2.08,.01,1.36,1.12,1.94,3.76,2.96,3.57,1.36,5.22,3.3,5.25,6.3,.03,3.56-2.5,6.62-8.02,6.67-2.3,.02-4.58-.62-5.72-1.27l.89-3.96Z"/>
  </g>
  <g>
    <path class="cls-2" d="M29.99,131.39c.03,3.67-1.47,6.24-4.57,6.27-3.15,.03-4.56-2.73-4.61-6.11-.03-3.47,1.43-6.19,4.58-6.22,3.25-.03,4.57,2.8,4.6,6.06Zm-6.33,.13c.03,2.74,.72,4.03,1.8,4.02,1.11-.01,1.7-1.37,1.67-4.09-.02-2.64-.62-4.03-1.77-4.02-1.03,.01-1.73,1.3-1.71,4.09Z"/>
    <path class="cls-2" d="M37.81,128.75c.02,2.5-1.58,3.83-3.34,3.85-1.86,.02-3.34-1.33-3.36-3.58-.02-2.13,1.3-3.75,3.4-3.77,2.09-.02,3.28,1.47,3.3,3.51Zm-4.58,.19c0,1.24,.45,2.14,1.28,2.13,.81,0,1.19-.82,1.18-2.17-.01-1.21-.35-2.14-1.26-2.13-.85,0-1.21,.96-1.2,2.17Zm1.41,8.63l6.91-12.38h1.51s-6.89,12.37-6.89,12.37h-1.54Zm12-3.93c.03,2.48-1.58,3.81-3.34,3.83-1.84,.02-3.31-1.33-3.33-3.57-.02-2.12,1.3-3.75,3.38-3.77,2.08-.02,3.28,1.48,3.29,3.52Zm-4.55,.17c-.01,1.24,.44,2.14,1.25,2.13,.81-.01,1.19-.82,1.18-2.16,0-1.22-.35-2.15-1.24-2.14-.84,0-1.21,.97-1.19,2.16Z"/>
  </g>
  <g>
    <path class="cls-4" d="M154.21,66.15c.03,3.67-1.45,6.24-4.55,6.27-3.15,.03-4.57-2.73-4.62-6.11-.03-3.47,1.43-6.19,4.58-6.22,3.25-.03,4.57,2.8,4.59,6.06Zm-6.32,.13c.03,2.74,.72,4.03,1.8,4.02,1.11-.01,1.69-1.37,1.67-4.08-.02-2.64-.61-4.03-1.75-4.02-1.04,.01-1.73,1.3-1.71,4.09Z"/>
    <path class="cls-4" d="M162.04,63.51c.02,2.5-1.58,3.83-3.34,3.85-1.86,.02-3.34-1.33-3.36-3.58-.02-2.13,1.3-3.75,3.41-3.77,2.08-.02,3.28,1.47,3.3,3.51Zm-4.58,.19c0,1.24,.45,2.14,1.28,2.13,.81,0,1.19-.82,1.18-2.17-.01-1.21-.35-2.14-1.26-2.13-.85,.01-1.21,.96-1.2,2.18Zm1.41,8.63l6.91-12.38h1.51s-6.88,12.37-6.88,12.37h-1.54Zm11.98-3.93c.03,2.48-1.58,3.81-3.34,3.83-1.84,.02-3.3-1.33-3.32-3.57-.02-2.12,1.3-3.75,3.37-3.77,2.09-.02,3.28,1.48,3.3,3.51Zm-4.55,.17c-.01,1.24,.44,2.14,1.25,2.13s1.19-.82,1.19-2.15c-.01-1.22-.35-2.15-1.24-2.14-.85,0-1.21,.97-1.2,2.16Z"/>
  </g>
</svg>