<?xml version="1.0" encoding="UTF-8"?>
<svg id="Layer_1" data-name="Layer 1" xmlns="http://www.w3.org/2000/svg" viewBox="0 0 200 200">
  <defs>
    <style>
      .cls-1 {
        fill: #fff;
      }

      .cls-2 {
        fill: #86ac3f;
      }

      .cls-3 {
        fill: #14331a;
      }

      .cls-4 {
        fill: #9ec83e;
      }

      .cls-5 {
        fill: #b3b3b3;
      }
    </style>
  </defs>
  <path class="cls-5" d="M200,100.91c-.09-10.42-12.6-18.55-15.62-27.92-3.12-9.72,2.05-24.02-3.69-32.08-3.07-4.31-8.64-6.05-14.37-7.62-5.09-1.39-10.31-2.63-14.03-5.4-7.84-5.83-11.68-20.66-21.06-23.74-9.05-2.97-20.31,6.79-30.31,6.88-10,.09-21.43-9.46-30.43-6.33-9.32,3.25-12.9,18.15-20.63,24.12-7.81,6.03-22.51,5.29-28.16,13.53-5.59,8.16-.16,22.37-3.11,32.14-2.84,9.43-15.2,17.78-15.11,28.2,.09,10.42,12.6,18.55,15.62,27.92,3.12,9.71-2.05,24.02,3.69,32.08,3.07,4.31,8.64,6.05,14.37,7.62,5.09,1.39,10.31,2.63,14.03,5.4,7.84,5.83,11.68,20.66,21.06,23.74,9.05,2.97,20.31-6.79,30.31-6.88,10-.09,21.43,9.46,30.43,6.33,9.32-3.25,12.9-18.15,20.63-24.12,7.81-6.03,22.51-5.29,28.16-13.53,5.59-8.16,.16-22.37,3.11-32.14,2.85-9.43,15.2-17.78,15.11-28.2Z"/>
  <g>
    <path class="cls-4" d="M148.79,24.3c-7.84-5.83-11.68-20.66-21.06-23.74-9.05-2.97-20.31,6.79-30.31,6.88-10,.09-21.43-9.46-30.43-6.33-9.32,3.25-12.9,18.15-20.63,24.12-7.81,6.03-22.51,5.29-28.16,13.53-5.59,8.16-.16,22.37-3.11,32.14C12.26,80.32-.09,88.68,0,99.09c.09,10.42,12.6,18.55,15.62,27.92,3.12,9.71-2.05,24.02,3.69,32.08,3.07,4.31,8.64,6.05,14.37,7.62L162.82,29.71c-5.09-1.39-10.31-2.63-14.03-5.4Z"/>
    <path class="cls-2" d="M196.49,97.32c-.09-10.42-12.6-18.55-15.62-27.92-3.12-9.72,2.05-24.02-3.69-32.08-3.07-4.31-8.64-6.05-14.37-7.62L33.67,166.71c5.09,1.39,10.31,2.63,14.03,5.4,7.84,5.83,11.68,20.66,21.06,23.74,9.05,2.97,20.31-6.79,30.31-6.88,10-.09,21.43,9.46,30.43,6.33,9.32-3.25,12.9-18.15,20.63-24.12,7.81-6.03,22.51-5.29,28.16-13.53,5.59-8.16,.16-22.37,3.11-32.14,2.84-9.43,15.2-17.78,15.11-28.2Z"/>
  </g>
  <g>
    <path class="cls-3" d="M147.09,46.39c-12.74-13.03-30.25-21.01-49.5-20.83-38.52,.35-69.44,33.15-69.08,73.28,.18,20.06,8.15,38.15,20.89,51.19l1.96-2.08h0S145.13,48.47,145.13,48.47h0l1.96-2.08Zm-74.25-9.61c1.98-.89,4.01-1.67,6.09-2.35l-42.24,44.81c.62-2.17,1.33-4.3,2.14-6.38l34.01-36.08Zm-32.9,33.44c1.51-3.42,3.3-6.67,5.32-9.75l15.8-16.77c2.92-2.16,6.01-4.08,9.26-5.72l-30.39,32.24Zm40.92-36.38c1.65-.48,3.33-.89,5.04-1.24l-50.84,53.94c.3-1.78,.66-3.54,1.1-5.27l44.71-47.43Zm6.73-1.57c1.46-.25,2.94-.44,4.43-.59l-57.74,61.25c.12-1.56,.27-3.1,.49-4.62l52.82-56.03Zm5.93-.72c1.34-.1,2.69-.17,4.05-.19L34.08,98.72c-.01-1.42,.03-2.82,.11-4.22L93.53,31.55Zm5.41-.17c1.25,.01,2.49,.07,3.73,.16L34.34,104.01c-.11-1.28-.18-2.57-.22-3.88L98.93,31.38Zm5.02,.25c1.17,.11,2.33,.24,3.48,.42L34.91,108.97c-.19-1.19-.34-2.4-.46-3.62L103.95,31.63Zm4.66,.62c1.1,.19,2.18,.4,3.26,.65L35.81,113.59c-.25-1.12-.48-2.25-.68-3.39L108.61,32.25Zm4.39,.91c1.04,.26,2.06,.54,3.08,.84L36.95,117.95c-.31-1.05-.6-2.12-.86-3.19L113.01,33.16Zm4.15,1.17c.98,.32,1.95,.65,2.91,1.02L38.31,122.07c-.37-.99-.71-2-1.03-3.02L117.15,34.33Zm3.92,1.42c.93,.37,1.85,.76,2.76,1.18L39.89,125.97c-.41-.94-.81-1.89-1.18-2.86L121.07,35.75Zm3.72,1.62c.89,.42,1.76,.86,2.63,1.33L41.65,129.67c-.46-.89-.9-1.79-1.32-2.71L124.79,37.36Zm3.55,1.81c.84,.47,1.67,.96,2.49,1.46L43.58,133.19c-.5-.84-.98-1.7-1.45-2.57L128.34,39.17Zm3.35,2.01c.8,.51,1.6,1.04,2.37,1.59L45.69,136.52c-.54-.8-1.06-1.62-1.57-2.44L131.69,41.19Zm3.19,2.18c.76,.56,1.52,1.13,2.26,1.72L47.97,139.68c-.58-.76-1.14-1.53-1.69-2.32L134.88,43.37Zm3.04,2.35c.73,.6,1.44,1.21,2.14,1.84L50.39,142.68c-.62-.72-1.22-1.45-1.8-2.19L137.92,45.71Zm2.89,2.51c.69,.64,1.36,1.29,2.02,1.96L52.96,145.52c-.65-.68-1.29-1.36-1.92-2.07L140.81,48.22Zm-87.56,2.32l-1.57,1.67c.26-.28,.5-.58,.77-.85,.26-.28,.54-.54,.8-.81Z"/>
    <path class="cls-3" d="M147.09,46.39l-3.9,4.14h0L53.3,145.89h0l-3.9,4.14c12.74,13.03,30.25,21.01,49.5,20.83,38.52-.35,69.44-33.15,69.08-73.28-.18-20.06-8.15-38.16-20.89-51.19Zm-23.44,113.25c-1.98,.89-4.01,1.67-6.09,2.35l42.24-44.81c-.62,2.18-1.33,4.31-2.15,6.38l-34.01,36.08Zm32.9-33.44c-1.51,3.42-3.3,6.67-5.32,9.75l-15.8,16.76c-2.92,2.16-6.01,4.08-9.26,5.72l30.38-32.23Zm-40.92,36.38c-1.65,.48-3.33,.89-5.03,1.24l50.84-53.94c-.3,1.78-.66,3.54-1.1,5.27l-44.71,47.43Zm-6.73,1.57c-1.46,.25-2.94,.44-4.43,.59l57.74-61.25c-.12,1.56-.27,3.1-.49,4.62l-52.82,56.03Zm-5.93,.73c-1.34,.1-2.68,.17-4.05,.19l63.49-67.36c.01,1.42-.03,2.82-.11,4.22l-59.34,62.95Zm43.14-111.13c.62,.72,1.22,1.45,1.8,2.19L58.57,150.7c-.73-.6-1.44-1.21-2.14-1.84L146.1,53.74ZM55.68,148.2c-.69-.64-1.36-1.29-2.02-1.96L143.53,50.9c.65,.68,1.29,1.36,1.92,2.07L55.68,148.2ZM148.53,56.74c.58,.76,1.14,1.53,1.69,2.32L61.61,153.05c-.76-.55-1.52-1.13-2.25-1.71L148.53,56.74Zm2.27,3.16c.54,.8,1.06,1.62,1.57,2.44l-87.56,92.89c-.8-.51-1.6-1.04-2.37-1.59L150.8,59.9Zm2.11,3.33c.5,.85,.98,1.7,1.45,2.57l-86.2,91.45c-.84-.47-1.67-.96-2.49-1.46L152.91,63.23Zm1.93,3.52c.46,.89,.9,1.79,1.32,2.71l-84.46,89.6c-.89-.42-1.76-.86-2.62-1.32l85.76-90.98Zm1.76,3.7c.41,.94,.81,1.89,1.18,2.86l-82.35,87.36c-.93-.37-1.85-.76-2.76-1.18l83.94-89.04Zm1.58,3.89c.36,.99,.71,2,1.03,3.02l-79.87,84.73c-.98-.32-1.95-.65-2.91-1.02l81.75-86.73Zm1.36,4.12c.31,1.05,.6,2.12,.86,3.19l-76.92,81.6c-1.04-.25-2.06-.54-3.08-.84l79.13-83.95Zm1.14,4.37c.25,1.12,.48,2.25,.68,3.39l-73.48,77.95c-1.1-.19-2.18-.4-3.26-.65l76.06-80.69Zm.9,4.61c.19,1.19,.34,2.4,.46,3.62l-69.5,73.73c-1.17-.11-2.33-.24-3.48-.42l72.52-76.93Zm.57,4.96c.11,1.28,.18,2.58,.22,3.88l-64.81,68.75c-1.25-.01-2.49-.07-3.72-.16l68.32-72.47Zm-18.89,53.45l1.53-1.62c-.25,.28-.49,.56-.75,.83-.25,.27-.52,.52-.78,.79Z"/>
  </g>
  <g>
    <path class="cls-1" d="M79.87,73.92l-.17-18.78,4.51-.04,3.61,6.85c1.03,1.97,2.05,4.3,2.85,6.41h.05c-.25-2.48-.35-5.02-.37-7.85l-.05-5.47,3.54-.03,.17,18.78-4.05,.04-3.72-7.21c-1.03-2-2.19-4.41-3.03-6.6h-.1c.15,2.51,.23,5.15,.25,8.21l.06,5.66-3.55,.03Z"/>
    <path class="cls-1" d="M112.93,64.03c.06,6.18-3.28,9.92-8.3,9.97-5.04,.04-8.07-4.14-8.12-9.52-.05-5.63,3.21-9.86,8.22-9.9,5.25-.04,8.14,4.25,8.19,9.45Zm-12.34,.33c.03,3.71,1.63,6.29,4.21,6.26,2.61-.02,4.08-2.77,4.05-6.42-.03-3.4-1.5-6.28-4.16-6.26-2.63,.02-4.13,2.77-4.1,6.41Z"/>
    <path class="cls-1" d="M69.42,96.37c1.02,.58,2.64,1.15,4.29,1.13,1.77-.01,2.7-.83,2.69-2.06,0-1.17-.82-1.83-2.88-2.59-2.85-1.09-4.74-2.8-4.77-5.53-.02-3.2,2.41-5.65,6.41-5.69,1.95-.02,3.35,.39,4.36,.91l-.83,3.4c-.66-.36-1.9-.87-3.55-.86-1.68,.02-2.48,.89-2.47,1.83,.01,1.2,.95,1.72,3.19,2.62,3.03,1.2,4.43,2.92,4.46,5.57,.03,3.15-2.13,5.84-6.81,5.88-1.95,.02-3.88-.55-4.85-1.13l.76-3.49Z"/>
    <path class="cls-1" d="M86.74,81.8l.17,18.79-3.85,.04-.17-18.79,3.85-.04Z"/>
    <path class="cls-1" d="M90.09,82.05c1.42-.26,3.26-.45,5.19-.46,3.27-.03,5.4,.62,7.04,1.94,1.78,1.43,2.92,3.74,2.95,7.05,.03,3.6-1.14,6.09-2.75,7.63-1.79,1.67-4.54,2.47-7.89,2.5-2,.02-3.45-.11-4.39-.25l-.17-18.42Zm3.99,15.26c.34,.09,.9,.08,1.35,.08,3.52-.01,5.8-2.15,5.77-6.63-.04-3.9-2.14-5.95-5.48-5.91-.84,0-1.42,.09-1.75,.18l.11,12.29Z"/>
    <path class="cls-1" d="M118.01,92.36l-6.28,.06,.04,4.46,7.02-.06,.03,3.48-10.87,.1-.17-18.79,10.51-.09,.04,3.49-6.66,.06,.03,3.9,6.28-.06,.03,3.46Z"/>
    <path class="cls-1" d="M59.96,119.61l-6.28,.06,.04,4.46,7.02-.06,.04,3.48-10.87,.1-.17-18.79,10.51-.1,.03,3.49-6.66,.06,.04,3.9,6.28-.06,.03,3.46Z"/>
    <path class="cls-1" d="M63.27,108.74l10.42-.09,.03,3.49-6.57,.06,.04,4.29,6.14-.06,.03,3.46-6.14,.06,.07,7.55-3.85,.04-.17-18.79Z"/>
    <path class="cls-1" d="M76.64,108.62l10.42-.09,.03,3.49-6.57,.06,.04,4.29,6.14-.06,.03,3.46-6.14,.06,.07,7.55-3.85,.03-.17-18.79Z"/>
    <path class="cls-1" d="M100.25,119.25l-6.28,.06,.04,4.46,7.02-.06,.04,3.48-10.87,.1-.17-18.79,10.51-.1,.03,3.49-6.66,.06,.04,3.9,6.28-.06,.03,3.46Z"/>
    <path class="cls-1" d="M116.22,126.55c-.68,.37-2.3,.83-4.35,.85-5.91,.05-8.99-3.99-9.03-9.34-.06-6.41,4.07-9.98,9.23-10.03,2-.02,3.53,.39,4.22,.8l-.78,3.35c-.77-.36-1.85-.68-3.25-.67-3.04,.02-5.4,2.08-5.37,6.26,.03,3.76,2.08,6.12,5.5,6.09,1.19-.01,2.45-.28,3.24-.64l.59,3.33Z"/>
    <path class="cls-1" d="M122.34,111.77l-4.61,.04-.03-3.57,13.12-.12,.03,3.57-4.66,.04,.14,15.22-3.85,.04-.14-15.22Z"/>
    <path class="cls-1" d="M132.93,122.53c1.02,.58,2.65,1.15,4.29,1.13,1.77-.01,2.7-.83,2.69-2.06-.01-1.17-.83-1.83-2.89-2.59-2.85-1.09-4.74-2.8-4.76-5.53-.03-3.2,2.4-5.65,6.41-5.69,1.95-.02,3.35,.39,4.37,.91l-.83,3.4c-.66-.36-1.9-.87-3.55-.86-1.68,.02-2.48,.89-2.48,1.83,.01,1.2,.96,1.72,3.19,2.62,3.03,1.2,4.44,2.92,4.46,5.57,.03,3.15-2.13,5.84-6.81,5.88-1.95,.02-3.88-.55-4.85-1.12l.76-3.49Z"/>
  </g>
  <g>
    <path class="cls-1" d="M79.87,73.92l-.17-18.78,4.51-.04,3.61,6.85c1.03,1.97,2.05,4.3,2.85,6.41h.05c-.25-2.48-.35-5.02-.37-7.85l-.05-5.47,3.54-.03,.17,18.78-4.05,.04-3.72-7.21c-1.03-2-2.19-4.41-3.03-6.6h-.1c.15,2.51,.23,5.15,.25,8.21l.06,5.66-3.55,.03Z"/>
    <path class="cls-1" d="M112.93,64.03c.06,6.18-3.28,9.92-8.3,9.97-5.04,.04-8.07-4.14-8.12-9.52-.05-5.63,3.21-9.86,8.22-9.9,5.25-.04,8.14,4.25,8.19,9.45Zm-12.34,.33c.03,3.71,1.63,6.29,4.21,6.26,2.61-.02,4.08-2.77,4.05-6.42-.03-3.4-1.5-6.28-4.16-6.26-2.63,.02-4.13,2.77-4.1,6.41Z"/>
    <path class="cls-1" d="M69.42,96.37c1.02,.58,2.64,1.15,4.29,1.13,1.77-.01,2.7-.83,2.69-2.06,0-1.17-.82-1.83-2.88-2.59-2.85-1.09-4.74-2.8-4.77-5.53-.02-3.2,2.41-5.65,6.41-5.69,1.95-.02,3.35,.39,4.36,.91l-.83,3.4c-.66-.36-1.9-.87-3.55-.86-1.68,.02-2.48,.89-2.47,1.83,.01,1.2,.95,1.72,3.19,2.62,3.03,1.2,4.43,2.92,4.46,5.57,.03,3.15-2.13,5.84-6.81,5.88-1.95,.02-3.88-.55-4.85-1.13l.76-3.49Z"/>
    <path class="cls-1" d="M86.74,81.8l.17,18.79-3.85,.04-.17-18.79,3.85-.04Z"/>
    <path class="cls-1" d="M90.09,82.05c1.42-.26,3.26-.45,5.19-.46,3.27-.03,5.4,.62,7.04,1.94,1.78,1.43,2.92,3.74,2.95,7.05,.03,3.6-1.14,6.09-2.75,7.63-1.79,1.67-4.54,2.47-7.89,2.5-2,.02-3.45-.11-4.39-.25l-.17-18.42Zm3.99,15.26c.34,.09,.9,.08,1.35,.08,3.52-.01,5.8-2.15,5.77-6.63-.04-3.9-2.14-5.95-5.48-5.91-.84,0-1.42,.09-1.75,.18l.11,12.29Z"/>
    <path class="cls-1" d="M118.01,92.36l-6.28,.06,.04,4.46,7.02-.06,.03,3.48-10.87,.1-.17-18.79,10.51-.09,.04,3.49-6.66,.06,.03,3.9,6.28-.06,.03,3.46Z"/>
    <path class="cls-1" d="M59.96,119.61l-6.28,.06,.04,4.46,7.02-.06,.04,3.48-10.87,.1-.17-18.79,10.51-.1,.03,3.49-6.66,.06,.04,3.9,6.28-.06,.03,3.46Z"/>
    <path class="cls-1" d="M63.27,108.74l10.42-.09,.03,3.49-6.57,.06,.04,4.29,6.14-.06,.03,3.46-6.14,.06,.07,7.55-3.85,.04-.17-18.79Z"/>
    <path class="cls-1" d="M76.64,108.62l10.42-.09,.03,3.49-6.57,.06,.04,4.29,6.14-.06,.03,3.46-6.14,.06,.07,7.55-3.85,.03-.17-18.79Z"/>
    <path class="cls-1" d="M100.25,119.25l-6.28,.06,.04,4.46,7.02-.06,.04,3.48-10.87,.1-.17-18.79,10.51-.1,.03,3.49-6.66,.06,.04,3.9,6.28-.06,.03,3.46Z"/>
    <path class="cls-1" d="M116.22,126.55c-.68,.37-2.3,.83-4.35,.85-5.91,.05-8.99-3.99-9.03-9.34-.06-6.41,4.07-9.98,9.23-10.03,2-.02,3.53,.39,4.22,.8l-.78,3.35c-.77-.36-1.85-.68-3.25-.67-3.04,.02-5.4,2.08-5.37,6.26,.03,3.76,2.08,6.12,5.5,6.09,1.19-.01,2.45-.28,3.24-.64l.59,3.33Z"/>
    <path class="cls-1" d="M122.34,111.77l-4.61,.04-.03-3.57,13.12-.12,.03,3.57-4.66,.04,.14,15.22-3.85,.04-.14-15.22Z"/>
    <path class="cls-1" d="M132.93,122.53c1.02,.58,2.65,1.15,4.29,1.13,1.77-.01,2.7-.83,2.69-2.06-.01-1.17-.83-1.83-2.89-2.59-2.85-1.09-4.74-2.8-4.76-5.53-.03-3.2,2.4-5.65,6.41-5.69,1.95-.02,3.35,.39,4.37,.91l-.83,3.4c-.66-.36-1.9-.87-3.55-.86-1.68,.02-2.48,.89-2.48,1.83,.01,1.2,.96,1.72,3.19,2.62,3.03,1.2,4.44,2.92,4.46,5.57,.03,3.15-2.13,5.84-6.81,5.88-1.95,.02-3.88-.55-4.85-1.12l.76-3.49Z"/>
  </g>
</svg>