<?xml version="1.0" encoding="utf-8"?>
<!-- Generator: Adobe Illustrator 27.0.0, SVG Export Plug-In . SVG Version: 6.00 Build 0)  -->
<svg version="1.1" id="Layer_1" xmlns="http://www.w3.org/2000/svg" xmlns:xlink="http://www.w3.org/1999/xlink" x="0px" y="0px"
	 viewBox="0 0 200 200" style="enable-background:new 0 0 200 200;" xml:space="preserve">
<style type="text/css">
	.st0{fill:url(#SVGID_1_);}
	.st1{fill:none;}
	.st2{fill:#FFFFFF;}
</style>
<linearGradient id="SVGID_1_" gradientUnits="userSpaceOnUse" x1="49.9915" y1="186.6169" x2="150.2027" y2="13.0469">
	<stop  offset="0" style="stop-color:#0096FF"/>
	<stop  offset="0" style="stop-color:#0040D0"/>
	<stop  offset="0.9068" style="stop-color:#5C0049"/>
</linearGradient>
<circle class="st0" cx="100" cy="100" r="100"/>
<g>
	<rect x="25" y="32.9" class="st1" width="140.5" height="136.1"/>
	<g>
		<polygon class="st2" points="65.4,58.3 48.2,45.8 49.6,51.4 31,48 54.8,62.2 54.2,53.6 		"/>
		<polygon class="st2" points="61,84.1 39.7,86.7 44.7,89.7 28.9,99.8 56.1,94.1 49.6,88.2 		"/>
		<polygon class="st2" points="72,108 52.4,116.6 58.1,118 46.2,132.3 70.4,118.8 62.4,115.2 		"/>
		<path class="st2" d="M161.6,96c0.3-2.5-9.7-16.9-9.5-18.9c0.3-1.9,3.2-23.1-9.2-33.6c-11.2-9.4-43.8-20.8-69.6,6.1
			c-13.4,14-9.4,37.1-0.3,53.8c8.4,15.4,21.2,16.1,21.5,30c0.2,10.8-19.2,27.2-14.3,35.5h17.4c1.7-4.1,7.5-18.8,10.2-30
			c2.5-10.2-6.6-29.2-10.7-37.2c-1.7,0.7-3.9,1.2-6.5,1.1c-15.8-0.3-10.3-20.8-10.3-20.8s-2.9-2.2-4-11.4c-1.1-9.2,10-13,10-13
			s-1.7-1.9,3.4-6.9c5.2-5,15.2-3.6,15.2-3.6s3.4-4.7,10.6-5c7.2-0.3,9.7,5.8,9.7,5.8s19.2,1.1,14,19.1c-5.2,18-22.3,10.5-22.3,10.5
			s-0.6,5.6-3.7,7.5c-3.2,1.9-8.6,1.7-8.6,1.7s0.9,8.8-4.8,13.4c3.3,6.2,14.3,28,11.7,39.1c-2.6,10.9-8.2,25.2-10,29.7H137
			c2.9-4.7-8.9-26.1-6.3-28c2.6-1.9,19.5-3.6,21.5-8.9c2-5.3-1.4-9.4-1.4-9.4v-2.5c0,0,3.2-0.3,4-1.9c0.9-1.7-2-5.8-2-5.8
			s4.6-3.9,4.6-5.8c0-1.9-2.9-5.6-2.9-5.6S161.4,98.5,161.6,96z"/>
	</g>
</g>
</svg>
