<?xml version="1.0" encoding="UTF-8"?>
<svg id="Layer_1" data-name="Layer 1" xmlns="http://www.w3.org/2000/svg" xmlns:xlink="http://www.w3.org/1999/xlink" viewBox="0 0 200 200">
  <defs>
    <style>
      .cls-1, .cls-2 {
        fill: #fff;
      }

      .cls-2 {
        fill-rule: evenodd;
      }

      .cls-3 {
        fill: url(#linear-gradient);
      }
    </style>
    <linearGradient id="linear-gradient" x1="49.99" y1="186.62" x2="150.2" y2="13.05" gradientUnits="userSpaceOnUse">
      <stop offset="0" stop-color="#0096ff"/>
      <stop offset="0" stop-color="#0040d0"/>
      <stop offset=".91" stop-color="#5c0049"/>
    </linearGradient>
  </defs>
  <circle class="cls-3" cx="100" cy="100" r="100"/>
  <g>
    <path class="cls-1" d="M148.53,100.94c-14.65-4.83-32.05-7.91-48.08-7.91s-33.88,3.07-48.08,7.91c-1.37-8.78-.46-18.89,3.21-30.31,1.83-5.71,5.04-13.18,21.06-11.86,3.21,.44,6.87,.88,11.45,4.39,2.75,2.2,5.95,5.71,12.36,6.15h0c.92,0,2.29-.44,3.21-.44,4.12-1.32,7.33-3.95,9.16-5.27,4.58-3.51,8.24-3.95,11.45-4.39,16.03-1.76,19.23,6.15,21.06,11.86,3.66,10.98,4.12,21.08,3.21,29.87Z"/>
    <path class="cls-1" d="M103.21,67.56c-.92,.44-1.83,.44-3.21,.44h0c-5.49-13.62-17.86-18.89-24.27-25.47-2.75-3.07,1.37-3.51,2.29-3.51,16.94,5.27,22.89,18.45,25.18,28.55Z"/>
    <path class="cls-2" d="M123.35,35.93c-10.07,6.15-23.81,4.39-22.89,17.57,5.95-11.86,14.19-9.22,21.98-15.37,0,7.47-6.41,17.13-16.48,16.69,3.21-1.76,9.16-3.95,13.74-13.62-6.41,8.78-13.74,12.3-19.69,14.05,4.12,2.2,8.24,3.07,11.45,2.2q.46,0,.92-.44h.46c4.12-1.32,7.33-4.39,9.16-8.78,.92-3.07,1.83-7.47,1.37-12.3Z"/>
    <path class="cls-1" d="M160.9,106.65l-2.75,6.15c-3.21-1.76-7.33-3.07-10.99-4.83-14.19-4.83-31.14-7.91-46.7-7.91s-33.42,3.51-47.16,8.35c-4.12,1.32-7.78,3.07-11.45,4.83l-2.75-6.15c3.66-1.76,8.24-3.51,12.82-5.27,14.65-4.83,32.05-7.91,48.08-7.91s33.88,3.07,48.08,7.91c4.58,1.32,9.16,3.07,12.82,4.83Z"/>
    <g>
      <path class="cls-1" d="M43.68,126.41c-.46,0-.92,.44-1.37,.44-1.37,0-2.75-.88-3.66-2.2l-10.07-22.84c-.92-1.76,0-3.95,2.29-4.83,.46,0,.92-.44,1.37-.44,1.37,0,2.75,.88,3.66,2.2l3.66,7.91,2.29,6.15,3.66,8.78c.92,2.2,0,4.39-1.83,4.83Z"/>
      <path class="cls-1" d="M34.52,121.14c.92,1.76,0,3.95-2.29,4.83h0c-1.83,.88-4.12,0-5.04-1.76l-6.41-14.49c-.92-1.76,0-3.95,2.29-4.83h0c1.83-.88,4.12,0,5.04,1.76l6.41,14.49Z"/>
      <path class="cls-1" d="M24.45,121.58c.92,1.76,0,3.95-2.29,4.83h0c-1.83,.88-4.12,0-5.04-1.76l-3.66-8.35c-.92-1.76,0-3.95,2.29-4.83h0c1.83-.88,4.12,0,5.04,1.76l3.66,8.35Z"/>
    </g>
    <g>
      <path class="cls-1" d="M171.43,101.38l-10.07,22.84c-.46,1.32-2.29,2.2-3.66,2.2-.46,0-.92,0-1.37-.44-1.83-.88-2.75-3.07-2.29-4.83l4.12-8.78,2.75-6.15,3.66-7.91c.46-1.32,2.29-2.2,3.66-2.2,.46,0,.92,0,1.37,.44,1.83,.88,2.75,3.07,1.83,4.83Z"/>
      <path class="cls-1" d="M165.48,121.14c-.92,1.76,0,3.95,2.29,4.83h0c1.83,.88,4.12,0,5.04-1.76l6.41-14.49c.92-1.76,0-3.95-2.29-4.83h0c-1.83-.88-4.12,0-5.04,1.76l-6.41,14.49Z"/>
      <path class="cls-1" d="M175.55,121.58c-.92,1.76,0,3.95,2.29,4.83h0c1.83,.88,4.12,0,5.04-1.76l3.66-8.35c.92-1.76,0-3.95-2.29-4.83h0c-1.83-.88-4.12,0-5.04,1.76l-3.66,8.35Z"/>
    </g>
    <path class="cls-1" d="M100,101.38c-16.03,0-32.97,3.07-46.7,7.91,6.41,23.28,26.1,34.26,26.1,34.26,11.9,5.27,20.6-.88,20.6-.88,0,0,8.7,6.15,20.6,.88,0,0,20.15-10.98,26.1-34.26-13.74-4.83-30.68-7.91-46.7-7.91Zm11.9,19.76q-.46,0-.46-.44c-.92-3.95-1.83-7.47-3.21-11.42,0,.44-.46,.88-.46,.88-2.29,7.47-5.04,14.93-7.33,22.4,0,.44-.92,.44-1.37,0-.46-.88-.46-1.76-.92-2.2-1.83-5.27-3.66-10.1-5.04-15.37-.92,2.2-2.29,3.95-3.21,6.15l-.46,.44-10.99-.44,10.99-.44c1.37-2.2,2.29-4.83,3.66-7.03,.46-.44,.92-.44,1.37,0,.46,.88,.46,1.76,.92,2.2,1.83,4.83,3.21,10.1,5.04,14.93,0-.44,.46-.88,.46-1.32,2.29-7.47,5.04-14.93,7.33-22.4,0-.44,.92-.44,1.37,0,1.37,4.39,2.29,8.78,3.66,13.18,3.21,0,6.41,.44,9.62,.44-4.12-.44-7.33,.44-10.99,.44Z"/>
  </g>
</svg>