<?xml version="1.0" encoding="UTF-8"?>
<svg id="Layer_1" data-name="Layer 1" xmlns="http://www.w3.org/2000/svg" xmlns:xlink="http://www.w3.org/1999/xlink" viewBox="0 0 200 200">
  <defs>
    <style>
      .cls-1 {
        fill: #fff;
      }

      .cls-2 {
        fill: url(#linear-gradient);
      }
    </style>
    <linearGradient id="linear-gradient" x1="49.99" y1="186.62" x2="150.2" y2="13.05" gradientUnits="userSpaceOnUse">
      <stop offset="0" stop-color="#0096ff"/>
      <stop offset="0" stop-color="#0040d0"/>
      <stop offset=".91" stop-color="#5c0049"/>
    </linearGradient>
  </defs>
  <circle class="cls-2" cx="100" cy="100" r="100"/>
  <g>
    <g>
      <path class="cls-1" d="M98.91,92.1s12.82,21.72,13.53,38.81c.36,18.16-3.56,47.71-3.56,47.71,0,0,7.83-42.73,19.58-58.04,11.75-14.95,37.39-37.03,37.39-37.03,0,0-31.69,24.57-45.22,23.5-11.39-1.07-21.72-14.95-21.72-14.95Z"/>
      <path class="cls-1" d="M165.85,83.2s-.36,.36,0,0c-.36,.36,0,0,0,0Z"/>
      <path class="cls-1" d="M137.01,104.2c-8.19,5.34-15.31,9.26-21.72,7.12-5.34-2.14-16.02-18.87-16.02-18.87,0,0,12.82,21.72,13.53,38.81,.36,18.16-3.56,47.71-3.56,47.71,0,0,7.83-42.73,19.58-58.04,11.75-14.95,37.39-37.03,37.39-37.03h0c-2.49,1.07-21.36,15.31-29.2,20.3Z"/>
      <path class="cls-1" d="M165.14,83.55c-2.85,2.14-20.65,15.67-28.13,20.65-8.19,5.34-15.31,9.26-21.72,7.12-4.98-1.78-15.31-17.45-16.02-18.87,1.07,1.42,11.39,16.38,16.38,18.52,6.41,2.49,13.53-1.78,21.72-7.12,6.77-4.27,21.36-15.31,26.71-19.23,0,0,.36,0,.36-.36h0l.36-.36s.36,0,.36-.36Z"/>
      <path class="cls-1" d="M164.07,84.62c-5.34,3.92-19.94,14.95-26.71,19.23-8.19,5.34-15.31,9.26-21.72,7.12-4.98-1.78-15.31-17.09-16.38-18.52h0c.71,1.07,10.68,13.53,21.36,14.24,11.75,1.07,36.67-17.09,43.44-22.08Z"/>
      <path class="cls-1" d="M132.03,104.2c2.85-.71,4.98-1.78,7.48-2.49,1.07-.36,1.78-.71,2.85-1.42,8.9-6.41,21.36-15.67,23.14-16.74-1.78,1.42-19.23,14.95-33.47,20.65Z"/>
      <g>
        <path class="cls-1" d="M133.1,81.41c-1.42-1.78-3.56-3.56-6.05-3.92-5.34-1.07-10.68,2.14-11.75,7.48-.71,2.49,0,4.98,1.42,7.12-1.42-2.14-2.14-4.63-1.42-7.48,1.07-5.34,6.41-8.55,11.75-7.48,2.49,.36,4.98,2.14,6.05,4.27Z"/>
        <path class="cls-1" d="M134.52,88.54c-1.07,5.34-6.41,8.55-11.75,7.48-2.49-.36-4.63-2.14-6.05-3.92h0c-.71-1.07-1.07-2.49-1.42-3.56,.36,1.07,.71,2.49,1.42,3.2h0c1.42,1.78,3.56,3.56,6.05,3.92,5.34,1.07,10.68-2.14,11.75-7.12,.36-1.42,.36-2.49,0-3.56,.36,1.07,.36,2.14,0,3.56Z"/>
        <path class="cls-1" d="M134.52,88.18c-1.07,5.34-6.41,8.55-11.75,7.48-2.49-.36-4.63-2.14-6.05-3.92h0c-.71-1.07-1.07-2.14-1.42-3.2h0v-3.56c1.07-5.34,6.41-8.55,11.75-7.48,2.49,.36,4.63,2.14,6.05,3.92h0c.71,1.07,1.07,2.14,1.42,3.56h0c.36,1.07,.36,2.14,0,3.2Z"/>
        <path class="cls-1" d="M134.52,86.4c-.36-.71-.71-1.42-1.07-1.78h0c-1.42-1.78-3.56-3.2-6.05-3.92-5.34-1.07-10.33,2.14-11.39,7.12,0,.71-.36,1.42-.36,1.78-.36-1.42-.71-3.2-.36-4.98,1.07-4.98,6.05-8.19,11.39-7.12,2.49,.36,4.63,1.78,6.05,3.92h0c1.42,1.42,1.78,3.2,1.78,4.98Z"/>
      </g>
      <path class="cls-1" d="M121.7,118.8c-3.56,3.56-6.05,6.77-8.9,11.75v.71c.36,18.16-3.92,47.71-3.92,47.71,0,0,6.77-41.66,19.23-58.04,6.05-7.48,15.31-17.09,23.14-24.57-10.68,6.05-20.3,13.17-29.55,22.43Z"/>
    </g>
    <g>
      <g>
        <path class="cls-1" d="M80.75,54.35c-2.14-1.78-4.63-2.49-7.48-2.49-6.05,.36-10.68,4.98-10.33,10.68,0,2.85,1.42,5.34,3.2,7.12-2.14-1.78-3.56-4.27-3.56-7.48-.36-5.7,4.27-10.68,10.33-10.68,2.85-.36,5.7,.71,7.83,2.85Z"/>
        <path class="cls-1" d="M83.96,61.47c.36,5.7-4.27,10.68-10.33,11.04-2.85,0-5.34-.71-7.48-2.49h0c-1.07-1.42-1.78-2.49-2.49-3.92,.71,1.42,1.42,2.49,2.49,3.2h0c2.14,1.78,4.63,2.49,7.48,2.49,5.7,0,10.33-4.98,10.33-10.33,0-1.42-.36-2.49-.71-3.56,.36,.71,.71,2.14,.71,3.56Z"/>
        <path class="cls-1" d="M83.96,61.12c.36,5.7-4.27,10.68-10.33,11.04-2.85,0-5.34-.71-7.48-2.49h0c-1.07-1.07-1.78-2.14-2.49-3.56h0c-.36-1.07-.71-2.49-.71-3.56-.36-5.7,4.27-10.68,10.33-10.68,2.85,0,5.34,.71,7.48,2.49h0c1.07,1.07,1.78,2.14,2.49,3.2h0c.36,1.07,.71,2.14,.71,3.56Z"/>
        <path class="cls-1" d="M83.25,59.34c-.36-.71-1.07-1.42-1.42-1.78h0c-1.78-1.78-4.63-2.49-7.12-2.49-5.7,.36-10.33,4.98-9.97,10.68,0,.71,0,1.42,.36,2.14-1.07-1.78-1.78-3.56-1.78-5.34-.36-5.7,4.27-10.33,9.97-10.68,2.85,0,5.34,.71,7.12,2.49h0c1.42,1.42,2.49,2.85,2.85,4.98Z"/>
      </g>
      <path class="cls-1" d="M44.08,70.73s24.57,24.21,30.62,44.15c6.05,21.36,10.33,57.33,10.33,57.33,0,0-3.92-53.05,5.34-74.42s32.76-54.83,32.76-54.83c0,0-29.91,38.1-46.29,40.95-13.89,2.49-32.76-13.17-32.76-13.17Z"/>
      <path class="cls-1" d="M90.37,97.79c-9.26,21.72-5.34,74.42-5.34,74.42,0,0-4.27-36.32-10.33-57.33-5.7-19.23-29.2-42.73-30.27-44.15,1.07,1.07,21.01,19.23,29.55,20.3,8.19,1.07,14.95-4.63,18.16-8.55s22.08-27.42,22.08-27.42l8.55-12.11c-1.07,1.42-23.5,34.18-32.4,54.83Z"/>
      <path class="cls-1" d="M64.02,88.89c-3.56-2.85-6.77-6.05-9.61-8.9-3.56-2.85-9.61-8.55-9.97-8.9,1.07,1.07,24.92,24.92,30.27,43.08,6.05,20.3,9.97,54.83,9.97,54.83,0,0-2.49-31.69,1.07-55.19-5.34-9.61-13.17-18.16-21.72-24.92Z"/>
      <path class="cls-1" d="M122.77,42.96l-8.9,12.11s-19.23,23.5-22.08,27.42c-3.2,3.92-9.97,9.61-18.16,8.55s-26.71-17.8-29.2-19.94c2.85,2.49,21.01,18.87,29.2,19.58,8.19,1.07,14.95-4.63,18.16-8.55,3.2-3.92,22.08-27.42,22.08-27.42l8.9-11.75Z"/>
      <path class="cls-1" d="M122.77,42.96h0l-8.9,11.75s-19.23,23.5-22.08,27.42c-3.2,3.92-9.97,9.61-18.16,8.55-8.19-.71-26.35-17.09-29.2-19.58l-.36-.36h0c.36,.36,18.87,15.31,32.4,13.17,15.31-2.49,42.02-35.61,45.93-40.24,0-.36,.36-.36,.36-.71,0,.36,0,0,0,0h0Z"/>
      <path class="cls-1" d="M122.77,43.32h0l-.36,.36c-3.56,4.27-27.42,33.11-40.24,38.46,6.41-.36,13.17-6.05,15.67-8.55s16.74-19.58,16.74-19.58l8.19-10.68Z"/>
    </g>
  </g>
</svg>