<?xml version="1.0" encoding="UTF-8"?>
<svg id="Layer_1" data-name="Layer 1" xmlns="http://www.w3.org/2000/svg" xmlns:xlink="http://www.w3.org/1999/xlink" viewBox="0 0 200 200">
  <defs>
    <style>
      .cls-1 {
        fill: #64bb47;
        fill-rule: evenodd;
      }

      .cls-2 {
        fill: #fff;
      }

      .cls-3 {
        fill: #be1e2d;
      }

      .cls-4 {
        fill: #686676;
      }

      .cls-5 {
        fill: #afacc6;
      }

      .cls-6 {
        fill: #ec1c24;
      }

      .cls-7 {
        fill: #59ba65;
      }

      .cls-8 {
        fill: url(#linear-gradient);
      }
    </style>
    <linearGradient id="linear-gradient" x1="49.99" y1="186.62" x2="150.2" y2="13.05" gradientUnits="userSpaceOnUse">
      <stop offset="0" stop-color="#0096ff"/>
      <stop offset="0" stop-color="#0040d0"/>
      <stop offset=".91" stop-color="#5c0049"/>
    </linearGradient>
  </defs>
  <g>
    <path class="cls-6" d="M137.74,110.97c-11.39-3.92-24.92-6.41-37.39-6.41s-26.35,2.49-37.39,6.41c-1.07-7.12-.36-15.31,2.49-24.57,1.42-4.63,3.92-10.68,16.38-9.61,2.49,.36,5.34,.71,8.9,3.56,2.14,1.78,4.63,4.63,9.61,4.98h0c.71,0,1.78-.36,2.49-.36,3.2-1.07,5.7-3.2,7.12-4.27,3.56-2.85,6.41-3.2,8.9-3.56,12.46-1.42,14.95,4.98,16.38,9.61,2.85,8.9,3.2,17.09,2.49,24.21Z"/>
    <path class="cls-7" d="M102.49,83.91c-.71,.36-1.42,.36-2.49,.36h0c-4.27-11.04-13.89-15.31-18.87-20.65-2.14-2.49,1.07-2.85,1.78-2.85,13.17,4.27,17.8,14.95,19.58,23.14Z"/>
    <path class="cls-1" d="M118.16,58.27c-7.83,4.98-18.52,3.56-17.8,14.24,4.63-9.61,11.04-7.48,17.09-12.46,0,6.05-4.98,13.89-12.82,13.53,2.49-1.42,7.12-3.2,10.68-11.04-4.98,7.12-10.68,9.97-15.31,11.39,3.2,1.78,6.41,2.49,8.9,1.78q.36,0,.71-.36h.36c3.2-1.07,5.7-3.56,7.12-7.12,.71-2.49,1.42-6.05,1.07-9.97Z"/>
    <path class="cls-5" d="M147.36,115.6l-2.14,4.98c-2.49-1.42-5.7-2.49-8.55-3.92-11.04-3.92-24.21-6.41-36.32-6.41s-25.99,2.85-36.67,6.77c-3.2,1.07-6.05,2.49-8.9,3.92l-2.14-4.98c2.85-1.42,6.41-2.85,9.97-4.27,11.39-3.92,24.92-6.41,37.39-6.41s26.35,2.49,37.39,6.41c3.56,1.07,7.12,2.49,9.97,3.92Z"/>
    <g>
      <path class="cls-4" d="M56.2,131.62c-.36,0-.71,.36-1.07,.36-1.07,0-2.14-.71-2.85-1.78l-7.83-18.52c-.71-1.42,0-3.2,1.78-3.92,.36,0,.71-.36,1.07-.36,1.07,0,2.14,.71,2.85,1.78l2.85,6.41,1.78,4.98,2.85,7.12c.71,1.78,0,3.56-1.42,3.92Z"/>
      <path class="cls-4" d="M49.08,127.35c.71,1.42,0,3.2-1.78,3.92h0c-1.42,.71-3.2,0-3.92-1.42l-4.98-11.75c-.71-1.42,0-3.2,1.78-3.92h0c1.42-.71,3.2,0,3.92,1.42l4.98,11.75Z"/>
      <path class="cls-4" d="M41.25,127.7c.71,1.42,0,3.2-1.78,3.92h0c-1.42,.71-3.2,0-3.92-1.42l-2.85-6.77c-.71-1.42,0-3.2,1.78-3.92h0c1.42-.71,3.2,0,3.92,1.42l2.85,6.77Z"/>
    </g>
    <g>
      <path class="cls-4" d="M155.55,111.32l-7.83,18.52c-.36,1.07-1.78,1.78-2.85,1.78-.36,0-.71,0-1.07-.36-1.42-.71-2.14-2.49-1.78-3.92l3.2-7.12,2.14-4.98,2.85-6.41c.36-1.07,1.78-1.78,2.85-1.78,.36,0,.71,0,1.07,.36,1.42,.71,2.14,2.49,1.42,3.92Z"/>
      <path class="cls-4" d="M150.92,127.35c-.71,1.42,0,3.2,1.78,3.92h0c1.42,.71,3.2,0,3.92-1.42l4.98-11.75c.71-1.42,0-3.2-1.78-3.92h0c-1.42-.71-3.2,0-3.92,1.42l-4.98,11.75Z"/>
      <path class="cls-4" d="M158.75,127.7c-.71,1.42,0,3.2,1.78,3.92h0c1.42,.71,3.2,0,3.92-1.42l2.85-6.77c.71-1.42,0-3.2-1.78-3.92h0c-1.42-.71-3.2,0-3.92,1.42l-2.85,6.77Z"/>
    </g>
    <path class="cls-3" d="M100,111.32c-12.46,0-25.64,2.49-36.32,6.41,4.98,18.87,20.3,27.77,20.3,27.77,9.26,4.27,16.02-.71,16.02-.71,0,0,6.77,4.98,16.02,.71,0,0,15.67-8.9,20.3-27.77-10.68-3.92-23.86-6.41-36.32-6.41Zm9.26,16.02q-.36,0-.36-.36c-.71-3.2-1.42-6.05-2.49-9.26,0,.36-.36,.71-.36,.71-1.78,6.05-3.92,12.11-5.7,18.16,0,.36-.71,.36-1.07,0-.36-.71-.36-1.42-.71-1.78-1.42-4.27-2.85-8.19-3.92-12.46-.71,1.78-1.78,3.2-2.49,4.98l-.36,.36-8.55-.36,8.55-.36c1.07-1.78,1.78-3.92,2.85-5.7,.36-.36,.71-.36,1.07,0,.36,.71,.36,1.42,.71,1.78,1.42,3.92,2.49,8.19,3.92,12.11,0-.36,.36-.71,.36-1.07,1.78-6.05,3.92-12.11,5.7-18.16,0-.36,.71-.36,1.07,0,1.07,3.56,1.78,7.12,2.85,10.68,2.49,0,4.98,.36,7.48,.36-3.2-.36-5.7,.36-8.55,.36Z"/>
  </g>
  <circle class="cls-8" cx="100" cy="100" r="100"/>
  <path class="cls-2" d="M98.96,161.15c.36,0,.71,.36,1.07,.36s.71,0,1.07-.36c13.89-7.12,39.17-23.14,51.63-51.63,6.05-13.89,8.55-29.55,6.41-44.51,0-.71-1.07-1.42-2.14-1.78-11.04-.71-21.72-3.2-31.33-7.48-9.26-4.27-17.8-9.97-24.21-16.74-.71-.71-2.49-.71-3.2,0-6.41,6.77-14.95,12.82-24.21,16.74-9.61,4.27-20.3,6.77-31.33,7.48-.71,.36-1.78,.71-1.78,1.78-2.14,15.31,0,30.62,6.41,44.51,12.46,28.49,37.74,44.51,51.63,51.63Zm-9.61-67.65c1.78,0,3.56-1.42,3.56-2.85v-17.09h14.6v17.09c0,1.78,1.42,2.85,3.56,2.85h19.94v12.46h-19.94c-1.78,0-3.56,1.42-3.56,2.85v17.09h-14.6v-17.09c0-1.78-1.42-2.85-3.56-2.85h-19.94v-12.46h19.94Z"/>
</svg>