<?xml version="1.0" encoding="UTF-8"?>
<svg id="Layer_1" data-name="Layer 1" xmlns="http://www.w3.org/2000/svg" xmlns:xlink="http://www.w3.org/1999/xlink" viewBox="0 0 200 200">
  <defs>
    <style>
      .cls-1 {
        fill: #fff;
      }

      .cls-2 {
        fill: url(#linear-gradient);
      }
    </style>
    <linearGradient id="linear-gradient" x1="49.99" y1="186.62" x2="150.2" y2="13.05" gradientUnits="userSpaceOnUse">
      <stop offset="0" stop-color="#0096ff"/>
      <stop offset="0" stop-color="#0040d0"/>
      <stop offset=".91" stop-color="#5c0049"/>
    </linearGradient>
  </defs>
  <circle class="cls-2" cx="100" cy="100" r="100"/>
  <path class="cls-1" d="M153.14,116.12c0,1.42-.36,2.85-.36,4.27-1.78,21.36-11.04,42.02-39.88,41.66-3.92,0-8.55-.36-13.53-1.42,0,0,2.14-5.7,6.77-13.53,1.42-2.49,3.2-5.7,5.34-8.55,6.41-9.26,14.95-18.52,26.35-23.5-7.48,1.42-14.24,4.98-19.94,9.61-10.68,9.26-18.52,21.72-21.72,28.49-1.42,2.14-1.78,3.92-1.78,3.92-.71-3.2-1.42-7.48-1.78-12.46-.36-13.17,3.56-30.27,25.28-43.44,.71-.36,1.42-1.07,2.14-1.42,21.01-12.82,26.35-21.72,27.06-25.64,0-.36,.36-.36,.36-.36,0,0,.36,0,.36,.36,2.14,5.7,6.41,23.86,5.34,42.02Z"/>
  <path class="cls-1" d="M117.18,94.4c-1.07,.71-2.14,1.42-3.2,1.78-14.24,8.55-23.14,19.58-26.35,33.11-.36,1.42-.36,2.85-.71,4.27-4.63-15.31-8.55-36.32-4.27-56.97-16.38,35.96,5.7,82.61,5.7,82.61-11.75-4.63-38.81-19.23-32.4-69.08,4.63-37.39,0-50.56-2.49-54.83-.36-.71,0-1.42,.71-1.07,6.41,2.49,25.28,11.04,40.95,25.28,1.42,1.07,2.49,2.14,3.92,3.56,8.19,8.55,15.67,19.23,18.16,31.33Z"/>
</svg>